<?xml version="1.0" standalone="no"?>
<!DOCTYPE svg PUBLIC "-//W3C//DTD SVG 1.1//EN" "http://www.w3.org/Graphics/SVG/1.1/DTD/svg11.dtd" >
<svg xmlns="http://www.w3.org/2000/svg" xmlns:xlink="http://www.w3.org/1999/xlink" version="1.1">
<metadata>
Created by FontForge 20170731 at Fri Mar 29 22:15:50 2013
 By Aleksey,,,
Copyright (c) 1995 ParaGraph Intl., (c) 1998 ParaType Inc., ParaType Ltd. All rights reserved.
</metadata>
<defs>
<font id="FuturaPTCond-BookObl" horiz-adv-x="493" >
  <font-face 
    font-family="Futura PT Cond Book Italic"
    font-weight="400"
    font-style="italic"
    font-stretch="condensed"
    units-per-em="1000"
    panose-1="2 11 4 6 2 2 4 9 2 3"
    ascent="763"
    descent="-237"
    x-height="447"
    cap-height="667"
    bbox="-172 -250 757 903"
    underline-thickness="50"
    underline-position="-250"
    slope="-7"
    unicode-range="U+0020-FB02"
  />
<missing-glyph horiz-adv-x="233" 
 />
    <glyph glyph-name="afii10017.var.accented" unicode="&#x410;`" horiz-adv-x="320" 
d="M291 0h-65l-8 137h-139l-41 -137h-65l211 667h58zM215 191l-14 235q-3 40 -3 80q0 38 3 77q-8 -47 -22 -103t-24 -91t-31 -104.5t-28 -93.5h119zM320 817l-126 -103l-32 26l110 120z" />
    <glyph glyph-name="afii10022.var.accented" unicode="&#x415;`" horiz-adv-x="297" 
d="M313 667l-7 -57h-144l-29 -235h140l-6 -57h-141l-32 -261h144l-7 -57h-205l82 667h205zM309 817l-126 -103l-32 26l110 120z" />
    <glyph glyph-name="afii10026.var.accented" unicode="&#x418;`" horiz-adv-x="392" 
d="M26 0l82 667h62l-55 -444q-5 -40 -17 -87q9 21 16.5 40t11 27t6.5 14l198 450h62l-82 -667h-62l53 426q7 56 19 105q-17 -44 -39 -94l-193 -437h-62zM356 817l-126 -103l-32 26l110 120z" />
    <glyph glyph-name="afii10032.var.accented" unicode="&#x41e;`" horiz-adv-x="398" 
d="M382 477q0 -192 -47 -330q-51 -156 -165 -156q-128 0 -128 215q0 47 4.5 99.5t18.5 121t36 122t62 90.5t91 37q128 0 128 -199zM321 482q0 134 -73 134q-46 0 -76 -52q-34 -57 -51 -169t-17 -204q0 -140 73 -140q50 0 81 58q29 54 46 171t17 202zM359 817l-126 -103
l-32 26l110 120z" />
    <glyph glyph-name="afii10037.var.accented" unicode="&#x423;`" horiz-adv-x="331" 
d="M55 667h68l42 -205q18 -87 25 -154q16 64 55 163l76 196h62l-249 -667h-60l78 221zM326 817l-126 -103l-32 26l110 120z" />
    <glyph glyph-name="afii10045.var.accented" unicode="&#x42b;`" horiz-adv-x="482" 
d="M400 0h-62l82 667h62zM134 378h28q74 0 113 -39q37 -37 37 -111q0 -139 -65 -193q-41 -35 -112 -35h-109l82 667h62zM95 53h33q48 0 75 23q46 39 46 148q0 53 -26 77q-22 20 -73 20h-23zM401 817l-126 -103l-32 26l110 120z" />
    <glyph glyph-name="afii10047.var.accented" unicode="&#x42d;`" horiz-adv-x="362" 
d="M10 28l11 83q13 -26 36 -43t51 -17q38 0 68 30q33 33 58 103q24 67 33 134h-163l7 57h163q6 56 -1.5 119t-34.5 93q-26 29 -66 29q-28 0 -51 -15q-18 -12 -37 -33l10 83q38 25 86 25q63 0 105 -42q57 -59 57 -195q0 -150 -46 -277q-31 -87 -78 -129q-46 -42 -114 -42
q-55 0 -94 37zM301 817l-126 -103l-32 26l110 120z" />
    <glyph glyph-name="afii10048.var.accented" unicode="&#x42e;`" horiz-adv-x="548" 
d="M136 401h80q27 168 95 234q41 41 97 41q47 0 79 -33q28 -30 36.5 -72.5t8.5 -104.5q0 -104 -21 -226q-24 -142 -84 -205q-43 -44 -99 -44q-53 0 -86 38q-43 51 -43 176q0 73 9 139h-79l-42 -344h-61l82 667h61zM400 616q-28 0 -51 -24q-35 -38 -58 -132
q-30 -120 -30 -263q0 -95 28 -127q17 -19 45 -19q29 0 53 27q46 52 67 199q17 123 17 207q0 87 -29 116q-16 16 -42 16zM434 817l-126 -103l-32 26l110 120z" />
    <glyph glyph-name="afii10049.var.accented" unicode="&#x42f;`" horiz-adv-x="374" 
d="M0 0l187 314q-45 8 -74 38q-35 37 -35 108q0 114 61 168q44 39 138 39h97l-82 -667h-68l39 320l-187 -320h-76zM269 369l30 241h-36q-50 0 -75 -22q-43 -37 -43 -126q0 -49 24 -71q23 -22 73 -22h27zM347 817l-126 -103l-32 26l110 120z" />
    <glyph glyph-name="afii10023.var.accented" unicode="&#x401;`" horiz-adv-x="297" 
d="M313 667l-7 -57h-144l-29 -235h140l-6 -57h-141l-32 -261h144l-7 -57h-205l82 667h205zM291 828l-111 -103l-20 15l95 120zM158 776q0 -16 -11.5 -27.5t-27.5 -11.5q-13 0 -21.5 9t-8.5 22q0 15 12 27t27 12q13 0 21.5 -9t8.5 -22zM333 776q0 -16 -12 -27.5t-27 -11.5
q-13 0 -21.5 9t-8.5 22q0 15 11.5 27t26.5 12q14 0 22.5 -8.5t8.5 -22.5z" />
    <glyph glyph-name="afii10065.var.accented" unicode="&#x430;`" horiz-adv-x="322" 
d="M300 447l-55 -447h-55l4 36q-38 -43 -81 -43q-82 0 -82 120q0 70 13 157.5t39 130.5q33 53 93 53q41 0 65 -37l4 30h55zM231 327q0 82 -48 82q-32 0 -53 -37q-20 -36 -31 -113.5t-11 -134.5q0 -85 48 -85q19 0 32.5 9.5t21.5 27.5t11.5 32t7.5 34q22 112 22 185zM323 610
l-126 -103l-32 26l110 120z" />
    <glyph glyph-name="afii10070.var.accented" unicode="&#x435;`" horiz-adv-x="308" 
d="M207 152h56q-10 -66 -41 -112.5t-90 -46.5q-104 0 -104 160q0 66 13 124q8 41 24 78t48 68t72 31q96 0 96 -155q0 -41 -8 -87h-185q-5 -33 -5 -59q0 -107 54 -107q18 0 31 10t20.5 29.5t11 33t7.5 33.5zM94 260h131q2 32 2 51q0 91 -47 91q-63 0 -86 -142zM316 610
l-126 -103l-32 26l110 120z" />
    <glyph glyph-name="afii10074.var.accented" unicode="&#x438;`" horiz-adv-x="331" 
d="M254 0h-56l33 274q3 31 10 62q-13 -37 -29 -67l-135 -269h-56l55 447h56l-33 -271q-5 -39 -12 -69q18 42 30 66l136 274h56zM328 610l-126 -103l-32 26l110 120z" />
    <glyph glyph-name="afii10080.var.accented" unicode="&#x43e;`" horiz-adv-x="318" 
d="M290 328v-17q0 -47 -6 -93.5t-21 -101.5t-48.5 -89t-81.5 -34q-105 0 -105 162q0 43 7 89.5t23.5 96t50.5 81.5t80 32q51 0 76 -36.5t25 -89.5zM232 298q0 104 -50 104q-29 0 -49.5 -30.5t-30 -76.5t-13.5 -83t-4 -65q0 -101 53 -101q28 0 48 30t29 75.5t13 82t4 64.5z
M321 610l-126 -103l-32 26l110 120z" />
    <glyph glyph-name="afii10085.var.accented" unicode="&#x443;`" horiz-adv-x="291" 
d="M312 447l-232 -627h-59l71 192l-52 435h57l25 -248q6 -55 6 -112q6 20 35 103l91 257h58zM305 610l-126 -103l-32 26l110 120z" />
    <glyph glyph-name="afii10093.var.accented" unicode="&#x44b;`" horiz-adv-x="422" 
d="M347 0h-56l55 447h56zM21 0l55 447h56l-21 -175h13q79 0 111 -34q28 -30 28 -84q0 -78 -42 -118q-38 -36 -121 -36h-79zM84 52h29q43 0 65 21q26 26 26 77q0 35 -18 53q-18 17 -62 17h-20zM374 610l-126 -103l-32 26l110 120z" />
    <glyph glyph-name="afii10095.var.accented" unicode="&#x44d;`" horiz-adv-x="276" 
d="M10 29l9 70q9 -22 25 -36q18 -17 44 -17q25 0 46 21q41 39 52 142h-114l7 52h113q3 36 -4.5 71t-22.5 52q-16 18 -45 18q-20 0 -36 -12q-16 -11 -29 -29l9 75q29 18 65 18q49 0 79 -30q43 -43 43 -141q0 -72 -15 -135q-18 -77 -61 -119q-36 -36 -88 -36q-49 0 -77 36z
M250 610l-126 -103l-32 26l110 120z" />
    <glyph glyph-name="afii10096.var.accented" unicode="&#x44e;`" horiz-adv-x="439" 
d="M109 261h56q16 109 65 160q32 33 80 33q41 0 66 -25q35 -34 35 -118q0 -91 -16 -159q-18 -83 -60 -125q-34 -34 -79 -34q-42 0 -68 28q-45 52 -31 188h-54l-26 -209h-56l55 447h56zM304 402q-20 0 -35 -14q-28 -26 -45 -110q-14 -70 -14 -133q0 -53 14 -77q12 -22 36 -22
q21 0 37 17q29 31 43 105q13 72 13 141q0 54 -17 77q-12 16 -32 16zM383 610l-126 -103l-32 26l110 120z" />
    <glyph glyph-name="afii10097.var.accented" unicode="&#x44f;`" horiz-adv-x="303" 
d="M0 0l134 187q-40 8 -63 29q-30 28 -30 79q0 77 44 118q36 34 109 34h89l-55 -447h-56l22 182l-124 -182h-70zM200 234l20 161h-30q-41 0 -62 -19q-27 -24 -27 -71q0 -41 24 -57q20 -14 57 -14h18zM314 610l-126 -103l-32 26l110 120z" />
    <glyph glyph-name="afii10071.var.accented" unicode="&#x451;`" horiz-adv-x="308" 
d="M207 152h56q-10 -66 -41 -112.5t-90 -46.5q-104 0 -104 160q0 66 13 124q8 41 24 78t48 68t72 31q96 0 96 -155q0 -41 -8 -87h-185q-5 -33 -5 -59q0 -107 54 -107q18 0 31 10t20.5 29.5t11 33t7.5 33.5zM94 260h131q2 32 2 51q0 91 -47 91q-63 0 -86 -142zM273 617
l-107 -103l-25 19l91 120zM139 568q0 -17 -12.5 -29.5t-29.5 -12.5q-14 0 -23 9.5t-9 23.5q0 16 12.5 28.5t28.5 12.5q14 0 23.5 -9t9.5 -23zM321 568q0 -17 -12.5 -29.5t-29.5 -12.5q-13 0 -22.5 9.5t-9.5 23.5q0 16 12.5 28.5t28.5 12.5q14 0 23.5 -9t9.5 -23z" />
    <glyph glyph-name="fi" unicode="fi" horiz-adv-x="344" 
d="M261 730l-7 -62q-22 20 -38 20t-26 -11t-12 -20.5t-5 -29.5l-24 -180h76l-7 -52h-75l-49 -395h-56l49 395h-51l7 52h51l22 179q14 114 98 114q26 0 47 -10zM352 593q0 -19 -14 -33t-33 -14q-16 0 -26.5 10.5t-10.5 25.5q0 20 14 34t34 14q15 0 25.5 -10.5t10.5 -26.5z
M320 447l-54 -447h-56l55 447h55z" />
    <glyph glyph-name="fl" unicode="fl" horiz-adv-x="344" 
d="M261 730l-7 -62q-22 20 -38 20t-26 -11t-12 -20.5t-5 -29.5l-24 -180h76l-7 -52h-75l-49 -395h-56l49 395h-51l7 52h51l22 179q14 114 98 114q26 0 47 -10zM355 729l-89 -729h-56l90 729h55z" />
    <glyph glyph-name=".notdef" horiz-adv-x="233" 
 />
    <glyph glyph-name=".null" horiz-adv-x="0" 
 />
    <glyph glyph-name="nonmarkingreturn" horiz-adv-x="333" 
 />
    <glyph glyph-name="space" unicode=" " horiz-adv-x="233" 
 />
    <glyph glyph-name="exclam" unicode="!" horiz-adv-x="233" 
d="M200 667l-62 -500h-59l62 500h59zM138 44q0 -20 -15 -35.5t-35 -15.5q-17 0 -28 11.5t-11 28.5q0 20 15 35t35 15q17 0 28 -11.5t11 -27.5z" />
    <glyph glyph-name="quotedbl" unicode="&#x22;" horiz-adv-x="302" 
d="M288 667l-10 -269h-41l-9 269h60zM159 667l-9 -269h-41l-10 269h60z" />
    <glyph glyph-name="numbersign" unicode="#" horiz-adv-x="600" 
d="M597 465l-14 -51h-111l-41 -149h112l-14 -50h-113l-58 -215h-57l59 215h-150l-59 -215h-56l59 215h-115l14 50h115l41 149h-115l14 51h115l55 202h56l-55 -202h150l55 202h57l-56 -202h112zM415 414h-150l-41 -149h151z" />
    <glyph glyph-name="dollar" unicode="$" horiz-adv-x="366" 
d="M352 636l-36 -47q-43 30 -83 30q-49 0 -79.5 -34.5t-30.5 -84.5q0 -37 15 -64.5t38 -43.5t49 -34t49 -35.5t38 -49t15 -72.5q0 -77 -42.5 -136t-110.5 -71l-11 -85h-47l10 83q-37 6 -58.5 18t-45.5 39l41 43q48 -44 90 -44q50 0 83 41.5t33 98.5q0 34 -14 59
q-4 6 -9.5 12.5t-11 11.5t-14.5 12t-14 10.5t-15 10t-13 8.5q-41 28 -60.5 45t-36 50.5t-16.5 78.5q0 70 36.5 120.5t104.5 66.5l9 78h48l-9 -76q52 -3 98 -39z" />
    <glyph glyph-name="percent" unicode="%" horiz-adv-x="511" 
d="M477 667l-371 -667h-46l371 667h46zM173 629q-16 0 -26 -10q-14 -13 -27 -93q-11 -69 -11 -101q0 -27 7 -40q8 -14 26 -14t29 17q14 21 24 94q9 63 9 103q0 24 -9 34q-8 10 -22 10zM249 576q0 -51 -11 -115q-13 -80 -40 -109q-23 -23 -59 -23t-55 20q-21 23 -21 74
q0 50 14 127q12 73 39 98q25 23 62 23q31 0 50 -19q21 -21 21 -76zM392 295q-16 0 -26 -10q-14 -13 -27 -93q-11 -69 -11 -101q0 -27 7 -40q8 -14 26 -14t29 17q14 22 24 94q9 63 9 103q0 24 -9 34q-8 10 -22 10zM468 242q0 -51 -11 -115q-13 -80 -40 -109q-23 -23 -59 -23
t-55 20q-21 23 -21 74q0 50 14 127q12 73 39 98q25 23 62 23q31 0 50 -19q21 -21 21 -76z" />
    <glyph glyph-name="ampersand" unicode="&#x26;" horiz-adv-x="437" 
d="M376 192l35 -42q-31 -36 -66 -69l30 -81h-64l-15 37q-54 -46 -115 -46q-62 0 -99.5 45t-37.5 109q0 120 122 219q-41 97 -41 162q0 60 44 105t104 45q47 0 75.5 -30.5t28.5 -77.5q0 -46 -24 -89.5t-50 -69t-66 -55.5l87 -218q18 18 52 56zM319 561q0 26 -14.5 43
t-39.5 17q-37 0 -59.5 -27t-22.5 -65q0 -54 32 -128q103 77 104 160zM274 90l-87 220q-86 -82 -86 -154q0 -42 22 -73.5t62 -31.5q41 0 89 39z" />
    <glyph glyph-name="quotesingle" unicode="'" horiz-adv-x="174" 
d="M159 667l-9 -269h-41l-10 269h60z" />
    <glyph glyph-name="parenleft" unicode="(" horiz-adv-x="257" 
d="M232 737l45 -23q-169 -294 -169 -541q0 -160 62 -331l-51 -23q-67 155 -67 348q0 146 48 295.5t132 274.5z" />
    <glyph glyph-name="parenright" unicode=")" horiz-adv-x="257" 
d="M99 714l51 23q67 -155 67 -347q0 -146 -48 -296.5t-132 -274.5l-45 23q169 294 169 542q0 167 -62 330z" />
    <glyph glyph-name="asterisk" unicode="*" horiz-adv-x="361" 
d="M367 596l-116 -23l57 -105l-30 -17l-57 104l-80 -87l-26 24l80 88l-106 50l15 32l106 -50l15 118l34 -4l-14 -118l115 23z" />
    <glyph glyph-name="plus" unicode="+" horiz-adv-x="500" 
d="M479 305h-189v-176h-55v176h-189v52h189v176h55v-176h189v-52z" />
    <glyph glyph-name="comma" unicode="," horiz-adv-x="174" 
d="M114 55l-111 -197l-40 20l93 205z" />
    <glyph glyph-name="hyphen" unicode="-" horiz-adv-x="238" 
d="M189 233h-138l7 58h138z" />
    <glyph glyph-name="period" unicode="." horiz-adv-x="174" 
d="M108 44q0 -20 -15 -35.5t-35 -15.5q-39 0 -39 45q0 17 16.5 31t33.5 14t28 -11t11 -28z" />
    <glyph glyph-name="slash" unicode="/" horiz-adv-x="402" 
d="M490 729l-495 -902h-57l496 902h56z" />
    <glyph glyph-name="zero" unicode="0" horiz-adv-x="366" 
d="M356 504q0 -46 -4 -102t-17 -132t-34 -135.5t-59.5 -101.5t-88.5 -42q-114 0 -114 201q0 45 4.5 99.5t19 125t36.5 126t61 94.5t89 39q107 0 107 -172zM297 503q0 116 -58 116q-39 0 -69 -53t-44 -128.5t-21 -137.5t-7 -101q0 -151 66 -151q38 0 63 50q31 61 50.5 188.5
t19.5 216.5z" />
    <glyph glyph-name="one" unicode="1" horiz-adv-x="366" 
d="M277 667l-82 -667h-61l75 609h-85l8 58h145z" />
    <glyph glyph-name="two" unicode="2" horiz-adv-x="366" 
d="M141 485h-60q7 54 20.5 92.5t48 68.5t87.5 30q56 0 87 -33.5t31 -89.5q0 -46 -20 -102t-40 -91t-55 -91l-131 -210h179l-7 -59h-269l177 295q104 170 104 253q0 32 -14.5 51.5t-45.5 19.5q-80 0 -92 -134z" />
    <glyph glyph-name="three" unicode="3" horiz-adv-x="366" 
d="M144 511h-57q9 71 44.5 118t101.5 47q53 0 83.5 -31.5t30.5 -85.5q0 -147 -96 -190q38 -17 51 -50t13 -82q0 -45 -7.5 -84.5t-24.5 -78t-51 -61t-81 -22.5q-118 0 -118 128q0 22 6 64h60q0 -6 -2 -24.5t-2 -28.5q0 -79 64 -79q39 0 62 32q16 23 25.5 67.5t9.5 80.5
q0 107 -95 107h-29l7 55h13q68 0 97 29q19 19 28.5 54.5t9.5 68.5q0 71 -62 71q-42 0 -58.5 -28.5t-22.5 -76.5z" />
    <glyph glyph-name="four" unicode="4" horiz-adv-x="366" 
d="M326 667l-53 -431h49l-6 -57h-50l-22 -179h-60l22 179h-173l8 63l225 425h60zM213 236l26 210q3 27 22 123q-18 -48 -52 -115l-111 -218h115z" />
    <glyph glyph-name="five" unicode="5" horiz-adv-x="366" 
d="M351 667l-7 -58h-142l-49 -204q18 3 36 3q66 0 96 -48.5t30 -118.5q0 -58 -18 -113t-61 -96t-103 -41q-63 0 -107 31l24 61q40 -32 85 -32q41 0 69 33t38.5 72t10.5 77q0 115 -106 115q-37 0 -70 -12l78 331h196z" />
    <glyph glyph-name="six" unicode="6" horiz-adv-x="366" 
d="M317 667l-111 -209q-7 -14 -23 -39.5t-33 -63.5q31 23 68 23q34 0 58 -22q40 -38 40 -125q0 -139 -63 -201q-39 -39 -98 -39q-45 0 -73 26q-42 37 -42 130q0 80 25 154q19 56 68 147l120 219h64zM99 144q0 -99 67 -99q27 0 46 19q21 21 33.5 72.5t12.5 95.5q0 56 -25 79
q-14 14 -39 14q-26 0 -48 -22q-23 -22 -35 -68t-12 -91z" />
    <glyph glyph-name="seven" unicode="7" horiz-adv-x="366" 
d="M381 667l-284 -667h-64l260 609h-189l7 58h270z" />
    <glyph glyph-name="eight" unicode="8" horiz-adv-x="366" 
d="M352 547q0 -128 -88 -178q33 -20 44.5 -50.5t11.5 -74.5t-8.5 -85.5t-26.5 -80.5t-53 -63t-82 -24q-59 0 -86 40t-27 102q0 76 25 144.5t83 91.5q-53 36 -53 111q0 78 40 137t115 59q105 0 105 -129zM293 539q0 80 -59 80q-25 0 -42 -14t-25.5 -37t-11.5 -45t-3 -45
q0 -81 56 -81q45 0 65 45t20 97zM262 242q0 99 -64 99q-29 0 -50 -21t-31.5 -54t-15 -63t-4.5 -57q0 -98 63 -98q34 0 57 26q22 25 33.5 75t11.5 93z" />
    <glyph glyph-name="nine" unicode="9" horiz-adv-x="366" 
d="M75 0l167 312q-35 -23 -68 -23q-52 0 -75 42t-23 99q0 43 7 82.5t23.5 78t49.5 62t79 23.5q62 0 90 -40.5t28 -105.5q0 -127 -86 -288l-128 -242h-64zM293 523q0 100 -66 100q-28 0 -47.5 -21t-28.5 -54t-12.5 -61.5t-3.5 -54.5q0 -36 14.5 -63t47.5 -27q27 0 47.5 19.5
t30 50t14 58.5t4.5 53z" />
    <glyph glyph-name="colon" unicode=":" horiz-adv-x="174" 
d="M155 415q0 -20 -15 -35.5t-35 -15.5q-17 0 -28.5 11.5t-11.5 28.5q0 19 15.5 34.5t35.5 15.5q16 0 27.5 -11t11.5 -28zM108 44q0 -20 -15 -35.5t-35 -15.5q-39 0 -39 45q0 17 16.5 31t33.5 14t28 -11t11 -28z" />
    <glyph glyph-name="semicolon" unicode=";" horiz-adv-x="174" 
d="M158 414q0 -20 -15 -35t-35 -15q-39 0 -39 45q0 17 16 31t34 14q17 0 28 -11.5t11 -28.5zM114 55l-111 -197l-40 20l93 205z" />
    <glyph glyph-name="less" unicode="&#x3c;" horiz-adv-x="500" 
d="M467 107l-433 198v49l433 197v-56l-374 -166l374 -167v-55z" />
    <glyph glyph-name="equal" unicode="=" horiz-adv-x="500" 
d="M481 391h-434v49h434v-49zM481 245h-434v49h434v-49z" />
    <glyph glyph-name="greater" unicode="&#x3e;" horiz-adv-x="500" 
d="M491 304l-433 -197v56l374 166l-374 167v55l433 -198v-49z" />
    <glyph glyph-name="question" unicode="?" horiz-adv-x="327" 
d="M86 498l5 47q6 61 38.5 96t91.5 35q46 0 70 -25t24 -71q0 -29 -5 -66q-4 -33 -8 -54t-13.5 -48t-23 -43.5t-37.5 -28.5t-55 -13l-20 -160h-58l26 214h42q31 0 47 11t25 41q19 62 19 133q0 56 -42 56q-10 0 -18 -2.5t-14.5 -8.5t-11 -11.5t-8 -15t-6 -16.5t-4.5 -19
t-2.5 -17.5t-2 -18t-1.5 -15.5h-58zM156 44q0 -20 -15.5 -35.5t-35.5 -15.5q-17 0 -28 11.5t-11 28.5q0 19 15 34.5t35 15.5q17 0 28.5 -11t11.5 -28z" />
    <glyph glyph-name="at" unicode="@" horiz-adv-x="733" 
d="M589 77l8 -37q-114 -53 -235 -53q-143 0 -231 80.5t-88 221.5q0 157 116.5 271.5t273.5 114.5q121 0 201.5 -70t80.5 -190q0 -74 -37 -148q-26 -50 -67.5 -88t-89.5 -38q-26 0 -44.5 16.5t-18.5 42.5v12q-56 -74 -134 -74q-57 0 -89 39t-32 97q0 86 58.5 158t142.5 72
q86 0 104 -84l23 71h41l-68 -216q-13 -39 -13 -55q0 -43 37 -43q36 0 73 39q35 37 55 90t20 106q0 104 -70.5 164t-176.5 60q-140 0 -242.5 -102.5t-102.5 -242.5q0 -124 77.5 -194.5t203.5 -70.5q113 0 224 51zM484 376q0 38 -21.5 62t-58.5 24q-64 0 -109.5 -57.5
t-45.5 -123.5q0 -44 22 -72.5t65 -28.5q64 0 106 64t42 132z" />
    <glyph glyph-name="A" unicode="A" horiz-adv-x="320" 
d="M291 0h-65l-8 137h-139l-41 -137h-65l211 667h58zM215 191l-14 235q-3 40 -3 80q0 38 3 77q-8 -47 -22 -103t-24 -91t-31 -104.5t-28 -93.5h119z" />
    <glyph glyph-name="B" unicode="B" horiz-adv-x="346" 
d="M108 667h96q72 0 100 -30t28 -102q0 -66 -23 -116q-13 -30 -31.5 -47t-48.5 -30q45 -13 62.5 -39.5t17.5 -74.5q0 -146 -75 -200q-38 -28 -107 -28h-101zM133 372h33q48 0 70 27q34 40 34 142q0 40 -15 56t-54 16h-39zM93 53h33q47 0 73 20q24 18 35.5 60t11.5 81
q0 103 -85 103h-35z" />
    <glyph glyph-name="C" unicode="C" horiz-adv-x="315" 
d="M350 655l-8 -68q-39 29 -73 29q-59 0 -96 -61q-34 -55 -50.5 -156t-16.5 -188q0 -160 88 -160q39 0 85 30l-7 -62q-44 -28 -89 -28q-54 0 -87.5 36t-44 80.5t-10.5 97.5q0 103 26 221.5t76 182.5q54 67 130 67q48 0 77 -21z" />
    <glyph glyph-name="D" unicode="D" horiz-adv-x="365" 
d="M108 667h76q91 0 129 -40t38 -131q0 -186 -41 -331q-23 -84 -70.5 -124.5t-132.5 -40.5h-81zM94 57h29q50 0 79 28q33 30 49 87q36 129 36 314q0 61 -20.5 92.5t-78.5 31.5h-26z" />
    <glyph glyph-name="E" unicode="E" horiz-adv-x="297" 
d="M313 667l-7 -57h-144l-29 -235h140l-6 -57h-141l-32 -261h144l-7 -57h-205l82 667h205z" />
    <glyph glyph-name="F" unicode="F" horiz-adv-x="291" 
d="M317 667l-7 -57h-148l-29 -235h140l-6 -57h-141l-39 -318h-61l82 667h209z" />
    <glyph glyph-name="G" unicode="G" horiz-adv-x="368" 
d="M369 550l-63 -24q-4 90 -62 90q-78 0 -110 -150q-32 -142 -32 -287q0 -25 2 -42t8 -39.5t21.5 -34.5t39.5 -12q48 0 71 49q7 15 13.5 44t9 48t7 59.5t4.5 43.5h-89l7 57h150l-16 -134q-8 -64 -17 -97q-16 -59 -55 -94.5t-97 -35.5q-121 0 -121 169q0 199 41 347
q20 73 61.5 121t109.5 48q57 0 83.5 -33t33.5 -93z" />
    <glyph glyph-name="H" unicode="H" horiz-adv-x="380" 
d="M380 667l-82 -667h-61l42 344h-150l-42 -344h-61l82 667h61l-33 -266h150l33 266h61z" />
    <glyph glyph-name="I" unicode="I" horiz-adv-x="169" 
d="M169 667l-82 -667h-61l82 667h61z" />
    <glyph glyph-name="J" unicode="J" horiz-adv-x="221" 
d="M221 667l-68 -553q0 -2 -1.5 -12.5t-2 -13.5t-1.5 -12t-2.5 -13.5l-4 -12t-5 -12t-6.5 -10.5t-9 -10q-29 -28 -79 -28q-32 0 -68 18l8 64q30 -28 57 -28q12 0 21.5 4.5t14 8t8.5 15.5t5 16t3 20.5t2 18.5l67 540h61z" />
    <glyph glyph-name="K" unicode="K" horiz-adv-x="320" 
d="M365 667l-180 -320l98 -347h-64l-91 336l-41 -336h-61l82 667h61l-37 -303l169 303h64z" />
    <glyph glyph-name="L" unicode="L" horiz-adv-x="259" 
d="M236 57l-7 -57h-203l82 667h61l-75 -610h142z" />
    <glyph glyph-name="M" unicode="M" horiz-adv-x="492" 
d="M444 667l-1 -667h-60l7 433q2 61 9 121q-1 -2 -9 -41q-7 -38 -20 -80l-126 -433h-50l-17 434v64q0 10 1.5 28t1.5 28q-10 -82 -20 -120l-107 -434h-60l174 667h53l14 -458q1 -19 1 -58q0 -31 -1 -47q11 56 25 103l133 460h52z" />
    <glyph glyph-name="N" unicode="N" horiz-adv-x="381" 
d="M381 667l-82 -667h-53l-92 440q-3 15 -7.5 47t-7.5 47q-4 -80 -9 -118l-51 -416h-53l82 667h53l94 -453q2 -11 6 -38t7 -41q0 49 6 97l54 435h53z" />
    <glyph glyph-name="O" unicode="O" horiz-adv-x="398" 
d="M382 477q0 -192 -47 -330q-51 -156 -165 -156q-128 0 -128 215q0 47 4.5 99.5t18.5 121t36 122t62 90.5t91 37q128 0 128 -199zM321 482q0 134 -73 134q-46 0 -76 -52q-34 -57 -51 -169t-17 -204q0 -140 73 -140q50 0 81 58q29 54 46 171t17 202z" />
    <glyph glyph-name="P" unicode="P" horiz-adv-x="324" 
d="M108 667h79q76 0 111.5 -28t35.5 -102q0 -81 -26 -140q-13 -28 -31.5 -44.5t-46.5 -23.5t-48 -8.5t-56 -1.5l-39 -319h-61zM133 376h41q36 0 57 16t31 57.5t10 79.5q0 44 -18 62.5t-62 18.5h-30z" />
    <glyph glyph-name="Q" unicode="Q" horiz-adv-x="398" 
d="M278 -49l-31 62q-32 -22 -78 -22q-127 0 -127 215q0 47 4.5 100t18.5 121.5t36 121.5t62 90t91 37q128 0 128 -211q0 -101 -23 -224.5t-68 -182.5l39 -76zM225 188l37 -72q28 65 43.5 171.5t15.5 195.5q0 133 -73 133q-46 0 -76 -52q-34 -57 -51 -169t-17 -204
q0 -140 75 -140q24 0 41 13l-47 92z" />
    <glyph glyph-name="R" unicode="R" horiz-adv-x="370" 
d="M112 667h83q84 0 124 -27t40 -107q0 -202 -155 -213l112 -320h-66l-113 326l-40 -326h-66zM143 375h41q47 0 70 22q38 35 38 132q0 46 -20 63.5t-67 17.5h-33z" />
    <glyph glyph-name="S" unicode="S" horiz-adv-x="342" 
d="M336 640l-10 -78q-40 54 -91 54q-48 0 -78.5 -38t-30.5 -87q0 -37 19.5 -66t46.5 -49.5t54.5 -41.5t47 -54t19.5 -75q0 -83 -54.5 -149t-135.5 -66q-56 0 -99 35l10 80q45 -54 99 -54q52 0 84.5 42.5t32.5 95.5q0 34 -19.5 61.5t-47 48.5t-55 43t-47 55t-19.5 74
q0 79 49 142t126 63q54 0 99 -36z" />
    <glyph glyph-name="T" unicode="T" horiz-adv-x="261" 
d="M314 667l-7 -57h-99l-75 -610h-61l75 610h-99l7 57h259z" />
    <glyph glyph-name="U" unicode="U" horiz-adv-x="384" 
d="M384 667l-57 -467q-11 -84 -23 -116q-17 -45 -55 -69t-87 -24q-59 0 -89 32.5t-30 92.5q0 19 7 84l58 467h61l-57 -462q-7 -61 -7 -78q0 -76 65 -76q14 0 25 2.5t20 10t15.5 13t11.5 19t8 19.5t6 23.5t4 21.5t3.5 23.5t2.5 21.5l57 462h61z" />
    <glyph glyph-name="V" unicode="V" horiz-adv-x="321" 
d="M374 667l-215 -667h-54l-50 667h63l28 -442q2 -38 2 -57q0 -12 -0.5 -24.5t-1.5 -28t-1 -24.5q24 105 32 132l134 444h63z" />
    <glyph glyph-name="W" unicode="W" horiz-adv-x="498" 
d="M551 667l-198 -667h-56l-11 433v11q0 37 4 113q-5 -17 -11.5 -50t-8.5 -41q-2 -6 -5 -17.5t-5 -17.5l-126 -431h-56l-23 667h63l8 -420v-12q0 -15 -2.5 -48.5t-1.5 -51.5v-13q16 71 34 130l122 415h52q11 -500 11 -545q2 16 6.5 34.5t11 40.5t9.5 34q2 10 4 17l116 419
h63z" />
    <glyph glyph-name="X" unicode="X" horiz-adv-x="313" 
d="M366 667l-165 -328l83 -339h-65l-41 189q-13 55 -15 95q-4 -17 -39 -97l-85 -187h-66l169 339l-87 328h65l39 -165q14 -59 17 -117q9 33 46 113l79 169h65z" />
    <glyph glyph-name="Y" unicode="Y" horiz-adv-x="315" 
d="M367 667l-168 -378l-35 -289h-61l35 289l-83 378h66l38 -191q14 -73 17 -123q18 58 44 122l81 192h66z" />
    <glyph glyph-name="Z" unicode="Z" horiz-adv-x="275" 
d="M321 667l-259 -610h166l-7 -57h-241l257 610h-165l7 57h242z" />
    <glyph glyph-name="bracketleft" unicode="[" horiz-adv-x="263" 
d="M292 729l-6 -46h-100l-99 -810h100l-6 -46h-158l111 902h158z" />
    <glyph glyph-name="backslash" unicode="\" horiz-adv-x="513" 
d="M63 729h56l385 -902h-57z" />
    <glyph glyph-name="bracketright" unicode="]" horiz-adv-x="263" 
d="M253 729l-111 -902h-158l5 46h101l99 810h-100l5 46h159z" />
    <glyph glyph-name="asciicircum" unicode="^" horiz-adv-x="500" 
d="M486 373h-61l-158 250l-156 -250h-61l182 294h72z" />
    <glyph glyph-name="underscore" unicode="_" horiz-adv-x="500" 
d="M472 -124h-500v50h500v-50z" />
    <glyph glyph-name="grave" unicode="`" 
d="M319 533l-39 -26l-100 103l58 43z" />
    <glyph glyph-name="a" unicode="a" horiz-adv-x="322" 
d="M300 447l-55 -447h-55l4 36q-38 -43 -81 -43q-82 0 -82 120q0 70 13 157.5t39 130.5q33 53 93 53q41 0 65 -37l4 30h55zM231 327q0 82 -48 82q-32 0 -53 -37q-20 -36 -31 -113.5t-11 -134.5q0 -85 48 -85q19 0 32.5 9.5t21.5 27.5t11.5 32t7.5 34q22 112 22 185z" />
    <glyph glyph-name="b" unicode="b" horiz-adv-x="317" 
d="M166 729l-38 -312q33 37 75 37q88 0 88 -119q0 -109 -26 -218q-32 -124 -113 -124q-43 0 -71 43l-4 -36h-56l90 729h55zM233 325q0 84 -48 84q-53 0 -71 -93q-23 -105 -23 -198q0 -79 49 -79q31 0 50 32t31 115.5t12 138.5z" />
    <glyph glyph-name="c" unicode="c" horiz-adv-x="242" 
d="M249 437l-8 -66q-25 31 -51 31q-27 0 -49 -28.5t-32 -58.5t-14 -59q-8 -50 -8 -94q0 -18 2 -35t7.5 -37t18 -32t30.5 -12q28 0 60 40l-8 -70q-31 -23 -66 -23q-38 0 -62.5 28t-32.5 61.5t-8 71.5q0 66 13 122q16 69 53.5 123.5t95.5 54.5q31 0 59 -17z" />
    <glyph glyph-name="d" unicode="d" horiz-adv-x="319" 
d="M331 729l-91 -729h-55l4 36q-38 -43 -81 -43q-82 0 -82 120q0 71 13 157.5t39 130.5q33 53 92 53q23 0 37.5 -8.5t28.5 -28.5l39 312h56zM225 327q0 82 -47 82q-31 0 -52 -37q-20 -36 -31.5 -113t-11.5 -135q0 -85 48 -85q19 0 32.5 9.5t21.5 27.5t12 31.5t8 34.5
q20 111 20 185z" />
    <glyph glyph-name="e" unicode="e" horiz-adv-x="308" 
d="M207 152h56q-10 -66 -41 -112.5t-90 -46.5q-104 0 -104 160q0 66 13 124q8 41 24 78t48 68t72 31q96 0 96 -155q0 -41 -8 -87h-185q-5 -33 -5 -59q0 -107 54 -107q18 0 31 10t20.5 29.5t11 33t7.5 33.5zM94 260h131q2 32 2 51q0 91 -47 91q-63 0 -86 -142z" />
    <glyph glyph-name="f" unicode="f" horiz-adv-x="202" 
d="M261 730l-7 -62q-22 20 -38 20t-26 -11t-12 -20.5t-5 -29.5l-24 -180h76l-7 -52h-75l-49 -395h-56l49 395h-51l7 52h51l22 179q14 114 98 114q26 0 47 -10z" />
    <glyph glyph-name="g" unicode="g" horiz-adv-x="326" 
d="M304 447l-58 -476q-1 -4 -2.5 -17.5t-2 -18.5t-3 -15.5t-4.5 -17t-6.5 -15t-9.5 -16.5q-31 -51 -107 -51q-99 0 -99 101q0 14 4 40h55q-2 -18 -2 -29q0 -59 52 -59q25 0 40.5 14t20 30t7.5 43q1 12 3.5 35.5t4.5 36.5q-34 -32 -75 -32q-90 0 -90 130q0 44 5 90.5
t18.5 104t44.5 93.5t76 36q42 0 69 -38l4 31h55zM234 321q0 87 -51 87q-22 0 -37.5 -16t-21.5 -32t-12 -41q-23 -97 -23 -183q0 -90 52 -90q19 0 32.5 9.5t21.5 29t11.5 31.5t7.5 34q20 102 20 171z" />
    <glyph glyph-name="h" unicode="h" horiz-adv-x="325" 
d="M166 729l-39 -318q43 43 91 43q74 0 74 -78q0 -24 -3 -45l-40 -331h-56l39 321q4 26 4 39q0 21 -11 34.5t-31 13.5q-69 0 -80 -107l-37 -301h-56l90 729h55z" />
    <glyph glyph-name="i" unicode="i" horiz-adv-x="154" 
d="M163 593q0 -19 -14 -33t-33 -14q-16 0 -26.5 10.5t-10.5 25.5q0 20 14.5 34t33.5 14q15 0 25.5 -10.5t10.5 -26.5zM131 447l-54 -447h-56l55 447h55z" />
    <glyph glyph-name="j" unicode="j" horiz-adv-x="159" 
d="M168 593q0 -19 -13.5 -33t-32.5 -14q-16 0 -26.5 10.5t-10.5 25.5q0 19 13.5 33.5t32.5 14.5q16 0 26.5 -10.5t10.5 -26.5zM137 447l-78 -627h-56l78 627h56z" />
    <glyph glyph-name="k" unicode="k" horiz-adv-x="305" 
d="M304 447l-155 -207l128 -240h-63l-111 214l-26 -214h-56l90 729h55l-56 -464l131 182h63z" />
    <glyph glyph-name="l" unicode="l" horiz-adv-x="154" 
d="M166 729l-89 -729h-56l90 729h55z" />
    <glyph glyph-name="m" unicode="m" horiz-adv-x="500" 
d="M132 447l-4 -37q44 44 85 44q57 0 75 -52q49 52 98 52q82 0 82 -80q0 -15 -4 -41l-40 -333h-56l41 331q2 16 2 27q0 50 -44 50q-21 0 -39.5 -13t-26.5 -33q-9 -23 -16 -76l-35 -286h-55l40 330q2 18 2 30q0 48 -39 48q-37 0 -58 -29q-20 -27 -29 -102l-34 -277h-56
l55 447h56z" />
    <glyph glyph-name="n" unicode="n" horiz-adv-x="325" 
d="M131 447l-4 -36q43 43 90 43q37 0 56 -22.5t19 -59.5q0 -22 -3 -41l-40 -331h-56l39 321q4 26 4 39q0 21 -11 34.5t-31 13.5q-69 0 -80 -107l-37 -301h-56l55 447h55z" />
    <glyph glyph-name="o" unicode="o" horiz-adv-x="318" 
d="M290 328v-17q0 -47 -6 -93.5t-21 -101.5t-48.5 -89t-81.5 -34q-105 0 -105 162q0 43 7 89.5t23.5 96t50.5 81.5t80 32q51 0 76 -36.5t25 -89.5zM232 298q0 104 -50 104q-29 0 -49.5 -30.5t-30 -76.5t-13.5 -83t-4 -65q0 -101 53 -101q28 0 48 30t29 75.5t13 82t4 64.5z
" />
    <glyph glyph-name="p" unicode="p" horiz-adv-x="318" 
d="M132 447l-3 -30q34 37 74 37q89 0 89 -119q0 -111 -27 -218q-30 -124 -112 -124q-43 0 -71 43l-27 -216h-55l77 627h55zM234 325q0 84 -49 84q-51 0 -71 -93q-22 -108 -22 -198q0 -79 49 -79q32 0 49 32q20 32 32 115t12 139z" />
    <glyph glyph-name="q" unicode="q" horiz-adv-x="322" 
d="M300 447l-77 -627h-55l26 216q-38 -43 -81 -43q-82 0 -82 120q0 70 13 157.5t39 130.5q33 53 93 53q41 0 65 -37l4 30h55zM231 327q0 82 -48 82q-32 0 -53 -37q-20 -36 -31 -113.5t-11 -134.5q0 -85 48 -85q19 0 32.5 9.5t21.5 27.5t11.5 32t7.5 34q22 112 22 185z" />
    <glyph glyph-name="r" unicode="r" horiz-adv-x="192" 
d="M208 454l-8 -65q-22 0 -37.5 -7t-24 -16.5t-14.5 -28t-8 -30.5t-5 -36l-34 -271h-56l56 447h55l-7 -58q37 63 83 65z" />
    <glyph glyph-name="s" unicode="s" horiz-adv-x="243" 
d="M238 425l-7 -69q-33 46 -70 46q-27 0 -45 -20t-18 -48q0 -25 18.5 -49t40 -40.5t40 -45t18.5 -61.5q0 -58 -39 -101.5t-95 -43.5q-44 0 -78 31l7 66q35 -44 73 -44q31 0 52 24t21 55q0 21 -12 41t-29 37t-34 34.5t-29 40.5t-12 48q0 53 35.5 90.5t87.5 37.5q41 0 75 -29z
" />
    <glyph glyph-name="t" unicode="t" horiz-adv-x="196" 
d="M222 447l-6 -52h-74l-49 -395h-55l49 395h-47l6 52h48l15 127h55l-15 -127h73z" />
    <glyph glyph-name="u" unicode="u" horiz-adv-x="327" 
d="M305 447l-41 -338q-7 -54 -41.5 -85t-88.5 -31q-46 0 -73 25.5t-27 71.5q0 13 1 19l41 338h56l-36 -291q-4 -34 -4 -51q0 -59 50 -59q21 0 35 9t20.5 26t9.5 31t6 35q0 3 0.5 5t0.5 4l36 291h55z" />
    <glyph glyph-name="v" unicode="v" horiz-adv-x="271" 
d="M293 447l-153 -447h-60l-46 447h58l25 -267q4 -52 4 -77q0 -13 1 -19q6 34 26 94l87 269h58z" />
    <glyph glyph-name="w" unicode="w" horiz-adv-x="433" 
d="M450 447l-151 -447h-57q-11 341 -11 372q-6 -29 -18 -70l-84 -302h-58l-33 447h56l17 -271q1 -15 1 -46q0 -32 -1 -48q3 13 23 92l79 273h57q11 -266 11 -365q13 46 113 365h56z" />
    <glyph glyph-name="x" unicode="x" horiz-adv-x="275" 
d="M296 447l-126 -218l71 -229h-63l-33 127q-12 44 -13 66q-9 -28 -28 -67l-63 -126h-62l129 229l-64 218h61q4 -15 12 -45.5t12.5 -49.5t9 -45.5t5.5 -48.5q23 58 29 70q7 13 19 37.5t22.5 44.5t19.5 37h62z" />
    <glyph glyph-name="y" unicode="y" horiz-adv-x="291" 
d="M312 447l-232 -627h-59l71 192l-52 435h57l25 -248q6 -55 6 -112q6 20 35 103l91 257h58z" />
    <glyph glyph-name="z" unicode="z" horiz-adv-x="267" 
d="M290 447l-227 -395h149l-6 -52h-229l222 395h-150l6 52h235z" />
    <glyph glyph-name="braceleft" unicode="{" horiz-adv-x="502" 
d="M418 729l-6 -46q-54 -2 -76.5 -21t-29.5 -72l-24 -199q-3 -28 -16 -59q-14 -33 -60 -54q50 -26 50 -84q0 -11 -2 -31l-24 -193q-2 -13 -2 -38q0 -58 85 -58l-6 -46q-5 -1 -16 -1q-58 0 -88 23.5t-30 79.5q0 24 3 46l23 187q2 18 2 28q0 28 -10.5 43.5t-37.5 23.5l5 43
q34 9 49 31.5t20 60.5l25 201q9 78 47.5 106.5t118.5 28.5z" />
    <glyph glyph-name="bar" unicode="|" horiz-adv-x="500" 
d="M280 -250h-55v1000h55v-1000z" />
    <glyph glyph-name="braceright" unicode="}" horiz-adv-x="502" 
d="M361 299l-5 -42q-34 -11 -49 -33t-20 -60l-25 -201q-9 -70 -44 -103t-105 -33q-11 0 -17 1l6 46q54 2 76.5 20.5t29.5 71.5l24 201q6 45 22 70.5t54 41.5q-28 15 -39 34t-11 51q0 11 2 31l23 191q2 13 2 38q0 35 -22.5 46.5t-62.5 12.5l6 46h16q59 0 88.5 -23.5
t29.5 -80.5q0 -23 -3 -45l-22 -185q-2 -18 -2 -28q0 -53 48 -68z" />
    <glyph glyph-name="asciitilde" unicode="~" horiz-adv-x="667" 
d="M590 721l35 -21q-53 -106 -137 -106q-37 0 -109.5 35.5t-102.5 35.5q-52 0 -95 -76l-35 22q20 36 33.5 55t40 36t59.5 17q37 0 110 -35.5t104 -35.5q33 0 54.5 18.5t42.5 54.5z" />
    <glyph glyph-name="uni00A0" unicode="&#xa0;" horiz-adv-x="233" 
 />
    <glyph glyph-name="exclamdown" unicode="&#xa1;" horiz-adv-x="233" 
d="M189 415q0 -20 -15 -35.5t-35 -15.5q-17 0 -28 11.5t-11 28.5q0 20 15 35t35 15q16 0 27.5 -11t11.5 -28zM158 280l-61 -500h-60l62 500h59z" />
    <glyph glyph-name="cent" unicode="&#xa2;" horiz-adv-x="366" 
d="M318 558l-8 -67q-23 30 -51 30q-27 0 -48.5 -27.5t-31.5 -57t-14 -57.5q-9 -49 -9 -97q0 -17 2 -34t7.5 -37t18 -32.5t30.5 -12.5q28 0 61 40l-9 -70q-21 -15 -41 -19l-12 -92h-49l10 92q-78 31 -78 157q0 92 29 176q32 95 106 120l11 83h48l-10 -82q21 -3 38 -13z" />
    <glyph glyph-name="sterling" unicode="&#xa3;" horiz-adv-x="366" 
d="M42 340h61q-28 64 -28 130q0 106 61 163q45 43 111 43q54 0 89 -37q32 -34 32 -89q0 -13 -1 -19l-59 -12q1 5 1 17q0 41 -23 63q-19 17 -47 17q-39 0 -65 -26q-36 -34 -36 -109q0 -66 32 -141h103l-6 -42h-82q28 -49 28 -96q0 -32 -17 -68q-14 -30 -34 -53l24 -19
q27 -22 47 -22q17 0 27 15q10 12 14 34l49 -17q-9 -41 -35 -66q-25 -25 -60 -25q-31 0 -58 20l-22 16q-32 23 -46 23q-17 0 -30 -13q-9 -9 -18 -27l-46 30q14 23 30 39q30 30 63 30q9 0 15 -2q36 46 36 96q0 47 -33 105h-82z" />
    <glyph glyph-name="currency" unicode="&#xa4;" horiz-adv-x="667" 
d="M619 119l-32 -32l-93 93q-65 -54 -144 -54q-72 0 -145 52l-92 -92l-31 33l91 91q-54 68 -54 145q0 74 52 142l-92 92l32 32l92 -92q69 54 146 54q76 0 145 -53l92 91l32 -32l-92 -92q52 -68 52 -143q0 -76 -52 -142zM527 354q0 74 -52 126.5t-126 52.5t-126 -52.5
t-52 -126.5t52.5 -126t125.5 -52t125.5 52t52.5 126z" />
    <glyph glyph-name="yen" unicode="&#xa5;" horiz-adv-x="366" 
d="M389 667l-111 -249h93l-5 -42h-106l-29 -65h127l-5 -42h-133l-33 -269h-56l33 269h-141l5 42h135l-15 65h-112l6 42h97l-54 249h63l38 -195q11 -54 16 -119q16 56 44 122l80 192h63z" />
    <glyph glyph-name="brokenbar" unicode="&#xa6;" horiz-adv-x="500" 
d="M280 337h-55v412h55v-412zM280 -250h-55v403h55v-403z" />
    <glyph glyph-name="section" unicode="&#xa7;" horiz-adv-x="361" 
d="M24 -32h58q-1 -8 -1 -23q0 -71 56 -71q39 0 59.5 33.5t20.5 74.5q0 30 -12.5 51.5t-31.5 32t-41.5 25t-41.5 30.5t-31.5 48t-12.5 77q0 72 30.5 133t92.5 78q-65 46 -65 124q0 64 39.5 111.5t102.5 47.5q50 0 79 -33t29 -83q0 -4 -0.5 -11t-0.5 -10h-58q0 84 -57 84
q-37 0 -57.5 -32.5t-20.5 -71.5q0 -32 19.5 -57.5t44 -40t51.5 -36t39 -44.5q15 -30 15 -84q0 -46 -9.5 -87.5t-37 -79t-68.5 -50.5q59 -40 59 -118q0 -66 -38.5 -116t-102.5 -50q-52 0 -80 35.5t-28 88.5v24zM273 325q0 39 -16.5 67t-52.5 28q-29 0 -50 -19t-32 -48.5
t-16 -58.5t-5 -55q0 -98 68 -98q32 0 54 18.5t32 49t14 58t4 58.5z" />
    <glyph glyph-name="dieresis" unicode="&#xa8;" 
d="M393 562q0 -20 -14.5 -34.5t-34.5 -14.5q-16 0 -26.5 11.5t-10.5 27.5q0 19 14.5 33.5t33.5 14.5q17 0 27.5 -11t10.5 -27zM267 562q0 -20 -14.5 -34.5t-34.5 -14.5q-16 0 -26.5 11.5t-10.5 27.5q0 19 14.5 33.5t33.5 14.5q17 0 27.5 -11t10.5 -27z" />
    <glyph glyph-name="copyright" unicode="&#xa9;" horiz-adv-x="756" 
d="M736 333q0 -143 -101 -244t-244 -101t-244 101t-101 244t101.5 244.5t244.5 101.5q142 0 243 -102t101 -244zM696 333q0 127 -88.5 218.5t-215.5 91.5q-128 0 -217 -91t-89 -219q0 -127 89.5 -218t215.5 -91q127 0 216 91t89 218zM447 199v-52q-30 -19 -61 -19
q-48 0 -81 41q-37 47 -37 160q0 210 122 210q21 0 54 -14l1 -1h2v-55q-37 22 -55 22q-71 0 -71 -156q0 -159 68 -159q20 0 58 23z" />
    <glyph glyph-name="ordfeminine" unicode="&#xaa;" horiz-adv-x="236" 
d="M244 667l-36 -295h-42l2 18q-22 -22 -49 -22q-57 0 -57 80q0 46 8.5 102.5t26.5 84.5q23 36 62 36q25 0 41 -19l2 15h42zM202 330l-4 -33h-155l4 33h155zM192 586q0 50 -29 50q-19 0 -31 -22q-12 -23 -19.5 -73t-7.5 -86q0 -52 29 -52q15 0 25 12t13 22.5t7 28.5
q13 63 13 120z" />
    <glyph glyph-name="guillemotleft" unicode="&#xab;" horiz-adv-x="320" 
d="M309 404l-114 -167l73 -171l-41 -23l-83 194l130 188zM199 404l-114 -167l72 -171l-40 -23l-83 194l130 188z" />
    <glyph glyph-name="logicalnot" unicode="&#xac;" horiz-adv-x="500" 
d="M455 0h-55v217h-378v50h433v-267z" />
    <glyph glyph-name="uni00AD" unicode="&#xad;" horiz-adv-x="238" 
d="M189 233h-138l7 58h138z" />
    <glyph glyph-name="registered" unicode="&#xae;" horiz-adv-x="756" 
d="M495 131h-51l-85 176v-176h-49v405h53q63 0 90 -24.5t27 -87.5q0 -43 -18 -72t-58 -32zM359 363h21q30 0 39.5 15.5t9.5 48.5q0 35 -10.5 50t-44.5 15h-15v-129zM696 333q0 127 -88.5 218.5t-215.5 91.5q-128 0 -217 -91t-89 -219q0 -127 89.5 -218t215.5 -91
q127 0 216 91t89 218zM736 333q0 -143 -101 -244t-244 -101t-244 101t-101 244t101.5 244.5t244.5 101.5q142 0 243 -102t101 -244z" />
    <glyph glyph-name="macron" unicode="&#xaf;" 
d="M400 575l-7 -55h-221l6 55h222z" />
    <glyph glyph-name="degree" unicode="&#xb0;" horiz-adv-x="500" 
d="M426 538q0 -56 -41 -95.5t-97 -39.5t-97 39.5t-41 95.5t41 95t97 39t97 -39t41 -95zM388 538q0 41 -29.5 69.5t-70.5 28.5t-70.5 -28.5t-29.5 -69.5t29.5 -69.5t70.5 -28.5t70.5 28.5t29.5 69.5z" />
    <glyph glyph-name="plusminus" unicode="&#xb1;" horiz-adv-x="500" 
d="M467 342h-189v-176h-55v176h-189v51h189v177h55v-177h189v-51zM467 71h-433v52h433v-52z" />
    <glyph glyph-name="twosuperior" unicode="&#xb2;" horiz-adv-x="248" 
d="M121 553h-44q16 120 101 120q36 0 56.5 -20.5t20.5 -56.5q0 -12 -2 -24.5t-4.5 -22t-9 -23.5t-9.5 -21t-12.5 -22.5t-12 -20t-13.5 -21.5t-13 -19l-74 -115h110l-5 -41h-176l108 172q2 3 10.5 16.5t11.5 18.5t11 18.5t11.5 20.5t9 19.5t8 21.5t4.5 19.5t2 20.5
q0 40 -35 40q-47 0 -54 -80z" />
    <glyph glyph-name="threesuperior" unicode="&#xb3;" horiz-adv-x="248" 
d="M122 569h-41q5 45 27.5 74.5t65.5 29.5q35 0 55 -19t20 -54q0 -40 -11.5 -66.5t-42.5 -45.5q22 -14 29 -31.5t7 -47.5q0 -62 -24.5 -104.5t-81.5 -42.5q-36 0 -56 19.5t-20 55.5q0 16 4 44h43q-2 -22 -2 -33q0 -45 36 -45q32 0 46 35q12 31 12 66q0 40 -18 51.5t-60 11.5
l4 38h19q44 0 60 30q12 23 12 56q0 40 -35 40q-26 0 -35 -16t-13 -46z" />
    <glyph glyph-name="acute" unicode="&#xb4;" 
d="M407 610l-126 -103l-32 26l110 120z" />
    <glyph glyph-name="mu" unicode="&#xb5;" horiz-adv-x="492" 
d="M415 0h-56l9 79q-27 -49 -62 -70q-37 -22 -86 -22q-54 0 -89 30q-28 24 -42 67l-33 -264h-56l77 627h56l-26 -212q-6 -42 -6 -68q0 -59 35 -95q37 -37 92 -37q56 0 97 38q48 46 62 158l27 216h56z" />
    <glyph glyph-name="mu" unicode="&#x3bc;" horiz-adv-x="492" 
d="M415 0h-56l9 79q-27 -49 -62 -70q-37 -22 -86 -22q-54 0 -89 30q-28 24 -42 67l-33 -264h-56l77 627h56l-26 -212q-6 -42 -6 -68q0 -59 35 -95q37 -37 92 -37q56 0 97 38q48 46 62 158l27 216h56z" />
    <glyph glyph-name="paragraph" unicode="&#xb6;" horiz-adv-x="554" 
d="M538 667l-5 -44h-56l-89 -723h-48l88 723h-111l-89 -723h-49l51 413q-2 0 -8 -0.5t-8 -0.5q-73 0 -118.5 40.5t-45.5 112.5q0 93 70 152q60 50 170 50h248z" />
    <glyph glyph-name="periodcentered" unicode="&#xb7;" horiz-adv-x="201" 
d="M173 351q0 -26 -19.5 -46t-45.5 -20q-25 0 -38 16t-13 42q0 23 21 41t44 18q22 0 36.5 -14.5t14.5 -36.5z" />
    <glyph glyph-name="cedilla" unicode="&#xb8;" 
d="M269 -62l-99 -134l-32 21l89 138z" />
    <glyph glyph-name="onesuperior" unicode="&#xb9;" horiz-adv-x="250" 
d="M207 667l-49 -400h-44l44 359h-54l5 41h98z" />
    <glyph glyph-name="ordmasculine" unicode="&#xba;" horiz-adv-x="236" 
d="M243 576q0 -31 -4 -62t-14 -66.5t-33 -57.5t-55 -22q-71 0 -71 107q0 29 5 59.5t16 63t33.5 53t53.5 20.5q69 0 69 -95zM213 330l-4 -33h-164l4 33h164zM199 566q0 65 -31 65q-32 0 -46 -56t-14 -104q0 -64 33 -64q17 0 29.5 19t18 48t8 52t2.5 40z" />
    <glyph glyph-name="guillemotright" unicode="&#xbb;" horiz-adv-x="320" 
d="M289 237l-131 -194l-35 23l115 171l-73 167l40 21zM178 237l-130 -194l-35 23l114 171l-73 167l41 21z" />
    <glyph glyph-name="onequarter" unicode="&#xbc;" horiz-adv-x="612" 
d="M569 400l-32 -255h31l-5 -39h-30l-13 -106h-44l13 106h-109l5 40l141 254h43zM207 667l-49 -400h-44l44 359h-54l5 41h98zM429 145h64q19 147 22 165q-11 -22 -86 -165zM523 667l-371 -667h-46l371 667h46z" />
    <glyph glyph-name="onehalf" unicode="&#xbd;" horiz-adv-x="612" 
d="M452 287h-43q7 47 14 63q24 56 86 56q36 0 56.5 -20.5t20.5 -56.5q0 -28 -14 -63t-25.5 -54.5t-35.5 -55.5l-75 -115h110l-5 -41h-176l108 173q1 2 11.5 18.5l14 22t12 21t12 24.5t9 22t7.5 24t2 22q0 40 -35 40q-47 0 -54 -80zM207 667l-49 -400h-44l44 359h-54l6 41h97
zM523 667l-371 -667h-46l371 667h46z" />
    <glyph glyph-name="threequarters" unicode="&#xbe;" horiz-adv-x="611" 
d="M567 400l-31 -255h30l-5 -39h-30l-13 -106h-44l13 106h-109l5 40l141 254h43zM122 569h-41q5 45 27.5 74.5t65.5 29.5q35 0 55 -19t20 -54q0 -40 -11.5 -66.5t-42.5 -45.5q22 -14 29 -31.5t7 -47.5q0 -62 -24.5 -104.5t-81.5 -42.5q-36 0 -56 19.5t-20 55.5q0 16 4 44h43
q-2 -22 -2 -33q0 -45 36 -45q32 0 46 35q12 31 12 66q0 40 -18 51.5t-60 11.5l4 38h19q44 0 60 30q12 23 12 56q0 40 -35 40q-26 0 -35 -16t-13 -46zM427 145h65q11 107 22 165q-2 -5 -21 -40zM523 667l-371 -667h-46l371 667h46z" />
    <glyph glyph-name="questiondown" unicode="&#xbf;" horiz-adv-x="326" 
d="M265 415q0 -20 -15 -35.5t-35 -15.5q-17 0 -28.5 11.5t-11.5 28.5q0 20 15.5 35t35.5 15q16 0 27.5 -11t11.5 -28zM245 -51l-6 -47q-17 -131 -129 -131q-45 0 -69.5 25.5t-24.5 70.5q0 22 6 66q5 35 8.5 54t13 47.5t22.5 44t36.5 28t55.5 13.5l20 161h58l-26 -215h-42
q-32 0 -47 -11t-25 -41q-19 -60 -19 -133q0 -56 42 -56q13 0 23 4t16.5 13t11 17.5t7.5 23t4.5 22.5t3 24t2.5 20h58z" />
    <glyph glyph-name="Agrave" unicode="&#xc0;" horiz-adv-x="320" 
d="M291 0h-65l-8 137h-139l-41 -137h-65l211 667h58zM215 191l-14 235q-3 40 -3 80q0 38 3 77q-8 -47 -22 -103t-24 -91t-31 -104.5t-28 -93.5h119zM239 740l-39 -26l-100 103l58 43z" />
    <glyph glyph-name="Aacute" unicode="&#xc1;" horiz-adv-x="320" 
d="M291 0h-65l-8 137h-139l-41 -137h-65l211 667h58zM215 191l-14 235q-3 40 -3 80q0 38 3 77q-8 -47 -22 -103t-24 -91t-31 -104.5t-28 -93.5h119zM347 817l-126 -103l-32 26l110 120z" />
    <glyph glyph-name="Acircumflex" unicode="&#xc2;" horiz-adv-x="320" 
d="M291 0h-65l-8 137h-139l-41 -137h-65l211 667h58zM215 191l-14 235q-3 40 -3 80q0 38 3 77q-8 -47 -22 -103t-24 -91t-31 -104.5t-28 -93.5h119zM331 752l-44 -38l-64 69l-82 -69l-32 38l123 107z" />
    <glyph glyph-name="Atilde" unicode="&#xc3;" horiz-adv-x="320" 
d="M291 0h-65l-8 137h-139l-41 -137h-65l211 667h58zM215 191l-14 235q-3 40 -3 80q0 38 3 77q-8 -47 -22 -103t-24 -91t-31 -104.5t-28 -93.5h119zM278 802h57q-7 -33 -27 -57.5t-50 -24.5q-20 0 -48 17t-37 17q-17 0 -19 -25h-55q8 33 27.5 55t50.5 22q17 0 45 -16t37 -16
q16 0 19 28z" />
    <glyph glyph-name="Adieresis" unicode="&#xc4;" horiz-adv-x="320" 
d="M291 0h-65l-8 137h-139l-41 -137h-65l211 667h58zM215 191l-14 235q-3 40 -3 80q0 38 3 77q-8 -47 -22 -103t-24 -91t-31 -104.5t-28 -93.5h119zM323 769q0 -19 -14.5 -34t-34.5 -15q-16 0 -26.5 11.5t-10.5 27.5q0 19 14.5 33.5t33.5 14.5q17 0 27.5 -10.5t10.5 -27.5z
M197 769q0 -19 -14.5 -34t-34.5 -15q-16 0 -26.5 11.5t-10.5 27.5q0 19 14.5 33.5t33.5 14.5q17 0 27.5 -10.5t10.5 -27.5z" />
    <glyph glyph-name="Aring" unicode="&#xc5;" horiz-adv-x="320" 
d="M291 0h-65l-8 137h-139l-41 -137h-65l211 667h58zM215 191l-14 235q-3 40 -3 80q0 38 3 77q-8 -47 -22 -103t-24 -91t-31 -104.5t-28 -93.5h119zM294 794q0 -33 -23 -56.5t-56 -23.5t-56 23.5t-23 56.5t23 56.5t56 23.5t56 -23.5t23 -56.5zM254 794q0 17 -11.5 28.5
t-27.5 11.5q-17 0 -28.5 -12t-11.5 -28t11.5 -28t28.5 -12t28 11.5t11 28.5z" />
    <glyph glyph-name="AE" unicode="&#xc6;" horiz-adv-x="455" 
d="M436 0h-204l-5 137h-149l-40 -137h-65l211 667h219l3 -57h-141l13 -235h133l3 -57h-133l15 -261h138zM225 190l-12 282q-1 0 -1 62l1 61q-16 -64 -33 -122l-85 -283h130z" />
    <glyph glyph-name="Ccedilla" unicode="&#xc7;" horiz-adv-x="315" 
d="M350 655l-8 -68q-39 29 -73 29q-59 0 -96 -61q-34 -55 -50.5 -156t-16.5 -188q0 -160 88 -160q39 0 85 30l-7 -62q-44 -28 -89 -28q-54 0 -87.5 36t-44 80.5t-10.5 97.5q0 103 26 221.5t76 182.5q54 67 130 67q48 0 77 -21zM187 -62l-99 -134l-32 21l89 138z" />
    <glyph glyph-name="Egrave" unicode="&#xc8;" horiz-adv-x="297" 
d="M313 667l-7 -57h-144l-29 -235h140l-6 -57h-141l-32 -261h144l-7 -57h-205l82 667h205zM259 740l-39 -26l-100 103l58 43z" />
    <glyph glyph-name="Eacute" unicode="&#xc9;" horiz-adv-x="297" 
d="M313 667l-7 -57h-144l-29 -235h140l-6 -57h-141l-32 -261h144l-7 -57h-205l82 667h205zM327 817l-126 -103l-32 26l110 120z" />
    <glyph glyph-name="Ecircumflex" unicode="&#xca;" horiz-adv-x="297" 
d="M313 667l-7 -57h-144l-29 -235h140l-6 -57h-141l-32 -261h144l-7 -57h-205l82 667h205zM336 752l-44 -38l-64 69l-82 -69l-32 38l123 107z" />
    <glyph glyph-name="Edieresis" unicode="&#xcb;" horiz-adv-x="297" 
d="M313 667l-7 -57h-144l-29 -235h140l-6 -57h-141l-32 -261h144l-7 -57h-205l82 667h205zM333 769q0 -19 -14.5 -34t-34.5 -15q-16 0 -26.5 11.5t-10.5 27.5q0 19 14.5 33.5t33.5 14.5q17 0 27.5 -10.5t10.5 -27.5zM207 769q0 -19 -14.5 -34t-34.5 -15q-16 0 -26.5 11.5
t-10.5 27.5q0 19 14.5 33.5t33.5 14.5q17 0 27.5 -10.5t10.5 -27.5z" />
    <glyph glyph-name="Igrave" unicode="&#xcc;" horiz-adv-x="169" 
d="M169 667l-82 -667h-61l82 667h61zM189 740l-39 -26l-100 103l58 43z" />
    <glyph glyph-name="Iacute" unicode="&#xcd;" horiz-adv-x="169" 
d="M169 667l-82 -667h-61l82 667h61zM257 817l-126 -103l-32 26l110 120z" />
    <glyph glyph-name="Icircumflex" unicode="&#xce;" horiz-adv-x="169" 
d="M169 667l-82 -667h-61l82 667h61zM256 752l-44 -38l-64 69l-82 -69l-32 38l123 107z" />
    <glyph glyph-name="Idieresis" unicode="&#xcf;" horiz-adv-x="169" 
d="M169 667l-82 -667h-61l82 667h61zM253 769q0 -19 -14.5 -34t-34.5 -15q-16 0 -26.5 11.5t-10.5 27.5q0 19 14.5 33.5t33.5 14.5q17 0 27.5 -10.5t10.5 -27.5zM127 769q0 -19 -14.5 -34t-34.5 -15q-16 0 -26.5 11.5t-10.5 27.5q0 19 14.5 33.5t33.5 14.5q17 0 27.5 -10.5
t10.5 -27.5z" />
    <glyph glyph-name="Eth" unicode="&#xd0;" horiz-adv-x="365" 
d="M108 667h77q75 0 112 -26q54 -40 54 -142q0 -136 -28 -278q-11 -54 -24.5 -90.5t-37.5 -68t-62 -47t-92 -15.5h-81l40 321h-47l6 50h47zM94 57h29q44 0 71 21t46 63q22 48 34.5 159t12.5 187q0 59 -21 91t-77 32h-27l-29 -239h88l-6 -50h-88z" />
    <glyph glyph-name="Ntilde" unicode="&#xd1;" horiz-adv-x="381" 
d="M381 667l-82 -667h-53l-92 440q-3 15 -7.5 47t-7.5 47q-4 -80 -9 -118l-51 -416h-53l82 667h53l94 -453q2 -11 6 -38t7 -41q0 49 6 97l54 435h53zM312 802h57q-7 -33 -27 -57.5t-50 -24.5q-20 0 -48 17t-37 17q-17 0 -19 -25h-55q8 33 27.5 55t50.5 22q17 0 45 -16
t37 -16q16 0 19 28z" />
    <glyph glyph-name="Ograve" unicode="&#xd2;" horiz-adv-x="398" 
d="M382 477q0 -192 -47 -330q-51 -156 -165 -156q-128 0 -128 215q0 47 4.5 99.5t18.5 121t36 122t62 90.5t91 37q128 0 128 -199zM321 482q0 134 -73 134q-46 0 -76 -52q-34 -57 -51 -169t-17 -204q0 -140 73 -140q50 0 81 58q29 54 46 171t17 202zM282 740l-39 -26
l-100 103l58 43z" />
    <glyph glyph-name="Oacute" unicode="&#xd3;" horiz-adv-x="398" 
d="M382 477q0 -192 -47 -330q-51 -156 -165 -156q-128 0 -128 215q0 47 4.5 99.5t18.5 121t36 122t62 90.5t91 37q128 0 128 -199zM321 482q0 134 -73 134q-46 0 -76 -52q-34 -57 -51 -169t-17 -204q0 -140 73 -140q50 0 81 58q29 54 46 171t17 202zM380 817l-126 -103
l-32 26l110 120z" />
    <glyph glyph-name="Ocircumflex" unicode="&#xd4;" horiz-adv-x="398" 
d="M382 477q0 -192 -47 -330q-51 -156 -165 -156q-128 0 -128 215q0 47 4.5 99.5t18.5 121t36 122t62 90.5t91 37q128 0 128 -199zM321 482q0 134 -73 134q-46 0 -76 -52q-34 -57 -51 -169t-17 -204q0 -140 73 -140q50 0 81 58q29 54 46 171t17 202zM369 752l-44 -38l-64 69
l-82 -69l-32 38l123 107z" />
    <glyph glyph-name="Otilde" unicode="&#xd5;" horiz-adv-x="398" 
d="M382 477q0 -192 -47 -330q-51 -156 -165 -156q-128 0 -128 215q0 47 4.5 99.5t18.5 121t36 122t62 90.5t91 37q128 0 128 -199zM321 482q0 134 -73 134q-46 0 -76 -52q-34 -57 -51 -169t-17 -204q0 -140 73 -140q50 0 81 58q29 54 46 171t17 202zM321 802h57
q-7 -33 -27 -57.5t-50 -24.5q-20 0 -48 17t-37 17q-17 0 -19 -25h-55q8 33 27.5 55t50.5 22q17 0 45 -16t37 -16q16 0 19 28z" />
    <glyph glyph-name="Odieresis" unicode="&#xd6;" horiz-adv-x="398" 
d="M382 477q0 -192 -47 -330q-51 -156 -165 -156q-128 0 -128 215q0 47 4.5 99.5t18.5 121t36 122t62 90.5t91 37q128 0 128 -199zM321 482q0 134 -73 134q-46 0 -76 -52q-34 -57 -51 -169t-17 -204q0 -140 73 -140q50 0 81 58q29 54 46 171t17 202zM371 769
q0 -19 -14.5 -34t-34.5 -15q-16 0 -26.5 11.5t-10.5 27.5q0 19 14.5 33.5t33.5 14.5q17 0 27.5 -10.5t10.5 -27.5zM245 769q0 -19 -14.5 -34t-34.5 -15q-16 0 -26.5 11.5t-10.5 27.5q0 19 14.5 33.5t33.5 14.5q17 0 27.5 -10.5t10.5 -27.5z" />
    <glyph glyph-name="multiply" unicode="&#xd7;" horiz-adv-x="500" 
d="M422 466l-135 -135l135 -134l-37 -38l-135 135l-135 -135l-37 38l135 134l-135 135l37 38l135 -135l135 135z" />
    <glyph glyph-name="Oslash" unicode="&#xd8;" horiz-adv-x="421" 
d="M436 656l-51 -89q9 -37 9 -100q0 -173 -47 -320q-50 -156 -165 -156q-68 0 -99 60l-36 -59l-36 19l53 89q-10 38 -10 105q0 47 4.5 100t18.5 121.5t36 122t61.5 90.5t90.5 37q69 0 101 -60l35 59zM115 180l211 373q-16 63 -67 63q-72 0 -108 -135q-36 -136 -36 -301z
M333 486l-209 -372q14 -63 66 -63q75 0 108 141q33 140 35 294z" />
    <glyph glyph-name="Ugrave" unicode="&#xd9;" horiz-adv-x="384" 
d="M384 667l-57 -467q-11 -84 -23 -116q-17 -45 -55 -69t-87 -24q-59 0 -89 32.5t-30 92.5q0 19 7 84l58 467h61l-57 -462q-7 -61 -7 -78q0 -76 65 -76q14 0 25 2.5t20 10t15.5 13t11.5 19t8 19.5t6 23.5t4 21.5t3.5 23.5t2.5 21.5l57 462h61zM299 740l-39 -26l-100 103
l58 43z" />
    <glyph glyph-name="Uacute" unicode="&#xda;" horiz-adv-x="384" 
d="M384 667l-57 -467q-11 -84 -23 -116q-17 -45 -55 -69t-87 -24q-59 0 -89 32.5t-30 92.5q0 19 7 84l58 467h61l-57 -462q-7 -61 -7 -78q0 -76 65 -76q14 0 25 2.5t20 10t15.5 13t11.5 19t8 19.5t6 23.5t4 21.5t3.5 23.5t2.5 21.5l57 462h61zM367 817l-126 -103l-32 26
l110 120z" />
    <glyph glyph-name="Ucircumflex" unicode="&#xdb;" horiz-adv-x="384" 
d="M384 667l-57 -467q-11 -84 -23 -116q-17 -45 -55 -69t-87 -24q-59 0 -89 32.5t-30 92.5q0 19 7 84l58 467h61l-57 -462q-7 -61 -7 -78q0 -76 65 -76q14 0 25 2.5t20 10t15.5 13t11.5 19t8 19.5t6 23.5t4 21.5t3.5 23.5t2.5 21.5l57 462h61zM366 752l-44 -38l-64 69
l-82 -69l-32 38l123 107z" />
    <glyph glyph-name="Udieresis" unicode="&#xdc;" horiz-adv-x="384" 
d="M384 667l-57 -467q-11 -84 -23 -116q-17 -45 -55 -69t-87 -24q-59 0 -89 32.5t-30 92.5q0 19 7 84l58 467h61l-57 -462q-7 -61 -7 -78q0 -76 65 -76q14 0 25 2.5t20 10t15.5 13t11.5 19t8 19.5t6 23.5t4 21.5t3.5 23.5t2.5 21.5l57 462h61zM363 769q0 -19 -14.5 -34
t-34.5 -15q-16 0 -26.5 11.5t-10.5 27.5q0 19 14.5 33.5t33.5 14.5q17 0 27.5 -10.5t10.5 -27.5zM237 769q0 -19 -14.5 -34t-34.5 -15q-16 0 -26.5 11.5t-10.5 27.5q0 19 14.5 33.5t33.5 14.5q17 0 27.5 -10.5t10.5 -27.5z" />
    <glyph glyph-name="Yacute" unicode="&#xdd;" horiz-adv-x="315" 
d="M367 667l-168 -378l-35 -289h-61l35 289l-83 378h66l38 -191q14 -73 17 -123q18 58 44 122l81 192h66zM327 817l-126 -103l-32 26l110 120z" />
    <glyph glyph-name="Thorn" unicode="&#xde;" horiz-adv-x="324" 
d="M169 667l-14 -117q72 0 103 -12q32 -13 47 -47t15 -73q0 -50 -14 -101.5t-44 -78.5q-19 -17 -48.5 -25.5t-46.5 -9t-55 -0.5l-25 -203h-61l82 667h61zM119 260h41q56 0 77 41q21 39 21 112q0 42 -19.5 61t-60.5 19h-30z" />
    <glyph glyph-name="germandbls" unicode="&#xdf;" horiz-adv-x="335" 
d="M84 447l15 113q5 39 12 66t21 55.5t40.5 43.5t63.5 15q103 0 103 -132q0 -151 -85 -190q32 -15 41.5 -42.5t9.5 -71.5q0 -34 -2.5 -66.5t-11.5 -78t-25 -78.5t-46.5 -57t-71.5 -24h-20l7 56h16q33 0 49 20.5t25 56.5q24 90 24 172q0 84 -56 84h-17l7 58h17q78 0 78 150
q0 44 -10.5 67.5t-40.5 23.5q-17 0 -30 -9t-19.5 -19t-12 -30.5t-7 -31l-4.5 -31.5l-69 -567h-55l47 389h-50l7 58h50z" />
    <glyph glyph-name="agrave" unicode="&#xe0;" horiz-adv-x="322" 
d="M300 447l-55 -447h-55l4 36q-38 -43 -81 -43q-82 0 -82 120q0 70 13 157.5t39 130.5q33 53 93 53q41 0 65 -37l4 30h55zM231 327q0 82 -48 82q-32 0 -53 -37q-20 -36 -31 -113.5t-11 -134.5q0 -85 48 -85q19 0 32.5 9.5t21.5 27.5t11.5 32t7.5 34q22 112 22 185zM224 533
l-39 -26l-100 103l58 43z" />
    <glyph glyph-name="aacute" unicode="&#xe1;" horiz-adv-x="322" 
d="M300 447l-55 -447h-55l4 36q-38 -43 -81 -43q-82 0 -82 120q0 70 13 157.5t39 130.5q33 53 93 53q41 0 65 -37l4 30h55zM231 327q0 82 -48 82q-32 0 -53 -37q-20 -36 -31 -113.5t-11 -134.5q0 -85 48 -85q19 0 32.5 9.5t21.5 27.5t11.5 32t7.5 34q22 112 22 185zM312 610
l-126 -103l-32 26l110 120z" />
    <glyph glyph-name="acircumflex" unicode="&#xe2;" horiz-adv-x="322" 
d="M300 447l-55 -447h-55l4 36q-38 -43 -81 -43q-82 0 -82 120q0 70 13 157.5t39 130.5q33 53 93 53q41 0 65 -37l4 30h55zM231 327q0 82 -48 82q-32 0 -53 -37q-20 -36 -31 -113.5t-11 -134.5q0 -85 48 -85q19 0 32.5 9.5t21.5 27.5t11.5 32t7.5 34q22 112 22 185zM306 545
l-44 -38l-64 69l-82 -69l-32 38l123 107z" />
    <glyph glyph-name="atilde" unicode="&#xe3;" horiz-adv-x="322" 
d="M300 447l-55 -447h-55l4 36q-38 -43 -81 -43q-82 0 -82 120q0 70 13 157.5t39 130.5q33 53 93 53q41 0 65 -37l4 30h55zM231 327q0 82 -48 82q-32 0 -53 -37q-20 -36 -31 -113.5t-11 -134.5q0 -85 48 -85q19 0 32.5 9.5t21.5 27.5t11.5 32t7.5 34q22 112 22 185zM258 595
h57q-7 -33 -27 -57.5t-50 -24.5q-20 0 -48 17t-37 17q-17 0 -19 -25h-55q8 33 27.5 55t50.5 22q17 0 45 -16t37 -16q16 0 19 28z" />
    <glyph glyph-name="adieresis" unicode="&#xe4;" horiz-adv-x="322" 
d="M300 447l-55 -447h-55l4 36q-38 -43 -81 -43q-82 0 -82 120q0 70 13 157.5t39 130.5q33 53 93 53q41 0 65 -37l4 30h55zM231 327q0 82 -48 82q-32 0 -53 -37q-20 -36 -31 -113.5t-11 -134.5q0 -85 48 -85q19 0 32.5 9.5t21.5 27.5t11.5 32t7.5 34q22 112 22 185zM303 562
q0 -20 -14.5 -34.5t-34.5 -14.5q-16 0 -26.5 11.5t-10.5 27.5q0 19 14.5 33.5t33.5 14.5q17 0 27.5 -11t10.5 -27zM177 562q0 -20 -14.5 -34.5t-34.5 -14.5q-16 0 -26.5 11.5t-10.5 27.5q0 19 14.5 33.5t33.5 14.5q17 0 27.5 -11t10.5 -27z" />
    <glyph glyph-name="aring" unicode="&#xe5;" horiz-adv-x="322" 
d="M300 447l-55 -447h-55l4 36q-38 -43 -81 -43q-82 0 -82 120q0 70 13 157.5t39 130.5q33 53 93 53q41 0 65 -37l4 30h55zM231 327q0 82 -48 82q-32 0 -53 -37q-20 -36 -31 -113.5t-11 -134.5q0 -85 48 -85q19 0 32.5 9.5t21.5 27.5t11.5 32t7.5 34q22 112 22 185zM279 587
q0 -33 -23 -56.5t-56 -23.5t-56 23.5t-23 56.5t23 56.5t56 23.5t56 -23.5t23 -56.5zM239 587q0 17 -11.5 28.5t-27.5 11.5t-28 -11.5t-12 -28.5t12 -28.5t28 -11.5q17 0 28 11.5t11 28.5z" />
    <glyph glyph-name="ae" unicode="&#xe6;" horiz-adv-x="500" 
d="M76 366l7 62q42 26 83 26q80 0 105 -75q15 31 42.5 53t59.5 22q38 0 61.5 -28t30.5 -61t7 -71q0 -26 -6 -80h-194q-4 -36 -4 -53q0 -116 60 -116q56 0 72 110h52q-10 -64 -44.5 -113t-91.5 -49q-59 0 -84 74q-18 -33 -48.5 -53.5t-66.5 -20.5q-51 0 -73.5 35t-22.5 89
q0 43 12.5 82.5t43.5 69t75 29.5q49 0 74 -37q4 32 4 49q0 39 -17.5 65.5t-55.5 26.5q-33 0 -81 -36zM280 261h136q0 4 1 12t1.5 14t0.5 12q0 23 -3.5 43.5t-17 40t-35.5 19.5q-36 0 -57.5 -47.5t-25.5 -93.5zM214 167q0 85 -57 85q-43 0 -62.5 -40.5t-19.5 -89.5
q0 -76 56 -76q41 0 62 38t21 83z" />
    <glyph glyph-name="ccedilla" unicode="&#xe7;" horiz-adv-x="242" 
d="M249 437l-8 -66q-25 31 -51 31q-27 0 -49 -28.5t-32 -58.5t-14 -59q-8 -50 -8 -94q0 -18 2 -35t7.5 -37t18 -32t30.5 -12q28 0 60 40l-8 -70q-31 -23 -66 -23q-38 0 -62.5 28t-32.5 61.5t-8 71.5q0 66 13 122q16 69 53.5 123.5t95.5 54.5q31 0 59 -17zM146 -62l-99 -134
l-32 21l89 138z" />
    <glyph glyph-name="egrave" unicode="&#xe8;" horiz-adv-x="308" 
d="M207 152h56q-10 -66 -41 -112.5t-90 -46.5q-104 0 -104 160q0 66 13 124q8 41 24 78t48 68t72 31q96 0 96 -155q0 -41 -8 -87h-185q-5 -33 -5 -59q0 -107 54 -107q18 0 31 10t20.5 29.5t11 33t7.5 33.5zM94 260h131q2 32 2 51q0 91 -47 91q-63 0 -86 -142zM229 533
l-39 -26l-100 103l58 43z" />
    <glyph glyph-name="eacute" unicode="&#xe9;" horiz-adv-x="308" 
d="M207 152h56q-10 -66 -41 -112.5t-90 -46.5q-104 0 -104 160q0 66 13 124q8 41 24 78t48 68t72 31q96 0 96 -155q0 -41 -8 -87h-185q-5 -33 -5 -59q0 -107 54 -107q18 0 31 10t20.5 29.5t11 33t7.5 33.5zM94 260h131q2 32 2 51q0 91 -47 91q-63 0 -86 -142zM317 610
l-126 -103l-32 26l110 120z" />
    <glyph glyph-name="ecircumflex" unicode="&#xea;" horiz-adv-x="308" 
d="M207 152h56q-10 -66 -41 -112.5t-90 -46.5q-104 0 -104 160q0 66 13 124q8 41 24 78t48 68t72 31q96 0 96 -155q0 -41 -8 -87h-185q-5 -33 -5 -59q0 -107 54 -107q18 0 31 10t20.5 29.5t11 33t7.5 33.5zM94 260h131q2 32 2 51q0 91 -47 91q-63 0 -86 -142zM306 545
l-44 -38l-64 69l-82 -69l-32 38l123 107z" />
    <glyph glyph-name="edieresis" unicode="&#xeb;" horiz-adv-x="308" 
d="M207 152h56q-10 -66 -41 -112.5t-90 -46.5q-104 0 -104 160q0 66 13 124q8 41 24 78t48 68t72 31q96 0 96 -155q0 -41 -8 -87h-185q-5 -33 -5 -59q0 -107 54 -107q18 0 31 10t20.5 29.5t11 33t7.5 33.5zM94 260h131q2 32 2 51q0 91 -47 91q-63 0 -86 -142zM303 562
q0 -20 -14.5 -34.5t-34.5 -14.5q-16 0 -26.5 11.5t-10.5 27.5q0 19 14.5 33.5t33.5 14.5q17 0 27.5 -11t10.5 -27zM177 562q0 -20 -14.5 -34.5t-34.5 -14.5q-16 0 -26.5 11.5t-10.5 27.5q0 19 14.5 33.5t33.5 14.5q17 0 27.5 -11t10.5 -27z" />
    <glyph glyph-name="igrave" unicode="&#xec;" horiz-adv-x="154" 
d="M131 447l-54 -447h-56l55 447h55zM150 533l-39 -26l-100 103l58 43z" />
    <glyph glyph-name="iacute" unicode="&#xed;" horiz-adv-x="154" 
d="M131 447l-54 -447h-56l55 447h55zM238 610l-126 -103l-32 26l110 120z" />
    <glyph glyph-name="icircumflex" unicode="&#xee;" horiz-adv-x="154" 
d="M131 447l-54 -447h-56l55 447h55zM227 545l-44 -38l-64 69l-82 -69l-32 38l123 107z" />
    <glyph glyph-name="idieresis" unicode="&#xef;" horiz-adv-x="154" 
d="M131 447l-54 -447h-56l55 447h55zM224 562q0 -20 -15 -34.5t-34 -14.5q-16 0 -26.5 11.5t-10.5 27.5q0 19 14.5 33.5t33.5 14.5q16 0 27 -11t11 -27zM98 562q0 -20 -15 -34.5t-34 -14.5q-16 0 -26.5 11.5t-10.5 27.5q0 19 14.5 33.5t33.5 14.5q16 0 27 -11t11 -27z" />
    <glyph glyph-name="eth" unicode="&#xf0;" horiz-adv-x="318" 
d="M313 690l-56 -37q27 -36 36 -77t9 -98q0 -121 -17 -254q-15 -121 -54 -176q-41 -55 -97 -55q-105 0 -105 162q0 32 4 68t15.5 78.5t28.5 75.5t46 55t65 22q39 0 55 -30q3 60 3 78q0 77 -30 127l-67 -42l-21 38l56 35q-27 21 -80 48l25 32q57 -22 97 -52l64 38zM232 303
q0 99 -51 99q-28 0 -48.5 -31t-30 -76.5t-13.5 -83t-4 -64.5q0 -102 54 -102q28 0 47.5 31.5t28.5 78t13 83.5t4 65z" />
    <glyph glyph-name="ntilde" unicode="&#xf1;" horiz-adv-x="325" 
d="M131 447l-4 -36q43 43 90 43q37 0 56 -22.5t19 -59.5q0 -22 -3 -41l-40 -331h-56l39 321q4 26 4 39q0 21 -11 34.5t-31 13.5q-69 0 -80 -107l-37 -301h-56l55 447h55zM270 595h57q-7 -33 -27 -57.5t-50 -24.5q-20 0 -48 17t-37 17q-17 0 -19 -25h-55q8 33 27.5 55
t50.5 22q17 0 45 -16t37 -16q16 0 19 28z" />
    <glyph glyph-name="ograve" unicode="&#xf2;" horiz-adv-x="318" 
d="M290 328v-17q0 -47 -6 -93.5t-21 -101.5t-48.5 -89t-81.5 -34q-105 0 -105 162q0 43 7 89.5t23.5 96t50.5 81.5t80 32q51 0 76 -36.5t25 -89.5zM232 298q0 104 -50 104q-29 0 -49.5 -30.5t-30 -76.5t-13.5 -83t-4 -65q0 -101 53 -101q28 0 48 30t29 75.5t13 82t4 64.5z
M234 533l-39 -26l-100 103l58 43z" />
    <glyph glyph-name="oacute" unicode="&#xf3;" horiz-adv-x="318" 
d="M290 328v-17q0 -47 -6 -93.5t-21 -101.5t-48.5 -89t-81.5 -34q-105 0 -105 162q0 43 7 89.5t23.5 96t50.5 81.5t80 32q51 0 76 -36.5t25 -89.5zM232 298q0 104 -50 104q-29 0 -49.5 -30.5t-30 -76.5t-13.5 -83t-4 -65q0 -101 53 -101q28 0 48 30t29 75.5t13 82t4 64.5z
M322 610l-126 -103l-32 26l110 120z" />
    <glyph glyph-name="ocircumflex" unicode="&#xf4;" horiz-adv-x="318" 
d="M290 328v-17q0 -47 -6 -93.5t-21 -101.5t-48.5 -89t-81.5 -34q-105 0 -105 162q0 43 7 89.5t23.5 96t50.5 81.5t80 32q51 0 76 -36.5t25 -89.5zM232 298q0 104 -50 104q-29 0 -49.5 -30.5t-30 -76.5t-13.5 -83t-4 -65q0 -101 53 -101q28 0 48 30t29 75.5t13 82t4 64.5z
M311 545l-44 -38l-64 69l-82 -69l-32 38l123 107z" />
    <glyph glyph-name="otilde" unicode="&#xf5;" horiz-adv-x="318" 
d="M290 328v-17q0 -47 -6 -93.5t-21 -101.5t-48.5 -89t-81.5 -34q-105 0 -105 162q0 43 7 89.5t23.5 96t50.5 81.5t80 32q51 0 76 -36.5t25 -89.5zM232 298q0 104 -50 104q-29 0 -49.5 -30.5t-30 -76.5t-13.5 -83t-4 -65q0 -101 53 -101q28 0 48 30t29 75.5t13 82t4 64.5z
M263 595h57q-7 -33 -27 -57.5t-50 -24.5q-20 0 -48 17t-37 17q-17 0 -19 -25h-55q8 33 27.5 55t50.5 22q17 0 45 -16t37 -16q16 0 19 28z" />
    <glyph glyph-name="odieresis" unicode="&#xf6;" horiz-adv-x="318" 
d="M290 328v-17q0 -47 -6 -93.5t-21 -101.5t-48.5 -89t-81.5 -34q-105 0 -105 162q0 43 7 89.5t23.5 96t50.5 81.5t80 32q51 0 76 -36.5t25 -89.5zM232 298q0 104 -50 104q-29 0 -49.5 -30.5t-30 -76.5t-13.5 -83t-4 -65q0 -101 53 -101q28 0 48 30t29 75.5t13 82t4 64.5z
M308 562q0 -20 -15 -34.5t-34 -14.5q-16 0 -26.5 11.5t-10.5 27.5q0 19 14.5 33.5t33.5 14.5q16 0 27 -11t11 -27zM182 562q0 -20 -15 -34.5t-34 -14.5q-16 0 -26.5 11.5t-10.5 27.5q0 19 14.5 33.5t33.5 14.5q16 0 27 -11t11 -27z" />
    <glyph glyph-name="divide" unicode="&#xf7;" horiz-adv-x="500" 
d="M304 517q0 -17 -12 -29.5t-29 -12.5t-29.5 12.5t-12.5 29.5t12.5 29t29.5 12t29 -12t12 -29zM479 305h-433v52h433v-52zM304 145q0 -17 -12 -29t-29 -12t-29.5 12t-12.5 29t12.5 29.5t29.5 12.5t29 -12.5t12 -29.5z" />
    <glyph glyph-name="oslash" unicode="&#xf8;" horiz-adv-x="346" 
d="M339 435l-42 -60q8 -37 8 -68q0 -46 -6 -92.5t-21.5 -100.5t-49 -87.5t-81.5 -33.5q-54 0 -83 44l-28 -40l-29 18l43 62q-7 36 -7 77q0 43 7 89.5t23.5 96.5t50.5 82t80 32q50 0 78 -42l29 42zM99 141l141 218q-9 43 -44 43q-29 0 -49.5 -31t-30 -79t-13 -84t-4.5 -67z
M246 304l-140 -214q11 -44 46 -44q29 0 49 30.5t29 78.5t12 83t4 66z" />
    <glyph glyph-name="ugrave" unicode="&#xf9;" horiz-adv-x="327" 
d="M305 447l-41 -338q-7 -54 -41.5 -85t-88.5 -31q-46 0 -73 25.5t-27 71.5q0 13 1 19l41 338h56l-36 -291q-4 -34 -4 -51q0 -59 50 -59q21 0 35 9t20.5 26t9.5 31t6 35q0 3 0.5 5t0.5 4l36 291h55zM238 533l-39 -26l-100 103l58 43z" />
    <glyph glyph-name="uacute" unicode="&#xfa;" horiz-adv-x="327" 
d="M305 447l-41 -338q-7 -54 -41.5 -85t-88.5 -31q-46 0 -73 25.5t-27 71.5q0 13 1 19l41 338h56l-36 -291q-4 -34 -4 -51q0 -59 50 -59q21 0 35 9t20.5 26t9.5 31t6 35q0 3 0.5 5t0.5 4l36 291h55zM317 610l-126 -103l-32 26l110 120z" />
    <glyph glyph-name="ucircumflex" unicode="&#xfb;" horiz-adv-x="327" 
d="M305 447l-41 -338q-7 -54 -41.5 -85t-88.5 -31q-46 0 -73 25.5t-27 71.5q0 13 1 19l41 338h56l-36 -291q-4 -34 -4 -51q0 -59 50 -59q21 0 35 9t20.5 26t9.5 31t6 35q0 3 0.5 5t0.5 4l36 291h55zM315 545l-44 -38l-64 69l-82 -69l-32 38l123 107z" />
    <glyph glyph-name="udieresis" unicode="&#xfc;" horiz-adv-x="327" 
d="M305 447l-41 -338q-7 -54 -41.5 -85t-88.5 -31q-46 0 -73 25.5t-27 71.5q0 13 1 19l41 338h56l-36 -291q-4 -34 -4 -51q0 -59 50 -59q21 0 35 9t20.5 26t9.5 31t6 35q0 3 0.5 5t0.5 4l36 291h55zM307 562q0 -20 -14.5 -34.5t-34.5 -14.5q-16 0 -26.5 11.5t-10.5 27.5
q0 19 14.5 33.5t33.5 14.5q17 0 27.5 -11t10.5 -27zM181 562q0 -20 -14.5 -34.5t-34.5 -14.5q-16 0 -26.5 11.5t-10.5 27.5q0 19 14.5 33.5t33.5 14.5q17 0 27.5 -11t10.5 -27z" />
    <glyph glyph-name="yacute" unicode="&#xfd;" horiz-adv-x="291" 
d="M312 447l-232 -627h-59l71 192l-52 435h57l25 -248q6 -55 6 -112q6 20 35 103l91 257h58zM291 610l-126 -103l-32 26l110 120z" />
    <glyph glyph-name="thorn" unicode="&#xfe;" horiz-adv-x="318" 
d="M167 729l-38 -313q35 38 74 38q89 0 89 -119q0 -65 -12 -147t-33 -128q-33 -67 -96 -67q-42 0 -69 43l-27 -216h-55l111 909h56zM235 323q0 85 -51 85q-44 0 -65 -74q-27 -96 -27 -221q0 -74 50 -74q20 0 34.5 14.5t20 28t12.5 37.5q26 96 26 204z" />
    <glyph glyph-name="ydieresis" unicode="&#xff;" horiz-adv-x="291" 
d="M312 447l-232 -627h-59l71 192l-52 435h57l25 -248q6 -55 6 -112q6 20 35 103l91 257h58zM287 562q0 -20 -14.5 -34.5t-34.5 -14.5q-16 0 -26.5 11.5t-10.5 27.5q0 19 14.5 33.5t33.5 14.5q17 0 27.5 -11t10.5 -27zM161 562q0 -20 -14.5 -34.5t-34.5 -14.5
q-16 0 -26.5 11.5t-10.5 27.5q0 19 14.5 33.5t33.5 14.5q17 0 27.5 -11t10.5 -27z" />
    <glyph glyph-name="Amacron" unicode="&#x100;" horiz-adv-x="320" 
d="M291 0h-65l-8 137h-139l-41 -137h-65l211 667h58zM215 191l-14 235q-3 40 -3 80q0 38 3 77q-8 -47 -22 -103t-24 -91t-31 -104.5t-28 -93.5h119zM330 782l-7 -55h-221l6 55h222z" />
    <glyph glyph-name="amacron" unicode="&#x101;" horiz-adv-x="322" 
d="M300 447l-55 -447h-55l4 36q-38 -43 -81 -43q-82 0 -82 120q0 70 13 157.5t39 130.5q33 53 93 53q41 0 65 -37l4 30h55zM231 327q0 82 -48 82q-32 0 -53 -37q-20 -36 -31 -113.5t-11 -134.5q0 -85 48 -85q19 0 32.5 9.5t21.5 27.5t11.5 32t7.5 34q22 112 22 185zM310 575
l-7 -55h-221l6 55h222z" />
    <glyph glyph-name="Abreve" unicode="&#x102;" horiz-adv-x="320" 
d="M291 0h-65l-8 137h-139l-41 -137h-65l211 667h58zM215 191l-14 235q-3 40 -3 80q0 38 3 77q-8 -47 -22 -103t-24 -91t-31 -104.5t-28 -93.5h119zM296 810h47q-10 -45 -47 -68.5t-85 -23.5q-47 0 -79 23t-32 69h48q10 -41 69 -41q57 0 79 41z" />
    <glyph glyph-name="abreve" unicode="&#x103;" horiz-adv-x="322" 
d="M300 447l-55 -447h-55l4 36q-38 -43 -81 -43q-82 0 -82 120q0 70 13 157.5t39 130.5q33 53 93 53q41 0 65 -37l4 30h55zM231 327q0 82 -48 82q-32 0 -53 -37q-20 -36 -31 -113.5t-11 -134.5q0 -85 48 -85q19 0 32.5 9.5t21.5 27.5t11.5 32t7.5 34q22 112 22 185zM276 599
h47q-10 -45 -47 -68.5t-85 -23.5q-47 0 -79 23t-32 69h48q10 -41 69 -41q57 0 79 41z" />
    <glyph glyph-name="Aogonek" unicode="&#x104;" horiz-adv-x="320" 
d="M184 667h58l49 -667h-20l-26 -36q-15 -25 -15 -41q0 -11 6 -17q9 -9 29 -9q15 0 38 8l-5 -48q-21 -9 -45 -9q-31 0 -51 13q-23 14 -23 43q0 24 18 56q5 7 29 40l-8 137h-139l-41 -137h-65zM215 191l-14 235q-3 37 -3 80q0 48 3 77q-14 -72 -37 -160q-7 -27 -44 -151
l-24 -81h119z" />
    <glyph glyph-name="aogonek" unicode="&#x105;" horiz-adv-x="322" 
d="M300 447l-55 -447h-11q-15 -18 -27 -38q-14 -23 -14 -38q0 -13 9 -19q8 -7 26 -7q15 0 38 8l-5 -47q-21 -9 -45 -9q-30 0 -50 13q-23 14 -23 42q0 26 17 54q13 20 30 41l4 36q-10 -17 -31 -29q-23 -14 -50 -14q-34 0 -55 21q-27 27 -27 106q0 61 14 155q17 108 54 146
q31 33 79 33q42 0 63 -37l4 30h55zM88 124q0 -55 17 -72q13 -13 32 -13q21 0 37 15q26 24 43 130q14 90 14 142t-19 71q-12 12 -29 12q-23 0 -39 -17q-33 -35 -47 -150q-9 -72 -9 -118z" />
    <glyph glyph-name="Cacute" unicode="&#x106;" horiz-adv-x="315" 
d="M350 655l-8 -68q-39 29 -73 29q-59 0 -96 -61q-34 -55 -50.5 -156t-16.5 -188q0 -160 88 -160q39 0 85 30l-7 -62q-44 -28 -89 -28q-54 0 -87.5 36t-44 80.5t-10.5 97.5q0 103 26 221.5t76 182.5q54 67 130 67q48 0 77 -21zM407 817l-126 -103l-32 26l110 120z" />
    <glyph glyph-name="cacute" unicode="&#x107;" horiz-adv-x="242" 
d="M249 437l-8 -66q-25 31 -51 31q-27 0 -49 -28.5t-32 -58.5t-14 -59q-8 -50 -8 -94q0 -18 2 -35t7.5 -37t18 -32t30.5 -12q28 0 60 40l-8 -70q-31 -23 -66 -23q-38 0 -62.5 28t-32.5 61.5t-8 71.5q0 66 13 122q16 69 53.5 123.5t95.5 54.5q31 0 59 -17zM322 610l-126 -103
l-32 26l110 120z" />
    <glyph glyph-name="Ccircumflex" unicode="&#x108;" horiz-adv-x="315" 
d="M350 655l-8 -68q-39 29 -73 29q-59 0 -96 -61q-34 -55 -50.5 -156t-16.5 -188q0 -160 88 -160q39 0 85 30l-7 -62q-44 -28 -89 -28q-54 0 -87.5 36t-44 80.5t-10.5 97.5q0 103 26 221.5t76 182.5q54 67 130 67q48 0 77 -21zM396 752l-44 -38l-64 69l-82 -69l-32 38
l123 107z" />
    <glyph glyph-name="ccircumflex" unicode="&#x109;" horiz-adv-x="242" 
d="M249 437l-8 -66q-25 31 -51 31q-27 0 -49 -28.5t-32 -58.5t-14 -59q-8 -50 -8 -94q0 -18 2 -35t7.5 -37t18 -32t30.5 -12q28 0 60 40l-8 -70q-31 -23 -66 -23q-38 0 -62.5 28t-32.5 61.5t-8 71.5q0 66 13 122q16 69 53.5 123.5t95.5 54.5q31 0 59 -17zM311 545l-44 -38
l-64 69l-82 -69l-32 38l123 107z" />
    <glyph glyph-name="Cdotaccent" unicode="&#x10a;" horiz-adv-x="315" 
d="M350 655l-8 -68q-39 29 -73 29q-59 0 -96 -61q-34 -55 -50.5 -156t-16.5 -188q0 -160 88 -160q39 0 85 30l-7 -62q-44 -28 -89 -28q-54 0 -87.5 36t-44 80.5t-10.5 97.5q0 103 26 221.5t76 182.5q54 67 130 67q48 0 77 -21zM324 771q0 -20 -15.5 -35.5t-35.5 -15.5
q-16 0 -27.5 11.5t-11.5 28.5q0 20 15.5 35.5t35.5 15.5q17 0 28 -11.5t11 -28.5z" />
    <glyph glyph-name="cdotaccent" unicode="&#x10b;" horiz-adv-x="242" 
d="M249 437l-8 -66q-25 31 -51 31q-27 0 -49 -28.5t-32 -58.5t-14 -59q-8 -50 -8 -94q0 -18 2 -35t7.5 -37t18 -32t30.5 -12q28 0 60 40l-8 -70q-31 -23 -66 -23q-38 0 -62.5 28t-32.5 61.5t-8 71.5q0 66 13 122q16 69 53.5 123.5t95.5 54.5q31 0 59 -17zM241 564
q0 -20 -15.5 -35.5t-35.5 -15.5q-16 0 -27.5 11.5t-11.5 28.5q0 20 15.5 35.5t35.5 15.5q17 0 28 -11.5t11 -28.5z" />
    <glyph glyph-name="Ccaron" unicode="&#x10c;" horiz-adv-x="315" 
d="M350 655l-8 -68q-39 29 -73 29q-59 0 -96 -61q-34 -55 -50.5 -156t-16.5 -188q0 -160 88 -160q39 0 85 30l-7 -62q-44 -28 -89 -28q-54 0 -87.5 36t-44 80.5t-10.5 97.5q0 103 26 221.5t76 182.5q54 67 130 67q48 0 77 -21zM405 821l-126 -107l-96 107l41 38l64 -69
l82 69z" />
    <glyph glyph-name="ccaron" unicode="&#x10d;" horiz-adv-x="242" 
d="M249 437l-8 -66q-25 31 -51 31q-27 0 -49 -28.5t-32 -58.5t-14 -59q-8 -50 -8 -94q0 -18 2 -35t7.5 -37t18 -32t30.5 -12q28 0 60 40l-8 -70q-31 -23 -66 -23q-38 0 -62.5 28t-32.5 61.5t-8 71.5q0 66 13 122q16 69 53.5 123.5t95.5 54.5q31 0 59 -17zM320 614l-126 -107
l-96 107l41 38l64 -69l82 69z" />
    <glyph glyph-name="Dcaron" unicode="&#x10e;" horiz-adv-x="365" 
d="M108 667h76q91 0 129 -40t38 -131q0 -186 -41 -331q-23 -84 -70.5 -124.5t-132.5 -40.5h-81zM94 57h29q50 0 79 28q33 30 49 87q36 129 36 314q0 61 -20.5 92.5t-78.5 31.5h-26zM341 821l-126 -107l-96 107l41 38l64 -69l82 69z" />
    <glyph glyph-name="dcaron" unicode="&#x10f;" horiz-adv-x="397" 
d="M331 729l-91 -729h-55l4 36q-38 -43 -81 -43q-82 0 -82 120q0 71 13 157.5t39 130.5q33 53 92 53q23 0 37.5 -8.5t28.5 -28.5l39 312h56zM225 327q0 82 -47 82q-31 0 -52 -37q-20 -36 -31.5 -113t-11.5 -135q0 -85 48 -85q19 0 32.5 9.5t21.5 27.5t12 31.5t8 34.5
q20 111 20 185zM472 648l-106 -186l-37 19l88 195z" />
    <glyph glyph-name="Dcroat" unicode="&#x110;" horiz-adv-x="365" 
d="M108 667h77q75 0 112 -26q54 -40 54 -142q0 -136 -28 -278q-11 -54 -24.5 -90.5t-37.5 -68t-62 -47t-92 -15.5h-81l40 321h-47l6 50h47zM94 57h29q44 0 71 21t46 63q22 48 34.5 159t12.5 187q0 59 -21 91t-77 32h-27l-29 -239h88l-6 -50h-88z" />
    <glyph glyph-name="dcroat" unicode="&#x111;" horiz-adv-x="323" 
d="M233 397l15 126h-103l7 52h103l19 154h56l-19 -155h50l-7 -52h-49l-65 -522h-55l4 36q-32 -43 -79 -43q-32 0 -53 21q-31 31 -31 110q0 73 20 161q20 85 56 121q28 28 65 28q45 0 66 -37zM176 389q-20 0 -35 -15q-29 -32 -45 -117q-13 -63 -13 -133q0 -54 19 -73
q12 -12 29 -12q23 0 37 14q25 23 41 111q15 88 15 132q0 60 -21 81q-12 12 -27 12z" />
    <glyph glyph-name="Emacron" unicode="&#x112;" horiz-adv-x="297" 
d="M313 667l-7 -57h-144l-29 -235h140l-6 -57h-141l-32 -261h144l-7 -57h-205l82 667h205zM335 782l-7 -55h-221l6 55h222z" />
    <glyph glyph-name="emacron" unicode="&#x113;" horiz-adv-x="308" 
d="M207 152h56q-10 -66 -41 -112.5t-90 -46.5q-104 0 -104 160q0 66 13 124q8 41 24 78t48 68t72 31q96 0 96 -155q0 -41 -8 -87h-185q-5 -33 -5 -59q0 -107 54 -107q18 0 31 10t20.5 29.5t11 33t7.5 33.5zM94 260h131q2 32 2 51q0 91 -47 91q-63 0 -86 -142zM310 575
l-7 -55h-221l6 55h222z" />
    <glyph glyph-name="Edotaccent" unicode="&#x116;" horiz-adv-x="297" 
d="M313 667l-7 -57h-144l-29 -235h140l-6 -57h-141l-32 -261h144l-7 -57h-205l82 667h205zM267 771q0 -20 -15.5 -35.5t-35.5 -15.5q-16 0 -27.5 11.5t-11.5 28.5q0 20 15.5 35.5t35.5 15.5q17 0 28 -11.5t11 -28.5z" />
    <glyph glyph-name="edotaccent" unicode="&#x117;" horiz-adv-x="308" 
d="M207 152h56q-10 -66 -41 -112.5t-90 -46.5q-104 0 -104 160q0 66 13 124q8 41 24 78t48 68t72 31q96 0 96 -155q0 -41 -8 -87h-185q-5 -33 -5 -59q0 -107 54 -107q18 0 31 10t20.5 29.5t11 33t7.5 33.5zM94 260h131q2 32 2 51q0 91 -47 91q-63 0 -86 -142zM242 564
q0 -20 -15.5 -35.5t-35.5 -15.5q-16 0 -27.5 11.5t-11.5 28.5q0 20 15.5 35.5t35.5 15.5q17 0 28 -11.5t11 -28.5z" />
    <glyph glyph-name="Eogonek" unicode="&#x118;" horiz-adv-x="297" 
d="M313 667l-7 -57h-144l-29 -235h140l-6 -57h-141l-32 -261h144l-7 -57h-28l-26 -36q-15 -25 -15 -41q0 -11 6 -17q9 -9 29 -9q15 0 38 8l-5 -48q-21 -9 -45 -9q-31 0 -51 13q-23 14 -23 43q0 24 18 56q5 7 29 40h-132l82 667h205z" />
    <glyph glyph-name="eogonek" unicode="&#x119;" horiz-adv-x="308" 
d="M207 152h56q-7 -39 -19 -72t-34 -61q-34 -46 -38 -52q-15 -24 -15 -43q0 -13 9 -19q8 -7 25 -7q20 0 38 8l-5 -47q-22 -9 -44 -9q-30 0 -51 13q-23 14 -23 42q0 40 41 88q-56 0 -83 27q-36 36 -36 134q0 88 21 158q21 69 59 107q35 35 77 35q34 0 58 -22q38 -36 38 -132
q0 -40 -8 -88h-185q-5 -30 -5 -65q0 -61 20 -85q13 -16 34 -16t36 16q23 24 34 90zM94 260h131q0 3 1 22t1 27q0 62 -20 82q-11 11 -27 11q-21 0 -39 -18q-32 -32 -47 -124z" />
    <glyph glyph-name="Ecaron" unicode="&#x11a;" horiz-adv-x="297" 
d="M313 667l-7 -57h-144l-29 -235h140l-6 -57h-141l-32 -261h144l-7 -57h-205l82 667h205zM345 821l-126 -107l-96 107l41 38l64 -69l82 69z" />
    <glyph glyph-name="ecaron" unicode="&#x11b;" horiz-adv-x="308" 
d="M207 152h56q-10 -66 -41 -112.5t-90 -46.5q-104 0 -104 160q0 66 13 124q8 41 24 78t48 68t72 31q96 0 96 -155q0 -41 -8 -87h-185q-5 -33 -5 -59q0 -107 54 -107q18 0 31 10t20.5 29.5t11 33t7.5 33.5zM94 260h131q2 32 2 51q0 91 -47 91q-63 0 -86 -142zM315 614
l-126 -107l-96 107l41 38l64 -69l82 69z" />
    <glyph glyph-name="Gcircumflex" unicode="&#x11c;" horiz-adv-x="368" 
d="M369 550l-63 -24q-4 90 -62 90q-78 0 -110 -150q-32 -142 -32 -287q0 -25 2 -42t8 -39.5t21.5 -34.5t39.5 -12q48 0 71 49q7 15 13.5 44t9 48t7 59.5t4.5 43.5h-89l7 57h150l-16 -134q-8 -64 -17 -97q-16 -59 -55 -94.5t-97 -35.5q-121 0 -121 169q0 199 41 347
q20 73 61.5 121t109.5 48q57 0 83.5 -33t33.5 -93zM376 752l-44 -38l-64 69l-82 -69l-32 38l123 107z" />
    <glyph glyph-name="gcircumflex" unicode="&#x11d;" horiz-adv-x="326" 
d="M304 447l-58 -476q-1 -4 -2.5 -17.5t-2 -18.5t-3 -15.5t-4.5 -17t-6.5 -15t-9.5 -16.5q-31 -51 -107 -51q-99 0 -99 101q0 14 4 40h55q-2 -18 -2 -29q0 -59 52 -59q25 0 40.5 14t20 30t7.5 43q1 12 3.5 35.5t4.5 36.5q-34 -32 -75 -32q-90 0 -90 130q0 44 5 90.5
t18.5 104t44.5 93.5t76 36q42 0 69 -38l4 31h55zM234 321q0 87 -51 87q-22 0 -37.5 -16t-21.5 -32t-12 -41q-23 -97 -23 -183q0 -90 52 -90q19 0 32.5 9.5t21.5 29t11.5 31.5t7.5 34q20 102 20 171zM306 545l-44 -38l-64 69l-82 -69l-32 38l123 107z" />
    <glyph glyph-name="Gbreve" unicode="&#x11e;" horiz-adv-x="368" 
d="M369 550l-63 -24q-4 90 -62 90q-78 0 -110 -150q-32 -142 -32 -287q0 -25 2 -42t8 -39.5t21.5 -34.5t39.5 -12q48 0 71 49q7 15 13.5 44t9 48t7 59.5t4.5 43.5h-89l7 57h150l-16 -134q-8 -64 -17 -97q-16 -59 -55 -94.5t-97 -35.5q-121 0 -121 169q0 199 41 347
q20 73 61.5 121t109.5 48q57 0 83.5 -33t33.5 -93zM341 810h47q-10 -45 -47 -68.5t-85 -23.5q-47 0 -79 23t-32 69h48q10 -41 69 -41q57 0 79 41z" />
    <glyph glyph-name="gbreve" unicode="&#x11f;" horiz-adv-x="326" 
d="M304 447l-58 -476q-1 -4 -2.5 -17.5t-2 -18.5t-3 -15.5t-4.5 -17t-6.5 -15t-9.5 -16.5q-31 -51 -107 -51q-99 0 -99 101q0 14 4 40h55q-2 -18 -2 -29q0 -59 52 -59q25 0 40.5 14t20 30t7.5 43q1 12 3.5 35.5t4.5 36.5q-34 -32 -75 -32q-90 0 -90 130q0 44 5 90.5
t18.5 104t44.5 93.5t76 36q42 0 69 -38l4 31h55zM234 321q0 87 -51 87q-22 0 -37.5 -16t-21.5 -32t-12 -41q-23 -97 -23 -183q0 -90 52 -90q19 0 32.5 9.5t21.5 29t11.5 31.5t7.5 34q20 102 20 171zM276 599h47q-10 -45 -47 -68.5t-85 -23.5q-47 0 -79 23t-32 69h48
q10 -41 69 -41q57 0 79 41z" />
    <glyph glyph-name="Gdotaccent" unicode="&#x120;" horiz-adv-x="368" 
d="M369 550l-63 -24q-4 90 -62 90q-78 0 -110 -150q-32 -142 -32 -287q0 -25 2 -42t8 -39.5t21.5 -34.5t39.5 -12q48 0 71 49q7 15 13.5 44t9 48t7 59.5t4.5 43.5h-89l7 57h150l-16 -134q-8 -64 -17 -97q-16 -59 -55 -94.5t-97 -35.5q-121 0 -121 169q0 199 41 347
q20 73 61.5 121t109.5 48q57 0 83.5 -33t33.5 -93zM307 771q0 -20 -15.5 -35.5t-35.5 -15.5q-16 0 -27.5 11.5t-11.5 28.5q0 20 15.5 35.5t35.5 15.5q17 0 28 -11.5t11 -28.5z" />
    <glyph glyph-name="gdotaccent" unicode="&#x121;" horiz-adv-x="326" 
d="M304 447l-58 -476q-1 -4 -2.5 -17.5t-2 -18.5t-3 -15.5t-4.5 -17t-6.5 -15t-9.5 -16.5q-31 -51 -107 -51q-99 0 -99 101q0 14 4 40h55q-2 -18 -2 -29q0 -59 52 -59q25 0 40.5 14t20 30t7.5 43q1 12 3.5 35.5t4.5 36.5q-34 -32 -75 -32q-90 0 -90 130q0 44 5 90.5
t18.5 104t44.5 93.5t76 36q42 0 69 -38l4 31h55zM234 321q0 87 -51 87q-22 0 -37.5 -16t-21.5 -32t-12 -41q-23 -97 -23 -183q0 -90 52 -90q19 0 32.5 9.5t21.5 29t11.5 31.5t7.5 34q20 102 20 171zM242 564q0 -20 -15.5 -35.5t-35.5 -15.5q-16 0 -27.5 11.5t-11.5 28.5
q0 20 15.5 35.5t35.5 15.5q17 0 28 -11.5t11 -28.5z" />
    <glyph glyph-name="Gcommaaccent" unicode="&#x122;" horiz-adv-x="368" 
d="M369 550l-63 -24q-4 90 -62 90q-78 0 -110 -150q-32 -142 -32 -287q0 -25 2 -42t8 -39.5t21.5 -34.5t39.5 -12q48 0 71 49q7 15 13.5 44t9 48t7 59.5t4.5 43.5h-89l7 57h150l-16 -134q-8 -64 -17 -97q-16 -59 -55 -94.5t-97 -35.5q-121 0 -121 169q0 199 41 347
q20 73 61.5 121t109.5 48q57 0 83.5 -33t33.5 -93zM192 -77l-91 -154l-37 19l73 163z" />
    <glyph glyph-name="gcommaaccent" unicode="&#x123;" horiz-adv-x="326" 
d="M304 447l-58 -476q-1 -4 -2.5 -17.5t-2 -18.5t-3 -15.5t-4.5 -17t-6.5 -15t-9.5 -16.5q-31 -51 -107 -51q-99 0 -99 101q0 14 4 40h55q-2 -18 -2 -29q0 -59 52 -59q25 0 40.5 14t20 30t7.5 43q1 12 3.5 35.5t4.5 36.5q-34 -32 -75 -32q-90 0 -90 130q0 44 5 90.5
t18.5 104t44.5 93.5t76 36q42 0 69 -38l4 31h55zM234 321q0 87 -51 87q-22 0 -37.5 -16t-21.5 -32t-12 -41q-23 -97 -23 -183q0 -90 52 -90q19 0 32.5 9.5t21.5 29t11.5 31.5t7.5 34q20 102 20 171zM137 523l91 154l37 -19l-73 -163z" />
    <glyph glyph-name="Hcircumflex" unicode="&#x124;" horiz-adv-x="380" 
d="M380 667l-82 -667h-61l42 344h-150l-42 -344h-61l82 667h61l-33 -266h150l33 266h61zM366 752l-44 -38l-64 69l-82 -69l-32 38l123 107z" />
    <glyph glyph-name="hcircumflex" unicode="&#x125;" horiz-adv-x="325" 
d="M166 729l-39 -318q43 43 91 43q74 0 74 -78q0 -24 -3 -45l-40 -331h-56l39 321q4 26 4 39q0 21 -11 34.5t-31 13.5q-69 0 -80 -107l-37 -301h-56l90 729h55zM256 795l-44 -38l-64 69l-82 -69l-32 38l123 107z" />
    <glyph glyph-name="Hbar" unicode="&#x126;" horiz-adv-x="380" 
d="M129 344l-42 -344h-61l69 562h-50l6 47h50l7 58h61l-7 -58h150l7 58h61l-7 -58h50l-6 -47h-50l-69 -562h-61l42 344h-150zM306 562h-150l-20 -161h150z" />
    <glyph glyph-name="hbar" unicode="&#x127;" horiz-adv-x="322" 
d="M21 0l64 522h-49l7 52h49l18 155h56l-19 -155h104l-7 -52h-104l-16 -131q43 43 91 43q74 0 74 -78q0 -24 -3 -45l-37 -311h-56l37 301q4 26 4 39q0 21 -11 34.5t-31 13.5q-69 0 -80 -107l-35 -281h-56z" />
    <glyph glyph-name="Imacron" unicode="&#x12a;" horiz-adv-x="169" 
d="M169 667l-82 -667h-61l82 667h61zM255 782l-7 -55h-221l6 55h222z" />
    <glyph glyph-name="imacron" unicode="&#x12b;" horiz-adv-x="154" 
d="M131 447l-54 -447h-56l55 447h55zM231 575l-7 -55h-221l6 55h222z" />
    <glyph glyph-name="Iogonek" unicode="&#x12e;" horiz-adv-x="169" 
d="M169 667l-82 -667q-12 -16 -26 -36q-15 -23 -15 -41q0 -11 6 -17q9 -9 29 -9q15 0 38 8l-5 -48q-21 -9 -45 -9q-31 0 -51 13q-23 14 -23 43q0 24 18 56q5 7 29 40h-16l82 667h61z" />
    <glyph glyph-name="iogonek" unicode="&#x12f;" horiz-adv-x="154" 
d="M163 593q0 -19 -14 -33t-33 -14q-16 0 -26.5 10.5t-10.5 25.5q0 20 14.5 34t33.5 14q15 0 25.5 -10.5t10.5 -26.5zM109 -95l-5 -48q-21 -9 -45 -9q-31 0 -51 13q-23 14 -23 43q0 24 18 56q5 7 29 40h-11l55 447h55l-54 -447q-12 -16 -26 -36q-15 -23 -15 -41q0 -11 6 -17
q9 -9 29 -9q15 0 38 8z" />
    <glyph glyph-name="Idotaccent" unicode="&#x130;" horiz-adv-x="169" 
d="M169 667l-82 -667h-61l82 667h61zM197 771q0 -20 -15.5 -35.5t-35.5 -15.5q-16 0 -27.5 11.5t-11.5 28.5q0 20 15.5 35.5t35.5 15.5q17 0 28 -11.5t11 -28.5z" />
    <glyph glyph-name="dotlessi" unicode="&#x131;" horiz-adv-x="154" 
d="M131 447l-54 -447h-56l55 447h55z" />
    <glyph glyph-name="Jcircumflex" unicode="&#x134;" horiz-adv-x="221" 
d="M221 667l-68 -553q0 -2 -1.5 -12.5t-2 -13.5t-1.5 -12t-2.5 -13.5l-4 -12t-5 -12t-6.5 -10.5t-9 -10q-29 -28 -79 -28q-32 0 -68 18l8 64q30 -28 57 -28q12 0 21.5 4.5t14 8t8.5 15.5t5 16t3 20.5t2 18.5l67 540h61zM306 752l-44 -38l-64 69l-82 -69l-32 38l123 107z" />
    <glyph glyph-name="jcircumflex" unicode="&#x135;" horiz-adv-x="158" 
d="M136 447l-77 -627h-56l77 627h56zM229 545l-44 -38l-64 69l-82 -69l-32 38l123 107z" />
    <glyph glyph-name="Kcommaaccent" unicode="&#x136;" horiz-adv-x="320" 
d="M365 667l-180 -320l98 -347h-64l-91 336l-41 -336h-61l82 667h61l-37 -303l169 303h64zM192 -77l-91 -154l-37 19l73 163z" />
    <glyph glyph-name="kcommaaccent" unicode="&#x137;" horiz-adv-x="305" 
d="M304 447l-155 -207l128 -240h-63l-111 214l-26 -214h-56l90 729h55l-56 -464l131 182h63zM192 -77l-91 -154l-37 19l73 163z" />
    <glyph glyph-name="Lacute" unicode="&#x139;" horiz-adv-x="259" 
d="M236 57l-7 -57h-203l82 667h61l-75 -610h142zM290 817l-126 -103l-32 26l110 120z" />
    <glyph glyph-name="lacute" unicode="&#x13a;" horiz-adv-x="154" 
d="M166 729l-89 -729h-56l90 729h55zM277 860l-126 -103l-32 26l110 120z" />
    <glyph glyph-name="Lcommaaccent" unicode="&#x13b;" horiz-adv-x="259" 
d="M236 57l-7 -57h-203l82 667h61l-75 -610h142zM172 -77l-91 -154l-37 19l73 163z" />
    <glyph glyph-name="lcommaaccent" unicode="&#x13c;" horiz-adv-x="154" 
d="M166 729l-89 -729h-56l90 729h55zM72 -77l-91 -154l-37 19l73 163z" />
    <glyph glyph-name="Lcaron" unicode="&#x13d;" horiz-adv-x="259" 
d="M236 57l-7 -57h-203l82 667h61l-75 -610h142zM352 648l-106 -186l-37 19l88 195z" />
    <glyph glyph-name="lcaron" unicode="&#x13e;" horiz-adv-x="237" 
d="M166 729l-89 -729h-56l90 729h55zM312 648l-106 -186l-37 19l88 195z" />
    <glyph glyph-name="Ldot" unicode="&#x13f;" horiz-adv-x="259" 
d="M236 57l-7 -57h-203l82 667h61l-75 -610h142zM273 339q0 -20 -15.5 -35.5t-35.5 -15.5q-16 0 -27.5 11.5t-11.5 28.5q0 20 15.5 35.5t35.5 15.5q17 0 28 -11.5t11 -28.5z" />
    <glyph glyph-name="ldot" unicode="&#x140;" horiz-adv-x="232" 
d="M166 729l-89 -729h-56l90 729h55zM256 370q0 -20 -15.5 -35.5t-35.5 -15.5q-16 0 -27.5 11.5t-11.5 28.5q0 20 15.5 35.5t35.5 15.5q17 0 28 -11.5t11 -28.5z" />
    <glyph glyph-name="Lslash" unicode="&#x141;" horiz-adv-x="259" 
d="M236 57l-7 -57h-203l35 281l-55 -48l8 66l55 49l39 319h61l-34 -279l95 81l-9 -66l-94 -81l-33 -265h142z" />
    <glyph glyph-name="lslash" unicode="&#x142;" horiz-adv-x="180" 
d="M197 486l-8 -64l-55 -49l-47 -373h-55l41 340l-56 -50l8 65l56 50l40 324h56l-35 -292z" />
    <glyph glyph-name="Nacute" unicode="&#x143;" horiz-adv-x="381" 
d="M381 667l-82 -667h-53l-92 440q-3 15 -7.5 47t-7.5 47q-4 -80 -9 -118l-51 -416h-53l82 667h53l94 -453q2 -11 6 -38t7 -41q0 49 6 97l54 435h53zM361 817l-126 -103l-32 26l110 120z" />
    <glyph glyph-name="nacute" unicode="&#x144;" horiz-adv-x="325" 
d="M131 447l-4 -36q43 43 90 43q37 0 56 -22.5t19 -59.5q0 -22 -3 -41l-40 -331h-56l39 321q4 26 4 39q0 21 -11 34.5t-31 13.5q-69 0 -80 -107l-37 -301h-56l55 447h55zM307 610l-126 -103l-32 26l110 120z" />
    <glyph glyph-name="Ncommaaccent" unicode="&#x145;" horiz-adv-x="381" 
d="M381 667l-82 -667h-53l-92 440q-3 15 -7.5 47t-7.5 47q-4 -80 -9 -118l-51 -416h-53l82 667h53l94 -453q2 -11 6 -38t7 -41q0 49 6 97l54 435h53zM207 -77l-91 -154l-37 19l73 163z" />
    <glyph glyph-name="ncommaaccent" unicode="&#x146;" horiz-adv-x="325" 
d="M131 447l-4 -36q43 43 90 43q37 0 56 -22.5t19 -59.5q0 -22 -3 -41l-40 -331h-56l39 321q4 26 4 39q0 21 -11 34.5t-31 13.5q-69 0 -80 -107l-37 -301h-56l55 447h55zM182 -77l-91 -154l-37 19l73 163z" />
    <glyph glyph-name="Ncaron" unicode="&#x147;" horiz-adv-x="381" 
d="M381 667l-82 -667h-53l-92 440q-3 15 -7.5 47t-7.5 47q-4 -80 -9 -118l-51 -416h-53l82 667h53l94 -453q2 -11 6 -38t7 -41q0 49 6 97l54 435h53zM375 821l-126 -107l-96 107l41 38l64 -69l82 69z" />
    <glyph glyph-name="ncaron" unicode="&#x148;" horiz-adv-x="325" 
d="M131 447l-4 -36q43 43 90 43q37 0 56 -22.5t19 -59.5q0 -22 -3 -41l-40 -331h-56l39 321q4 26 4 39q0 21 -11 34.5t-31 13.5q-69 0 -80 -107l-37 -301h-56l55 447h55zM335 614l-126 -107l-96 107l41 38l64 -69l82 69z" />
    <glyph glyph-name="Omacron" unicode="&#x14c;" horiz-adv-x="398" 
d="M382 477q0 -192 -47 -330q-51 -156 -165 -156q-128 0 -128 215q0 47 4.5 99.5t18.5 121t36 122t62 90.5t91 37q128 0 128 -199zM321 482q0 134 -73 134q-46 0 -76 -52q-34 -57 -51 -169t-17 -204q0 -140 73 -140q50 0 81 58q29 54 46 171t17 202zM378 782l-7 -55h-221
l6 55h222z" />
    <glyph glyph-name="omacron" unicode="&#x14d;" horiz-adv-x="318" 
d="M290 328v-17q0 -47 -6 -93.5t-21 -101.5t-48.5 -89t-81.5 -34q-105 0 -105 162q0 43 7 89.5t23.5 96t50.5 81.5t80 32q51 0 76 -36.5t25 -89.5zM232 298q0 104 -50 104q-29 0 -49.5 -30.5t-30 -76.5t-13.5 -83t-4 -65q0 -101 53 -101q28 0 48 30t29 75.5t13 82t4 64.5z
M315 575l-7 -55h-221l6 55h222z" />
    <glyph glyph-name="Obreve" unicode="&#x14e;" horiz-adv-x="398" 
d="M382 477q0 -192 -47 -330q-51 -156 -165 -156q-128 0 -128 215q0 47 4.5 99.5t18.5 121t36 122t62 90.5t91 37q128 0 128 -199zM321 482q0 134 -73 134q-46 0 -76 -52q-34 -57 -51 -169t-17 -204q0 -140 73 -140q50 0 81 58q29 54 46 171t17 202zM344 810h47
q-10 -45 -47 -68.5t-85 -23.5q-47 0 -79 23t-32 69h48q10 -41 69 -41q57 0 79 41z" />
    <glyph glyph-name="obreve" unicode="&#x14f;" horiz-adv-x="318" 
d="M290 328v-17q0 -47 -6 -93.5t-21 -101.5t-48.5 -89t-81.5 -34q-105 0 -105 162q0 43 7 89.5t23.5 96t50.5 81.5t80 32q51 0 76 -36.5t25 -89.5zM232 298q0 104 -50 104q-29 0 -49.5 -30.5t-30 -76.5t-13.5 -83t-4 -65q0 -101 53 -101q28 0 48 30t29 75.5t13 82t4 64.5z
M281 599h47q-10 -45 -47 -68.5t-85 -23.5q-47 0 -79 23t-32 69h48q10 -41 69 -41q57 0 79 41z" />
    <glyph glyph-name="Ohungarumlaut" unicode="&#x150;" horiz-adv-x="398" 
d="M382 477q0 -192 -47 -330q-51 -156 -165 -156q-128 0 -128 215q0 47 4.5 99.5t18.5 121t36 122t62 90.5t91 37q128 0 128 -199zM321 482q0 134 -73 134q-46 0 -76 -52q-34 -57 -51 -169t-17 -204q0 -140 73 -140q50 0 81 58q29 54 46 171t17 202zM409 830l-83 -116
l-35 13l65 125zM308 830l-83 -116l-35 13l65 125z" />
    <glyph glyph-name="ohungarumlaut" unicode="&#x151;" horiz-adv-x="318" 
d="M290 328v-17q0 -47 -6 -93.5t-21 -101.5t-48.5 -89t-81.5 -34q-105 0 -105 162q0 43 7 89.5t23.5 96t50.5 81.5t80 32q51 0 76 -36.5t25 -89.5zM232 298q0 104 -50 104q-29 0 -49.5 -30.5t-30 -76.5t-13.5 -83t-4 -65q0 -101 53 -101q28 0 48 30t29 75.5t13 82t4 64.5z
M341 623l-83 -116l-35 13l65 125zM240 623l-83 -116l-35 13l65 125z" />
    <glyph glyph-name="OE" unicode="&#x152;" horiz-adv-x="532" 
d="M549 667l-7 -57h-144l-29 -235h140l-7 -57h-140l-32 -261h144l-7 -57h-203l9 69q-44 -79 -113 -79q-118 0 -118 207q0 47 4 100t17.5 123.5t35 124.5t60.5 92.5t90 38.5q62 0 90 -69l7 60h203zM312 484q0 132 -68 132q-22 0 -39.5 -12.5t-30 -36t-18.5 -40t-13 -42.5
q-42 -153 -42 -292q0 -142 73 -142q43 0 74 51q32 54 48 171t16 211z" />
    <glyph glyph-name="oe" unicode="&#x153;" horiz-adv-x="495" 
d="M392 154h52q-7 -64 -39 -112.5t-89 -48.5q-38 0 -60 27.5t-27 67.5q-34 -95 -104 -95q-96 0 -96 161q0 63 12 123q6 29 16.5 57t27 56.5t41.5 46t55 17.5q37 0 57.5 -27t24.5 -67q14 39 43.5 66.5t67.5 27.5q27 0 46.5 -14.5t29 -38.5t14 -48t4.5 -49q0 -30 -8 -90h-189
q-3 -29 -3 -56q0 -112 59 -112q53 0 65 108zM278 261h135q4 26 4 40q0 22 -3 42t-16 39.5t-35 19.5q-26 0 -46 -27.5t-28 -56.5t-11 -57zM225 298q0 104 -50 104q-25 0 -45 -31.5t-28.5 -62.5t-12.5 -59q-7 -43 -7 -91q0 -112 50 -112q20 0 36 18.5t26.5 47t16 52t8.5 44.5
q6 45 6 90z" />
    <glyph glyph-name="Racute" unicode="&#x154;" horiz-adv-x="370" 
d="M112 667h83q84 0 124 -27t40 -107q0 -202 -155 -213l112 -320h-66l-113 326l-40 -326h-66zM143 375h41q47 0 70 22q38 35 38 132q0 46 -20 63.5t-67 17.5h-33zM357 817l-126 -103l-32 26l110 120z" />
    <glyph glyph-name="racute" unicode="&#x155;" horiz-adv-x="192" 
d="M208 454l-8 -65q-22 0 -37.5 -7t-24 -16.5t-14.5 -28t-8 -30.5t-5 -36l-34 -271h-56l56 447h55l-7 -58q37 63 83 65zM282 610l-126 -103l-32 26l110 120z" />
    <glyph glyph-name="Rcommaaccent" unicode="&#x156;" horiz-adv-x="370" 
d="M112 667h83q84 0 124 -27t40 -107q0 -202 -155 -213l112 -320h-66l-113 326l-40 -326h-66zM143 375h41q47 0 70 22q38 35 38 132q0 46 -20 63.5t-67 17.5h-33zM212 -77l-91 -154l-37 19l73 163z" />
    <glyph glyph-name="rcommaaccent" unicode="&#x157;" horiz-adv-x="192" 
d="M208 454l-8 -65q-22 0 -37.5 -7t-24 -16.5t-14.5 -28t-8 -30.5t-5 -36l-34 -271h-56l56 447h55l-7 -58q37 63 83 65zM105 -77l-91 -154l-37 19l73 163z" />
    <glyph glyph-name="Rcaron" unicode="&#x158;" horiz-adv-x="370" 
d="M112 667h83q84 0 124 -27t40 -107q0 -202 -155 -213l112 -320h-66l-113 326l-40 -326h-66zM143 375h41q47 0 70 22q38 35 38 132q0 46 -20 63.5t-67 17.5h-33zM355 821l-126 -107l-96 107l41 38l64 -69l82 69z" />
    <glyph glyph-name="rcaron" unicode="&#x159;" horiz-adv-x="192" 
d="M208 454l-8 -65q-22 0 -37.5 -7t-24 -16.5t-14.5 -28t-8 -30.5t-5 -36l-34 -271h-56l56 447h55l-7 -58q37 63 83 65zM280 614l-126 -107l-96 107l41 38l64 -69l82 69z" />
    <glyph glyph-name="Sacute" unicode="&#x15a;" horiz-adv-x="342" 
d="M336 640l-10 -78q-40 54 -91 54q-48 0 -78.5 -38t-30.5 -87q0 -37 19.5 -66t46.5 -49.5t54.5 -41.5t47 -54t19.5 -75q0 -83 -54.5 -149t-135.5 -66q-56 0 -99 35l10 80q45 -54 99 -54q52 0 84.5 42.5t32.5 95.5q0 34 -19.5 61.5t-47 48.5t-55 43t-47 55t-19.5 74
q0 79 49 142t126 63q54 0 99 -36zM362 817l-126 -103l-32 26l110 120z" />
    <glyph glyph-name="sacute" unicode="&#x15b;" horiz-adv-x="243" 
d="M238 425l-7 -69q-33 46 -70 46q-27 0 -45 -20t-18 -48q0 -25 18.5 -49t40 -40.5t40 -45t18.5 -61.5q0 -58 -39 -101.5t-95 -43.5q-44 0 -78 31l7 66q35 -44 73 -44q31 0 52 24t21 55q0 21 -12 41t-29 37t-34 34.5t-29 40.5t-12 48q0 53 35.5 90.5t87.5 37.5q41 0 75 -29z
M284 610l-126 -103l-32 26l110 120z" />
    <glyph glyph-name="Scircumflex" unicode="&#x15c;" horiz-adv-x="342" 
d="M336 640l-10 -78q-40 54 -91 54q-48 0 -78.5 -38t-30.5 -87q0 -37 19.5 -66t46.5 -49.5t54.5 -41.5t47 -54t19.5 -75q0 -83 -54.5 -149t-135.5 -66q-56 0 -99 35l10 80q45 -54 99 -54q52 0 84.5 42.5t32.5 95.5q0 34 -19.5 61.5t-47 48.5t-55 43t-47 55t-19.5 74
q0 79 49 142t126 63q54 0 99 -36zM351 752l-44 -38l-64 69l-82 -69l-32 38l123 107z" />
    <glyph glyph-name="scircumflex" unicode="&#x15d;" horiz-adv-x="243" 
d="M238 425l-7 -69q-33 46 -70 46q-27 0 -45 -20t-18 -48q0 -25 18.5 -49t40 -40.5t40 -45t18.5 -61.5q0 -58 -39 -101.5t-95 -43.5q-44 0 -78 31l7 66q35 -44 73 -44q31 0 52 24t21 55q0 21 -12 41t-29 37t-34 34.5t-29 40.5t-12 48q0 53 35.5 90.5t87.5 37.5q41 0 75 -29z
M286 545l-44 -38l-64 69l-82 -69l-32 38l123 107z" />
    <glyph glyph-name="Scedilla" unicode="&#x15e;" horiz-adv-x="342" 
d="M336 640l-10 -78q-40 54 -91 54q-48 0 -78.5 -38t-30.5 -87q0 -37 19.5 -66t46.5 -49.5t54.5 -41.5t47 -54t19.5 -75q0 -83 -54.5 -149t-135.5 -66q-56 0 -99 35l10 80q45 -54 99 -54q52 0 84.5 42.5t32.5 95.5q0 34 -19.5 61.5t-47 48.5t-55 43t-47 55t-19.5 74
q0 79 49 142t126 63q54 0 99 -36zM165 -62l-99 -134l-32 21l89 138z" />
    <glyph glyph-name="scedilla" unicode="&#x15f;" horiz-adv-x="243" 
d="M238 425l-7 -69q-33 46 -70 46q-27 0 -45 -20t-18 -48q0 -25 18.5 -49t40 -40.5t40 -45t18.5 -61.5q0 -58 -39 -101.5t-95 -43.5q-44 0 -78 31l7 66q35 -44 73 -44q31 0 52 24t21 55q0 21 -12 41t-29 37t-34 34.5t-29 40.5t-12 48q0 53 35.5 90.5t87.5 37.5q41 0 75 -29z
M115 -62l-99 -134l-32 21l89 138z" />
    <glyph glyph-name="Scaron" unicode="&#x160;" horiz-adv-x="342" 
d="M336 640l-10 -78q-40 54 -91 54q-48 0 -78.5 -38t-30.5 -87q0 -37 19.5 -66t46.5 -49.5t54.5 -41.5t47 -54t19.5 -75q0 -83 -54.5 -149t-135.5 -66q-56 0 -99 35l10 80q45 -54 99 -54q52 0 84.5 42.5t32.5 95.5q0 34 -19.5 61.5t-47 48.5t-55 43t-47 55t-19.5 74
q0 79 49 142t126 63q54 0 99 -36zM360 821l-126 -107l-96 107l41 38l64 -69l82 69z" />
    <glyph glyph-name="scaron" unicode="&#x161;" horiz-adv-x="243" 
d="M238 425l-7 -69q-33 46 -70 46q-27 0 -45 -20t-18 -48q0 -25 18.5 -49t40 -40.5t40 -45t18.5 -61.5q0 -58 -39 -101.5t-95 -43.5q-44 0 -78 31l7 66q35 -44 73 -44q31 0 52 24t21 55q0 21 -12 41t-29 37t-34 34.5t-29 40.5t-12 48q0 53 35.5 90.5t87.5 37.5q41 0 75 -29z
M295 614l-126 -107l-96 107l41 38l64 -69l82 69z" />
    <glyph glyph-name="Tcedilla" unicode="&#x162;" horiz-adv-x="261" 
d="M314 667l-7 -57h-99l-75 -610h-61l75 610h-99l7 57h259zM122 -62l-99 -134l-32 21l89 138z" />
    <glyph glyph-name="tcedilla" unicode="&#x163;" horiz-adv-x="196" 
d="M222 447l-6 -52h-74l-49 -395h-55l49 395h-47l6 52h48l15 127h55l-15 -127h73zM107 -62l-99 -134l-32 21l89 138z" />
    <glyph glyph-name="Tcaron" unicode="&#x164;" horiz-adv-x="261" 
d="M307 610l7 57h-259l-7 -57h99l-75 -610h61l75 610h99zM315 821l-126 -107l-96 107l41 38l64 -69l82 69z" />
    <glyph glyph-name="tcaron" unicode="&#x165;" horiz-adv-x="247" 
d="M222 447l-6 -52h-74l-49 -395h-55l49 395h-47l6 52h48l15 127h55l-15 -127h73zM322 668l-106 -186l-37 19l88 195z" />
    <glyph glyph-name="Utilde" unicode="&#x168;" horiz-adv-x="384" 
d="M384 667l-57 -467q-11 -84 -23 -116q-17 -45 -55 -69t-87 -24q-59 0 -89 32.5t-30 92.5q0 19 7 84l58 467h61l-57 -462q-7 -61 -7 -78q0 -76 65 -76q14 0 25 2.5t20 10t15.5 13t11.5 19t8 19.5t6 23.5t4 21.5t3.5 23.5t2.5 21.5l57 462h61zM324 802h57q-7 -33 -27 -57.5
t-50 -24.5q-20 0 -48 17t-37 17q-17 0 -19 -25h-55q8 33 27.5 55t50.5 22q17 0 45 -16t37 -16q16 0 19 28z" />
    <glyph glyph-name="utilde" unicode="&#x169;" horiz-adv-x="327" 
d="M305 447l-41 -338q-7 -54 -41.5 -85t-88.5 -31q-46 0 -73 25.5t-27 71.5q0 13 1 19l41 338h56l-36 -291q-4 -34 -4 -51q0 -59 50 -59q21 0 35 9t20.5 26t9.5 31t6 35q0 3 0.5 5t0.5 4l36 291h55zM267 595h57q-7 -33 -27 -57.5t-50 -24.5q-20 0 -48 17t-37 17
q-17 0 -19 -25h-55q8 33 27.5 55t50.5 22q17 0 45 -16t37 -16q16 0 19 28z" />
    <glyph glyph-name="Umacron" unicode="&#x16a;" horiz-adv-x="384" 
d="M384 667l-57 -467q-11 -84 -23 -116q-17 -45 -55 -69t-87 -24q-59 0 -89 32.5t-30 92.5q0 19 7 84l58 467h61l-57 -462q-7 -61 -7 -78q0 -76 65 -76q14 0 25 2.5t20 10t15.5 13t11.5 19t8 19.5t6 23.5t4 21.5t3.5 23.5t2.5 21.5l57 462h61zM365 782l-7 -55h-221l6 55h222
z" />
    <glyph glyph-name="umacron" unicode="&#x16b;" horiz-adv-x="327" 
d="M305 447l-41 -338q-7 -54 -41.5 -85t-88.5 -31q-46 0 -73 25.5t-27 71.5q0 13 1 19l41 338h56l-36 -291q-4 -34 -4 -51q0 -59 50 -59q21 0 35 9t20.5 26t9.5 31t6 35q0 3 0.5 5t0.5 4l36 291h55zM316 575l-7 -55h-221l6 55h222z" />
    <glyph glyph-name="Ubreve" unicode="&#x16c;" horiz-adv-x="384" 
d="M384 667l-57 -467q-11 -84 -23 -116q-17 -45 -55 -69t-87 -24q-59 0 -89 32.5t-30 92.5q0 19 7 84l58 467h61l-57 -462q-7 -61 -7 -78q0 -76 65 -76q14 0 25 2.5t20 10t15.5 13t11.5 19t8 19.5t6 23.5t4 21.5t3.5 23.5t2.5 21.5l57 462h61zM331 810h47q-10 -45 -47 -68.5
t-85 -23.5q-47 0 -79 23t-32 69h48q10 -41 69 -41q57 0 79 41z" />
    <glyph glyph-name="ubreve" unicode="&#x16d;" horiz-adv-x="327" 
d="M305 447l-41 -338q-7 -54 -41.5 -85t-88.5 -31q-46 0 -73 25.5t-27 71.5q0 13 1 19l41 338h56l-36 -291q-4 -34 -4 -51q0 -59 50 -59q21 0 35 9t20.5 26t9.5 31t6 35q0 3 0.5 5t0.5 4l36 291h55zM280 599h47q-10 -45 -47 -68.5t-85 -23.5q-47 0 -79 23t-32 69h48
q10 -41 69 -41q57 0 79 41z" />
    <glyph glyph-name="Uring" unicode="&#x16e;" horiz-adv-x="384" 
d="M384 667l-57 -467q-11 -84 -23 -116q-17 -45 -55 -69t-87 -24q-59 0 -89 32.5t-30 92.5q0 19 7 84l58 467h61l-57 -462q-7 -61 -7 -78q0 -76 65 -76q14 0 25 2.5t20 10t15.5 13t11.5 19t8 19.5t6 23.5t4 21.5t3.5 23.5t2.5 21.5l57 462h61zM334 794q0 -33 -23 -56.5
t-56 -23.5t-56 23.5t-23 56.5t23 56.5t56 23.5t56 -23.5t23 -56.5zM294 794q0 17 -11.5 28.5t-27.5 11.5q-17 0 -28.5 -12t-11.5 -28t11.5 -28t28.5 -12t28 11.5t11 28.5z" />
    <glyph glyph-name="uring" unicode="&#x16f;" horiz-adv-x="327" 
d="M305 447l-41 -338q-7 -54 -41.5 -85t-88.5 -31q-46 0 -73 25.5t-27 71.5q0 13 1 19l41 338h56l-36 -291q-4 -34 -4 -51q0 -59 50 -59q21 0 35 9t20.5 26t9.5 31t6 35q0 3 0.5 5t0.5 4l36 291h55zM279 587q0 -33 -23 -56.5t-56 -23.5t-56 23.5t-23 56.5t23 56.5t56 23.5
t56 -23.5t23 -56.5zM239 587q0 17 -11.5 28.5t-27.5 11.5t-28 -11.5t-12 -28.5t12 -28.5t28 -11.5q17 0 28 11.5t11 28.5z" />
    <glyph glyph-name="Uhungarumlaut" unicode="&#x170;" horiz-adv-x="384" 
d="M384 667l-57 -467q-11 -84 -23 -116q-17 -45 -55 -69t-87 -24q-59 0 -89 32.5t-30 92.5q0 19 7 84l58 467h61l-57 -462q-7 -61 -7 -78q0 -76 65 -76q14 0 25 2.5t20 10t15.5 13t11.5 19t8 19.5t6 23.5t4 21.5t3.5 23.5t2.5 21.5l57 462h61zM387 830l-83 -116l-35 13
l65 125zM286 830l-83 -116l-35 13l65 125z" />
    <glyph glyph-name="uhungarumlaut" unicode="&#x171;" horiz-adv-x="327" 
d="M305 447l-41 -338q-7 -54 -41.5 -85t-88.5 -31q-46 0 -73 25.5t-27 71.5q0 13 1 19l41 338h56l-36 -291q-4 -34 -4 -51q0 -59 50 -59q21 0 35 9t20.5 26t9.5 31t6 35q0 3 0.5 5t0.5 4l36 291h55zM335 623l-83 -116l-35 13l65 125zM234 623l-83 -116l-35 13l65 125z" />
    <glyph glyph-name="Uogonek" unicode="&#x172;" horiz-adv-x="384" 
d="M384 667l-60 -489q-9 -65 -17 -90q-15 -41 -53 -76q-44 -40 -48 -46q-18 -22 -18 -43q0 -11 6 -17q9 -9 29 -9q15 0 38 8l-5 -48q-21 -9 -45 -9q-31 0 -51 13q-23 14 -23 46q0 39 41 85q-6 -2 -20 -2q-51 0 -84 33q-31 31 -31 92q0 18 5 68l60 484h61l-59 -478
q-5 -37 -5 -60q0 -43 18 -61q16 -17 47 -17q38 0 56 21q26 28 38 118l59 477h61z" />
    <glyph glyph-name="uogonek" unicode="&#x173;" horiz-adv-x="327" 
d="M305 447l-41 -338q-5 -39 -15 -58.5t-32 -42.5q-38 -38 -45 -48q-13 -18 -13 -35q0 -12 6 -18q9 -9 27 -9q15 0 39 8l-5 -47q-21 -9 -44 -9q-31 0 -51 13q-23 14 -23 43q0 43 42 87q-62 0 -88 24q-28 26 -28 75q0 8 1 17.5t2.5 20l2.5 17.5l36 300h56l-36 -291
q-4 -34 -4 -51q0 -33 14 -47q12 -12 36 -12q28 0 44 17q19 20 27 86l37 298h55z" />
    <glyph glyph-name="Ydieresis" unicode="&#x178;" horiz-adv-x="315" 
d="M367 667l-168 -378l-35 -289h-61l35 289l-83 378h66l38 -191q14 -73 17 -123q18 58 44 122l81 192h66zM323 769q0 -19 -14.5 -34t-34.5 -15q-16 0 -26.5 11.5t-10.5 27.5q0 19 14.5 33.5t33.5 14.5q17 0 27.5 -10.5t10.5 -27.5zM197 769q0 -19 -14.5 -34t-34.5 -15
q-16 0 -26.5 11.5t-10.5 27.5q0 19 14.5 33.5t33.5 14.5q17 0 27.5 -10.5t10.5 -27.5z" />
    <glyph glyph-name="Zacute" unicode="&#x179;" horiz-adv-x="275" 
d="M321 667l-259 -610h166l-7 -57h-241l257 610h-165l7 57h242zM317 817l-126 -103l-32 26l110 120z" />
    <glyph glyph-name="zacute" unicode="&#x17a;" horiz-adv-x="267" 
d="M290 447l-227 -395h149l-6 -52h-229l222 395h-150l6 52h235zM296 610l-126 -103l-32 26l110 120z" />
    <glyph glyph-name="Zdotaccent" unicode="&#x17b;" horiz-adv-x="275" 
d="M321 667l-259 -610h166l-7 -57h-241l257 610h-165l7 57h242zM252 771q0 -20 -15.5 -35.5t-35.5 -15.5q-16 0 -27.5 11.5t-11.5 28.5q0 20 15.5 35.5t35.5 15.5q17 0 28 -11.5t11 -28.5z" />
    <glyph glyph-name="zdotaccent" unicode="&#x17c;" horiz-adv-x="267" 
d="M290 447l-227 -395h149l-6 -52h-229l222 395h-150l6 52h235zM224 564q0 -20 -15.5 -35.5t-35.5 -15.5q-16 0 -27.5 11.5t-11.5 28.5q0 20 15.5 35.5t35.5 15.5q17 0 28 -11.5t11 -28.5z" />
    <glyph glyph-name="Zcaron" unicode="&#x17d;" horiz-adv-x="275" 
d="M321 667l-259 -610h166l-7 -57h-241l257 610h-165l7 57h242zM315 821l-126 -107l-96 107l41 38l64 -69l82 69z" />
    <glyph glyph-name="zcaron" unicode="&#x17e;" horiz-adv-x="267" 
d="M290 447l-227 -395h149l-6 -52h-229l222 395h-150l6 52h235zM300 614l-126 -107l-96 107l41 38l64 -69l82 69z" />
    <glyph glyph-name="uni018F" unicode="&#x18f;" horiz-adv-x="387" 
d="M63 352h235q10 63 10 124q0 77 -20 108q-20 32 -57 32q-33 0 -54 -24q-24 -25 -35 -71l-58 24q21 60 58 96q36 35 92 35q69 0 105 -53q32 -47 32 -138q0 -55 -11 -150t-26 -156q-26 -109 -74 -152q-40 -36 -99 -36q-55 0 -84 33q-35 38 -35 125q0 67 21 203zM290 295
h-172q-15 -85 -15 -144q0 -50 18 -75t48 -25q31 0 52 18q29 24 46 94q12 48 23 132z" />
    <glyph glyph-name="florin" unicode="&#x192;" horiz-adv-x="366" 
d="M364 729l-10 -59q-19 17 -38 17q-16 0 -26.5 -10.5t-13.5 -19.5t-7 -29l-36 -181h77l-9 -42h-76l-83 -424q-11 -55 -33 -84.5t-71 -29.5q-21 0 -50 11l11 59q19 -17 39 -17q35 0 46 59l84 426h-73l8 42h73l35 179q11 55 32 84.5t71 29.5q29 0 50 -11z" />
    <glyph glyph-name="uni01CF" unicode="&#x1cf;" horiz-adv-x="169" 
d="M169 667l-82 -667h-61l82 667h61zM265 821l-126 -107l-96 107l41 38l64 -69l82 69z" />
    <glyph glyph-name="uni01D0" unicode="&#x1d0;" horiz-adv-x="154" 
d="M131 447l-54 -447h-56l55 447h55zM236 614l-126 -107l-96 107l41 38l64 -69l82 69z" />
    <glyph glyph-name="uni01DD" unicode="&#x1dd;" horiz-adv-x="314" 
d="M36 235h189q5 32 5 70q0 58 -20 80q-15 16 -36 16q-24 0 -40 -17q-25 -25 -38 -78l-53 22q14 56 52 93q34 33 85 33q46 0 73 -27q33 -33 33 -115q0 -85 -17 -160q-18 -82 -59 -124q-35 -35 -81 -35q-37 0 -63 25q-38 37 -38 128q0 41 8 89zM218 187h-133q-6 -98 17 -127
q11 -15 31 -15t36 15t28 46.5t16 50t5 30.5z" />
    <glyph glyph-name="Gcaron" unicode="&#x1e6;" horiz-adv-x="368" 
d="M369 550l-63 -24q-4 90 -62 90q-78 0 -110 -150q-32 -142 -32 -287q0 -25 2 -42t8 -39.5t21.5 -34.5t39.5 -12q48 0 71 49q7 15 13.5 44t9 48t7 59.5t4.5 43.5h-89l7 57h150l-16 -134q-8 -64 -17 -97q-16 -59 -55 -94.5t-97 -35.5q-121 0 -121 169q0 199 41 347
q20 73 61.5 121t109.5 48q57 0 83.5 -33t33.5 -93zM380 821l-126 -107l-96 107l41 38l64 -69l82 69z" />
    <glyph glyph-name="gcaron" unicode="&#x1e7;" horiz-adv-x="326" 
d="M304 447l-58 -476q-1 -4 -2.5 -17.5t-2 -18.5t-3 -15.5t-4.5 -17t-6.5 -15t-9.5 -16.5q-31 -51 -107 -51q-99 0 -99 101q0 14 4 40h55q-2 -18 -2 -29q0 -59 52 -59q25 0 40.5 14t20 30t7.5 43q1 12 3.5 35.5t4.5 36.5q-34 -32 -75 -32q-90 0 -90 130q0 44 5 90.5
t18.5 104t44.5 93.5t76 36q42 0 69 -38l4 31h55zM234 321q0 87 -51 87q-22 0 -37.5 -16t-21.5 -32t-12 -41q-23 -97 -23 -183q0 -90 52 -90q19 0 32.5 9.5t21.5 29t11.5 31.5t7.5 34q20 102 20 171zM315 614l-126 -107l-96 107l41 38l64 -69l82 69z" />
    <glyph glyph-name="AEacute" unicode="&#x1fc;" horiz-adv-x="455" 
d="M436 0h-204l-5 137h-149l-40 -137h-65l211 667h219l3 -57h-141l13 -235h133l3 -57h-133l15 -261h138zM225 190l-12 282q-1 0 -1 62l1 61q-16 -64 -33 -122l-85 -283h130zM388 817l-126 -103l-32 26l110 120z" />
    <glyph glyph-name="aeacute" unicode="&#x1fd;" horiz-adv-x="500" 
d="M76 366l7 62q42 26 83 26q80 0 105 -75q15 31 42.5 53t59.5 22q38 0 61.5 -28t30.5 -61t7 -71q0 -26 -6 -80h-194q-4 -36 -4 -53q0 -116 60 -116q56 0 72 110h52q-10 -64 -44.5 -113t-91.5 -49q-59 0 -84 74q-18 -33 -48.5 -53.5t-66.5 -20.5q-51 0 -73.5 35t-22.5 89
q0 43 12.5 82.5t43.5 69t75 29.5q49 0 74 -37q4 32 4 49q0 39 -17.5 65.5t-55.5 26.5q-33 0 -81 -36zM280 261h136q0 4 1 12t1.5 14t0.5 12q0 23 -3.5 43.5t-17 40t-35.5 19.5q-36 0 -57.5 -47.5t-25.5 -93.5zM214 167q0 85 -57 85q-43 0 -62.5 -40.5t-19.5 -89.5
q0 -76 56 -76q41 0 62 38t21 83zM410 610l-126 -103l-32 26l110 120z" />
    <glyph glyph-name="Scommaaccent" unicode="&#x218;" horiz-adv-x="342" 
d="M336 640l-10 -78q-40 54 -91 54q-48 0 -78.5 -38t-30.5 -87q0 -37 19.5 -66t46.5 -49.5t54.5 -41.5t47 -54t19.5 -75q0 -83 -54.5 -149t-135.5 -66q-56 0 -99 35l10 80q45 -54 99 -54q52 0 84.5 42.5t32.5 95.5q0 34 -19.5 61.5t-47 48.5t-55 43t-47 55t-19.5 74
q0 79 49 142t126 63q54 0 99 -36zM170 -77l-91 -154l-37 19l73 163z" />
    <glyph glyph-name="scommaaccent" unicode="&#x219;" horiz-adv-x="243" 
d="M238 425l-7 -69q-33 46 -70 46q-27 0 -45 -20t-18 -48q0 -25 18.5 -49t40 -40.5t40 -45t18.5 -61.5q0 -58 -39 -101.5t-95 -43.5q-44 0 -78 31l7 66q35 -44 73 -44q31 0 52 24t21 55q0 21 -12 41t-29 37t-34 34.5t-29 40.5t-12 48q0 53 35.5 90.5t87.5 37.5q41 0 75 -29z
M132 -77l-91 -154l-37 19l73 163z" />
    <glyph glyph-name="Tcommaaccent" unicode="&#x21a;" horiz-adv-x="261" 
d="M314 667l-7 -57h-99l-75 -610h-61l75 610h-99l7 57h259zM127 -77l-91 -154l-37 19l73 163z" />
    <glyph glyph-name="tcommaaccent" unicode="&#x21b;" horiz-adv-x="196" 
d="M222 447l-6 -52h-74l-49 -395h-55l49 395h-47l6 52h48l15 127h55l-15 -127h73zM92 -77l-91 -154l-37 19l73 163z" />
    <glyph glyph-name="uni0228" unicode="&#x228;" horiz-adv-x="297" 
d="M313 667l-7 -57h-144l-29 -235h140l-6 -57h-141l-32 -261h144l-7 -57h-205l82 667h205zM166 -62l-99 -134l-32 21l89 138z" />
    <glyph glyph-name="uni0229" unicode="&#x229;" horiz-adv-x="308" 
d="M207 152h56q-10 -66 -41 -112.5t-90 -46.5q-104 0 -104 160q0 66 13 124q8 41 24 78t48 68t72 31q96 0 96 -155q0 -41 -8 -87h-185q-5 -33 -5 -59q0 -107 54 -107q18 0 31 10t20.5 29.5t11 33t7.5 33.5zM94 260h131q2 32 2 51q0 91 -47 91q-63 0 -86 -142zM171 -62
l-99 -134l-32 21l89 138z" />
    <glyph glyph-name="uni0237" unicode="&#x237;" horiz-adv-x="158" 
d="M136 447l-77 -627h-56l77 627h56z" />
    <glyph glyph-name="uni0259" unicode="&#x259;" horiz-adv-x="314" 
d="M36 235h189q5 32 5 70q0 58 -20 80q-15 16 -36 16q-24 0 -40 -17q-25 -25 -38 -78l-53 22q14 56 52 93q34 33 85 33q46 0 73 -27q33 -33 33 -115q0 -85 -17 -160q-18 -82 -59 -124q-35 -35 -81 -35q-37 0 -63 25q-38 37 -38 128q0 41 8 89zM218 187h-133q-6 -98 17 -127
q11 -15 31 -15t36 15t28 46.5t16 50t5 30.5z" />
    <glyph glyph-name="afii57929" unicode="&#x2bc;" horiz-adv-x="194" 
d="M212 648l-106 -186l-37 19l88 195z" />
    <glyph glyph-name="circumflex" unicode="&#x2c6;" 
d="M396 545l-44 -38l-64 69l-82 -69l-32 38l123 107z" />
    <glyph glyph-name="caron" unicode="&#x2c7;" 
d="M405 614l-126 -107l-96 107l41 38l64 -69l82 69z" />
    <glyph glyph-name="uni02C9" unicode="&#x2c9;" 
d="M400 575l-7 -55h-221l6 55h222z" />
    <glyph glyph-name="breve" unicode="&#x2d8;" 
d="M366 599h47q-10 -45 -47 -68.5t-85 -23.5q-47 0 -79 23t-32 69h48q10 -41 69 -41q57 0 79 41z" />
    <glyph glyph-name="dotaccent" unicode="&#x2d9;" 
d="M332 564q0 -20 -15.5 -35.5t-35.5 -15.5q-16 0 -27.5 11.5t-11.5 28.5q0 20 15.5 35.5t35.5 15.5q17 0 28 -11.5t11 -28.5z" />
    <glyph glyph-name="ring" unicode="&#x2da;" horiz-adv-x="492" 
d="M369 587q0 -33 -23 -56.5t-56 -23.5t-56 23.5t-23 56.5t23 56.5t56 23.5t56 -23.5t23 -56.5zM329 587q0 17 -11.5 28.5t-27.5 11.5t-28 -11.5t-12 -28.5t12 -28.5t28 -11.5q17 0 28 11.5t11 28.5z" />
    <glyph glyph-name="ogonek" unicode="&#x2db;" 
d="M288 -95l-5 -48q-21 -9 -45 -9q-32 0 -51 13q-23 14 -23 43q0 24 18 56q5 7 29 40h45q-12 -16 -26 -36q-15 -23 -15 -41q0 -11 6 -17q9 -9 29 -9q15 0 38 8z" />
    <glyph glyph-name="tilde" unicode="&#x2dc;" 
d="M348 595h57q-7 -33 -27 -57.5t-50 -24.5q-20 0 -48 17t-37 17q-17 0 -19 -25h-55q8 33 27.5 55t50.5 22q17 0 45 -16t37 -16q16 0 19 28z" />
    <glyph glyph-name="hungarumlaut" unicode="&#x2dd;" 
d="M431 623l-83 -116l-35 13l65 125zM330 623l-83 -116l-35 13l65 125z" />
    <glyph glyph-name="acutecomb" unicode="&#x301;" horiz-adv-x="2" 
d="M-14 610l-126 -103l-32 26l110 120z" />
    <glyph glyph-name="uni0394" unicode="&#x394;" horiz-adv-x="667" 
d="M608 0h-605l272 667h59zM528 51l-223 549l-223 -549h446z" />
    <glyph glyph-name="uni0394" unicode="&#x2206;" horiz-adv-x="667" 
d="M608 0h-605l272 667h59zM528 51l-223 549l-223 -549h446z" />
    <glyph glyph-name="uni03A9" unicode="&#x3a9;" horiz-adv-x="667" 
d="M632 0h-259v46q202 109 202 310q0 111 -69.5 194t-177.5 83q-112 0 -181 -82.5t-69 -195.5q0 -195 202 -309v-46h-259v50h193q-192 109 -192 311q0 133 86 227.5t218 94.5t218.5 -94.5t86.5 -227.5q0 -202 -192 -311h193v-50z" />
    <glyph glyph-name="uni03A9" unicode="&#x2126;" horiz-adv-x="667" 
d="M632 0h-259v46q202 109 202 310q0 111 -69.5 194t-177.5 83q-112 0 -181 -82.5t-69 -195.5q0 -195 202 -309v-46h-259v50h193q-192 109 -192 311q0 133 86 227.5t218 94.5t218.5 -94.5t86.5 -227.5q0 -202 -192 -311h193v-50z" />
    <glyph glyph-name="pi" unicode="&#x3c0;" horiz-adv-x="556" 
d="M531 396h-72v-396h-57v396h-246v-396h-57v396h-74v51h506v-51z" />
    <glyph glyph-name="afii10023" unicode="&#x401;" horiz-adv-x="297" 
d="M313 667l-7 -57h-144l-29 -235h140l-6 -57h-141l-32 -261h144l-7 -57h-205l82 667h205zM203 759q0 -19 -14.5 -34t-34.5 -15q-16 0 -26.5 11.5t-10.5 27.5q0 19 14.5 33.5t33.5 14.5q17 0 27.5 -10.5t10.5 -27.5zM325 759q0 -19 -14.5 -34t-34.5 -15q-16 0 -26.5 11.5
t-10.5 27.5q0 19 14.5 33.5t33.5 14.5q17 0 27.5 -10.5t10.5 -27.5z" />
    <glyph glyph-name="afii10051" unicode="&#x402;" horiz-adv-x="407" 
d="M61 0l75 610h-88l7 57h273l-7 -57h-124l-27 -221q29 16 68 16q64 0 100 -40q39 -43 39 -128q0 -57 -16 -119t-50 -95q-37 -35 -89 -35q-40 0 -72 23l26 59q21 -22 49 -22q24 0 42 18q21 20 33.5 71.5t12.5 95.5q0 61 -26 90q-22 25 -61 25q-33 0 -63 -19l-41 -329h-61z
" />
    <glyph glyph-name="afii10052" unicode="&#x403;" horiz-adv-x="291" 
d="M317 667l-7 -57h-148l-75 -610h-61l82 667h209zM347 817l-126 -103l-32 26l110 120z" />
    <glyph glyph-name="afii10053" unicode="&#x404;" horiz-adv-x="319" 
d="M288 96l-8 -72q-38 -33 -97 -33q-54 0 -89 36q-53 56 -53 208q0 112 24 210q30 120 80 176q49 55 120 55q49 0 89 -32l-10 -71q-35 43 -79 43q-41 0 -71 -30q-31 -31 -50.5 -92.5t-26.5 -118.5h168l-7 -57h-169q-4 -76 -4 -97q0 -101 31 -142q21 -28 60 -28q52 0 92 45z
" />
    <glyph glyph-name="afii10054" unicode="&#x405;" horiz-adv-x="342" 
d="M336 640l-10 -78q-40 54 -91 54q-48 0 -78.5 -38t-30.5 -87q0 -37 19.5 -66t46.5 -49.5t54.5 -41.5t47 -54t19.5 -75q0 -83 -54.5 -149t-135.5 -66q-56 0 -99 35l10 80q45 -54 99 -54q52 0 84.5 42.5t32.5 95.5q0 34 -19.5 61.5t-47 48.5t-55 43t-47 55t-19.5 74
q0 79 49 142t126 63q54 0 99 -36z" />
    <glyph glyph-name="afii10055" unicode="&#x406;" horiz-adv-x="169" 
d="M169 667l-82 -667h-61l82 667h61z" />
    <glyph glyph-name="afii10056" unicode="&#x407;" horiz-adv-x="169" 
d="M169 667l-82 -667h-61l82 667h61zM221 769q0 -19 -10 -34t-24 -15q-11 0 -18.5 11.5t-7.5 27.5q0 19 10.5 33.5t23.5 14.5q11 0 18.5 -11t7.5 -27zM133 769q0 -19 -10 -34t-24 -15q-12 0 -19 11.5t-7 27.5q0 19 10 33.5t23 14.5q12 0 19.5 -10.5t7.5 -27.5z" />
    <glyph glyph-name="afii10057" unicode="&#x408;" horiz-adv-x="221" 
d="M221 667l-68 -553q0 -2 -1.5 -12.5t-2 -13.5t-1.5 -12t-2.5 -13.5l-4 -12t-5 -12t-6.5 -10.5t-9 -10q-29 -28 -79 -28q-32 0 -68 18l8 64q30 -28 57 -28q12 0 21.5 4.5t14 8t8.5 15.5t5 16t3 20.5t2 18.5l67 540h61z" />
    <glyph glyph-name="afii10058" unicode="&#x409;" horiz-adv-x="575" 
d="M367 378h28q74 0 113 -39q37 -37 37 -111q0 -139 -65 -193q-41 -35 -112 -35h-109l75 610h-138l-42 -344q-10 -80 -20 -128q-16 -79 -50 -113q-31 -31 -77 -31q-22 0 -42 10l7 68q14 -17 34 -17t34 13q23 20 36 78q8 34 19 115l50 406h258zM328 53h33q48 0 75 23
q46 39 46 148q0 53 -26 77q-22 20 -73 20h-23z" />
    <glyph glyph-name="afii10059" unicode="&#x40a;" horiz-adv-x="553" 
d="M345 378h28q74 0 113 -39q37 -37 37 -111q0 -139 -65 -193q-41 -35 -112 -35h-109l39 321h-149l-40 -321h-61l82 667h61l-35 -289h149l36 289h62zM306 53h33q48 0 75 23q46 39 46 148q0 53 -26 77q-22 20 -73 20h-23z" />
    <glyph glyph-name="afii10060" unicode="&#x40b;" horiz-adv-x="401" 
d="M61 0l75 610h-88l7 57h261l-7 -57h-112l-27 -219q42 14 78 14q64 0 95 -28q23 -21 27 -57t-3 -77l-30 -243h-61l29 236q9 74 -11 94q-18 18 -60 18q-37 0 -71 -17l-41 -331h-61z" />
    <glyph glyph-name="afii10061" unicode="&#x40c;" horiz-adv-x="320" 
d="M365 667l-180 -320l98 -347h-64l-91 336l-41 -336h-61l82 667h61l-37 -303l169 303h64zM353 817l-126 -103l-32 26l110 120z" />
    <glyph glyph-name="afii10062" unicode="&#x40e;" horiz-adv-x="331" 
d="M55 667h68l42 -205q18 -87 25 -154q16 64 55 163l76 196h62l-249 -667h-60l78 221zM301 808l54 -21q-17 -43 -51 -64q-31 -19 -78 -19t-76 20q-33 23 -46 63l54 21q7 -25 26 -39q17 -12 47 -12q29 0 45 13q18 15 25 38z" />
    <glyph glyph-name="afii10145" unicode="&#x40f;" horiz-adv-x="380" 
d="M380 667l-82 -667h-105l-17 -130h-62l17 130h-105l82 667h61l-75 -610h150l75 610h61z" />
    <glyph glyph-name="afii10017" unicode="&#x410;" horiz-adv-x="320" 
d="M291 0h-65l-8 137h-139l-41 -137h-65l211 667h58zM215 191l-14 235q-3 40 -3 80q0 38 3 77q-8 -47 -22 -103t-24 -91t-31 -104.5t-28 -93.5h119z" />
    <glyph glyph-name="afii10018" unicode="&#x411;" horiz-adv-x="342" 
d="M108 667h224l-7 -57h-162l-29 -232h28q74 0 113 -39q37 -37 37 -111q0 -139 -65 -193q-41 -35 -112 -35h-109zM95 53h33q48 0 75 23q46 39 46 148q0 53 -26 77q-22 20 -73 20h-23z" />
    <glyph glyph-name="afii10019" unicode="&#x412;" horiz-adv-x="346" 
d="M108 667h96q72 0 100 -30t28 -102q0 -66 -23 -116q-13 -30 -31.5 -47t-48.5 -30q45 -13 62.5 -39.5t17.5 -74.5q0 -146 -75 -200q-38 -28 -107 -28h-101zM133 372h33q48 0 70 27q34 40 34 142q0 40 -15 56t-54 16h-39zM93 53h33q47 0 73 20q24 18 35.5 60t11.5 81
q0 103 -85 103h-35z" />
    <glyph glyph-name="afii10020" unicode="&#x413;" horiz-adv-x="291" 
d="M317 667l-7 -57h-148l-75 -610h-61l82 667h209z" />
    <glyph glyph-name="afii10021" unicode="&#x414;" horiz-adv-x="422" 
d="M146 667h251l-75 -610h52l-24 -187h-62l17 130h-275l-17 -130h-58l24 187q41 21 68 62q41 63 57 202zM197 610l-32 -259q-17 -141 -43 -203q-21 -53 -62 -91h200l68 553h-131z" />
    <glyph glyph-name="afii10022" unicode="&#x415;" horiz-adv-x="297" 
d="M313 667l-7 -57h-144l-29 -235h140l-6 -57h-141l-32 -261h144l-7 -57h-205l82 667h205z" />
    <glyph glyph-name="afii10024" unicode="&#x416;" horiz-adv-x="459" 
d="M426 0h-64l-91 336l-41 -336h-62l41 336l-175 -336h-64l187 355l-100 312h64l92 -303l37 303h62l-37 -303l165 303h64l-178 -318z" />
    <glyph glyph-name="afii10025" unicode="&#x417;" horiz-adv-x="360" 
d="M132 371h18q50 0 77 18q47 31 47 117q0 51 -23 79q-24 29 -69 29q-32 0 -60 -19q-23 -15 -40 -38l11 86q42 33 101 33q65 0 103 -36q43 -41 43 -121q0 -99 -48 -143q-21 -19 -51 -30q33 -11 54 -35q31 -35 31 -90q0 -111 -69 -179q-51 -51 -129 -51q-69 0 -118 43l10 86
q20 -30 44 -47q27 -20 64 -20q44 0 76 26q26 22 39.5 59t13.5 73q0 51 -30 79q-26 24 -85 24h-17z" />
    <glyph glyph-name="afii10026" unicode="&#x418;" horiz-adv-x="392" 
d="M26 0l82 667h62l-55 -444q-5 -40 -17 -87q9 21 16.5 40t11 27t6.5 14l198 450h62l-82 -667h-62l53 426q7 56 19 105q-17 -44 -39 -94l-193 -437h-62z" />
    <glyph glyph-name="afii10027" unicode="&#x419;" horiz-adv-x="392" 
d="M26 0l82 667h62l-55 -444q-5 -40 -17 -87q9 21 16.5 40t11 27t6.5 14l198 450h62l-82 -667h-62l53 426q7 56 19 105q-17 -44 -39 -94l-193 -437h-62zM330 808l54 -21q-17 -43 -51 -64q-31 -19 -78 -19t-76 20q-33 23 -46 63l54 21q7 -25 26 -39q17 -12 47 -12q29 0 45 13
q18 15 25 38z" />
    <glyph glyph-name="afii10028" unicode="&#x41a;" horiz-adv-x="320" 
d="M365 667l-180 -320l98 -347h-64l-91 336l-41 -336h-61l82 667h61l-37 -303l169 303h64z" />
    <glyph glyph-name="afii10029" unicode="&#x41b;" horiz-adv-x="403" 
d="M145 667h258l-82 -667h-62l75 610h-138l-42 -344q-10 -80 -20 -128q-16 -79 -50 -113q-31 -31 -77 -31q-22 0 -42 10l7 68q14 -17 34 -17t34 13q23 20 36 78q8 34 19 115z" />
    <glyph glyph-name="afii10030" unicode="&#x41c;" horiz-adv-x="492" 
d="M444 667l-1 -667h-60l7 433q2 61 9 121q-1 -2 -9 -41q-7 -38 -20 -80l-126 -433h-50l-17 434v64q0 10 1.5 28t1.5 28q-10 -82 -20 -120l-107 -434h-60l174 667h53l14 -458q1 -19 1 -58q0 -31 -1 -47q11 56 25 103l133 460h52z" />
    <glyph glyph-name="afii10031" unicode="&#x41d;" horiz-adv-x="380" 
d="M380 667l-82 -667h-61l42 344h-150l-42 -344h-61l82 667h61l-33 -266h150l33 266h61z" />
    <glyph glyph-name="afii10032" unicode="&#x41e;" horiz-adv-x="398" 
d="M382 477q0 -192 -47 -330q-51 -156 -165 -156q-128 0 -128 215q0 47 4.5 99.5t18.5 121t36 122t62 90.5t91 37q128 0 128 -199zM321 482q0 134 -73 134q-46 0 -76 -52q-34 -57 -51 -169t-17 -204q0 -140 73 -140q50 0 81 58q29 54 46 171t17 202z" />
    <glyph glyph-name="afii10033" unicode="&#x41f;" horiz-adv-x="374" 
d="M374 667l-82 -667h-61l74 610h-143l-75 -610h-61l82 667h266z" />
    <glyph glyph-name="afii10034" unicode="&#x420;" horiz-adv-x="324" 
d="M108 667h79q76 0 111.5 -28t35.5 -102q0 -81 -26 -140q-13 -28 -31.5 -44.5t-46.5 -23.5t-48 -8.5t-56 -1.5l-39 -319h-61zM133 376h41q36 0 57 16t31 57.5t10 79.5q0 44 -18 62.5t-62 18.5h-30z" />
    <glyph glyph-name="afii10035" unicode="&#x421;" horiz-adv-x="315" 
d="M350 655l-8 -68q-39 29 -73 29q-59 0 -96 -61q-34 -55 -50.5 -156t-16.5 -188q0 -160 88 -160q39 0 85 30l-7 -62q-44 -28 -89 -28q-54 0 -87.5 36t-44 80.5t-10.5 97.5q0 103 26 221.5t76 182.5q54 67 130 67q48 0 77 -21z" />
    <glyph glyph-name="afii10036" unicode="&#x422;" horiz-adv-x="261" 
d="M314 667l-7 -57h-99l-75 -610h-61l75 610h-99l7 57h259z" />
    <glyph glyph-name="afii10037" unicode="&#x423;" horiz-adv-x="331" 
d="M55 667h68l42 -205q18 -87 25 -154q16 64 55 163l76 196h62l-249 -667h-60l78 221z" />
    <glyph glyph-name="afii10038" unicode="&#x424;" horiz-adv-x="515" 
d="M196 0l11 90q-70 9 -111 52q-54 56 -54 166q0 63 19.5 134t64.5 115q60 58 146 61l9 76h62l-9 -76q70 -9 111 -52q54 -55 54 -166q0 -67 -20 -140t-71 -117q-57 -48 -139 -53l-11 -90h-62zM325 558l-51 -408q61 0 101 40q34 33 49 92t15 113q0 87 -38 127q-28 30 -76 36z
M216 150l51 408q-56 -3 -94 -38q-34 -32 -52.5 -94t-18.5 -119q0 -80 39 -122q29 -31 75 -35z" />
    <glyph glyph-name="afii10039" unicode="&#x425;" horiz-adv-x="313" 
d="M366 667l-165 -328l83 -339h-65l-41 189q-13 55 -15 95q-4 -17 -39 -97l-85 -187h-66l169 339l-87 328h65l39 -165q14 -59 17 -117q9 33 46 113l79 169h65z" />
    <glyph glyph-name="afii10040" unicode="&#x426;" horiz-adv-x="380" 
d="M376 667l-75 -610h58l-23 -187h-62l16 130h-264l82 667h61l-75 -610h146l75 610h61z" />
    <glyph glyph-name="afii10041" unicode="&#x427;" horiz-adv-x="369" 
d="M369 667l-82 -667h-62l41 338q-31 -10 -70 -10q-55 0 -86 22q-40 29 -40 85q0 26 6 71l20 161h63l-20 -164q-5 -37 -5 -50q0 -34 19 -50q18 -15 54 -15t67 12l33 267h62z" />
    <glyph glyph-name="afii10042" unicode="&#x428;" horiz-adv-x="575" 
d="M108 667h61l-75 -610h142l75 610h61l-75 -610h142l75 610h61l-82 -667h-467z" />
    <glyph glyph-name="afii10043" unicode="&#x429;" horiz-adv-x="583" 
d="M108 667h61l-75 -610h142l75 610h61l-75 -610h142l75 610h61l-75 -610h62l-23 -187h-62l16 130h-467z" />
    <glyph glyph-name="afii10044" unicode="&#x42a;" horiz-adv-x="375" 
d="M167 378h28q74 0 113 -39q37 -37 37 -111q0 -139 -65 -193q-41 -35 -112 -35h-109l75 610h-86l7 57h148zM128 53h33q48 0 75 23q46 39 46 148q0 53 -26 77q-22 20 -73 20h-23z" />
    <glyph glyph-name="afii10045" unicode="&#x42b;" horiz-adv-x="482" 
d="M400 0h-62l82 667h62zM134 378h28q74 0 113 -39q37 -37 37 -111q0 -139 -65 -193q-41 -35 -112 -35h-109l82 667h62zM95 53h33q48 0 75 23q46 39 46 148q0 53 -26 77q-22 20 -73 20h-23z" />
    <glyph glyph-name="afii10046" unicode="&#x42c;" horiz-adv-x="342" 
d="M134 378h28q74 0 113 -39q37 -37 37 -111q0 -139 -65 -193q-41 -35 -112 -35h-109l82 667h62zM95 53h33q48 0 75 23q46 39 46 148q0 53 -26 77q-22 20 -73 20h-23z" />
    <glyph glyph-name="afii10047" unicode="&#x42d;" horiz-adv-x="362" 
d="M10 28l11 83q13 -26 36 -43t51 -17q38 0 68 30q33 33 58 103q24 67 33 134h-163l7 57h163q6 56 -1.5 119t-34.5 93q-26 29 -66 29q-28 0 -51 -15q-18 -12 -37 -33l10 83q38 25 86 25q63 0 105 -42q57 -59 57 -195q0 -150 -46 -277q-31 -87 -78 -129q-46 -42 -114 -42
q-55 0 -94 37z" />
    <glyph glyph-name="afii10048" unicode="&#x42e;" horiz-adv-x="548" 
d="M136 401h80q27 168 95 234q41 41 97 41q47 0 79 -33q28 -30 36.5 -72.5t8.5 -104.5q0 -104 -21 -226q-24 -142 -84 -205q-43 -44 -99 -44q-53 0 -86 38q-43 51 -43 176q0 73 9 139h-79l-42 -344h-61l82 667h61zM400 616q-28 0 -51 -24q-35 -38 -58 -132
q-30 -120 -30 -263q0 -95 28 -127q17 -19 45 -19q29 0 53 27q46 52 67 199q17 123 17 207q0 87 -29 116q-16 16 -42 16z" />
    <glyph glyph-name="afii10049" unicode="&#x42f;" horiz-adv-x="374" 
d="M0 0l187 314q-45 8 -74 38q-35 37 -35 108q0 114 61 168q44 39 138 39h97l-82 -667h-68l39 320l-187 -320h-76zM269 369l30 241h-36q-50 0 -75 -22q-43 -37 -43 -126q0 -49 24 -71q23 -22 73 -22h27z" />
    <glyph glyph-name="afii10065" unicode="&#x430;" horiz-adv-x="322" 
d="M300 447l-55 -447h-55l4 36q-38 -43 -81 -43q-82 0 -82 120q0 70 13 157.5t39 130.5q33 53 93 53q41 0 65 -37l4 30h55zM231 327q0 82 -48 82q-32 0 -53 -37q-20 -36 -31 -113.5t-11 -134.5q0 -85 48 -85q19 0 32.5 9.5t21.5 27.5t11.5 32t7.5 34q22 112 22 185z" />
    <glyph glyph-name="afii10066" unicode="&#x431;" horiz-adv-x="327" 
d="M304 700h53q-4 -46 -34 -74q-18 -17 -84 -43q-54 -21 -75 -42q-39 -38 -57 -147q11 23 33 42q22 18 53 18q43 0 70 -28q34 -36 34 -122q0 -81 -17 -152q-18 -81 -59 -124q-33 -35 -81 -35q-42 0 -67 25q-39 39 -39 134q0 110 36 285q21 104 69 151q29 28 82 48
q58 21 69 33q13 13 14 31zM183 402q-24 0 -40 -16q-25 -25 -40 -106q-12 -66 -12 -130q0 -69 23 -92q14 -12 31 -12q21 0 37 18q31 32 44 103q12 67 12 137q0 57 -14 78q-13 20 -41 20z" />
    <glyph glyph-name="afii10067" unicode="&#x432;" horiz-adv-x="292" 
d="M75 447h88q57 0 83 -25q26 -23 26 -75q0 -60 -31 -89q-21 -19 -45 -24q25 -5 44 -24q21 -23 21 -68q0 -72 -36 -107q-35 -35 -99 -35h-106zM108 259h23q43 0 60 14q23 20 23 67q0 30 -15 44q-13 11 -42 11h-33zM83 52h27q48 0 68 18q23 23 23 67q0 38 -18 54
q-17 15 -54 15h-27z" />
    <glyph glyph-name="afii10068" unicode="&#x433;" horiz-adv-x="240" 
d="M21 0l55 447h180l-6 -52h-125l-48 -395h-56z" />
    <glyph glyph-name="afii10069" unicode="&#x434;" horiz-adv-x="335" 
d="M95 447h215l-49 -395h41l-20 -156h-53l13 104h-221l-12 -104h-54l20 156q43 17 65 57q18 33 28 113zM205 52l41 343h-104l-23 -183q-9 -65 -21 -97q-15 -39 -48 -63h155z" />
    <glyph glyph-name="afii10070" unicode="&#x435;" horiz-adv-x="308" 
d="M207 152h56q-10 -66 -41 -112.5t-90 -46.5q-104 0 -104 160q0 66 13 124q8 41 24 78t48 68t72 31q96 0 96 -155q0 -41 -8 -87h-185q-5 -33 -5 -59q0 -107 54 -107q18 0 31 10t20.5 29.5t11 33t7.5 33.5zM94 260h131q2 32 2 51q0 91 -47 91q-63 0 -86 -142z" />
    <glyph glyph-name="afii10072" unicode="&#x436;" horiz-adv-x="426" 
d="M395 0h-64l-92 205l-26 -205h-54l25 205l-139 -205h-65l161 235l-105 212h62l91 -195l25 195h54l-24 -195l139 195h63l-158 -216z" />
    <glyph glyph-name="afii10073" unicode="&#x437;" horiz-adv-x="291" 
d="M185 232q25 -5 43 -23q25 -25 25 -68q0 -68 -43 -111q-37 -37 -98 -37q-68 0 -102 38l9 71q15 -26 37 -40t48 -14q38 0 60 24q23 26 23 65q0 35 -25 53q-18 13 -55 13h-18l7 54h9q53 0 76 22q21 21 21 54q0 29 -20 49q-17 17 -48 17q-28 0 -50 -16t-35 -34l9 75
q40 30 87 30q58 0 88 -30t30 -82q0 -47 -21 -74q-21 -26 -57 -36z" />
    <glyph glyph-name="afii10074" unicode="&#x438;" horiz-adv-x="331" 
d="M254 0h-56l33 274q3 31 10 62q-13 -37 -29 -67l-135 -269h-56l55 447h56l-33 -271q-5 -39 -12 -69q18 42 30 66l136 274h56z" />
    <glyph glyph-name="afii10075" unicode="&#x439;" horiz-adv-x="331" 
d="M254 0h-56l33 274q3 31 10 62q-13 -37 -29 -67l-135 -269h-56l55 447h56l-33 -271q-5 -39 -12 -69q18 42 30 66l136 274h56zM256 597l53 -19q-13 -39 -41 -59q-27 -19 -69 -19q-44 0 -71 20q-29 21 -38 58l52 19q5 -21 18 -32q14 -13 39 -13q19 0 35 10q18 14 22 35z" />
    <glyph glyph-name="afii10076" unicode="&#x43a;" horiz-adv-x="290" 
d="M132 447l-24 -195l144 195h63l-162 -219l117 -228h-64l-103 205l-26 -205h-56l55 447h56z" />
    <glyph glyph-name="afii10077" unicode="&#x43b;" horiz-adv-x="344" 
d="M324 447l-56 -447h-56l49 395h-105l-27 -214q-8 -60 -14 -84q-12 -52 -37 -77q-24 -24 -61 -24q-16 0 -37 7l7 56q11 -8 25 -8t28 9q24 19 37 123l33 264h214z" />
    <glyph glyph-name="afii10078" unicode="&#x43c;" horiz-adv-x="416" 
d="M203 0h-46l-24 270q-4 44 -4 70q-2 -13 -16 -68l-70 -272h-53l124 447h50l23 -283q4 -54 3 -80q12 46 23 80l93 283h51l13 -447h-53l-3 272q0 7 -0.5 18t-0.5 22.5t1 27.5q-10 -40 -20 -70z" />
    <glyph glyph-name="afii10079" unicode="&#x43d;" horiz-adv-x="326" 
d="M249 0h-56l25 209h-115l-26 -209h-56l55 447h56l-22 -186h115l23 186h56z" />
    <glyph glyph-name="afii10080" unicode="&#x43e;" horiz-adv-x="318" 
d="M290 328v-17q0 -47 -6 -93.5t-21 -101.5t-48.5 -89t-81.5 -34q-105 0 -105 162q0 43 7 89.5t23.5 96t50.5 81.5t80 32q51 0 76 -36.5t25 -89.5zM232 298q0 104 -50 104q-29 0 -49.5 -30.5t-30 -76.5t-13.5 -83t-4 -65q0 -101 53 -101q28 0 48 30t29 75.5t13 82t4 64.5z
" />
    <glyph glyph-name="afii10081" unicode="&#x43f;" horiz-adv-x="322" 
d="M245 0h-56l48 395h-112l-48 -395h-56l55 447h224z" />
    <glyph glyph-name="afii10082" unicode="&#x440;" horiz-adv-x="318" 
d="M132 447l-3 -30q34 37 74 37q89 0 89 -119q0 -111 -27 -218q-30 -124 -112 -124q-43 0 -71 43l-27 -216h-55l77 627h55zM234 325q0 84 -49 84q-51 0 -71 -93q-22 -108 -22 -198q0 -79 49 -79q32 0 49 32q20 32 32 115t12 139z" />
    <glyph glyph-name="afii10083" unicode="&#x441;" horiz-adv-x="242" 
d="M249 437l-8 -66q-25 31 -51 31q-27 0 -49 -28.5t-32 -58.5t-14 -59q-8 -50 -8 -94q0 -18 2 -35t7.5 -37t18 -32t30.5 -12q28 0 60 40l-8 -70q-31 -23 -66 -23q-38 0 -62.5 28t-32.5 61.5t-8 71.5q0 66 13 122q16 69 53.5 123.5t95.5 54.5q31 0 59 -17z" />
    <glyph glyph-name="afii10084" unicode="&#x442;" horiz-adv-x="256" 
d="M264 395h-87l-49 -395h-56l48 395h-86l6 52h230z" />
    <glyph glyph-name="afii10085" unicode="&#x443;" horiz-adv-x="291" 
d="M312 447l-232 -627h-59l71 192l-52 435h57l25 -248q6 -55 6 -112q6 20 35 103l91 257h58z" />
    <glyph glyph-name="afii10086" unicode="&#x444;" horiz-adv-x="400" 
d="M122 -180l21 173q-45 5 -75 35q-48 48 -48 145q0 66 19.5 132.5t57.5 102.5q42 39 102 46l25 213h56l-25 -213q44 -5 76 -37q49 -49 49 -143q0 -69 -18.5 -135.5t-55.5 -101.5q-41 -39 -107 -44l-21 -173h-56zM247 402l-43 -356q41 4 66 29q56 54 56 202q0 75 -30 104
q-18 18 -49 21zM152 46l43 356q-36 -4 -61 -29q-31 -31 -45.5 -91t-14.5 -114q0 -59 21 -89q20 -29 57 -33z" />
    <glyph glyph-name="afii10087" unicode="&#x445;" horiz-adv-x="275" 
d="M296 447l-126 -218l71 -229h-63l-33 127q-12 44 -13 66q-9 -28 -28 -67l-63 -126h-62l129 229l-64 218h61q4 -15 12 -45.5t12.5 -49.5t9 -45.5t5.5 -48.5q23 58 29 70q7 13 19 37.5t22.5 44.5t19.5 37h62z" />
    <glyph glyph-name="afii10088" unicode="&#x446;" horiz-adv-x="329" 
d="M303 447l-48 -395h50l-20 -156h-56l13 104h-221l55 447h56l-48 -395h115l48 395h56z" />
    <glyph glyph-name="afii10089" unicode="&#x447;" horiz-adv-x="294" 
d="M163 0l26 211q-30 -9 -59 -9q-50 0 -75 21t-25 63q0 10 4 48l13 113h57l-14 -113q0 -3 -1.5 -15t-1.5 -18q0 -26 15 -36q13 -10 43 -10q26 0 50 10l23 182h56l-55 -447h-56z" />
    <glyph glyph-name="afii10090" unicode="&#x448;" horiz-adv-x="496" 
d="M303 447l-48 -395h114l49 395h56l-55 -447h-398l55 447h57l-49 -395h115l48 395h56z" />
    <glyph glyph-name="afii10091" unicode="&#x449;" horiz-adv-x="500" 
d="M303 447l-48 -395h114l49 395h56l-48 -395h50l-20 -156h-56l13 104h-392l55 447h57l-49 -395h115l48 395h56z" />
    <glyph glyph-name="afii10092" unicode="&#x44a;" horiz-adv-x="323" 
d="M60 0l49 395h-89l7 52h145l-21 -175h13q79 0 110 -34q29 -31 29 -84q0 -78 -42 -118q-38 -36 -122 -36h-79zM124 52h29q43 0 65 21q26 26 26 76q0 36 -18 54q-18 17 -62 17h-20z" />
    <glyph glyph-name="afii10093" unicode="&#x44b;" horiz-adv-x="422" 
d="M347 0h-56l55 447h56zM21 0l55 447h56l-21 -175h13q79 0 111 -34q28 -30 28 -84q0 -78 -42 -118q-38 -36 -121 -36h-79zM84 52h29q43 0 65 21q26 26 26 77q0 35 -18 53q-18 17 -62 17h-20z" />
    <glyph glyph-name="afii10094" unicode="&#x44c;" horiz-adv-x="282" 
d="M20 0l55 447h56l-21 -175h13q79 0 111 -34q28 -30 28 -84q0 -78 -42 -118q-38 -36 -121 -36h-79zM83 52h29q45 0 66 21q25 25 25 76q0 36 -18 54q-17 17 -62 17h-19z" />
    <glyph glyph-name="afii10095" unicode="&#x44d;" horiz-adv-x="276" 
d="M10 29l9 70q9 -22 25 -36q18 -17 44 -17q25 0 46 21q41 39 52 142h-114l7 52h113q3 36 -4.5 71t-22.5 52q-16 18 -45 18q-20 0 -36 -12q-16 -11 -29 -29l9 75q29 18 65 18q49 0 79 -30q43 -43 43 -141q0 -72 -15 -135q-18 -77 -61 -119q-36 -36 -88 -36q-49 0 -77 36z
" />
    <glyph glyph-name="afii10096" unicode="&#x44e;" horiz-adv-x="439" 
d="M109 261h56q16 109 65 160q32 33 80 33q41 0 66 -25q35 -34 35 -118q0 -91 -16 -159q-18 -83 -60 -125q-34 -34 -79 -34q-42 0 -68 28q-45 52 -31 188h-54l-26 -209h-56l55 447h56zM304 402q-20 0 -35 -14q-28 -26 -45 -110q-14 -70 -14 -133q0 -53 14 -77q12 -22 36 -22
q21 0 37 17q29 31 43 105q13 72 13 141q0 54 -17 77q-12 16 -32 16z" />
    <glyph glyph-name="afii10097" unicode="&#x44f;" horiz-adv-x="303" 
d="M0 0l134 187q-40 8 -63 29q-30 28 -30 79q0 77 44 118q36 34 109 34h89l-55 -447h-56l22 182l-124 -182h-70zM200 234l20 161h-30q-41 0 -62 -19q-27 -24 -27 -71q0 -41 24 -57q20 -14 57 -14h18z" />
    <glyph glyph-name="afii10071" unicode="&#x451;" horiz-adv-x="308" 
d="M207 152h56q-10 -66 -41 -112.5t-90 -46.5q-104 0 -104 160q0 66 13 124q8 41 24 78t48 68t72 31q96 0 96 -155q0 -36 -7 -87h-186q-5 -33 -5 -59q0 -107 54 -107q53 0 70 106zM94 260h131q2 32 2 51q0 91 -47 91q-63 0 -86 -142zM299 563q0 -19 -14.5 -34t-33.5 -15
q-16 0 -26.5 11.5t-10.5 27.5q0 18 14.5 32.5t33.5 14.5q16 0 26.5 -10.5t10.5 -26.5zM179 563q0 -19 -14.5 -34t-34.5 -15q-15 0 -25.5 11.5t-10.5 27.5q0 18 14.5 32.5t32.5 14.5q16 0 27 -10.5t11 -26.5z" />
    <glyph glyph-name="afii10099" unicode="&#x452;" horiz-adv-x="324" 
d="M111 729h56l-18 -155h104l-7 -52h-104l-16 -131q14 16 36 29q24 14 51 14q35 0 55 -20q23 -22 23 -61q0 -19 -3 -38l-44 -357q-10 -81 -42 -112q-27 -26 -70 -26q-25 0 -41 10l7 57q13 -11 30 -11q23 0 35 11q18 16 25 72l41 332q5 45 5 48q0 25 -13 38q-13 11 -31 11
q-28 0 -47 -19q-5 -5 -9.5 -11.5t-7.5 -15.5t-5.5 -15t-4.5 -17.5t-2.5 -15.5t-2 -17t-1.5 -14l-33 -263h-56l64 522h-49l7 52h49z" />
    <glyph glyph-name="afii10100" unicode="&#x453;" horiz-adv-x="240" 
d="M21 0l55 447h180l-6 -52h-125l-48 -395h-56zM307 610l-126 -103l-32 26l110 120z" />
    <glyph glyph-name="afii10101" unicode="&#x454;" horiz-adv-x="259" 
d="M225 91l-9 -72q-35 -26 -74 -26q-43 0 -72 30q-42 44 -42 148q0 70 16 131q19 76 61 116q36 36 88 36q45 0 73 -25l-7 -70q-11 19 -23 29q-16 14 -40 14q-23 0 -43 -18q-41 -38 -54 -123h116l-7 -52h-117q-13 -88 17 -136q17 -27 48 -27q18 0 37 13q20 13 32 32z" />
    <glyph glyph-name="afii10102" unicode="&#x455;" horiz-adv-x="243" 
d="M238 425l-7 -69q-33 46 -70 46q-27 0 -45 -20t-18 -48q0 -25 18.5 -49t40 -40.5t40 -45t18.5 -61.5q0 -58 -39 -101.5t-95 -43.5q-44 0 -78 31l7 66q35 -44 73 -44q31 0 52 24t21 55q0 21 -12 41t-29 37t-34 34.5t-29 40.5t-12 48q0 53 35.5 90.5t87.5 37.5q41 0 75 -29z
" />
    <glyph glyph-name="afii10103" unicode="&#x456;" horiz-adv-x="154" 
d="M163 593q0 -19 -14 -33t-33 -14q-16 0 -26.5 10.5t-10.5 25.5q0 20 14.5 34t33.5 14q15 0 25.5 -10.5t10.5 -26.5zM131 447l-54 -447h-56l55 447h55z" />
    <glyph glyph-name="afii10104" unicode="&#x457;" horiz-adv-x="154" 
d="M132 447l-55 -447h-56l55 447h56zM186 593q0 -19 -10 -34t-24 -15q-10 0 -17.5 11.5t-7.5 27.5q0 18 10 32.5t23 14.5q11 0 18.5 -10.5t7.5 -26.5zM105 593q0 -19 -10 -34t-24 -15q-11 0 -18 11.5t-7 27.5q0 18 10 32.5t22 14.5t19.5 -10.5t7.5 -26.5z" />
    <glyph glyph-name="afii10105" unicode="&#x458;" horiz-adv-x="159" 
d="M168 593q0 -19 -13.5 -33t-32.5 -14q-16 0 -26.5 10.5t-10.5 25.5q0 19 13.5 33.5t32.5 14.5q16 0 26.5 -10.5t10.5 -26.5zM137 447l-78 -627h-56l78 627h56z" />
    <glyph glyph-name="afii10106" unicode="&#x459;" horiz-adv-x="475" 
d="M212 0l48 395h-104l-27 -214q-8 -60 -14 -84q-12 -52 -37 -77q-24 -24 -61 -24q-16 0 -37 7l7 56q11 -8 25 -8q17 0 27 9q25 20 38 123l32 264h215l-21 -175h13q79 0 110 -34q29 -31 29 -84q0 -77 -43 -118q-38 -36 -121 -36h-79zM275 52h30q44 0 65 21q26 26 26 77
q0 36 -18 53t-62 17h-20z" />
    <glyph glyph-name="afii10107" unicode="&#x45a;" horiz-adv-x="456" 
d="M193 0l28 220h-116l-28 -220h-56l55 447h56l-20 -175h115l22 175h56l-21 -175h13q79 0 111 -34q28 -30 28 -84q0 -78 -42 -118q-38 -36 -122 -36h-79zM257 52h29q43 0 65 21q26 26 26 76q0 36 -18 54q-18 17 -62 17h-20z" />
    <glyph glyph-name="afii10108" unicode="&#x45b;" horiz-adv-x="322" 
d="M21 0l64 522h-49l7 52h49l18 155h56l-19 -155h104l-7 -52h-104l-16 -131q43 43 91 43q74 0 74 -78q0 -24 -3 -45l-37 -311h-56l37 301q4 26 4 39q0 21 -11 34.5t-31 13.5q-22 0 -37.5 -9.5t-23.5 -27t-12 -33t-7 -37.5l-35 -281h-56z" />
    <glyph glyph-name="afii10109" unicode="&#x45c;" horiz-adv-x="290" 
d="M132 447l-24 -195l144 195h63l-162 -219l117 -228h-64l-103 205l-26 -205h-56l55 447h56zM327 610l-126 -103l-32 26l110 120z" />
    <glyph glyph-name="afii10110" unicode="&#x45e;" horiz-adv-x="291" 
d="M312 447l-232 -627h-59l71 192l-52 435h57l25 -248q6 -55 6 -112q6 20 35 103l91 257h58zM242 597l53 -19q-13 -39 -41 -59q-27 -19 -69 -19q-44 0 -71 20q-29 21 -38 58l52 19q5 -21 18 -32q14 -13 39 -13q19 0 35 10q18 14 22 35z" />
    <glyph glyph-name="afii10193" unicode="&#x45f;" horiz-adv-x="325" 
d="M303 447l-55 -447h-86l-13 -104h-56l13 104h-85l55 447h56l-48 -395h115l48 395h56z" />
    <glyph glyph-name="afii10146" unicode="&#x462;" horiz-adv-x="365" 
d="M180 557l-22 -179h27q74 0 113 -39q37 -37 37 -111q0 -139 -65 -193q-41 -35 -112 -35h-108l69 557h-89l7 57h88l10 80h61l-9 -80h126l-7 -57h-126zM118 53h33q48 0 75 23q46 39 46 148q0 53 -26 77q-22 20 -73 20h-22z" />
    <glyph glyph-name="afii10194" unicode="&#x463;" horiz-adv-x="286" 
d="M24 0l49 395h-59l7 52h59l27 220h56l-27 -220h105l-7 -52h-105l-15 -123h13q79 0 111 -34q28 -30 28 -84q0 -78 -42 -118q-38 -36 -121 -36h-79zM87 52h29q43 0 65 21q26 26 26 76q0 36 -18 54q-18 17 -56 17h-26z" />
    <glyph glyph-name="afii10147" unicode="&#x472;" horiz-adv-x="398" 
d="M257 676q49 0 80 -33q45 -47 45 -174q0 -103 -20 -215q-27 -156 -87 -218q-44 -45 -105 -45q-49 0 -81 32q-47 49 -47 183q0 127 26 238q30 132 87 189q43 43 102 43zM117 373h198q6 68 6 109q0 88 -31 118q-19 16 -42 16q-32 0 -56 -24q-26 -24 -46 -89.5t-29 -129.5z
M309 316h-199q-6 -54 -6 -113q0 -99 28 -131q18 -21 45 -21q34 0 60 27q53 54 72 238z" />
    <glyph glyph-name="afii10195" unicode="&#x473;" horiz-adv-x="318" 
d="M189 454q41 0 66 -25q35 -35 35 -121q0 -82 -17 -156q-18 -82 -59 -124q-33 -35 -81 -35q-42 0 -67 25q-38 38 -38 137q0 72 18 143q20 79 59 119q35 37 84 37zM95 254h135q2 24 2 52q0 60 -18 80q-12 16 -32 16q-23 0 -40 -19q-18 -19 -30.5 -58t-16.5 -71zM224 201
h-136q-3 -30 -3 -55q0 -60 21 -85q13 -15 32 -15q20 0 38 18q18 19 31 60t17 77z" />
    <glyph glyph-name="afii10148" unicode="&#x474;" horiz-adv-x="321" 
d="M374 667l-215 -667h-54l-50 667h63l28 -442q2 -38 2 -57q0 -12 -0.5 -24.5t-1.5 -28t-1 -24.5q24 105 32 132l134 444h63z" />
    <glyph glyph-name="afii10196" unicode="&#x475;" horiz-adv-x="271" 
d="M293 447l-153 -447h-60l-46 447h58l25 -267q4 -52 4 -77q0 -13 1 -19q6 34 26 94l87 269h58z" />
    <glyph glyph-name="afii10050" unicode="&#x490;" horiz-adv-x="312" 
d="M26 0l82 667h167l15 121h62l-22 -178h-168l-75 -610h-61z" />
    <glyph glyph-name="afii10098" unicode="&#x491;" horiz-adv-x="261" 
d="M21 0l55 447h139l12 99h56l-19 -151h-139l-48 -395h-56z" />
    <glyph glyph-name="uni0492" unicode="&#x492;" horiz-adv-x="306" 
d="M325 610h-149l-29 -234h116l-7 -57h-116l-39 -319h-62l39 319h-58l7 57h58l36 291h211z" />
    <glyph glyph-name="uni0493" unicode="&#x493;" horiz-adv-x="247" 
d="M28 0l24 193h-47l6 52h47l25 202h180l-7 -52h-124l-18 -150h105l-6 -52h-105l-24 -193h-56z" />
    <glyph glyph-name="uni0494" unicode="&#x494;" horiz-adv-x="373" 
d="M327 610h-164l-27 -221q29 16 68 16q64 0 100 -40q39 -43 39 -128q0 -57 -16 -119t-50 -95q-37 -35 -89 -35q-40 0 -72 23l26 59q21 -22 49 -22q24 0 42 18q21 20 33.5 71.5t12.5 95.5q0 61 -26 90q-22 25 -61 25q-33 0 -63 -19l-41 -329h-62l82 667h226z" />
    <glyph glyph-name="uni0495" unicode="&#x495;" horiz-adv-x="281" 
d="M21 0l55 447h180l-6 -52h-125l-16 -134h4q61 0 99 -34q42 -39 42 -121q0 -63 -17 -131q-19 -74 -60 -112q-40 -37 -96 -43l8 63q25 2 47 21q30 26 44 86q15 60 15 116q0 57 -26 81q-20 19 -61 19h-6l-25 -206h-56z" />
    <glyph glyph-name="uni0496" unicode="&#x496;" horiz-adv-x="468" 
d="M326 349l80 -292h55l-24 -187h-61l17 130h-34l-88 336l-41 -336h-62l41 336l-175 -336h-64l187 355l-100 312h64l92 -303l37 303h62l-37 -303l165 303h64z" />
    <glyph glyph-name="uni0497" unicode="&#x497;" horiz-adv-x="426" 
d="M288 231l83 -179h50l-20 -156h-56l13 104h-27l-92 205l-26 -205h-54l25 205l-139 -205h-65l161 235l-105 212h62l91 -195l25 195h54l-24 -195l139 195h63z" />
    <glyph glyph-name="uni0498" unicode="&#x498;" horiz-adv-x="360" 
d="M132 371h18q50 0 77 18q47 31 47 117q0 51 -23 79q-24 29 -69 29q-32 0 -60 -19q-23 -15 -40 -38l11 86q42 33 101 33q65 0 103 -36q43 -41 43 -121q0 -99 -48 -143q-21 -19 -51 -30q33 -11 54 -35q31 -35 31 -89q0 -110 -69 -180q-42 -42 -94 -48l-15 -124h-62l15 123
q-49 6 -91 41l10 86q20 -30 44 -47q27 -20 64 -20q44 0 76 26q26 22 39.5 59t13.5 73q0 51 -30 79q-26 24 -85 24h-17z" />
    <glyph glyph-name="uni0499" unicode="&#x499;" horiz-adv-x="291" 
d="M185 232q25 -5 43 -23q25 -25 25 -68q0 -68 -43 -111q-29 -31 -69 -35l-12 -99h-56l13 98q-47 6 -76 37l9 71q15 -26 37 -40t48 -14q38 0 60 24q23 26 23 65q0 35 -25 53q-18 13 -55 13h-18l7 54h9q53 0 76 22q21 21 21 54q0 29 -20 49q-17 17 -48 17q-28 0 -50 -16
t-35 -34l9 75q40 30 87 30q58 0 88 -30t30 -82q0 -47 -21 -74q-21 -26 -57 -36z" />
    <glyph glyph-name="uni049A" unicode="&#x49a;" horiz-adv-x="325" 
d="M365 667l-180 -320l78 -290h52l-24 -187h-62l17 130h-31l-87 336l-41 -336h-61l82 667h61l-37 -303l169 303h64z" />
    <glyph glyph-name="uni049B" unicode="&#x49b;" horiz-adv-x="295" 
d="M132 447l-24 -195l144 195h63l-162 -219l85 -176h46l-19 -156h-57l13 104h-19l-99 205l-26 -205h-56l55 447h56z" />
    <glyph glyph-name="uni049C" unicode="&#x49c;" horiz-adv-x="403" 
d="M126 321l-39 -321h-61l82 667h61l-35 -288h41l16 137h56l-18 -152l155 303h64l-168 -318l102 -349h-64l-93 336l-21 -176h-56l19 161h-41z" />
    <glyph glyph-name="uni049D" unicode="&#x49d;" horiz-adv-x="350" 
d="M102 202l-24 -202h-57l56 447h56l-25 -195h32l12 93h47l-12 -93l124 195h64l-144 -217l94 -230h-63l-81 205l-14 -116h-47l14 113h-32z" />
    <glyph glyph-name="uni04A0" unicode="&#x4a0;" horiz-adv-x="366" 
d="M411 667l-180 -320l98 -347h-64l-91 336l-41 -336h-61l75 610h-99l7 57h160l-37 -303l169 303h64z" />
    <glyph glyph-name="uni04A1" unicode="&#x4a1;" horiz-adv-x="331" 
d="M173 447l-24 -195l144 195h63l-162 -219l116 -228h-63l-103 205l-26 -205h-56l49 395h-87l7 52h142z" />
    <glyph glyph-name="uni04A2" unicode="&#x4a2;" horiz-adv-x="384" 
d="M380 667l-74 -610h58l-23 -187h-62l16 130h-58l42 344h-150l-42 -344h-61l82 667h61l-33 -266h150l33 266h61z" />
    <glyph glyph-name="uni04A3" unicode="&#x4a3;" horiz-adv-x="330" 
d="M76 447h56l-22 -186h115l23 186h56l-48 -395h50l-20 -156h-56l13 104h-50l25 209h-115l-26 -209h-56z" />
    <glyph glyph-name="uni04A4" unicode="&#x4a4;" horiz-adv-x="474" 
d="M510 667l-7 -57h-130l-75 -610h-61l42 344h-150l-42 -344h-61l82 667h61l-33 -266h150l33 266h191z" />
    <glyph glyph-name="uni04A5" unicode="&#x4a5;" horiz-adv-x="387" 
d="M192 0l26 209h-116l-25 -209h-56l55 447h56l-23 -186h116l23 186h155l-6 -52h-100l-48 -395h-57z" />
    <glyph glyph-name="uni04AA" unicode="&#x4aa;" horiz-adv-x="315" 
d="M350 655l-8 -68q-38 29 -72 29q-43 0 -76 -33q-41 -41 -65 -153q-23 -104 -23 -216q0 -105 33 -140q22 -23 58 -23q38 0 82 30l-7 -62q-25 -18 -56 -24l-16 -125h-62l16 125q-33 5 -60 32q-53 55 -53 185q0 113 28 226q30 128 91 189q49 49 116 49q44 0 74 -21z" />
    <glyph glyph-name="uni04AB" unicode="&#x4ab;" horiz-adv-x="242" 
d="M249 437l-8 -66q-24 31 -51 31q-21 0 -44 -23q-32 -34 -45.5 -97t-13.5 -119q0 -78 27 -104q14 -13 32 -13q32 0 59 40l-8 -70q-14 -13 -31 -17l-13 -103h-56l13 102q-36 8 -56 40q-26 41 -26 118q0 66 20.5 143.5t60.5 117.5q37 37 81 37q31 0 59 -17z" />
    <glyph glyph-name="uni04AE" unicode="&#x4ae;" horiz-adv-x="315" 
d="M367 667l-168 -378l-35 -289h-61l35 289l-83 378h66l38 -191q14 -73 17 -123q18 58 44 122l81 192h66z" />
    <glyph glyph-name="uni04AF" unicode="&#x4af;" horiz-adv-x="286" 
d="M30 447h59l26 -172q11 -69 14 -135q19 55 53 140l67 167h58l-157 -378l-30 -249h-57l31 249z" />
    <glyph glyph-name="uni04B0" unicode="&#x4b0;" horiz-adv-x="316" 
d="M368 667l-168 -378l-3 -30h102l-7 -54h-102l-25 -205h-61l26 205h-104l7 54h102l4 30l-83 378h66l38 -191q14 -73 17 -123q18 58 44 122l81 192h66z" />
    <glyph glyph-name="uni04B1" unicode="&#x4b1;" horiz-adv-x="286" 
d="M95 77l-65 370h59l26 -172q6 -41 13 -135q18 51 54 140l67 167h58l-156 -370l-3 -25h75l-7 -52h-75l-24 -180h-56l24 180h-75l7 52h75z" />
    <glyph glyph-name="uni04B2" unicode="&#x4b2;" horiz-adv-x="326" 
d="M366 667l-165 -328l66 -282h54l-22 -187h-62l15 130h-35l-39 189q-13 55 -15 95q-4 -17 -39 -97l-85 -187h-66l169 339l-87 328h65l39 -165q14 -59 17 -117q9 33 46 113l79 169h65z" />
    <glyph glyph-name="uni04B3" unicode="&#x4b3;" horiz-adv-x="280" 
d="M296 447l-126 -218l53 -177h50l-20 -156h-56l13 104h-32l-33 127q-12 44 -13 66q-9 -28 -28 -67l-63 -126h-62l129 229l-64 218h61q4 -15 12 -45.5t12.5 -49.5t9 -45.5t5.5 -48.5q23 58 29 70q7 13 19 37.5t22.5 44.5t19.5 37h62z" />
    <glyph glyph-name="uni04B6" unicode="&#x4b6;" horiz-adv-x="373" 
d="M369 667l-75 -610h58l-23 -187h-62l16 130h-58l41 338q-31 -10 -70 -10q-55 0 -86 22q-40 29 -40 85q0 26 6 71l20 161h63l-20 -164q-5 -35 -5 -50q0 -34 19 -50q18 -15 54 -15t67 12l33 267h62z" />
    <glyph glyph-name="uni04B7" unicode="&#x4b7;" horiz-adv-x="299" 
d="M212 0h-49l27 211q-26 -9 -60 -9q-50 0 -75 21t-25 63q0 10 4 48l13 113h57l-14 -113q0 -3 -1.5 -15t-1.5 -18q0 -26 15 -36q13 -10 43 -10q26 0 50 10l23 182h56l-48 -395h49l-19 -156h-57z" />
    <glyph glyph-name="uni04B8" unicode="&#x4b8;" horiz-adv-x="383" 
d="M383 667l-82 -667h-61l42 339q-24 -8 -42 -8l-19 -152h-56l19 151q-55 0 -86 31q-28 27 -28 78q0 22 6 67l20 161h61l-20 -164q-5 -37 -5 -53q0 -33 16 -48q17 -16 43 -14l17 140h56l-17 -141q23 0 42 9l33 271h61z" />
    <glyph glyph-name="uni04B9" unicode="&#x4b9;" horiz-adv-x="304" 
d="M173 0l25 211q-12 -4 -32 -7l-13 -105h-47l13 105q-43 0 -68 25q-21 21 -21 57q0 17 4 48l13 113h57l-14 -113q-3 -27 -3 -32q0 -25 12 -35q7 -7 26 -9l12 95h48l-12 -96q15 0 32 6l23 184h56l-55 -447h-56z" />
    <glyph glyph-name="uni04BA" unicode="&#x4ba;" horiz-adv-x="366" 
d="M26 0l82 667h61l-34 -276q42 14 78 14q64 0 95 -28q23 -21 27 -57t-3 -77l-30 -243h-61l29 236q9 74 -11 94q-18 18 -60 18q-37 0 -71 -17l-41 -331h-61z" />
    <glyph glyph-name="uni04BB" unicode="&#x4bb;" horiz-adv-x="325" 
d="M166 729l-39 -318q43 43 91 43q74 0 74 -78q0 -24 -3 -45l-40 -331h-56l39 321q4 26 4 39q0 21 -11 34.5t-31 13.5q-69 0 -80 -107l-37 -301h-56l90 729h55z" />
    <glyph glyph-name="uni04C0" unicode="&#x4c0;" horiz-adv-x="146" 
d="M158 667l-81 -667h-56l82 667h55z" />
    <glyph glyph-name="uni04C1" unicode="&#x4c1;" horiz-adv-x="459" 
d="M426 0h-64l-91 336l-41 -336h-62l41 336l-175 -336h-64l187 355l-100 312h64l92 -303l37 303h62l-37 -303l165 303h64l-178 -318zM368 808l54 -21q-17 -43 -51 -64q-31 -19 -78 -19t-76 20q-33 23 -46 63l54 21q7 -25 26 -39q17 -12 47 -12q29 0 45 13q18 15 25 38z" />
    <glyph glyph-name="uni04C2" unicode="&#x4c2;" horiz-adv-x="426" 
d="M395 0h-64l-92 205l-26 -205h-54l25 205l-139 -205h-65l161 235l-105 212h62l91 -195l25 195h54l-24 -195l139 195h63l-158 -216zM308 597l53 -19q-13 -39 -41 -59q-27 -19 -69 -19q-44 0 -71 20q-29 21 -38 58l52 19q5 -21 18 -32q14 -13 39 -13q19 0 35 10q18 14 22 35
z" />
    <glyph glyph-name="uni04C3" unicode="&#x4c3;" horiz-adv-x="364" 
d="M369 667l-154 -274q50 -5 82 -35q40 -39 40 -119q0 -34 -6 -85l-14 -115q-14 -119 -60 -164q-37 -35 -89 -35q-40 0 -72 23l26 59q22 -22 49 -22q24 0 42 18q31 31 43 129l14 116q5 52 5 75q0 53 -25 78t-64 25q-30 0 -60 -15l-39 -326h-61l82 667h61l-37 -303l169 303
h68z" />
    <glyph glyph-name="uni04C4" unicode="&#x4c4;" horiz-adv-x="295" 
d="M132 447l-24 -195l144 195h63l-161 -218q30 -6 55 -31q40 -40 40 -110q0 -59 -15 -113q-19 -72 -60 -111t-95 -44l8 63q30 6 48 21q29 24 45 85q13 48 13 94q0 54 -27 78q-21 19 -59 19h-7l-23 -180h-56l55 447h56z" />
    <glyph glyph-name="uni04C7" unicode="&#x4c7;" horiz-adv-x="380" 
d="M380 667l-92 -734q-7 -59 -33 -86q-27 -27 -76 -27q-37 0 -69 18l8 64q21 -28 56 -28q24 0 37 13q14 14 18 54l50 403h-150l-42 -344h-61l82 667h61l-33 -266h150l33 266h61z" />
    <glyph glyph-name="uni04C8" unicode="&#x4c8;" horiz-adv-x="326" 
d="M132 447l-22 -186h115l23 186h56l-59 -489q-10 -81 -42 -112q-27 -26 -70 -26q-25 0 -41 10l7 57q13 -11 30 -11q23 0 35 11q19 17 25 71l29 251h-115l-26 -209h-56l55 447h56z" />
    <glyph glyph-name="uni04D0" unicode="&#x4d0;" horiz-adv-x="320" 
d="M291 0h-65l-8 137h-139l-41 -137h-65l211 667h58zM215 191l-14 235q-3 40 -3 80q0 38 3 77q-8 -47 -22 -103t-24 -91t-31 -104.5t-28 -93.5h119zM288 808l54 -21q-17 -43 -51 -64q-31 -19 -78 -19t-76 20q-33 23 -46 63l54 21q7 -25 26 -39q17 -12 47 -12q29 0 45 13
q18 15 25 38z" />
    <glyph glyph-name="uni04D1" unicode="&#x4d1;" horiz-adv-x="322" 
d="M300 447l-55 -447h-55l4 36q-38 -43 -81 -43q-82 0 -82 120q0 70 13 157.5t39 130.5q33 53 93 53q41 0 65 -37l4 30h55zM231 327q0 82 -48 82q-32 0 -53 -37q-20 -36 -31 -113.5t-11 -134.5q0 -85 48 -85q19 0 32.5 9.5t21.5 27.5t11.5 32t7.5 34q22 112 22 185zM252 597
l53 -19q-13 -39 -41 -59q-27 -19 -69 -19q-44 0 -71 20q-29 21 -38 58l52 19q5 -21 18 -32q14 -13 39 -13q19 0 35 10q18 14 22 35z" />
    <glyph glyph-name="uni04D2" unicode="&#x4d2;" horiz-adv-x="320" 
d="M291 0h-65l-8 137h-139l-41 -137h-65l211 667h58zM215 191l-14 235q-3 40 -3 80q0 38 3 77q-8 -47 -22 -103t-24 -91t-31 -104.5t-28 -93.5h119zM323 769q0 -19 -14.5 -34t-34.5 -15q-16 0 -26.5 11.5t-10.5 27.5q0 19 14.5 33.5t33.5 14.5q17 0 27.5 -10.5t10.5 -27.5z
M197 769q0 -19 -14.5 -34t-34.5 -15q-16 0 -26.5 11.5t-10.5 27.5q0 19 14.5 33.5t33.5 14.5q17 0 27.5 -10.5t10.5 -27.5z" />
    <glyph glyph-name="uni04D3" unicode="&#x4d3;" horiz-adv-x="322" 
d="M300 447l-55 -447h-55l4 36q-38 -43 -81 -43q-82 0 -82 120q0 70 13 157.5t39 130.5q33 53 93 53q41 0 65 -37l4 30h55zM231 327q0 82 -48 82q-32 0 -53 -37q-20 -36 -31 -113.5t-11 -134.5q0 -85 48 -85q19 0 32.5 9.5t21.5 27.5t11.5 32t7.5 34q22 112 22 185zM310 562
q0 -20 -15 -34.5t-34 -14.5q-16 0 -26.5 11.5t-10.5 27.5q0 19 14.5 33.5t33.5 14.5q16 0 27 -11t11 -27zM184 562q0 -20 -15 -34.5t-34 -14.5q-16 0 -26.5 11.5t-10.5 27.5q0 19 14.5 33.5t33.5 14.5q16 0 27 -11t11 -27z" />
    <glyph glyph-name="uni04D4" unicode="&#x4d4;" horiz-adv-x="455" 
d="M436 0h-204l-5 137h-149l-40 -137h-65l211 667h219l3 -57h-141l13 -235h133l3 -57h-133l15 -261h138zM225 190l-12 282q-1 0 -1 62l1 61q-16 -64 -33 -122l-85 -283h130z" />
    <glyph glyph-name="uni04D5" unicode="&#x4d5;" horiz-adv-x="500" 
d="M76 366l7 62q42 26 83 26q80 0 105 -75q15 31 42.5 53t59.5 22q38 0 61.5 -28t30.5 -61t7 -71q0 -26 -6 -80h-194q-4 -36 -4 -53q0 -116 60 -116q56 0 72 110h52q-10 -64 -44.5 -113t-91.5 -49q-59 0 -84 74q-18 -33 -48.5 -53.5t-66.5 -20.5q-51 0 -73.5 35t-22.5 89
q0 43 12.5 82.5t43.5 69t75 29.5q49 0 74 -37q4 32 4 49q0 39 -17.5 65.5t-55.5 26.5q-33 0 -81 -36zM280 261h136q0 4 1 12t1.5 14t0.5 12q0 23 -3.5 43.5t-17 40t-35.5 19.5q-36 0 -57.5 -47.5t-25.5 -93.5zM214 167q0 85 -57 85q-43 0 -62.5 -40.5t-19.5 -89.5
q0 -76 56 -76q41 0 62 38t21 83z" />
    <glyph glyph-name="uni04D6" unicode="&#x4d6;" horiz-adv-x="297" 
d="M313 667l-7 -57h-144l-29 -235h140l-6 -57h-141l-32 -261h144l-7 -57h-205l82 667h205zM303 808l54 -21q-17 -43 -51 -64q-31 -19 -78 -19t-76 20q-33 23 -46 63l54 21q7 -25 26 -39q17 -12 47 -12q29 0 45 13q18 15 25 38z" />
    <glyph glyph-name="uni04D7" unicode="&#x4d7;" horiz-adv-x="308" 
d="M207 152h56q-10 -66 -41 -112.5t-90 -46.5q-104 0 -104 160q0 66 13 124q8 41 24 78t48 68t72 31q96 0 96 -155q0 -41 -8 -87h-185q-5 -33 -5 -59q0 -107 54 -107q18 0 31 10t20.5 29.5t11 33t7.5 33.5zM94 260h131q2 32 2 51q0 91 -47 91q-63 0 -86 -142zM247 597
l53 -19q-13 -39 -41 -59q-27 -19 -69 -19q-44 0 -71 20q-29 21 -38 58l52 19q5 -21 18 -32q14 -13 39 -13q19 0 35 10q18 14 22 35z" />
    <glyph glyph-name="uni04D8" unicode="&#x4d8;" horiz-adv-x="387" 
d="M63 352h235q10 63 10 124q0 77 -20 108q-20 32 -57 32q-33 0 -54 -24q-24 -25 -35 -71l-58 24q21 60 58 96q36 35 92 35q69 0 105 -53q32 -47 32 -138q0 -55 -11 -150t-26 -156q-26 -109 -74 -152q-40 -36 -99 -36q-55 0 -84 33q-35 38 -35 125q0 67 21 203zM290 295
h-172q-15 -85 -15 -144q0 -50 18 -75t48 -25q31 0 52 18q29 24 46 94q12 48 23 132z" />
    <glyph glyph-name="afii10846" unicode="&#x4d9;" horiz-adv-x="314" 
d="M36 235h189q5 32 5 70q0 58 -20 80q-15 16 -36 16q-24 0 -40 -17q-25 -25 -38 -78l-53 22q14 56 52 93q34 33 85 33q46 0 73 -27q33 -33 33 -115q0 -85 -17 -160q-18 -82 -59 -124q-35 -35 -81 -35q-37 0 -63 25q-38 37 -38 128q0 41 8 89zM218 187h-133q-6 -98 17 -127
q11 -15 31 -15t36 15t28 46.5t16 50t5 30.5z" />
    <glyph glyph-name="uni04DA" unicode="&#x4da;" horiz-adv-x="387" 
d="M63 352h235q10 63 10 124q0 77 -20 108q-20 32 -57 32q-33 0 -54 -24q-24 -25 -35 -71l-58 24q21 60 58 96q36 35 92 35q69 0 105 -53q32 -47 32 -138q0 -55 -11 -150t-26 -156q-26 -109 -74 -152q-40 -36 -99 -36q-55 0 -84 33q-35 38 -35 125q0 67 21 203zM290 295
h-172q-15 -85 -15 -144q0 -50 18 -75t48 -25q31 0 52 18q29 24 46 94q12 48 23 132zM353 769q0 -19 -14.5 -34t-34.5 -15q-16 0 -26.5 11.5t-10.5 27.5q0 19 14.5 33.5t33.5 14.5q17 0 27.5 -10.5t10.5 -27.5zM227 769q0 -19 -14.5 -34t-34.5 -15q-16 0 -26.5 11.5
t-10.5 27.5q0 19 14.5 33.5t33.5 14.5q17 0 27.5 -10.5t10.5 -27.5z" />
    <glyph glyph-name="uni04DB" unicode="&#x4db;" horiz-adv-x="314" 
d="M36 235h189q5 32 5 70q0 58 -20 80q-15 16 -36 16q-24 0 -40 -17q-25 -25 -38 -78l-53 22q14 56 52 93q34 33 85 33q46 0 73 -27q33 -33 33 -115q0 -85 -17 -160q-18 -82 -59 -124q-35 -35 -81 -35q-37 0 -63 25q-38 37 -38 128q0 41 8 89zM218 187h-133q-6 -98 17 -127
q11 -15 31 -15t36 15t28 46.5t16 50t5 30.5zM299 562q0 -20 -14.5 -34.5t-34.5 -14.5q-16 0 -26.5 11.5t-10.5 27.5q0 19 14.5 33.5t33.5 14.5q17 0 27.5 -11t10.5 -27zM173 562q0 -20 -14.5 -34.5t-34.5 -14.5q-16 0 -26.5 11.5t-10.5 27.5q0 19 14.5 33.5t33.5 14.5
q17 0 27.5 -11t10.5 -27z" />
    <glyph glyph-name="uni04DC" unicode="&#x4dc;" horiz-adv-x="459" 
d="M426 0h-64l-91 336l-41 -336h-62l41 336l-175 -336h-64l187 355l-100 312h64l92 -303l37 303h62l-37 -303l165 303h64l-178 -318zM393 769q0 -19 -14.5 -34t-34.5 -15q-16 0 -26.5 11.5t-10.5 27.5q0 19 14.5 33.5t33.5 14.5q17 0 27.5 -10.5t10.5 -27.5zM267 769
q0 -19 -14.5 -34t-34.5 -15q-16 0 -26.5 11.5t-10.5 27.5q0 19 14.5 33.5t33.5 14.5q17 0 27.5 -10.5t10.5 -27.5z" />
    <glyph glyph-name="uni04DD" unicode="&#x4dd;" horiz-adv-x="426" 
d="M395 0h-64l-92 205l-26 -205h-54l25 205l-139 -205h-65l161 235l-105 212h62l91 -195l25 195h54l-24 -195l139 195h63l-158 -216zM359 562q0 -20 -14.5 -34.5t-34.5 -14.5q-16 0 -26.5 11.5t-10.5 27.5q0 19 14.5 33.5t33.5 14.5q17 0 27.5 -11t10.5 -27zM233 562
q0 -20 -14.5 -34.5t-34.5 -14.5q-16 0 -26.5 11.5t-10.5 27.5q0 19 14.5 33.5t33.5 14.5q17 0 27.5 -11t10.5 -27z" />
    <glyph glyph-name="uni04DE" unicode="&#x4de;" horiz-adv-x="360" 
d="M132 371h18q50 0 77 18q47 31 47 117q0 51 -23 79q-24 29 -69 29q-32 0 -60 -19q-23 -15 -40 -38l11 86q42 33 101 33q65 0 103 -36q43 -41 43 -121q0 -99 -48 -143q-21 -19 -51 -30q33 -11 54 -35q31 -35 31 -90q0 -111 -69 -179q-51 -51 -129 -51q-69 0 -118 43l10 86
q20 -30 44 -47q27 -20 64 -20q44 0 76 26q26 22 39.5 59t13.5 73q0 51 -30 79q-26 24 -85 24h-17zM323 769q0 -19 -14.5 -34t-34.5 -15q-16 0 -26.5 11.5t-10.5 27.5q0 19 14.5 33.5t33.5 14.5q17 0 27.5 -10.5t10.5 -27.5zM197 769q0 -19 -14.5 -34t-34.5 -15
q-16 0 -26.5 11.5t-10.5 27.5q0 19 14.5 33.5t33.5 14.5q17 0 27.5 -10.5t10.5 -27.5z" />
    <glyph glyph-name="uni04DF" unicode="&#x4df;" horiz-adv-x="291" 
d="M185 232q25 -5 43 -23q25 -25 25 -68q0 -68 -43 -111q-37 -37 -98 -37q-68 0 -102 38l9 71q15 -26 37 -40t48 -14q38 0 60 24q23 26 23 65q0 35 -25 53q-18 13 -55 13h-18l7 54h9q53 0 76 22q21 21 21 54q0 29 -20 49q-17 17 -48 17q-28 0 -50 -16t-35 -34l9 75
q40 30 87 30q58 0 88 -30t30 -82q0 -47 -21 -74q-21 -26 -57 -36zM273 562q0 -20 -14.5 -34.5t-34.5 -14.5q-16 0 -26.5 11.5t-10.5 27.5q0 19 14.5 33.5t33.5 14.5q17 0 27.5 -11t10.5 -27zM147 562q0 -20 -14.5 -34.5t-34.5 -14.5q-16 0 -26.5 11.5t-10.5 27.5
q0 19 14.5 33.5t33.5 14.5q17 0 27.5 -11t10.5 -27z" />
    <glyph glyph-name="uni04E2" unicode="&#x4e2;" horiz-adv-x="392" 
d="M26 0l82 667h62l-55 -444q-5 -40 -17 -87q9 21 16.5 40t11 27t6.5 14l198 450h62l-82 -667h-62l53 426q7 56 19 105q-17 -44 -39 -94l-193 -437h-62zM370 782l-7 -55h-221l6 55h222z" />
    <glyph glyph-name="uni04E3" unicode="&#x4e3;" horiz-adv-x="331" 
d="M254 0h-56l33 274q3 31 10 62q-13 -37 -29 -67l-135 -269h-56l55 447h56l-33 -271q-5 -39 -12 -69q18 42 30 66l136 274h56zM321 575l-7 -55h-221l6 55h222z" />
    <glyph glyph-name="uni04E4" unicode="&#x4e4;" horiz-adv-x="392" 
d="M26 0l82 667h62l-55 -444q-5 -40 -17 -87q9 21 16.5 40t11 27t6.5 14l198 450h62l-82 -667h-62l53 426q7 56 19 105q-17 -44 -39 -94l-193 -437h-62zM373 769q0 -19 -14.5 -34t-34.5 -15q-16 0 -26.5 11.5t-10.5 27.5q0 19 14.5 33.5t33.5 14.5q17 0 27.5 -10.5
t10.5 -27.5zM247 769q0 -19 -14.5 -34t-34.5 -15q-16 0 -26.5 11.5t-10.5 27.5q0 19 14.5 33.5t33.5 14.5q17 0 27.5 -10.5t10.5 -27.5z" />
    <glyph glyph-name="uni04E5" unicode="&#x4e5;" horiz-adv-x="331" 
d="M254 0h-56l33 274q3 31 10 62q-13 -37 -29 -67l-135 -269h-56l55 447h56l-33 -271q-5 -39 -12 -69q18 42 30 66l136 274h56zM314 562q0 -20 -15 -34.5t-34 -14.5q-16 0 -26.5 11.5t-10.5 27.5q0 19 14.5 33.5t33.5 14.5q16 0 27 -11t11 -27zM188 562q0 -20 -15 -34.5
t-34 -14.5q-16 0 -26.5 11.5t-10.5 27.5q0 19 14.5 33.5t33.5 14.5q16 0 27 -11t11 -27z" />
    <glyph glyph-name="uni04E6" unicode="&#x4e6;" horiz-adv-x="398" 
d="M382 477q0 -192 -47 -330q-51 -156 -165 -156q-128 0 -128 215q0 47 4.5 99.5t18.5 121t36 122t62 90.5t91 37q128 0 128 -199zM321 482q0 134 -73 134q-46 0 -76 -52q-34 -57 -51 -169t-17 -204q0 -140 73 -140q50 0 81 58q29 54 46 171t17 202zM368 769q0 -19 -15 -34
t-34 -15q-16 0 -26.5 11.5t-10.5 27.5q0 19 14.5 33.5t33.5 14.5q16 0 27 -10.5t11 -27.5zM242 769q0 -19 -15 -34t-34 -15q-16 0 -26.5 11.5t-10.5 27.5q0 19 14.5 33.5t33.5 14.5q16 0 27 -10.5t11 -27.5z" />
    <glyph glyph-name="uni04E7" unicode="&#x4e7;" horiz-adv-x="318" 
d="M290 328v-17q0 -47 -6 -93.5t-21 -101.5t-48.5 -89t-81.5 -34q-105 0 -105 162q0 43 7 89.5t23.5 96t50.5 81.5t80 32q51 0 76 -36.5t25 -89.5zM232 298q0 104 -50 104q-29 0 -49.5 -30.5t-30 -76.5t-13.5 -83t-4 -65q0 -101 53 -101q28 0 48 30t29 75.5t13 82t4 64.5z
M308 562q0 -20 -15 -34.5t-34 -14.5q-16 0 -26.5 11.5t-10.5 27.5q0 19 14.5 33.5t33.5 14.5q16 0 27 -11t11 -27zM182 562q0 -20 -15 -34.5t-34 -14.5q-16 0 -26.5 11.5t-10.5 27.5q0 19 14.5 33.5t33.5 14.5q16 0 27 -11t11 -27z" />
    <glyph glyph-name="uni04E8" unicode="&#x4e8;" horiz-adv-x="398" 
d="M257 676q49 0 80 -33q45 -47 45 -174q0 -103 -20 -215q-27 -156 -87 -218q-44 -45 -105 -45q-49 0 -81 32q-47 49 -47 183q0 127 26 238q30 132 87 189q43 43 102 43zM117 373h198q6 68 6 109q0 88 -31 118q-19 16 -42 16q-32 0 -56 -24q-26 -24 -46 -89.5t-29 -129.5z
M309 316h-199q-6 -54 -6 -113q0 -99 28 -131q18 -21 45 -21q34 0 60 27q53 54 72 238z" />
    <glyph glyph-name="uni04E9" unicode="&#x4e9;" horiz-adv-x="318" 
d="M189 454q41 0 66 -25q35 -35 35 -121q0 -82 -17 -156q-18 -82 -59 -124q-33 -35 -81 -35q-42 0 -67 25q-38 38 -38 137q0 72 18 143q20 79 59 119q35 37 84 37zM95 254h135q2 24 2 52q0 60 -18 80q-12 16 -32 16q-23 0 -40 -19q-18 -19 -30.5 -58t-16.5 -71zM224 201
h-136q-3 -30 -3 -55q0 -60 21 -85q13 -15 32 -15q20 0 38 18q18 19 31 60t17 77z" />
    <glyph glyph-name="uni04EA" unicode="&#x4ea;" horiz-adv-x="398" 
d="M257 676q49 0 80 -33q45 -47 45 -174q0 -103 -20 -215q-27 -156 -87 -218q-44 -45 -105 -45q-49 0 -81 32q-47 49 -47 183q0 127 26 238q30 132 87 189q43 43 102 43zM117 373h198q6 68 6 109q0 88 -31 118q-19 16 -42 16q-32 0 -56 -24q-26 -24 -46 -89.5t-29 -129.5z
M309 316h-199q-6 -54 -6 -113q0 -99 28 -131q18 -21 45 -21q34 0 60 27q53 54 72 238zM368 769q0 -19 -15 -34t-34 -15q-16 0 -26.5 11.5t-10.5 27.5q0 19 14.5 33.5t33.5 14.5q16 0 27 -10.5t11 -27.5zM242 769q0 -19 -15 -34t-34 -15q-16 0 -26.5 11.5t-10.5 27.5
q0 19 14.5 33.5t33.5 14.5q16 0 27 -10.5t11 -27.5z" />
    <glyph glyph-name="uni04EB" unicode="&#x4eb;" horiz-adv-x="318" 
d="M189 454q41 0 66 -25q35 -35 35 -121q0 -82 -17 -156q-18 -82 -59 -124q-33 -35 -81 -35q-42 0 -67 25q-38 38 -38 137q0 72 18 143q20 79 59 119q35 37 84 37zM95 254h135q2 24 2 52q0 60 -18 80q-12 16 -32 16q-23 0 -40 -19q-18 -19 -30.5 -58t-16.5 -71zM224 201
h-136q-3 -30 -3 -55q0 -60 21 -85q13 -15 32 -15q20 0 38 18q18 19 31 60t17 77zM308 562q0 -20 -15 -34.5t-34 -14.5q-16 0 -26.5 11.5t-10.5 27.5q0 19 14.5 33.5t33.5 14.5q16 0 27 -11t11 -27zM182 562q0 -20 -15 -34.5t-34 -14.5q-16 0 -26.5 11.5t-10.5 27.5
q0 19 14.5 33.5t33.5 14.5q16 0 27 -11t11 -27z" />
    <glyph glyph-name="uni04EE" unicode="&#x4ee;" horiz-adv-x="331" 
d="M55 667h68l42 -205q18 -87 25 -154q16 64 55 163l76 196h62l-249 -667h-60l78 221zM345 782l-7 -55h-221l6 55h222z" />
    <glyph glyph-name="uni04EF" unicode="&#x4ef;" horiz-adv-x="291" 
d="M312 447l-232 -627h-59l71 192l-52 435h57l25 -248q6 -55 6 -112q6 20 35 103l91 257h58zM295 575l-7 -55h-221l6 55h222z" />
    <glyph glyph-name="uni04F0" unicode="&#x4f0;" horiz-adv-x="331" 
d="M55 667h68l42 -205q18 -87 25 -154q16 64 55 163l76 196h62l-249 -667h-60l78 221zM343 769q0 -19 -14.5 -34t-34.5 -15q-16 0 -26.5 11.5t-10.5 27.5q0 19 14.5 33.5t33.5 14.5q17 0 27.5 -10.5t10.5 -27.5zM217 769q0 -19 -14.5 -34t-34.5 -15q-16 0 -26.5 11.5
t-10.5 27.5q0 19 14.5 33.5t33.5 14.5q17 0 27.5 -10.5t10.5 -27.5z" />
    <glyph glyph-name="uni04F1" unicode="&#x4f1;" horiz-adv-x="291" 
d="M312 447l-232 -627h-59l71 192l-52 435h57l25 -248q6 -55 6 -112q6 20 35 103l91 257h58zM287 562q0 -20 -14.5 -34.5t-34.5 -14.5q-16 0 -26.5 11.5t-10.5 27.5q0 19 14.5 33.5t33.5 14.5q17 0 27.5 -11t10.5 -27zM161 562q0 -20 -14.5 -34.5t-34.5 -14.5
q-16 0 -26.5 11.5t-10.5 27.5q0 19 14.5 33.5t33.5 14.5q17 0 27.5 -11t10.5 -27z" />
    <glyph glyph-name="uni04F2" unicode="&#x4f2;" horiz-adv-x="331" 
d="M55 667h68l42 -205q18 -87 25 -154q16 64 55 163l76 196h62l-249 -667h-60l78 221zM356 830l-83 -116l-35 13l65 125zM255 830l-83 -116l-35 13l65 125z" />
    <glyph glyph-name="uni04F3" unicode="&#x4f3;" horiz-adv-x="291" 
d="M312 447l-232 -627h-59l71 192l-52 435h57l25 -248q6 -55 6 -112q6 20 35 103l91 257h58zM311 623l-83 -116l-35 13l65 125zM210 623l-83 -116l-35 13l65 125z" />
    <glyph glyph-name="uni04F4" unicode="&#x4f4;" horiz-adv-x="369" 
d="M369 667l-82 -667h-62l41 338q-31 -10 -70 -10q-55 0 -86 22q-40 29 -40 85q0 26 6 71l20 161h63l-20 -164q-5 -37 -5 -50q0 -34 19 -50q18 -15 54 -15t67 12l33 267h62zM348 769q0 -19 -15 -34t-34 -15q-16 0 -26.5 11.5t-10.5 27.5q0 19 14.5 33.5t33.5 14.5
q16 0 27 -10.5t11 -27.5zM222 769q0 -19 -15 -34t-34 -15q-16 0 -26.5 11.5t-10.5 27.5q0 19 14.5 33.5t33.5 14.5q16 0 27 -10.5t11 -27.5z" />
    <glyph glyph-name="uni04F5" unicode="&#x4f5;" horiz-adv-x="294" 
d="M163 0l26 211q-30 -9 -59 -9q-50 0 -75 21t-25 63q0 10 4 48l13 113h57l-14 -113q0 -3 -1.5 -15t-1.5 -18q0 -26 15 -36q13 -10 43 -10q26 0 50 10l23 182h56l-55 -447h-56zM283 562q0 -20 -14.5 -34.5t-34.5 -14.5q-16 0 -26.5 11.5t-10.5 27.5q0 19 14.5 33.5
t33.5 14.5q17 0 27.5 -11t10.5 -27zM157 562q0 -20 -14.5 -34.5t-34.5 -14.5q-16 0 -26.5 11.5t-10.5 27.5q0 19 14.5 33.5t33.5 14.5q17 0 27.5 -11t10.5 -27z" />
    <glyph glyph-name="uni04F8" unicode="&#x4f8;" horiz-adv-x="482" 
d="M400 0h-62l82 667h62zM134 378h28q74 0 113 -39q37 -37 37 -111q0 -139 -65 -193q-41 -35 -112 -35h-109l82 667h62zM95 53h33q48 0 75 23q46 39 46 148q0 53 -26 77q-22 20 -73 20h-23zM413 769q0 -19 -14.5 -34t-34.5 -15q-16 0 -26.5 11.5t-10.5 27.5q0 19 14.5 33.5
t33.5 14.5q17 0 27.5 -10.5t10.5 -27.5zM287 769q0 -19 -14.5 -34t-34.5 -15q-16 0 -26.5 11.5t-10.5 27.5q0 19 14.5 33.5t33.5 14.5q17 0 27.5 -10.5t10.5 -27.5z" />
    <glyph glyph-name="uni04F9" unicode="&#x4f9;" horiz-adv-x="422" 
d="M347 0h-56l55 447h56zM21 0l55 447h56l-21 -175h13q79 0 111 -34q28 -30 28 -84q0 -78 -42 -118q-38 -36 -121 -36h-79zM84 52h29q43 0 65 21q26 26 26 77q0 35 -18 53q-18 17 -62 17h-20zM361 562q0 -20 -14.5 -34.5t-34.5 -14.5q-16 0 -26.5 11.5t-10.5 27.5
q0 19 14.5 33.5t33.5 14.5q17 0 27.5 -11t10.5 -27zM235 562q0 -20 -14.5 -34.5t-34.5 -14.5q-16 0 -26.5 11.5t-10.5 27.5q0 19 14.5 33.5t33.5 14.5q17 0 27.5 -11t10.5 -27z" />
    <glyph glyph-name="uni1E9E" unicode="&#x1e9e;" horiz-adv-x="363" 
d="M26 0l62 510q11 84 50 126q37 40 98 40t89 -37q22 -28 24 -81q0 -28 -4 -51l-100 -113q35 -11 55 -36q24 -32 24 -99q0 -25 -3 -51q-15 -120 -61 -167q-24 -25 -49 -33t-66 -8h-6l7 53h5q42 0 61 19q32 32 45 138q4 34 4 56q0 42 -17 65q-15 20 -49 20h-13l6 45l93 112
q4 22 4 45q0 31 -13 50t-40 19q-34 0 -54 -25q-20 -26 -28 -81l-63 -516h-61z" />
    <glyph glyph-name="uni2010" unicode="&#x2010;" horiz-adv-x="238" 
d="M189 233h-138l7 58h138z" />
    <glyph glyph-name="uni2011" unicode="&#x2011;" horiz-adv-x="238" 
d="M189 233h-138l7 58h138z" />
    <glyph glyph-name="figuredash" unicode="&#x2012;" horiz-adv-x="574" 
d="M505 313h-434l6 50h434z" />
    <glyph glyph-name="endash" unicode="&#x2013;" horiz-adv-x="574" 
d="M505 237h-434l6 50h434z" />
    <glyph glyph-name="emdash" unicode="&#x2014;" horiz-adv-x="820" 
d="M757 287l-6 -50h-680l6 50h680z" />
    <glyph glyph-name="afii00208" unicode="&#x2015;" horiz-adv-x="820" 
d="M757 287l-6 -50h-680l6 50h680z" />
    <glyph glyph-name="quoteleft" unicode="&#x2018;" horiz-adv-x="201" 
d="M221 655l-93 -205l-58 29l111 197z" />
    <glyph glyph-name="quoteright" unicode="&#x2019;" horiz-adv-x="201" 
d="M220 647l-111 -197l-40 20l93 206z" />
    <glyph glyph-name="quotesinglbase" unicode="&#x201a;" horiz-adv-x="201" 
d="M141 55l-111 -197l-40 20l93 205z" />
    <glyph glyph-name="quotedblleft" unicode="&#x201c;" horiz-adv-x="318" 
d="M337 655l-93 -205l-58 29l112 197zM221 655l-93 -205l-58 29l111 197z" />
    <glyph glyph-name="quotedblright" unicode="&#x201d;" horiz-adv-x="318" 
d="M336 647l-111 -197l-40 20l93 206zM220 647l-111 -197l-40 20l93 206z" />
    <glyph glyph-name="quotedblbase" unicode="&#x201e;" horiz-adv-x="318" 
d="M257 55l-111 -197l-40 20l93 205zM141 55l-111 -197l-40 20l93 205z" />
    <glyph glyph-name="dagger" unicode="&#x2020;" horiz-adv-x="365" 
d="M337 473h-93l-79 -646h-53l79 646h-94l6 46h94l26 210h53l-26 -210h93z" />
    <glyph glyph-name="daggerdbl" unicode="&#x2021;" horiz-adv-x="370" 
d="M300 136h-93l-38 -309h-53l38 309h-94l5 47h94l36 290h-94l6 46h94l26 210h53l-26 -210h93l-6 -46h-93l-36 -290h93z" />
    <glyph glyph-name="bullet" unicode="&#x2022;" horiz-adv-x="1000" 
d="M652 340q0 -57 -40.5 -98.5t-97.5 -41.5t-97 41.5t-40 98.5t40.5 98.5t97.5 41.5t97 -41.5t40 -98.5z" />
    <glyph glyph-name="ellipsis" unicode="&#x2026;" horiz-adv-x="483" 
d="M424 44q0 -20 -15 -35.5t-35 -15.5q-17 0 -28.5 11.5t-11.5 28.5q0 3 1 5q4 18 17.5 31.5t31.5 13.5q17 0 28.5 -11t11.5 -28zM263 44q0 -20 -15 -35.5t-35 -15.5q-17 0 -28.5 11.5t-11.5 28.5q0 19 15.5 34.5t35.5 15.5q16 0 27.5 -11.5t11.5 -27.5zM102 44
q0 -20 -15 -35.5t-35 -15.5q-39 0 -39 45q0 17 16 31t34 14q17 0 28 -11.5t11 -27.5z" />
    <glyph glyph-name="perthousand" unicode="&#x2030;" horiz-adv-x="743" 
d="M477 667l-371 -667h-46l371 667h46zM173 629q-16 0 -26 -10q-14 -13 -27 -93q-11 -69 -11 -101q0 -27 7 -40q8 -14 26 -14t29 17q14 21 24 94q9 63 9 103q0 24 -9 34q-8 10 -22 10zM249 576q0 -51 -11 -115q-13 -80 -40 -109q-23 -23 -59 -23t-55 20q-21 23 -21 74
q0 50 14 127q12 73 39 98q25 23 62 23q31 0 50 -19q21 -21 21 -76zM392 295q-16 0 -26 -10q-14 -13 -27 -93q-11 -69 -11 -101q0 -27 7 -40q8 -14 26 -14t29 17q14 22 24 94q9 63 9 103q0 24 -9 34q-8 10 -22 10zM468 242q0 -51 -11 -115q-13 -80 -40 -109q-23 -23 -59 -23
t-55 20q-21 23 -21 74q0 50 14 127q12 73 39 98q25 23 62 23q31 0 50 -19q21 -21 21 -76zM623 295q-13 0 -23 -10q-14 -13 -27 -93q-11 -69 -11 -101q0 -27 7 -40q8 -14 26 -14t29 17q14 22 24 94q9 63 9 103q0 24 -9 34q-8 10 -25 10zM702 242q0 -51 -11 -115
q-13 -80 -40 -109q-23 -23 -59 -23t-55 20q-21 23 -21 74q0 50 14 127q12 73 39 98q25 23 62 23q31 0 50 -19q21 -21 21 -76z" />
    <glyph glyph-name="guilsinglleft" unicode="&#x2039;" horiz-adv-x="210" 
d="M199 404l-114 -167l72 -171l-40 -23l-83 194l130 188z" />
    <glyph glyph-name="guilsinglright" unicode="&#x203a;" horiz-adv-x="210" 
d="M178 237l-130 -194l-35 23l114 171l-73 167l41 21z" />
    <glyph glyph-name="fraction" unicode="&#x2044;" horiz-adv-x="125" 
d="M284 667l-371 -667h-46l371 667h46z" />
    <glyph glyph-name="Euro" unicode="&#x20ac;" horiz-adv-x="366" 
d="M414 655l-8 -68q-41 29 -73 29q-99 0 -141 -187h148l-31 -57h-127q-6 -42 -8 -67h90l-31 -56h-63v-38q0 -160 88 -160q37 0 85 30l-7 -62q-44 -28 -89 -28q-54 0 -87.5 36t-44 80.5t-10.5 97.5q0 29 1 44h-82l31 56h55q7 48 10 67h-88l31 57h68q59 247 206 247
q47 0 77 -21z" />
    <glyph glyph-name="uni20B4" unicode="&#x20b4;" horiz-adv-x="366" 
d="M98 562l10 78q12 9 41 22q36 14 67 14q58 0 93 -33q42 -40 42 -108q0 -40 -14 -72q-10 -24 -29 -45h55l-5 -42h-89l-75 -65h156l-5 -42h-189q-25 -21 -43 -53q-17 -30 -17 -69q0 -45 30 -73q25 -23 62 -23q29 0 61 16q30 16 50 38l-10 -80q-28 -17 -47 -24
q-31 -11 -62 -11q-60 0 -99 35q-47 44 -47 121q0 75 52 123h-56l5 42h85l75 65h-152l5 42h190q17 16 33 44q16 34 16 68q0 40 -24 64q-22 22 -62 22q-32 0 -61 -19q-24 -14 -42 -35z" />
    <glyph glyph-name="uni20B6" unicode="&#x20b6;" horiz-adv-x="366" 
d="M223 667q76 0 111.5 -28t35.5 -102q0 -79 -25 -137q-13 -27 -31.5 -44t-46.5 -23.5t-48 -8t-56 -1.5l-8 -65h100l-5 -42h-100l-27 -216h-62l26 216h-59l5 42h59l8 65h-59l7 53h59l37 291h79zM169 376h41q36 0 57 16t31 57.5t10 79.5q0 44 -18 62.5t-62 18.5h-30z" />
    <glyph glyph-name="uni20B6" unicode="&#x20cf;" horiz-adv-x="366" 
d="M223 667q76 0 111.5 -28t35.5 -102q0 -79 -25 -137q-13 -27 -31.5 -44t-46.5 -23.5t-48 -8t-56 -1.5l-8 -65h100l-5 -42h-100l-27 -216h-62l26 216h-59l5 42h59l8 65h-59l7 53h59l37 291h79zM169 376h41q36 0 57 16t31 57.5t10 79.5q0 44 -18 62.5t-62 18.5h-30z" />
    <glyph glyph-name="uni20B6" unicode="&#x20ce;" horiz-adv-x="366" 
d="M223 667q76 0 111.5 -28t35.5 -102q0 -79 -25 -137q-13 -27 -31.5 -44t-46.5 -23.5t-48 -8t-56 -1.5l-8 -65h100l-5 -42h-100l-27 -216h-62l26 216h-59l5 42h59l8 65h-59l7 53h59l37 291h79zM169 376h41q36 0 57 16t31 57.5t10 79.5q0 44 -18 62.5t-62 18.5h-30z" />
    <glyph glyph-name="uni20B6" unicode="&#x20cd;" horiz-adv-x="366" 
d="M223 667q76 0 111.5 -28t35.5 -102q0 -79 -25 -137q-13 -27 -31.5 -44t-46.5 -23.5t-48 -8t-56 -1.5l-8 -65h100l-5 -42h-100l-27 -216h-62l26 216h-59l5 42h59l8 65h-59l7 53h59l37 291h79zM169 376h41q36 0 57 16t31 57.5t10 79.5q0 44 -18 62.5t-62 18.5h-30z" />
    <glyph glyph-name="uni20B6" unicode="&#x20cc;" horiz-adv-x="366" 
d="M223 667q76 0 111.5 -28t35.5 -102q0 -79 -25 -137q-13 -27 -31.5 -44t-46.5 -23.5t-48 -8t-56 -1.5l-8 -65h100l-5 -42h-100l-27 -216h-62l26 216h-59l5 42h59l8 65h-59l7 53h59l37 291h79zM169 376h41q36 0 57 16t31 57.5t10 79.5q0 44 -18 62.5t-62 18.5h-30z" />
    <glyph glyph-name="uni20B6" unicode="&#x20cb;" horiz-adv-x="366" 
d="M223 667q76 0 111.5 -28t35.5 -102q0 -79 -25 -137q-13 -27 -31.5 -44t-46.5 -23.5t-48 -8t-56 -1.5l-8 -65h100l-5 -42h-100l-27 -216h-62l26 216h-59l5 42h59l8 65h-59l7 53h59l37 291h79zM169 376h41q36 0 57 16t31 57.5t10 79.5q0 44 -18 62.5t-62 18.5h-30z" />
    <glyph glyph-name="uni20B6" unicode="&#x20ca;" horiz-adv-x="366" 
d="M223 667q76 0 111.5 -28t35.5 -102q0 -79 -25 -137q-13 -27 -31.5 -44t-46.5 -23.5t-48 -8t-56 -1.5l-8 -65h100l-5 -42h-100l-27 -216h-62l26 216h-59l5 42h59l8 65h-59l7 53h59l37 291h79zM169 376h41q36 0 57 16t31 57.5t10 79.5q0 44 -18 62.5t-62 18.5h-30z" />
    <glyph glyph-name="uni20B6" unicode="&#x20c9;" horiz-adv-x="366" 
d="M223 667q76 0 111.5 -28t35.5 -102q0 -79 -25 -137q-13 -27 -31.5 -44t-46.5 -23.5t-48 -8t-56 -1.5l-8 -65h100l-5 -42h-100l-27 -216h-62l26 216h-59l5 42h59l8 65h-59l7 53h59l37 291h79zM169 376h41q36 0 57 16t31 57.5t10 79.5q0 44 -18 62.5t-62 18.5h-30z" />
    <glyph glyph-name="uni20B6" unicode="&#x20c8;" horiz-adv-x="366" 
d="M223 667q76 0 111.5 -28t35.5 -102q0 -79 -25 -137q-13 -27 -31.5 -44t-46.5 -23.5t-48 -8t-56 -1.5l-8 -65h100l-5 -42h-100l-27 -216h-62l26 216h-59l5 42h59l8 65h-59l7 53h59l37 291h79zM169 376h41q36 0 57 16t31 57.5t10 79.5q0 44 -18 62.5t-62 18.5h-30z" />
    <glyph glyph-name="uni20B6" unicode="&#x20c7;" horiz-adv-x="366" 
d="M223 667q76 0 111.5 -28t35.5 -102q0 -79 -25 -137q-13 -27 -31.5 -44t-46.5 -23.5t-48 -8t-56 -1.5l-8 -65h100l-5 -42h-100l-27 -216h-62l26 216h-59l5 42h59l8 65h-59l7 53h59l37 291h79zM169 376h41q36 0 57 16t31 57.5t10 79.5q0 44 -18 62.5t-62 18.5h-30z" />
    <glyph glyph-name="uni20B6" unicode="&#x20c6;" horiz-adv-x="366" 
d="M223 667q76 0 111.5 -28t35.5 -102q0 -79 -25 -137q-13 -27 -31.5 -44t-46.5 -23.5t-48 -8t-56 -1.5l-8 -65h100l-5 -42h-100l-27 -216h-62l26 216h-59l5 42h59l8 65h-59l7 53h59l37 291h79zM169 376h41q36 0 57 16t31 57.5t10 79.5q0 44 -18 62.5t-62 18.5h-30z" />
    <glyph glyph-name="uni20B6" unicode="&#x20c5;" horiz-adv-x="366" 
d="M223 667q76 0 111.5 -28t35.5 -102q0 -79 -25 -137q-13 -27 -31.5 -44t-46.5 -23.5t-48 -8t-56 -1.5l-8 -65h100l-5 -42h-100l-27 -216h-62l26 216h-59l5 42h59l8 65h-59l7 53h59l37 291h79zM169 376h41q36 0 57 16t31 57.5t10 79.5q0 44 -18 62.5t-62 18.5h-30z" />
    <glyph glyph-name="uni20B6" unicode="&#x20c4;" horiz-adv-x="366" 
d="M223 667q76 0 111.5 -28t35.5 -102q0 -79 -25 -137q-13 -27 -31.5 -44t-46.5 -23.5t-48 -8t-56 -1.5l-8 -65h100l-5 -42h-100l-27 -216h-62l26 216h-59l5 42h59l8 65h-59l7 53h59l37 291h79zM169 376h41q36 0 57 16t31 57.5t10 79.5q0 44 -18 62.5t-62 18.5h-30z" />
    <glyph glyph-name="uni20B6" unicode="&#x20c3;" horiz-adv-x="366" 
d="M223 667q76 0 111.5 -28t35.5 -102q0 -79 -25 -137q-13 -27 -31.5 -44t-46.5 -23.5t-48 -8t-56 -1.5l-8 -65h100l-5 -42h-100l-27 -216h-62l26 216h-59l5 42h59l8 65h-59l7 53h59l37 291h79zM169 376h41q36 0 57 16t31 57.5t10 79.5q0 44 -18 62.5t-62 18.5h-30z" />
    <glyph glyph-name="uni20B6" unicode="&#x20c2;" horiz-adv-x="366" 
d="M223 667q76 0 111.5 -28t35.5 -102q0 -79 -25 -137q-13 -27 -31.5 -44t-46.5 -23.5t-48 -8t-56 -1.5l-8 -65h100l-5 -42h-100l-27 -216h-62l26 216h-59l5 42h59l8 65h-59l7 53h59l37 291h79zM169 376h41q36 0 57 16t31 57.5t10 79.5q0 44 -18 62.5t-62 18.5h-30z" />
    <glyph glyph-name="uni20B6" unicode="&#x20c1;" horiz-adv-x="366" 
d="M223 667q76 0 111.5 -28t35.5 -102q0 -79 -25 -137q-13 -27 -31.5 -44t-46.5 -23.5t-48 -8t-56 -1.5l-8 -65h100l-5 -42h-100l-27 -216h-62l26 216h-59l5 42h59l8 65h-59l7 53h59l37 291h79zM169 376h41q36 0 57 16t31 57.5t10 79.5q0 44 -18 62.5t-62 18.5h-30z" />
    <glyph glyph-name="uni20B6" unicode="&#x20c0;" horiz-adv-x="366" 
d="M223 667q76 0 111.5 -28t35.5 -102q0 -79 -25 -137q-13 -27 -31.5 -44t-46.5 -23.5t-48 -8t-56 -1.5l-8 -65h100l-5 -42h-100l-27 -216h-62l26 216h-59l5 42h59l8 65h-59l7 53h59l37 291h79zM169 376h41q36 0 57 16t31 57.5t10 79.5q0 44 -18 62.5t-62 18.5h-30z" />
    <glyph glyph-name="uni20B6" unicode="&#x20bf;" horiz-adv-x="366" 
d="M223 667q76 0 111.5 -28t35.5 -102q0 -79 -25 -137q-13 -27 -31.5 -44t-46.5 -23.5t-48 -8t-56 -1.5l-8 -65h100l-5 -42h-100l-27 -216h-62l26 216h-59l5 42h59l8 65h-59l7 53h59l37 291h79zM169 376h41q36 0 57 16t31 57.5t10 79.5q0 44 -18 62.5t-62 18.5h-30z" />
    <glyph glyph-name="uni20B6" unicode="&#x20be;" horiz-adv-x="366" 
d="M223 667q76 0 111.5 -28t35.5 -102q0 -79 -25 -137q-13 -27 -31.5 -44t-46.5 -23.5t-48 -8t-56 -1.5l-8 -65h100l-5 -42h-100l-27 -216h-62l26 216h-59l5 42h59l8 65h-59l7 53h59l37 291h79zM169 376h41q36 0 57 16t31 57.5t10 79.5q0 44 -18 62.5t-62 18.5h-30z" />
    <glyph glyph-name="uni20B6" unicode="&#x20bd;" horiz-adv-x="366" 
d="M223 667q76 0 111.5 -28t35.5 -102q0 -79 -25 -137q-13 -27 -31.5 -44t-46.5 -23.5t-48 -8t-56 -1.5l-8 -65h100l-5 -42h-100l-27 -216h-62l26 216h-59l5 42h59l8 65h-59l7 53h59l37 291h79zM169 376h41q36 0 57 16t31 57.5t10 79.5q0 44 -18 62.5t-62 18.5h-30z" />
    <glyph glyph-name="uni20B6" unicode="&#x20bc;" horiz-adv-x="366" 
d="M223 667q76 0 111.5 -28t35.5 -102q0 -79 -25 -137q-13 -27 -31.5 -44t-46.5 -23.5t-48 -8t-56 -1.5l-8 -65h100l-5 -42h-100l-27 -216h-62l26 216h-59l5 42h59l8 65h-59l7 53h59l37 291h79zM169 376h41q36 0 57 16t31 57.5t10 79.5q0 44 -18 62.5t-62 18.5h-30z" />
    <glyph glyph-name="uni20B6" unicode="&#x20bb;" horiz-adv-x="366" 
d="M223 667q76 0 111.5 -28t35.5 -102q0 -79 -25 -137q-13 -27 -31.5 -44t-46.5 -23.5t-48 -8t-56 -1.5l-8 -65h100l-5 -42h-100l-27 -216h-62l26 216h-59l5 42h59l8 65h-59l7 53h59l37 291h79zM169 376h41q36 0 57 16t31 57.5t10 79.5q0 44 -18 62.5t-62 18.5h-30z" />
    <glyph glyph-name="uni20B6" unicode="&#x20ba;" horiz-adv-x="366" 
d="M223 667q76 0 111.5 -28t35.5 -102q0 -79 -25 -137q-13 -27 -31.5 -44t-46.5 -23.5t-48 -8t-56 -1.5l-8 -65h100l-5 -42h-100l-27 -216h-62l26 216h-59l5 42h59l8 65h-59l7 53h59l37 291h79zM169 376h41q36 0 57 16t31 57.5t10 79.5q0 44 -18 62.5t-62 18.5h-30z" />
    <glyph glyph-name="uni20B6" unicode="&#x20b9;" horiz-adv-x="366" 
d="M223 667q76 0 111.5 -28t35.5 -102q0 -79 -25 -137q-13 -27 -31.5 -44t-46.5 -23.5t-48 -8t-56 -1.5l-8 -65h100l-5 -42h-100l-27 -216h-62l26 216h-59l5 42h59l8 65h-59l7 53h59l37 291h79zM169 376h41q36 0 57 16t31 57.5t10 79.5q0 44 -18 62.5t-62 18.5h-30z" />
    <glyph glyph-name="uni20B6" unicode="&#x20b7;" horiz-adv-x="366" 
d="M223 667q76 0 111.5 -28t35.5 -102q0 -79 -25 -137q-13 -27 -31.5 -44t-46.5 -23.5t-48 -8t-56 -1.5l-8 -65h100l-5 -42h-100l-27 -216h-62l26 216h-59l5 42h59l8 65h-59l7 53h59l37 291h79zM169 376h41q36 0 57 16t31 57.5t10 79.5q0 44 -18 62.5t-62 18.5h-30z" />
    <glyph glyph-name="uni20B8" unicode="&#x20b8;" horiz-adv-x="366" 
d="M354 577l-7 -57h-98l-64 -520h-61l64 520h-99l7 57h258zM358 615h-258l7 52h258z" />
    <glyph glyph-name="afii61352" unicode="&#x2116;" horiz-adv-x="583" 
d="M381 667l-82 -667h-53l-92 440q-3 15 -7.5 47t-7.5 47q-4 -80 -9 -118l-51 -416h-53l82 667h53l94 -453q2 -11 6 -38t7 -41q0 49 6 97l54 435h53zM590 576q0 -31 -4 -62t-14 -66.5t-33 -57.5t-55 -22q-71 0 -71 107q0 29 5 59.5t16 63t33.5 53t53.5 20.5q69 0 69 -95z
M560 330l-4 -41h-164l4 41h164zM546 566q0 65 -31 65q-32 0 -46 -56t-14 -104q0 -64 33 -64q17 0 29.5 19t18 48t8 52t2.5 40z" />
    <glyph glyph-name="uni2117" unicode="&#x2117;" horiz-adv-x="756" 
d="M310 536h53q73 0 99 -35q18 -24 18 -78q0 -62 -30 -88q-23 -20 -69 -20h-22v-184h-49v405zM359 359h18q26 0 38 11q14 14 14 55q0 42 -16 56q-12 11 -40 11h-14v-133zM736 334q0 -144 -101 -245q-45 -45 -109.5 -73t-134.5 -28t-134.5 28t-109.5 73q-101 101 -101 245
q0 65 25.5 129.5t75.5 114.5q45 45 109.5 73t134.5 28t134.5 -28t109.5 -73q50 -50 75.5 -114.5t25.5 -129.5zM391 643q-125 0 -215 -90q-90 -92 -90 -219q0 -130 90 -220t215 -90t215 90t90 220q0 127 -90 219q-90 90 -215 90z" />
    <glyph glyph-name="trademark" unicode="&#x2122;" horiz-adv-x="448" 
d="M435 667l-1 -380h-41l5 260l-77 -260h-33l-10 256l-63 -256h-41l100 380h35l9 -281l82 281h35zM216 667l-5 -39h-55l-42 -341h-41l42 341h-55l5 39h151z" />
    <glyph glyph-name="partialdiff" unicode="&#x2202;" horiz-adv-x="494" 
d="M80 614l7 49q77 -12 132.5 -34.5t103.5 -69.5q63 -59 96 -145.5t33 -177.5q0 -104 -56.5 -175.5t-157.5 -71.5q-90 0 -152 66t-62 156t59.5 154.5t147.5 64.5q95 0 152 -82q-16 49 -32 79q-54 111 -179 164q-35 14 -92 23zM394 215q0 72 -42 120.5t-112 48.5
q-69 0 -115 -52.5t-46 -122.5q0 -69 45.5 -120.5t113.5 -51.5q70 0 113 53t43 125z" />
    <glyph glyph-name="product" unicode="&#x220f;" horiz-adv-x="688" 
d="M655 -250h-216v50h83v900h-350v-900h82v-50h-216v50h78v900h-78v50h617v-50h-77v-900h77v-50z" />
    <glyph glyph-name="summation" unicode="&#x2211;" horiz-adv-x="667" 
d="M604 -250h-571v57l250 464l-250 423v56h561v-220h-51l-4 170h-444l253 -430l-255 -470h456l2 169h53v-219z" />
    <glyph glyph-name="minus" unicode="&#x2212;" horiz-adv-x="500" 
d="M480 305h-434v53h434v-53z" />
    <glyph glyph-name="uni2215" unicode="&#x2215;" horiz-adv-x="402" 
d="M490 729l-495 -902h-57l496 902h56z" />
    <glyph glyph-name="uni2219" unicode="&#x2219;" horiz-adv-x="201" 
d="M173 351q0 -26 -19.5 -46t-45.5 -20q-25 0 -38 16t-13 42q0 23 21 41t44 18q22 0 36.5 -14.5t14.5 -36.5z" />
    <glyph glyph-name="radical" unicode="&#x221a;" horiz-adv-x="667" 
d="M708 777h-201l-232 -777h-64l-90 308h-79v50h124l43 -141q8 -25 18.5 -72t14.5 -63h4q5 22 23 89q2 6 11.5 44.5t15.5 58.5q8 30 25.5 85.5t24.5 80.5l114 387h248v-50z" />
    <glyph glyph-name="infinity" unicode="&#x221e;" horiz-adv-x="667" 
d="M661 339q0 -65 -40.5 -107t-105.5 -42q-54 0 -93 29.5t-74 82.5q-76 -112 -167 -112q-66 0 -107 42.5t-41 109.5q0 65 42 107t106 42q91 0 165 -113q35 54 74.5 83.5t94.5 29.5q66 0 106 -43t40 -109zM605 340q0 43 -26.5 72t-69.5 29q-70 0 -134 -101q30 -46 61 -73.5
t73 -27.5q43 0 69.5 28.5t26.5 72.5zM319 340q-30 46 -61 73.5t-73 27.5q-43 0 -69.5 -29t-26.5 -72t26.5 -72t69.5 -29q30 0 57 17.5t41.5 35t35.5 48.5z" />
    <glyph glyph-name="integral" unicode="&#x222b;" horiz-adv-x="496" 
d="M389 729l-14 -48q-22 11 -41 11q-20 0 -32 -7.5t-16.5 -24t-5.5 -28t-1 -33.5v-3v-3v-3v-35v-660q0 -69 -16 -95q-28 -46 -101 -46q-24 0 -50 10l14 49q22 -11 42 -11q34 0 44.5 23.5t10.5 62.5q0 120 -0.5 360.5t-0.5 361.5q0 130 108 130q26 0 59 -11z" />
    <glyph glyph-name="approxequal" unicode="&#x2248;" horiz-adv-x="500" 
d="M467 477l35 -21q-53 -106 -137 -106q-37 0 -109.5 35.5t-102.5 35.5q-54 0 -95 -76l-34 22q53 108 133 108q38 0 109.5 -35.5t104.5 -35.5t54.5 19t41.5 54zM467 321l35 -21q-53 -106 -137 -106q-38 0 -109.5 35.5t-102.5 35.5q-54 0 -95 -76l-34 22q53 108 132 108
q39 0 111 -35.5t104 -35.5q33 0 54.5 19t41.5 54z" />
    <glyph glyph-name="notequal" unicode="&#x2260;" horiz-adv-x="500" 
d="M480 235h-238l-56 -119h-47l56 119h-148v50h171l47 99h-219v51h242l55 114h47l-54 -114h143v-51h-166l-48 -99h215v-50z" />
    <glyph glyph-name="lessequal" unicode="&#x2264;" horiz-adv-x="500" 
d="M467 151l-433 193v49l433 193v-53l-374 -165l374 -164v-53zM467 71h-433v50h433v-50z" />
    <glyph glyph-name="greaterequal" unicode="&#x2265;" horiz-adv-x="500" 
d="M479 344l-433 -193v53l373 165l-373 164v53l433 -193v-49zM479 71h-433v50h433v-50z" />
    <glyph glyph-name="dotmath" unicode="&#x22c5;" horiz-adv-x="201" 
d="M173 351q0 -26 -19.5 -46t-45.5 -20q-25 0 -38 16t-13 42q0 23 21 41t44 18q22 0 36.5 -14.5t14.5 -36.5z" />
    <glyph glyph-name="lozenge" unicode="&#x25ca;" horiz-adv-x="667" 
d="M606 334l-260 -360l-259 360l259 359zM542 334l-196 269l-196 -269l196 -270z" />
    <glyph glyph-name="openbullet" unicode="&#x25e6;" horiz-adv-x="500" 
d="M426 538q0 -56 -41 -95.5t-97 -39.5t-97 39.5t-41 95.5t41 95t97 39t97 -39t41 -95zM388 538q0 41 -29.5 69.5t-70.5 28.5t-70.5 -28.5t-29.5 -69.5t29.5 -69.5t70.5 -28.5t70.5 28.5t29.5 69.5z" />
    <glyph glyph-name="uniF400" unicode="&#xf400;" horiz-adv-x="2" 
d="M-14 610l-126 -103l-32 26l110 120z" />
    <glyph glyph-name="uniF401" unicode="&#xf401;" horiz-adv-x="2" 
d="M0 817l-126 -103l-32 26l110 120z" />
    <glyph glyph-name="uniF406" unicode="&#xf406;" 
d="M366 810h47q-10 -45 -47 -68.5t-85 -23.5q-47 0 -79 23t-32 69h48q10 -41 69 -41q57 0 79 41z" />
    <glyph glyph-name="uniF407" unicode="&#xf407;" 
d="M269 -62l-99 -134l-32 21l89 138z" />
    <glyph glyph-name="uniF408" unicode="&#xf408;" 
d="M396 752l-44 -38l-64 69l-82 -69l-32 38l123 107z" />
    <glyph glyph-name="uniF409" unicode="&#xf409;" horiz-adv-x="185" 
d="M142 -77l-91 -154l-37 19l73 163z" />
    <glyph glyph-name="uniF40A" unicode="&#xf40a;" horiz-adv-x="194" 
d="M212 648l-106 -186l-37 19l88 195z" />
    <glyph glyph-name="uniF40B" unicode="&#xf40b;" 
d="M332 771q0 -20 -15.5 -35.5t-35.5 -15.5q-16 0 -27.5 11.5t-11.5 28.5q0 20 15.5 35.5t35.5 15.5q17 0 28 -11.5t11 -28.5z" />
    <glyph glyph-name="uniF40C" unicode="&#xf40c;" horiz-adv-x="492" 
d="M369 794q0 -33 -23 -56.5t-56 -23.5t-56 23.5t-23 56.5t23 56.5t56 23.5t56 -23.5t23 -56.5zM329 794q0 17 -11.5 28.5t-27.5 11.5t-28 -12t-12 -28t12 -28t28 -12q17 0 28 11.5t11 28.5z" />
    <glyph glyph-name="uniF40D" unicode="&#xf40d;" 
d="M348 802h57q-7 -33 -27 -57.5t-50 -24.5q-20 0 -48 17t-37 17q-17 0 -19 -25h-55q8 33 27.5 55t50.5 22q17 0 45 -16t37 -16q16 0 19 28z" />
    <glyph glyph-name="uniF40E" unicode="&#xf40e;" 
d="M288 -95l-5 -48q-24 -9 -46 -9q-30 0 -51.5 14t-21.5 42q0 20 9.5 38.5t20 30t28.5 27.5h45q-52 -44 -52 -77q0 -26 33 -26q19 0 40 8z" />
    <glyph glyph-name="uniF4C6" unicode="&#xf4c6;" horiz-adv-x="379" 
d="M369 667l-81 -658q-1 -7 -3 -26t-3 -26t-3.5 -22.5t-4 -22.5t-5 -18.5t-6.5 -18.5t-7.5 -14.5t-10.5 -13.5q-27 -27 -76 -27q-37 0 -69 18l8 64q21 -28 54 -28q24 0 37 13q15 15 23 87l44 364q-31 -10 -70 -10q-55 0 -86 22q-40 29 -40 85q0 26 6 71l20 161h63l-20 -164
q-5 -38 -5 -50q0 -34 19 -50q18 -15 54 -15t67 12l33 267h62z" />
    <glyph glyph-name="uniF4C7" unicode="&#xf4c7;" horiz-adv-x="294" 
d="M104 447l-14 -113q0 -3 -1.5 -15t-1.5 -18q0 -26 15 -36q13 -10 43 -10q26 0 50 10l23 182h56l-59 -489q-10 -81 -41 -112q-26 -26 -70 -26q-24 0 -42 10l7 57q13 -11 31 -11q21 0 34 11q17 15 25 71l30 253q-30 -9 -59 -9q-50 0 -75 21t-25 63q0 10 4 48l13 113h57z" />
    <glyph glyph-name="uniF4CC" unicode="&#xf4cc;" horiz-adv-x="331" 
d="M55 667h68l42 -205q18 -87 25 -154q16 64 55 163l76 196h62l-249 -667h-60l78 221zM352 817l-126 -103l-32 26l110 120z" />
    <glyph glyph-name="uniF4CD" unicode="&#xf4cd;" horiz-adv-x="291" 
d="M312 447l-232 -627h-59l71 192l-52 435h57l25 -248q6 -55 6 -112q6 20 35 103l91 257h58zM305 610l-126 -103l-32 26l110 120z" />
    <glyph glyph-name="dollar.fitted" unicode="&#xf5f5;" horiz-adv-x="345" 
d="M337 636l-36 -47q-43 30 -83 30q-49 0 -79.5 -34.5t-30.5 -84.5q0 -37 15 -64.5t38 -43.5t49 -34t49 -35.5t38 -49t15 -72.5q0 -77 -42.5 -136t-110.5 -71l-11 -85h-47l10 83q-37 6 -58.5 18t-45.5 39l41 43q48 -44 90 -44q50 0 83 41.5t33 98.5q0 34 -14 59
q-4 6 -9.5 12.5t-11 11.5t-14.5 12t-14 10.5t-15 10t-13 8.5q-41 28 -60.5 45t-36 50.5t-16.5 78.5q0 70 36.5 120.5t104.5 66.5l9 78h48l-9 -76q52 -3 98 -39z" />
    <glyph glyph-name="Euro.fitted" unicode="&#xf5f6;" horiz-adv-x="406" 
d="M396 655l-8 -68q-41 29 -73 29q-99 0 -141 -187h148l-31 -57h-127q-6 -42 -8 -67h90l-31 -56h-63v-38q0 -160 88 -160q37 0 85 30l-7 -62q-44 -28 -89 -28q-54 0 -87.5 36t-44 80.5t-10.5 97.5q0 29 1 44h-82l31 56h55q7 48 10 67h-88l31 57h68q59 247 206 247
q47 0 77 -21z" />
    <glyph glyph-name="cent.fitted" unicode="&#xf5f7;" horiz-adv-x="238" 
d="M231 558l-8 -67q-23 30 -51 30q-27 0 -48.5 -27.5t-31.5 -57t-14 -57.5q-9 -49 -9 -97q0 -17 2 -34t7.5 -37t18 -32.5t30.5 -12.5q28 0 61 40l-9 -70q-21 -15 -41 -19l-12 -92h-49l10 92q-78 31 -78 157q0 92 29 176q32 95 106 120l11 83h48l-10 -82q21 -3 38 -13z" />
    <glyph glyph-name="sterling.fitted" unicode="&#xf5f8;" horiz-adv-x="382" 
d="M43 340h61q-28 64 -28 130q0 106 61 163q45 43 111 43q54 0 89 -37q32 -34 32 -89q0 -13 -1 -19l-59 -12q1 5 1 17q0 41 -23 63q-19 17 -47 17q-39 0 -65 -26q-36 -34 -36 -109q0 -66 32 -141h103l-6 -42h-82q28 -49 28 -96q0 -32 -17 -68q-14 -30 -34 -53l24 -19
q27 -22 47 -22q17 0 27 15q10 12 14 34l49 -17q-9 -41 -35 -66q-25 -25 -60 -25q-31 0 -58 20l-22 16q-32 23 -46 23q-17 0 -30 -13q-9 -9 -18 -27l-46 30q14 23 30 39q30 30 63 30q9 0 15 -2q36 46 36 96q0 47 -33 105h-82z" />
    <glyph glyph-name="yen.fitted" unicode="&#xf5f9;" horiz-adv-x="380" 
d="M374 667l-111 -249h93l-5 -42h-106l-29 -65h127l-5 -42h-133l-33 -269h-56l33 269h-141l5 42h135l-15 65h-112l6 42h97l-54 249h63l38 -195q11 -54 16 -119q16 56 44 122l80 192h63z" />
    <glyph glyph-name="florin.fitted" unicode="&#xf5fa;" horiz-adv-x="381" 
d="M379 729l-10 -59q-19 17 -38 17q-16 0 -26.5 -10.5t-13.5 -19.5t-7 -29l-36 -181h77l-9 -42h-76l-83 -424q-11 -55 -33 -84.5t-71 -29.5q-21 0 -50 11l11 59q19 -17 39 -17q35 0 46 59l84 426h-73l8 42h73l35 179q11 55 32 84.5t71 29.5q29 0 50 -11z" />
    <glyph glyph-name="uni20B4.fitted" unicode="&#xf5fb;" horiz-adv-x="371" 
d="M87 562l10 78q12 9 41 22q36 14 67 14q58 0 93 -33q42 -40 42 -108q0 -40 -14 -72q-10 -24 -29 -45h55l-5 -42h-89l-75 -65h156l-5 -42h-189q-25 -21 -43 -53q-17 -30 -17 -69q0 -45 30 -73q25 -23 62 -23q29 0 61 16q30 16 50 38l-10 -80q-28 -17 -47 -24
q-31 -11 -62 -11q-60 0 -99 35q-47 44 -47 121q0 75 52 123h-56l5 42h85l75 65h-152l5 42h190q17 16 33 44q16 34 16 68q0 40 -24 64q-22 22 -62 22q-32 0 -61 -19q-24 -14 -42 -35z" />
    <glyph glyph-name="uni20B6.fitted" unicode="&#xf5fc;" horiz-adv-x="364" 
d="M210 667q76 0 111.5 -28t35.5 -102q0 -79 -25 -137q-13 -27 -31.5 -44t-46.5 -23.5t-48 -8t-56 -1.5l-8 -65h100l-5 -42h-100l-27 -216h-62l26 216h-59l5 42h59l8 65h-59l7 53h59l37 291h79zM156 376h41q36 0 57 16t31 57.5t10 79.5q0 44 -18 62.5t-62 18.5h-30z" />
    <glyph glyph-name="uni20B8.fitted" unicode="&#xf5fd;" horiz-adv-x="291" 
d="M278 577l-7 -57h-98l-64 -520h-61l64 520h-99l7 57h258zM282 615h-258l7 52h258z" />
    <glyph glyph-name="uniF639" unicode="&#xf639;" horiz-adv-x="347" 
d="M332 504q0 -46 -4 -102t-17 -132t-34 -135.5t-59.5 -101.5t-88.5 -42q-114 0 -114 201q0 45 4.5 99.5t19 125t36.5 126t61 94.5t89 39q107 0 107 -172zM273 503q0 116 -58 116q-39 0 -69 -53t-44 -128.5t-21 -137.5t-7 -101q0 -151 66 -151q38 0 63 50q31 61 50.5 188.5
t19.5 216.5z" />
    <glyph glyph-name="uniF63A" unicode="&#xf63a;" horiz-adv-x="362" 
d="M138 485h-60q7 54 20.5 92.5t48 68.5t87.5 30q56 0 87 -33.5t31 -89.5q0 -46 -20 -102t-40 -91t-55 -91l-131 -210h179l-7 -59h-269l177 295q104 170 104 253q0 32 -14.5 51.5t-45.5 19.5q-80 0 -92 -134z" />
    <glyph glyph-name="uniF63B" unicode="&#xf63b;" horiz-adv-x="339" 
d="M122 511h-57q9 71 44.5 118t101.5 47q53 0 83.5 -31.5t30.5 -85.5q0 -147 -96 -190q38 -17 51 -50t13 -82q0 -45 -7.5 -84.5t-24.5 -78t-51 -61t-81 -22.5q-118 0 -118 128q0 22 6 64h60q0 -6 -2 -24.5t-2 -28.5q0 -79 64 -79q39 0 62 32q16 23 25.5 67.5t9.5 80.5
q0 107 -95 107h-29l7 55h13q68 0 97 29q19 19 28.5 54.5t9.5 68.5q0 71 -62 71q-42 0 -58.5 -28.5t-22.5 -76.5z" />
    <glyph glyph-name="uniF63C" unicode="&#xf63c;" horiz-adv-x="307" 
d="M294 667l-53 -431h49l-6 -57h-50l-22 -179h-60l22 179h-173l8 63l225 425h60zM181 236l26 210q3 27 22 123q-18 -48 -52 -115l-111 -218h115z" />
    <glyph glyph-name="uniF63D" unicode="&#xf63d;" horiz-adv-x="342" 
d="M333 667l-7 -58h-142l-49 -204q18 3 36 3q66 0 96 -48.5t30 -118.5q0 -58 -18 -113t-61 -96t-103 -41q-63 0 -107 31l24 61q40 -32 85 -32q41 0 69 33t38.5 72t10.5 77q0 115 -106 115q-37 0 -70 -12l78 331h196z" />
    <glyph glyph-name="uniF63E" unicode="&#xf63e;" horiz-adv-x="300" 
d="M285 667l-111 -209q-7 -14 -23 -39.5t-33 -63.5q31 23 68 23q34 0 58 -22q40 -38 40 -125q0 -139 -63 -201q-39 -39 -98 -39q-45 0 -73 26q-42 37 -42 130q0 80 25 154q19 56 68 147l120 219h64zM67 144q0 -99 67 -99q27 0 46 19q21 21 33.5 72.5t12.5 95.5q0 56 -25 79
q-14 14 -39 14q-26 0 -48 -22q-23 -22 -35 -68t-12 -91z" />
    <glyph glyph-name="uniF63F" unicode="&#xf63f;" horiz-adv-x="357" 
d="M355 667l-284 -667h-64l260 609h-189l7 58h270z" />
    <glyph glyph-name="uniF640" unicode="&#xf640;" horiz-adv-x="341" 
d="M327 547q0 -128 -88 -178q33 -20 44.5 -50.5t11.5 -74.5t-8.5 -85.5t-26.5 -80.5t-53 -63t-82 -24q-59 0 -86 40t-27 102q0 76 25 144.5t83 91.5q-53 36 -53 111q0 78 40 137t115 59q105 0 105 -129zM268 539q0 80 -59 80q-25 0 -42 -14t-25.5 -37t-11.5 -45t-3 -45
q0 -81 56 -81q45 0 65 45t20 97zM237 242q0 99 -64 99q-29 0 -50 -21t-31.5 -54t-15 -63t-4.5 -57q0 -98 63 -98q34 0 57 26q22 25 33.5 75t11.5 93z" />
    <glyph glyph-name="uniF641" unicode="&#xf641;" horiz-adv-x="300" 
d="M15 0l167 312q-35 -23 -68 -23q-52 0 -75 42t-23 99q0 43 7 82.5t23.5 78t49.5 62t79 23.5q62 0 90 -40.5t28 -105.5q0 -127 -86 -288l-128 -242h-64zM233 523q0 100 -66 100q-28 0 -47.5 -21t-28.5 -54t-12.5 -61.5t-3.5 -54.5q0 -36 14.5 -63t47.5 -27q27 0 47.5 19.5
t30 50t14 58.5t4.5 53z" />
    <glyph glyph-name="uniF6BA" unicode="&#xf6ba;" horiz-adv-x="238" 
d="M189 309h-138l7 58h138z" />
    <glyph glyph-name="uniF6BB" unicode="&#xf6bb;" horiz-adv-x="574" 
d="M505 313h-434l6 50h434z" />
    <glyph glyph-name="uniF6BC" unicode="&#xf6bc;" horiz-adv-x="820" 
d="M757 363l-6 -50h-680l6 50h680z" />
    <glyph glyph-name="uniF6C3" unicode="&#xf6c3;" horiz-adv-x="185" 
d="M142 -77l-91 -154l-37 19l73 163z" />
    <glyph glyph-name="uniF6C9" unicode="&#xf6c9;" 
d="M407 817l-126 -103l-32 26l110 120z" />
    <glyph glyph-name="uniF6CA" unicode="&#xf6ca;" 
d="M405 821l-126 -107l-96 107l41 38l64 -69l82 69z" />
    <glyph glyph-name="uniF6CB" unicode="&#xf6cb;" 
d="M393 769q0 -19 -14.5 -34t-34.5 -15q-16 0 -26.5 11.5t-10.5 27.5q0 19 14.5 33.5t33.5 14.5q17 0 27.5 -10.5t10.5 -27.5zM267 769q0 -19 -14.5 -34t-34.5 -15q-16 0 -26.5 11.5t-10.5 27.5q0 19 14.5 33.5t33.5 14.5q17 0 27.5 -10.5t10.5 -27.5z" />
    <glyph glyph-name="uniF6CE" unicode="&#xf6ce;" 
d="M319 740l-39 -26l-100 103l58 43z" />
    <glyph glyph-name="uniF6CF" unicode="&#xf6cf;" 
d="M431 830l-83 -116l-35 13l65 125zM330 830l-83 -116l-35 13l65 125z" />
    <glyph glyph-name="uniF6D0" unicode="&#xf6d0;" 
d="M400 782l-7 -55h-221l6 55h222z" />
    <glyph glyph-name="uniF6D1" unicode="&#xf6d1;" horiz-adv-x="277" 
d="M223 808l54 -21q-17 -43 -51 -64q-31 -19 -78 -19t-76 20q-33 23 -46 63l54 21q7 -25 26 -39q17 -12 47 -12q29 0 45 13q18 15 25 38z" />
    <glyph glyph-name="uniF6D4" unicode="&#xf6d4;" horiz-adv-x="262" 
d="M187 597l53 -19q-13 -39 -41 -59q-27 -19 -69 -19q-44 0 -71 20q-29 21 -38 58l52 19q5 -21 18 -32q14 -13 39 -13q19 0 35 10q18 14 22 35z" />
    <glyph glyph-name="uniF6DC" unicode="&#xf6dc;" horiz-adv-x="170" 
d="M164 667l-82 -667h-61l75 609h-85l8 58h145z" />
    <glyph glyph-name="uniF6DE" unicode="&#xf6de;" horiz-adv-x="615" 
d="M568 287l-5 -50h-510l5 50h510z" />
    <glyph glyph-name="nbspace" horiz-adv-x="233" 
 />
    <glyph glyph-name="hyphenminus" horiz-adv-x="238" 
d="M189 233h-138l7 58h138z" />
    <glyph glyph-name="dotlessi1" horiz-adv-x="154" 
d="M131 447l-54 -447h-56l55 447h55z" />
    </font>
</defs>
</svg>
