<?xml version="1.0" encoding="utf-8"?>
<!-- Generator: Adobe Illustrator 23.0.2, SVG Export Plug-In . SVG Version: 6.00 Build 0)  -->
<svg version="1.1" id="Layer_1" xmlns="http://www.w3.org/2000/svg" xmlns:xlink="http://www.w3.org/1999/xlink" x="0px" y="0px"
	 viewBox="0 0 86.6 86.6" style="enable-background:new 0 0 86.6 86.6;" xml:space="preserve">
<style type="text/css">
	.st0{fill:#3B3B3B;}
	.st1{fill:#009A9B;}
</style>
<g>
	<path class="st0" d="M81.4,33.5c0-9.8-7.6-17.8-17.2-18.4V5.2H5.1v66.5h51.7v3.7c0,3.4,2.8,6.2,6.2,6.2s6.2-2.8,6.2-6.2V56.9h-2.5
		v-5.3C75.1,49.9,81.4,42.4,81.4,33.5z M79,33.5c0,8.8-7.2,16-16,16s-16-7.2-16-16s7.2-16,16-16S79,24.7,79,33.5z M56.8,56.9v12.3
		H7.6V7.7h54.1v7.4c-9.6,0.6-17.2,8.6-17.2,18.4c0,8.9,6.4,16.4,14.8,18.1v5.3H56.8z M66.7,75.3c0,2-1.7,3.7-3.7,3.7
		s-3.7-1.7-3.7-3.7v-16h7.4V75.3z M64.2,56.9h-2.5v-5c0.4,0,0.8,0.1,1.2,0.1s0.8,0,1.2-0.1V56.9z"/>
	<path class="st1" d="M49.5,33.5C49.5,41,55.5,47,63,47S76.5,41,76.5,33.5S70.5,20,63,20S49.5,26,49.5,33.5z M74.1,33.5
		c0,6.1-5,11.1-11.1,11.1s-11.1-5-11.1-11.1s5-11.1,11.1-11.1S74.1,27.4,74.1,33.5z"/>
	<path class="st1" d="M58.8,36.2l-1.4,2l4.9,3.2L69,27.9l-2.2-1.1l-5.5,11.1L58.8,36.2z"/>
	<path class="st1" d="M27.2,46.3l-2.3-0.9l-1.7,4.2H10.1v17.2h19.7V49.5h-3.9L27.2,46.3z M27.3,52v12.3H12.5V52h9.6l-2.7,6.4
		L17.1,56l-1.7,1.7l5,5L24.8,52H27.3z"/>
	<path class="st1" d="M27.2,22.9L24.9,22l-1.7,4.2H10.1v17.2h19.7V26.1h-3.9L27.2,22.9z M27.3,28.6v12.3H12.5V28.6h9.6L19.5,35
		l-2.4-2.4l-1.7,1.7l5,5l4.5-10.8H27.3z"/>
	<path class="st0" d="M39.6,15h2.5v2.5h-2.5V15z"/>
	<path class="st0" d="M10.1,15h27.1v2.5H10.1V15z"/>
	<path class="st0" d="M32.2,49.5H47V52H32.2V49.5z"/>
	<path class="st0" d="M32.2,54.4H47v2.5H32.2V54.4z"/>
	<path class="st0" d="M32.2,59.3H47v2.5H32.2V59.3z"/>
	<path class="st0" d="M32.2,64.3H47v2.5H32.2V64.3z"/>
	<path class="st0" d="M32.2,26.1h9.8v2.5h-9.8V26.1z"/>
	<path class="st0" d="M32.2,31h9.8v2.5h-9.8V31z"/>
	<path class="st0" d="M32.2,36h9.8v2.5h-9.8V36z"/>
	<path class="st0" d="M32.2,40.9h9.8v2.5h-9.8V40.9z"/>
	<path class="st0" d="M10.1,10.1h32v2.5h-32V10.1z"/>
</g>
</svg>
