<?xml version="1.0" encoding="utf-8"?>
<!-- Generator: Adobe Illustrator 23.0.2, SVG Export Plug-In . SVG Version: 6.00 Build 0)  -->
<svg version="1.1" id="Layer_1" xmlns="http://www.w3.org/2000/svg" xmlns:xlink="http://www.w3.org/1999/xlink" x="0px" y="0px"
	 viewBox="0 0 86.6 86.6" style="enable-background:new 0 0 86.6 86.6;" xml:space="preserve">
<style type="text/css">
	.st0{fill:#3B3B3B;}
	.st1{fill:#009A9B;}
</style>
<path class="st0" d="M16,48.6c0.6,0,1.1-0.5,1.1-1.1V23.5c0-0.6-0.5-1.1-1.1-1.1c-0.6,0-1.1,0.5-1.1,1.1v24.1
	C14.9,48.2,15.4,48.6,16,48.6z"/>
<path class="st0" d="M16,20.2c0.6,0,1.1-0.5,1.1-1.1v-2.2c0-0.6-0.5-1.1-1.1-1.1c-0.6,0-1.1,0.5-1.1,1.1v2.2
	C14.9,19.7,15.4,20.2,16,20.2z"/>
<path class="st1" d="M43.3,32.2c-2.4,0-4.4,2-4.4,4.4c0,2.4,2,4.4,4.4,4.4c2.4,0,4.4-2,4.4-4.4C47.7,34.2,45.7,32.2,43.3,32.2z
	 M43.3,38.8c-1.2,0-2.2-1-2.2-2.2c0-1.2,1-2.2,2.2-2.2s2.2,1,2.2,2.2C45.5,37.8,44.5,38.8,43.3,38.8z"/>
<path class="st1" d="M55.3,32.2L55.3,32.2l-2,0c-0.3-0.7-0.7-1.5-1.2-2.1l1-1.8c0.6-1,0.2-2.4-0.8-3l-3.8-2.2
	c-0.5-0.3-1.1-0.4-1.7-0.2c-0.6,0.1-1,0.5-1.3,1l-1,1.7c-0.8-0.1-1.6-0.1-2.4,0l-1-1.7c-0.6-1-1.9-1.4-3-0.8l-3.8,2.2
	c-1,0.6-1.4,1.9-0.8,3l1,1.7c-0.5,0.7-0.9,1.4-1.2,2.1l-2,0c-0.6,0-1.1,0.2-1.5,0.7c-0.4,0.4-0.6,1-0.6,1.5l0,4.4
	c0,1.2,1,2.2,2.2,2.2l2,0c0.2,0.4,0.3,0.7,0.6,1.1c0.2,0.4,0.4,0.7,0.7,1l-1,1.8c-0.6,1-0.2,2.4,0.8,3l3.8,2.2
	c0.5,0.3,1.1,0.4,1.7,0.2c0.6-0.1,1-0.5,1.3-1l1-1.7c0.8,0.1,1.6,0.1,2.4,0l1,1.7c0.3,0.5,0.8,0.9,1.3,1c0.2,0.1,0.4,0.1,0.6,0.1
	c0.4,0,0.8-0.1,1.1-0.3l3.8-2.2c1-0.6,1.4-1.9,0.8-3l-1-1.7c0.5-0.7,0.9-1.4,1.2-2.1l2,0c0.6,0,1.1-0.2,1.5-0.7
	c0.4-0.4,0.6-1,0.6-1.5l0-4.4C57.5,33.2,56.5,32.3,55.3,32.2z M52.6,38.8c-0.5,0-0.9,0.3-1,0.7c-0.4,1-0.9,1.9-1.6,2.8
	c-0.3,0.4-0.3,0.9-0.1,1.3l1.4,2.4l-3.8,2.2L46,45.7c-0.2-0.3-0.6-0.5-0.9-0.5c-0.1,0-0.1,0-0.2,0c-1.1,0.2-2.1,0.2-3.2,0
	c-0.5-0.1-0.9,0.1-1.2,0.5l-1.4,2.4l-3.8-2.2l1.4-2.4c0.2-0.4,0.2-0.9-0.1-1.3c-0.7-0.8-1.2-1.7-1.6-2.8c-0.2-0.4-0.6-0.7-1-0.7
	l-2.8,0l0-4.4l2.8,0c0.5,0,0.9-0.3,1-0.7c0.4-1,0.9-1.9,1.6-2.8c0.3-0.4,0.3-0.9,0.1-1.3l-1.4-2.4l3.8-2.2l1.4,2.4
	c0.2,0.4,0.7,0.6,1.1,0.5c1.1-0.2,2.1-0.2,3.2,0c0.5,0.1,0.9-0.1,1.2-0.5l1.4-2.4l3.8,2.2l-1.4,2.4c-0.2,0.4-0.2,0.9,0.1,1.3
	c0.7,0.8,1.2,1.7,1.6,2.8c0.2,0.4,0.6,0.7,1,0.7l2.8,0l0,4.4L52.6,38.8z"/>
<path class="st0" d="M76.1,22.2c-0.1-3.5-3-6.3-6.6-6.3H25.8v-3.3c0-1.2-1-2.2-2.2-2.2h-6.6c-1.7,0-3.4,0.7-4.6,1.9
	s-1.9,2.9-1.9,4.6v47c0.1,3.5,2.9,6.4,6.5,6.5c0,0,0.1,0,0.1,0h0.8l1.6,3.5c0.1,0.2,0.2,0.3,0.3,0.5c0,0.1,0.1,0.1,0.1,0.1
	c0.1,0.1,0.2,0.2,0.3,0.3c0,0,0.1,0.1,0.1,0.1c0.1,0.1,0.3,0.2,0.4,0.3c0,0,0.1,0,0.1,0.1c0.1,0.1,0.3,0.1,0.4,0.2c0,0,0.1,0,0.1,0
	c0,0,0.1,0,0.1,0c0.1,0,0.2,0.1,0.3,0.1c0.1,0,0.1,0,0.2,0c0.1,0,0.3,0,0.4,0c0,0,0.1,0,0.1,0c0.5,0,0.9-0.1,1.4-0.3l11.3-5.2h25.7
	v3.3c0,1.2,1,2.2,2.2,2.2h6.6c3.6,0,6.6-2.9,6.6-6.6v-47c0,0,0,0,0,0C76.1,22.3,76.1,22.2,76.1,22.2z M14,13.8
	c0.8-0.8,1.9-1.3,3.1-1.3h6.6v44.8h-6.6c-1.6,0-3.2,0.6-4.4,1.7V16.9C12.7,15.8,13.1,14.7,14,13.8z M50.5,60.5l-2.3-5.1l7-0.5
	l0.2,0.6L50.5,60.5z M46,55.9l0.9,2l-7,3.2c-0.4,0.2-0.6,0.5-0.6,0.9c0,0.4,0.1,0.8,0.5,1c0.3,0.2,0.7,0.3,1.1,0.1l7-3.2l0.9,2
	l-14.3,6.5l0,0L28.8,71l-0.9-2l8-3.6c0.5-0.3,0.8-0.9,0.5-1.4c-0.2-0.5-0.9-0.8-1.4-0.5L27,67l-0.9-2L46,55.9z M22.9,73.7
	c-0.5,0.3-1.2,0-1.4-0.5l-1.8-4c-0.2-0.5,0-1.2,0.5-1.4l4-1.8l1.4,3v0l0,0l1.4,3L22.9,73.7z M39.9,68.3l10.7-4.9
	c0.1,0,0.1-0.1,0.2-0.1c0.1,0,0.1-0.1,0.2-0.1l6-6c0.7-0.6,0.9-1.7,0.5-2.5l-0.3-0.6c-0.4-0.8-1.3-1.4-2.2-1.3l-8.5,0.6
	c-0.1,0-0.2,0-0.3,0.1c0,0,0,0,0,0L19.2,65.7c-1,0.5-1.8,1.5-1.9,2.6h0c-2.5,0-4.5-1.9-4.6-4.4v-0.2c0.1-2.4,2-4.2,4.4-4.2h6.6
	c1.2,0,2.2-1,2.2-2.2V18h43.7c2.4,0,4.3,1.9,4.4,4.2c0,1.1-0.4,2.3-1.2,3.1c-0.9,0.9-2.1,1.5-3.4,1.5H63c-1.2,0-2.2,1-2.2,2.2v39.4
	H39.9z M69.5,73.8H63V29h6.3c1.7,0,3.4-0.6,4.6-1.8v42.3C73.9,71.8,72,73.8,69.5,73.8z"/>
</svg>
