<?xml version="1.0" encoding="utf-8"?>
<!-- Generator: Adobe Illustrator 24.0.1, SVG Export Plug-In . SVG Version: 6.00 Build 0)  -->
<svg version="1.1" id="Layer_1" xmlns="http://www.w3.org/2000/svg" xmlns:xlink="http://www.w3.org/1999/xlink" x="0px" y="0px"
	 viewBox="0 0 86.6 86.6" style="enable-background:new 0 0 86.6 86.6;" xml:space="preserve">
<style type="text/css">
	.st0{fill:none;}
	.st1{fill:#FFFFFF;}
	.st2{fill:#009A9B;}
</style>
<line class="st0" x1="49.9" y1="65.2" x2="49.9" y2="65.2"/>
<g>
	<g>
		<path class="st1" d="M62.9,23.1h-5.5v-0.8c0-1.3-1-2.3-2.3-2.3c-1.3,0-2.3,1-2.3,2.3v0.8H33.9v-0.8c0-1.3-1-2.3-2.3-2.3
			c-1.3,0-2.4,1-2.4,2.3v0.8h-5.5c-2.2,0-3.9,1.7-3.9,3.9v36c0,2.2,1.7,3.9,3.9,3.9h39.1c2.2,0,3.9-1.7,3.9-3.9V27
			C66.8,24.8,65,23.1,62.9,23.1z M54.2,22.3c0-0.4,0.4-0.8,0.8-0.8c0.4,0,0.8,0.4,0.8,0.8v6.3c0,0.4-0.4,0.8-0.8,0.8
			c-0.4,0-0.8-0.4-0.8-0.8V22.3z M52.6,28.6c0,1.3,1,2.3,2.3,2.3c1.3,0,2.3-1,2.3-2.3c0.9,0.2,1.5,1,1.5,1.9c0,1.1-0.9,2-2,2H53
			c-1.1,0-2-0.9-2-2C51.1,29.6,51.8,28.8,52.6,28.6z M30.8,22.3c0-0.4,0.4-0.8,0.8-0.8c0.4,0,0.8,0.4,0.8,0.8v6.3
			c0,0.4-0.4,0.8-0.8,0.8s-0.8-0.4-0.8-0.8V22.3z M29.2,28.6c0,1.3,1,2.3,2.3,2.3s2.3-1,2.3-2.3c0.9,0.2,1.5,1,1.5,1.9
			c0,1.1-0.9,2-2,2h-3.9c-1.1,0-2-0.9-2-2C27.6,29.6,28.3,28.8,29.2,28.6z M65.2,62.9c0,1.3-1,2.3-2.3,2.3H23.7
			c-1.3,0-2.3-1-2.3-2.3V37.1h43.8L65.2,62.9C65.1,62.9,65.2,62.9,65.2,62.9z M65.2,35.6H21.4V27c0-1.3,1-2.3,2.3-2.3h5.5V27
			c-1.8,0.2-3.1,1.7-3.1,3.5c0,2,1.6,3.5,3.5,3.5h3.9c2,0,3.5-1.6,3.5-3.5c0-1.8-1.4-3.3-3.1-3.5v-2.4h18.8V27
			c-1.8,0.2-3.1,1.7-3.1,3.5c0,2,1.6,3.5,3.5,3.5H57c2,0,3.5-1.6,3.5-3.5c0-1.8-1.4-3.3-3.1-3.5v-2.4h5.5c1.3,0,2.3,1,2.3,2.3
			L65.2,35.6L65.2,35.6z"/>
	</g>
</g>
<g>
	<g>
		<rect x="29.2" y="38.7" class="st1" width="1.5" height="1.5"/>
	</g>
</g>
<g>
	<g>
		<rect x="26.1" y="38.7" class="st1" width="1.5" height="1.5"/>
	</g>
</g>
<g>
	<g>
		<rect x="23" y="38.7" class="st1" width="1.5" height="1.5"/>
	</g>
</g>
<g>
	<g>
		<path class="st2" d="M62.2,56.7l-4.7-0.8c-0.2-0.1-0.5,0.1-0.7,0.2l-0.6,0.6H45.6v-1.5c0-0.4-0.4-0.8-0.8-0.8h-3.2
			c-0.2,0-0.4,0.1-0.6,0.2l-0.9,1l-1.1-1c-0.1-0.1-0.3-0.2-0.6-0.2h-14c-0.4,0-0.8,0.4-0.8,0.8V63c0,0.4,0.4,0.8,0.8,0.8h14.1
			c0.2,0,0.4-0.1,0.6-0.2l1-1l1,1c0.1,0.1,0.4,0.2,0.6,0.2h3.1c0.4,0,0.8-0.4,0.8-0.8v-1.5h10.7l0.6,0.6c0.1,0.1,0.4,0.2,0.6,0.2
			c0.1,0,0.1,0,0.1,0l4.7-0.8c0.4-0.1,0.7-0.4,0.7-0.8v-3.1C62.9,57.1,62.6,56.8,62.2,56.7z M44.1,57.5v3.1v1.5h-2l-1.4-1.4
			c-0.3-0.3-0.8-0.3-1.1,0l-1.4,1.4H25.3v-6.3h12.9l1.4,1.4c0.1,0.1,0.4,0.2,0.6,0.2c0.2,0,0.4-0.1,0.6-0.2l1.2-1.3H44L44.1,57.5
			L44.1,57.5z M61.3,60l-3.6,0.6l-0.5-0.5c-0.1-0.1-0.4-0.2-0.6-0.2h-11v-1.5h11c0.2,0,0.4-0.1,0.6-0.2l0.5-0.5l3.6,0.6V60z"/>
	</g>
</g>
<g>
	<g>
		<path class="st2" d="M61.3,48.9h-5.1l-1.8-2.3l1.8-2.3h5.1c0.3,0,0.6-0.2,0.7-0.4s0.1-0.6-0.1-0.8L58.7,39
			c-0.1-0.2-0.4-0.3-0.6-0.3h-4.7c-0.2,0-0.4,0.1-0.6,0.2l-4.4,4.4H26.1c-1.7,0-3.1,1.4-3.1,3.1s1.4,3.1,3.1,3.1h22.4l4.4,4.4
			c0.1,0.1,0.4,0.2,0.6,0.2h4.7c0.2,0,0.5-0.1,0.6-0.3l3.1-3.9c0.2-0.2,0.2-0.6,0.1-0.8C61.8,49.1,61.6,48.9,61.3,48.9z M57.8,52.8
			h-4l-4.4-4.4c-0.1-0.1-0.4-0.2-0.6-0.2H26.1c-0.9,0-1.5-0.7-1.5-1.5c0-0.9,0.7-1.5,1.5-1.5h22.7c0.2,0,0.4-0.1,0.6-0.2l4.4-4.4h4
			l1.8,2.3h-3.8c-0.2,0-0.5,0.1-0.6,0.3l-2.3,3.1c-0.2,0.3-0.2,0.7,0,0.9l2.3,3.1c0.1,0.2,0.4,0.3,0.6,0.3h3.8L57.8,52.8z"/>
	</g>
</g>
</svg>
