<?xml version="1.0" encoding="utf-8"?>
<!-- Generator: Adobe Illustrator 24.0.1, SVG Export Plug-In . SVG Version: 6.00 Build 0)  -->
<svg version="1.1" id="Layer_1" xmlns="http://www.w3.org/2000/svg" xmlns:xlink="http://www.w3.org/1999/xlink" x="0px" y="0px"
	 viewBox="0 0 86.6 86.6" style="enable-background:new 0 0 86.6 86.6;" xml:space="preserve">
<style type="text/css">
	.st0{fill:#FFFFFF;}
	.st1{fill:#282828;}
</style>
<path class="st0" d="M66.8,22.1c0-1.2-1-2.3-2.3-2.3H32.7c-1.2,0-2.3,1-2.3,2.3c0,1,0.6,1.9,1.5,2.2v17.6c0,2.1,1.7,3.8,3.8,3.8
	h12.2v4.6c-1.3,0.4-2.3,1.5-2.3,3c0,1.7,1.4,3,3,3c1.7,0,3-1.4,3-3c0-1.4-1-2.6-2.3-2.9v-4.7h12.2c2.1,0,3.8-1.7,3.8-3.8V24.2
	C66.2,23.9,66.8,23.1,66.8,22.1z M50.1,53.2c0,0.9-0.7,1.5-1.5,1.5s-1.5-0.7-1.5-1.5s0.7-1.5,1.5-1.5C49.5,51.6,50.1,52.3,50.1,53.2
	z M61.5,44H35.7c-1.2,0-2.3-1-2.3-2.3V24.4h30.3v17.5C63.8,43.1,62.7,44,61.5,44z M64.5,22.8H32.7c-0.4,0-0.7-0.4-0.7-0.7
	s0.4-0.7,0.7-0.7h31.8c0.4,0,0.7,0.4,0.7,0.7S65,22.8,64.5,22.8z"/>
<path class="st0" d="M54,30.4h-0.3c-1.1,0-2.2,0.6-2.7,1.7l-2.2,4.4L46,29.3c-0.4-1.2-1.5-1.9-2.8-1.9c-1.2,0-2.3,0.7-2.8,1.9
	l-5.2,13.3h10.5h2h14.1l-5.2-10.5C56.2,31,55.2,30.4,54,30.4L54,30.4z M37.6,41L42,29.8c0.2-0.6,0.7-0.9,1.4-0.9s1.2,0.4,1.4,0.9
	l3.3,8.5L46.6,41H37.6z M48.3,41l4.1-8.3c0.2-0.5,0.7-0.8,1.3-0.8H54c0.6,0,1,0.3,1.3,0.8l4.1,8.3H48.3z"/>
<path class="st0" d="M60,25.8c-1.2,0-2.3,1-2.3,2.3s1,2.3,2.3,2.3c1.2,0,2.3-1,2.3-2.3S61.2,25.8,60,25.8z M60,28.9
	c-0.4,0-0.7-0.4-0.7-0.7c0-0.4,0.4-0.7,0.7-0.7s0.7,0.4,0.7,0.7C60.8,28.6,60.4,28.9,60,28.9z"/>
<path class="st1" d="M40.3,47.1H22.1c-1.2,0-2.3,1-2.3,2.3v3c0,1.2,1,2.3,2.3,2.3H26l-5.9,9.2c-0.2,0.3-0.3,0.7-0.3,1
	c0,1,0.9,1.9,1.9,1.9h1.2c0.7,0,1.3-0.3,1.7-0.9l4.3-6.9v5.9c0,1,0.9,1.9,1.9,1.9h0.7c1,0,1.9-0.9,1.9-1.9V59l4.3,6.9
	c0.4,0.6,1,0.9,1.7,0.9h1.2c1,0,1.9-0.9,1.9-1.9c0-0.4-0.1-0.7-0.3-1l-5.9-9.2h3.9c1.2,0,2.3-1,2.3-2.3v-3
	C42.6,48.1,41.5,47.1,40.3,47.1L40.3,47.1z M21.3,52.4v-3c0-0.4,0.4-0.7,0.7-0.7h10c0,0.2,0,0.4,0,0.6v3c0,0.2,0.1,0.5,0.1,0.7h-10
	C21.6,53.2,21.3,52.8,21.3,52.4z M23.3,65.1c-0.1,0.1-0.2,0.2-0.4,0.2h-1.2c-0.2,0-0.4-0.2-0.4-0.4c0-0.1,0-0.2,0.1-0.2l6.4-10h1.1
	v1.5L23.3,65.1z M31.5,65.3h-0.7c-0.2,0-0.4-0.2-0.4-0.4V54.6H32v10.2C32,65.1,31.8,65.3,31.5,65.3L31.5,65.3z M41,64.6
	c0.1,0.1,0.1,0.1,0.1,0.2c0,0.2-0.2,0.4-0.4,0.4h-1.2c-0.1,0-0.2-0.1-0.4-0.2l-5.6-8.9v-1.5h1.1L41,64.6z M41,52.4
	c0,0.4-0.4,0.7-0.7,0.7h-6c-0.4,0-0.7-0.4-0.7-0.7v-3c0-0.4,0.4-0.7,0.7-0.7h6c0.4,0,0.7,0.4,0.7,0.7V52.4z"/>
<path class="st1" d="M38,50.1h1.5v1.5H38V50.1z"/>
<path class="st1" d="M35,50.1h1.5v1.5H35V50.1z"/>
<path class="st0" d="M35,25.8h1.5v1.5H35V25.8z"/>
<path class="st0" d="M38,25.8h1.5v1.5H38V25.8z"/>
</svg>
