<?xml version="1.0" encoding="utf-8"?>
<!-- Generator: Adobe Illustrator 24.0.1, SVG Export Plug-In . SVG Version: 6.00 Build 0)  -->
<svg version="1.1" id="Layer_1" xmlns="http://www.w3.org/2000/svg" xmlns:xlink="http://www.w3.org/1999/xlink" x="0px" y="0px"
	 viewBox="0 0 86.6 86.6" style="enable-background:new 0 0 86.6 86.6;" xml:space="preserve">
<style type="text/css">
	.st0{fill:#FFFFFF;}
</style>
<path class="st0" d="M77.6,5.2H9C6.9,5.2,5.2,6.9,5.1,9v68.7c0,2.1,1.7,3.8,3.8,3.8h68.7c2.1,0,3.8-1.7,3.8-3.8V9
	C81.4,6.9,79.7,5.2,77.6,5.2z M78.9,77.7c0,0.7-0.6,1.3-1.3,1.3H9c-0.7,0-1.3-0.6-1.3-1.3V9c0-0.7,0.6-1.3,1.3-1.3h68.7
	C78.4,7.7,79,8.3,79,9L78.9,77.7L78.9,77.7z"/>
<path class="st0" d="M75.1,10.3H11.5c-0.7,0-1.3,0.6-1.3,1.3v63.6c0,0.7,0.6,1.3,1.3,1.3h63.6c0.7,0,1.3-0.6,1.3-1.3V11.6
	C76.4,10.9,75.8,10.3,75.1,10.3z M49.7,12.8h14v2.5h-14V12.8z M56,53.5H43.3v-5.1H56V53.5z M63.6,56.1v5.1H52.2
	c-3-1.4-5.9-3.1-8.6-5.1H63.6z M33.6,45.9c-0.2,0-0.3,0-0.5,0.1c-1.3-1.7-2.5-3.4-3.6-5.2h17.6v5.1C47.1,45.9,33.6,45.9,33.6,45.9z
	 M40.8,48.4v5.4c-2-1.7-3.8-3.5-5.5-5.4H40.8z M30.6,25.5v5.1h-5.9c-0.6-1.7-1.1-3.4-1.5-5.1H30.6z M22.7,23
	c-0.3-1.7-0.6-3.4-0.7-5.1h3.6V23C25.5,23,22.7,23,22.7,23z M40.8,23H28v-5.1h12.7L40.8,23L40.8,23z M47.1,25.5v5.1h-14v-5.1H47.1z
	 M40.8,33.2v5.1H28.1c0,0,0,0-0.1,0c-0.9-1.7-1.7-3.4-2.4-5.1H40.8z M49.7,45.9v-5.1h14v5.1H49.7z M56,38.3H43.3v-5.1H56V38.3z
	 M49.7,30.6v-5.1h14v5.1H49.7z M56,23H43.3v-5.1H56V23z M33.1,12.8h14v2.5h-14V12.8z M30.6,12.8v2.5h-8.8c0-0.8-0.1-1.7-0.1-2.5
	C21.7,12.8,30.6,12.8,30.6,12.8z M73.8,73.9h-61v-61h6.4c0,1.7,0.1,3.5,0.2,5.2c0.2,2.6,0.7,5.2,1.3,7.8c0,0.1,0,0.1,0.1,0.2
	c0.6,2.6,1.4,5.2,2.4,7.7c1.1,2.7,2.4,5.3,3.9,7.8c1.6,2.8,3.5,5.4,5.6,7.8c2.5,2.9,5.2,5.5,8.2,7.8c9.5,7.3,21,11.4,33,11.6
	L73.8,73.9L73.8,73.9z M73.8,66.2c-5.1-0.1-10.2-1-15.1-2.5h15.1V66.2z M73.8,61.2h-7.6v-5.1h7.6V61.2z M73.8,53.5H58.6v-5.1h15.3
	L73.8,53.5L73.8,53.5z M73.8,45.9h-7.6v-5.1h7.6V45.9z M73.8,38.3H58.6v-5.1h15.3L73.8,38.3L73.8,38.3z M73.8,30.6h-7.6v-5.1h7.6
	V30.6z M73.8,23H58.6v-5.1h15.3L73.8,23L73.8,23z M73.8,15.4h-7.6v-2.5h7.6V15.4z"/>
<path class="st0" d="M75.1,10.3H19.8c-0.2,1.1-0.5,2.2-0.6,3.3c0,1.5,0.1,3,0.2,4.5c0.2,2.6,0.7,5.2,1.3,7.8c0,0.1,0,0.1,0.1,0.2
	c0.6,2.6,1.4,5.2,2.4,7.7c1.1,2.7,2.4,5.3,3.9,7.8c1.6,2.8,3.5,5.4,5.6,7.8c2.5,2.9,5.2,5.5,8.2,7.8c9.5,7.3,21,11.4,33,11.6v0.1
	c0.9-0.1,1.7-0.3,2.5-0.4V11.6C76.4,10.9,75.8,10.3,75.1,10.3z M49.7,12.8h14v2.5h-14V12.8z M56,38.3H43.3v-5.1H56V38.3z M63.6,40.8
	v5.1h-14v-5.1H63.6z M33.1,25.5h14v5.1h-14V25.5z M28,23v-5.1h12.7V23H28z M49.7,30.6v-5.1h14v5.1H49.7z M56,23H43.3v-5.1H56V23z
	 M33.1,12.8h14v2.5h-14V12.8z M21.7,12.8h8.9v2.5h-8.8C21.7,14.5,21.7,13.7,21.7,12.8z M22.7,23c-0.3-1.7-0.6-3.4-0.7-5.1h3.6V23
	H22.7z M23.2,25.5h7.4v5.1h-5.9C24.1,29,23.6,27.3,23.2,25.5z M28.1,38.3c-0.9-1.7-1.7-3.4-2.4-5.1h15.1v5.1H28.1L28.1,38.3z
	 M40.8,53.8c-2-1.7-3.8-3.5-5.5-5.4h5.5V53.8z M33.6,45.9c-0.2,0-0.3,0-0.5,0.1c-1.3-1.7-2.5-3.4-3.6-5.2h17.6v5.1
	C47.1,45.9,33.6,45.9,33.6,45.9z M43.3,48.4H56v5.1H43.3V48.4z M43.7,56.1h20v5.1H52.2C49.2,59.7,46.3,58,43.7,56.1z M73.8,66.2
	c-5.1-0.1-10.2-1-15.1-2.5h15.1V66.2z M73.8,61.2h-7.6v-5.1h7.6V61.2z M73.8,53.5H58.6v-5.1h15.3L73.8,53.5L73.8,53.5z M73.8,45.9
	h-7.6v-5.1h7.6V45.9z M73.8,38.3H58.6v-5.1h15.3L73.8,38.3L73.8,38.3z M73.8,30.6h-7.6v-5.1h7.6V30.6z M73.8,23H58.6v-5.1h15.3
	L73.8,23L73.8,23z M73.8,15.4h-7.6v-2.5h7.6V15.4z"/>
</svg>
