<?xml version="1.0" encoding="utf-8"?>
<!-- Generator: Adobe Illustrator 24.0.1, SVG Export Plug-In . SVG Version: 6.00 Build 0)  -->
<svg version="1.1" id="Layer_1" xmlns="http://www.w3.org/2000/svg" xmlns:xlink="http://www.w3.org/1999/xlink" x="0px" y="0px"
	 viewBox="0 0 86.6 86.6" style="enable-background:new 0 0 86.6 86.6;" xml:space="preserve">
<style type="text/css">
	.st0{fill:#FFFFFF;}
	.st1{fill:#282828;}
</style>
<path class="st0" d="M66.4,19.9c-0.2-0.1-0.6-0.1-0.8,0l-2.7,1.7v-1c0-0.4-0.4-0.8-0.8-0.8h-11c-0.2,0-0.4,0.1-0.6,0.2l-4.7,4.7
	c-0.1,0.1-0.2,0.4-0.2,0.6v0.8H31l-10-6.2c-0.2-0.1-0.6-0.2-0.8,0c-0.2,0.1-0.4,0.4-0.4,0.7v34.5c0,0.4,0.4,0.8,0.8,0.8h14.9v3.9
	c0,0.2,0.1,0.4,0.2,0.6l6.2,6.2c0.1,0.1,0.4,0.2,0.6,0.2h11c0.4,0,0.8-0.4,0.8-0.8v-6.2c0-0.4-0.4-0.8-0.8-0.8h-2.8l-3.1-3.1H66
	c0.4,0,0.8-0.4,0.8-0.8V20.6C66.8,20.3,66.7,20,66.4,19.9z M65.3,22v29.2h-8.6V30.3l1.9-1.9h3.6c0.4,0,0.8-0.4,0.8-0.8v-4.2L65.3,22
	z M47.2,25.6l4.3-4.3h9.9v5.5h-3.1c-0.2,0-0.4,0.1-0.6,0.2l-3.4,3.4L53,29.2l1.8-1.8c0.3-0.3,0.3-0.8,0-1.1L52.4,24
	c-0.3-0.3-0.8-0.3-1.1,0L49,26.3c-0.1,0.1-0.2,0.4-0.2,0.6v2.3h-1.5L47.2,25.6L47.2,25.6z M48.8,44.8h-3.1v-3.1h3.1V44.8z M41,44.8
	h-1.5v-3.1H41V44.8z M39.4,40.2h-4.7v-1.5h4.7V40.2z M36.3,41.8h1.5V48h-1.5V41.8z M50.3,27.6h2l-1,1c-0.1,0.1-0.2,0.4-0.2,0.6h-0.8
	V27.6z M51.4,26.1l0.4-0.4l0.4,0.4H51.4z M41,40.2v-1.5h11v1.5H41z M51.9,37h-1.5v-3.9v-2.3h1.5V37z M48.8,32.3h-3.1v-1.5h0.8h2.3
	V32.3z M48.8,33.9V37h-3.1v-3.1H48.8z M44.1,37h-1.6v-6.2H44L44.1,37L44.1,37z M42.5,41.8H44V48h-1.5V41.8z M50.3,41.8h1.5V48h-1.5
	V41.8z M45.6,29.2h-3.9c-0.4,0-0.8,0.4-0.8,0.8v7h-7c-0.4,0-0.8,0.4-0.8,0.8V41c0,0.4,0.4,0.8,0.8,0.8h0.8v7c0,0.4,0.4,0.8,0.8,0.8
	h3.1c0.4,0,0.8-0.4,0.8-0.8v-2.3H41v2.3c0,0.4,0.4,0.8,0.8,0.8H45c0.4,0,0.8-0.4,0.8-0.8v-2.3h3.1v2.3c0,0.4,0.4,0.8,0.8,0.8h3.1
	c0.4,0,0.8-0.4,0.8-0.8V31.9l0.2,0.2c0.1,0.1,0.4,0.2,0.6,0.2c0.2,0,0.4-0.1,0.6-0.2l0.2-0.2v19.2H31.6V27.6h14.1L45.6,29.2
	L45.6,29.2z M21.3,22l8.6,5.3v23.9h-8.6C21.3,51.1,21.3,22,21.3,22z M50.3,60.5h2.3v4.7h-9.9L37,59.4v-3.6h1.5v2.3
	c0,0.2,0.1,0.4,0.2,0.6l3.9,3.9c0.3,0.3,0.8,0.3,1.1,0l2.3-2.3c0.3-0.3,0.3-0.8,0-1.1l-1.8-1.8l1.2-1.2l4.1,4.1
	C50,60.4,50.1,60.5,50.3,60.5z M42.7,58l1.8,1.8L43.3,61l-3.1-3.1v-2h3.6l-1,1C42.4,57.2,42.4,57.7,42.7,58z M65.3,54.3h-44v-1.5
	h43.9L65.3,54.3L65.3,54.3z"/>
<g>
	<path class="st1" d="M45.6,29.2h-3.9c-0.4,0-0.8,0.4-0.8,0.8v7h-7c-0.4,0-0.8,0.4-0.8,0.8V41c0,0.4,0.4,0.8,0.8,0.8h0.8v7
		c0,0.4,0.4,0.8,0.8,0.8h3.1c0.4,0,0.8-0.4,0.8-0.8v-2.3H41v2.3c0,0.4,0.4,0.8,0.8,0.8H45c0.4,0,0.8-0.4,0.8-0.8v-2.3h3.1v2.3
		c0,0.4,0.4,0.8,0.8,0.8h3.1c0.4,0,0.8-0.4,0.8-0.8V29.2H45.6L45.6,29.2z M45.6,33.9h3.1V37h-3.1V33.9z M42.5,30.8H44v6.3h-1.5V30.8
		z M37.8,48h-1.5v-6.2h1.5V48z M34.7,40.2v-1.5h4.7v1.5H34.7z M41,44.8h-1.5v-3.1H41V44.8z M44.1,48h-1.6v-6.2H44L44.1,48L44.1,48z
		 M48.8,44.8h-3.1v-3.1h3.1V44.8z M51.9,48h-1.5v-6.2h1.5V48z M51.9,40.2H41v-1.5h11L51.9,40.2L51.9,40.2z M50.3,33.1v-2.3h1.5v6.3
		h-1.5V33.1z M48.8,30.8v1.5h-3.1v-1.5h0.8H48.8z"/>
</g>
</svg>
