<?xml version="1.0" encoding="utf-8"?>
<!-- Generator: Adobe Illustrator 24.0.1, SVG Export Plug-In . SVG Version: 6.00 Build 0)  -->
<svg version="1.1" id="Layer_1" xmlns="http://www.w3.org/2000/svg" xmlns:xlink="http://www.w3.org/1999/xlink" x="0px" y="0px"
	 viewBox="0 0 86.6 86.6" style="enable-background:new 0 0 86.6 86.6;" xml:space="preserve">
<style type="text/css">
	.st0{fill:#FFFFFF;}
</style>
<path class="st0" d="M80.7,5.4c-0.4-0.2-0.9-0.2-1.3,0L75,8.1V6.5c0-0.7-0.6-1.3-1.3-1.3H56c-0.3,0-0.7,0.1-0.9,0.4l-7.6,7.6
	c-0.2,0.2-0.4,0.6-0.4,0.9v1.3H23.3L7.1,5.4c-0.4-0.2-0.9-0.3-1.3,0C5.4,5.6,5.2,6,5.2,6.5v55.9c0,0.7,0.6,1.3,1.3,1.3h24.1V70
	c0,0.3,0.1,0.7,0.4,0.9L41.1,81c0.2,0.2,0.6,0.4,0.9,0.4h17.8c0.7,0,1.3-0.6,1.3-1.3V70c0-0.7-0.6-1.3-1.3-1.3h-4.6l-5.1-5.1h30
	c0.7,0,1.3-0.6,1.3-1.3V6.5C81.4,6,81.2,5.6,80.7,5.4z M78.9,8.7V56h-14V22.2l3.1-3.1h5.8c0.7,0,1.3-0.6,1.3-1.3V11L78.9,8.7z
	 M49.6,14.6l6.9-6.9h16v8.9h-5.1c-0.3,0-0.7,0.1-0.9,0.4L61,22.5l-2-2l2.9-2.9c0.5-0.5,0.5-1.3,0-1.8L58.1,12
	c-0.5-0.5-1.3-0.5-1.8,0l-3.8,3.8c-0.2,0.2-0.4,0.6-0.4,0.9v3.8h-2.5C49.6,20.5,49.6,14.6,49.6,14.6z M52.2,45.8h-5.1v-5.1h5.1V45.8
	z M39.5,45.8H37v-5.1h2.5V45.8z M37,38.2h-7.6v-2.5H37V38.2z M31.9,40.8h2.5V51h-2.5C31.9,51,31.9,40.8,31.9,40.8z M54.7,17.9H58
	l-1.6,1.6c-0.2,0.2-0.4,0.6-0.4,0.9h-1.3V17.9z M56.5,15.4l0.7-0.7l0.7,0.7H56.5z M39.5,38.2v-2.5h17.8v2.5H39.5z M57.3,33.1h-2.5
	v-6.3V23h2.5V33.1z M52.2,25.5h-5.1V23h1.3h3.8V25.5z M52.2,28.1v5.1h-5.1v-5.1H52.2z M44.6,33.1H42V23h2.5L44.6,33.1L44.6,33.1z
	 M42,40.8h2.5V51H42V40.8z M54.7,40.8h2.5V51h-2.5V40.8z M47.1,20.4h-6.3c-0.7,0-1.3,0.6-1.3,1.3v11.4H28.1c-0.7,0-1.3,0.6-1.3,1.3
	v5.1c0,0.7,0.6,1.3,1.3,1.3h1.3v11.4c0,0.7,0.6,1.3,1.3,1.3h5.1c0.7,0,1.3-0.6,1.3-1.3v-3.8h2.5v3.8c0,0.7,0.6,1.3,1.3,1.3H46
	c0.7,0,1.3-0.6,1.3-1.3v-3.8h5.1v3.8c0,0.7,0.6,1.3,1.3,1.3h5.1c0.7,0,1.3-0.6,1.3-1.3V24.8l0.4,0.4c0.2,0.2,0.6,0.4,0.9,0.4
	s0.7-0.1,0.9-0.4l0.4-0.4V56H24.3V17.9h22.9L47.1,20.4L47.1,20.4z M7.7,8.7l14,8.6V56h-14C7.7,56,7.7,8.7,7.7,8.7z M54.7,71.2h3.8
	v7.6h-16l-9.4-9.4v-5.8h2.5v3.8c0,0.3,0.1,0.7,0.4,0.9l6.3,6.3c0.5,0.5,1.3,0.5,1.8,0l3.8-3.8c0.5-0.5,0.5-1.3,0-1.8L45,66.1l2-2
	l6.7,6.7C54.1,71.1,54.4,71.2,54.7,71.2z M42.4,67.1l2.9,2.9l-2,2l-5.1-5.1v-3.3H44l-1.6,1.6C41.9,65.8,41.9,66.6,42.4,67.1z
	 M78.9,61.1H7.7v-2.5h71.1v2.5H78.9z"/>
<g>
	<path class="st0" d="M47.1,20.4h-6.3c-0.7,0-1.3,0.6-1.3,1.3v11.4H28.1c-0.7,0-1.3,0.6-1.3,1.3v5.1c0,0.7,0.6,1.3,1.3,1.3h1.3v11.4
		c0,0.7,0.6,1.3,1.3,1.3h5.1c0.7,0,1.3-0.6,1.3-1.3v-3.8h2.5v3.8c0,0.7,0.6,1.3,1.3,1.3H46c0.7,0,1.3-0.6,1.3-1.3v-3.8h5.1v3.8
		c0,0.7,0.6,1.3,1.3,1.3h5.1c0.7,0,1.3-0.6,1.3-1.3V20.4H47.1L47.1,20.4z M47.1,28.1h5.1v5.1h-5.1V28.1z M42,23h2.5v10.2H42V23z
		 M34.4,50.9h-2.5V40.8h2.5V50.9z M29.3,38.2v-2.5h7.6v2.5H29.3z M39.5,45.8H37v-5.1h2.5V45.8z M44.6,50.9H42V40.8h2.5L44.6,50.9
		L44.6,50.9z M52.2,45.8h-5.1v-5.1h5.1V45.8z M57.3,50.9h-2.5V40.8h2.5V50.9z M57.3,38.2H39.5v-2.5h17.8V38.2z M54.7,26.8V23h2.5
		v10.2h-2.5V26.8z M52.2,23v2.5h-5.1V23h1.3H52.2z"/>
</g>
</svg>
