<?xml version="1.0" encoding="utf-8"?>
<!-- Generator: Adobe Illustrator 23.0.2, SVG Export Plug-In . SVG Version: 6.00 Build 0)  -->
<svg version="1.1" id="Layer_1" xmlns="http://www.w3.org/2000/svg" xmlns:xlink="http://www.w3.org/1999/xlink" x="0px" y="0px"
	 viewBox="0 0 86.6 86.6" style="enable-background:new 0 0 86.6 86.6;" xml:space="preserve">
<style type="text/css">
	.st0{fill:#009A9B;}
	.st1{fill:#3B3B3B;}
</style>
<path class="st0" d="M62.4,34.5h-14c-0.8,0-1.3,0.5-1.3,1.3v5.1c0,0.8,0.5,1.3,1.3,1.3h1.3v7.5c0,4.7-4.4,9-9.4,9h-9.7v-1.3
	c0-0.8-0.5-1.3-1.3-1.3h-5.1c-0.8,0-1.3,0.5-1.3,1.3v14c0,0.8,0.5,1.3,1.3,1.3h5.1c0.8,0,1.3-0.5,1.3-1.3v-1.3h9.7
	c11.4,0,20.8-9.2,20.8-20.5v-7.5h1.3c0.8,0,1.3-0.5,1.3-1.3v-5.1C63.6,35,63.1,34.5,62.4,34.5z M28,70.1h-2.5V58.6H28v1.3v8.9V70.1z
	 M58.6,49.6c0,9.9-8.3,17.9-18.3,17.9h-9.7v-6.4h9.7c6.4,0,11.9-5.3,11.9-11.6v-7.5h6.4L58.6,49.6L58.6,49.6z M61.1,39.6h-1.3h-8.9
	h-1.3V37h11.4L61.1,39.6L61.1,39.6z"/>
<path class="st1" d="M78,33.3L48.8,7.4c-3.1-2.9-7.9-2.9-10.9,0L28,16.3v-3.4h2.5V5.2H12.8v7.6h2.5v14.6l-6.7,5.8
	c-0.9,0.9-1.1,2-0.8,3.2c0.4,1,1.5,1.8,2.7,1.8h4.8v35.6h-2.5v7.6h58.8h1h1.3v-7.8h-1.3h-1h-0.3V38.2h4.8c1.3,0,2.3-0.6,2.7-1.8
	C79.1,35.4,78.9,34.1,78,33.3z M76.3,35.6c-0.1,0.1-0.3,0.1-0.3,0.1H70c-0.7,0-1.3,0.6-1.3,1.3v38.1c0,0.7,0.6,1.3,1.3,1.3h1.3V79
	H15.3v-2.5h1.3c0.7,0,1.3-0.6,1.3-1.3V37c0-0.7-0.6-1.3-1.3-1.3h-6.1c-0.1,0-0.3,0-0.3-0.1s0-0.3,0.1-0.4l7.1-6.1
	c0.3-0.3,0.4-0.6,0.4-1V11.6c0-0.7-0.6-1.3-1.3-1.3h-1.3V7.8H28v2.5h-1.3c-0.7,0-1.3,0.6-1.3,1.3v7.6c0,0.5,0.3,1,0.8,1.4
	c0.5,0.1,1,0.1,1.4-0.3L39.6,9.4c2-2,5.2-2,7.4,0l29.2,25.9C76.3,35.4,76.5,35.5,76.3,35.6z"/>
</svg>
