<?xml version="1.0" encoding="utf-8"?>
<!-- Generator: Adobe Illustrator 24.0.1, SVG Export Plug-In . SVG Version: 6.00 Build 0)  -->
<svg version="1.1" id="Layer_1" xmlns="http://www.w3.org/2000/svg" xmlns:xlink="http://www.w3.org/1999/xlink" x="0px" y="0px"
	 viewBox="0 0 86.6 86.6" style="enable-background:new 0 0 86.6 86.6;" xml:space="preserve">
<style type="text/css">
	.st0{fill:#FFFFFF;}
	.st1{fill:#282828;}
</style>
<path class="st0" d="M66.8,37.3c0-6-4.7-11-10.6-11.3v-6.1H19.7v41h31.8v2.3c0,2.1,1.7,3.8,3.8,3.8s3.8-1.7,3.8-3.8V51.7h-1.5v-3.3
	C62.9,47.4,66.8,42.8,66.8,37.3z M65.3,37.3c0,5.4-4.4,9.9-9.9,9.9s-9.9-4.4-9.9-9.9s4.4-9.9,9.9-9.9S65.3,31.9,65.3,37.3z
	 M51.6,51.7v7.6H21.3V21.4h33.3V26C48.7,26.3,44,31.3,44,37.3c0,5.5,3.9,10.1,9.1,11.1v3.3H51.6z M57.7,63.1c0,1.2-1,2.3-2.3,2.3
	c-1.2,0-2.3-1-2.3-2.3v-9.9h4.6V63.1z M56.2,51.7h-1.5v-3.1c0.2,0,0.5,0.1,0.7,0.1s0.5,0,0.7-0.1L56.2,51.7L56.2,51.7z"/>
<path class="st1" d="M47.1,37.3c0,4.6,3.7,8.3,8.3,8.3s8.3-3.7,8.3-8.3S60,29,55.4,29S47.1,32.7,47.1,37.3z M62.3,37.3
	c0,3.8-3.1,6.8-6.8,6.8s-6.8-3.1-6.8-6.8s3.1-6.8,6.8-6.8S62.3,33.5,62.3,37.3z"/>
<path class="st1" d="M52.8,39L52,40.2l3,2l4.1-8.3l-1.4-0.7L54.4,40L52.8,39z"/>
<path class="st1" d="M33.4,45.2L32,44.6l-1,2.6h-8.1v10.6H35V47.2h-2.4L33.4,45.2z M33.4,48.7v7.6h-9.1v-7.6h5.9l-1.7,3.9l-1.4-1.5
	l-1,1l3.1,3.1l2.7-6.6L33.4,48.7L33.4,48.7z"/>
<path class="st1" d="M33.4,30.8L32,30.2l-1,2.6h-8.1v10.6H35V32.7h-2.4L33.4,30.8z M33.4,34.3v7.6h-9.1v-7.6h5.9l-1.6,3.9l-1.5-1.5
	l-1,1l3.1,3.1l2.8-6.7L33.4,34.3C33.4,34.2,33.4,34.3,33.4,34.3z"/>
<path class="st0" d="M41,25.9h1.5v1.5H41V25.9z"/>
<path class="st0" d="M22.8,25.9h16.7v1.5H22.8V25.9z"/>
<path class="st0" d="M36.4,47.2h9.1v1.5h-9.1V47.2z"/>
<path class="st0" d="M36.4,50.2h9.1v1.5h-9.1V50.2z"/>
<path class="st0" d="M36.4,53.2h9.1v1.5h-9.1V53.2z"/>
<path class="st0" d="M36.4,56.3h9.1v1.5h-9.1V56.3z"/>
<path class="st0" d="M36.4,32.7h6v1.5h-6V32.7z"/>
<path class="st0" d="M36.4,35.8h6v1.5h-6V35.8z"/>
<path class="st0" d="M36.4,38.8h6v1.5h-6V38.8z"/>
<path class="st0" d="M36.4,41.9h6v1.5h-6V41.9z"/>
<path class="st0" d="M22.8,22.9h19.7v1.5H22.8V22.9z"/>
</svg>
