<?xml version="1.0" encoding="utf-8"?>
<!-- Generator: Adobe Illustrator 23.0.2, SVG Export Plug-In . SVG Version: 6.00 Build 0)  -->
<svg version="1.1" id="Layer_1" xmlns="http://www.w3.org/2000/svg" xmlns:xlink="http://www.w3.org/1999/xlink" x="0px" y="0px"
	 viewBox="0 0 86.6 86.6" style="enable-background:new 0 0 86.6 86.6;" xml:space="preserve">
<style type="text/css">
	.st0{fill:#009A9B;}
	.st1{fill:#3B3B3B;}
</style>
<g>
	<path class="st0" d="M74,5.2H50.7c-3.1,0-5.7,2.5-5.7,5.7v21.7c0,3.1,2.5,5.7,5.7,5.7H74c3.1,0,5.7-2.5,5.7-5.7V10.9
		C79.7,7.7,77.2,5.2,74,5.2z M77.4,32.5c0,1.9-1.5,3.4-3.4,3.4H50.7c-1.9,0-3.4-1.5-3.4-3.4V10.9c0-1.9,1.5-3.4,3.4-3.4H74
		c1.9,0,3.4,1.5,3.4,3.4V32.5z"/>
	<path class="st0" d="M62.4,11.4c-5.7,0-10.3,4.6-10.3,10.3c0,5.7,4.6,10.3,10.3,10.3s10.3-4.6,10.3-10.3C72.6,16,68,11.4,62.4,11.4
		z M62.4,29.7c-4.4,0-8-3.6-8-8c0-4.4,3.6-8,8-8s8,3.6,8,8C70.4,26.1,66.8,29.7,62.4,29.7z"/>
	<path class="st0" d="M58.9,19c-0.6,0-1.1,0.5-1.1,1.1v3.1c0,0.6,0.5,1.1,1.1,1.1c0.6,0,1.1-0.5,1.1-1.1v-3.1
		C60,19.5,59.5,19,58.9,19z"/>
	<path class="st0" d="M65.9,19c-0.6,0-1.1,0.5-1.1,1.1v3.1c0,0.6,0.5,1.1,1.1,1.1c0.6,0,1.1-0.5,1.1-1.1v-3.1
		C67,19.5,66.5,19,65.9,19z"/>
	<path class="st1" d="M69,79.2H50.7c-2.6,0-4.7-2.1-4.7-4.7V62.3c0-3.3-2.7-6.1-6.1-6.1c-3.3,0-6.1,2.7-6.1,6.1v12.2
		c0,2.6-2.1,4.8-4.8,4.8c-2.6,0-4.8-2.1-4.8-4.8V61.6l0.4,0c1.7-0.1,3-1.5,3-3.2v-2h0.4c4.4,0,8-3.6,8-7.9v-9.7h2.2
		c0.7,0,1.3-0.6,1.3-1.3v-2.9c0-2.1-1.7-3.8-3.8-3.8h-3.3V19.4c0-1.9-1.6-3.5-3.5-3.5c-1.9,0-3.5,1.6-3.5,3.5v11.5H21V19.4
		c0-1.9-1.6-3.5-3.5-3.5c-1.9,0-3.5,1.6-3.5,3.5v11.5h-3.3c-2.1,0-3.8,1.7-3.8,3.8v2.9c0,0.7,0.6,1.3,1.3,1.3h2.2v9.7
		c0,4.4,3.6,7.9,7.9,7.9h0.4l0.1,0.4v1.6c0,1.7,1.3,3.1,3,3.2l0.4,0v12.9c0,3.9,3.1,7,7,7s7-3.1,7-7V62.3c0-2.1,1.7-3.8,3.8-3.8
		s3.8,1.7,3.8,3.8v12.2c0,3.8,3.1,7,7,7H69V79.2z M27.8,19.4c0-0.7,0.6-1.3,1.3-1.3c0.7,0,1.3,0.6,1.3,1.3v11.5h-2.6V19.4z
		 M16.2,19.4c0-0.7,0.6-1.3,1.3-1.3c0.7,0,1.3,0.6,1.3,1.3v11.5h-2.6V19.4z M18.3,54.2c-3.1,0-5.7-2.5-5.7-5.7v-9.7h8.4
		c0.6,0,1.1-0.5,1.1-1.1c0-0.6-0.5-1.1-1.1-1.1H9.2v-1.9c0-0.9,0.7-1.5,1.5-1.5h25.1c0.9,0,1.5,0.7,1.5,1.5v1.9h-4.3
		c-0.6,0-1.1,0.5-1.1,1.1c0,0.6,0.5,1.1,1.1,1.1h0.8v9.7c0,3.1-2.5,5.7-5.7,5.7H18.3z M21.9,59.3c-0.5,0-0.9-0.4-0.9-0.9v-2h4.5v2
		c0,0.5-0.4,0.9-0.9,0.9H21.9z"/>
	<path class="st1" d="M27.1,36.6c-0.6,0-1.1,0.5-1.1,1.1c0,0.6,0.5,1.1,1.1,1.1h0c0.6,0,1.1-0.5,1.1-1.1
		C28.2,37.1,27.7,36.6,27.1,36.6z"/>
</g>
</svg>
