<?xml version="1.0" encoding="utf-8"?>
<!-- Generator: Adobe Illustrator 24.0.1, SVG Export Plug-In . SVG Version: 6.00 Build 0)  -->
<svg version="1.1" id="Layer_1" xmlns="http://www.w3.org/2000/svg" xmlns:xlink="http://www.w3.org/1999/xlink" x="0px" y="0px"
	 viewBox="0 0 86.6 86.6" style="enable-background:new 0 0 86.6 86.6;" xml:space="preserve">
<style type="text/css">
	.st0{fill:#FFFFFF;}
	.st1{fill:#282828;}
</style>
<path class="st0" d="M66.8,56.7c0-1.3-1-2.3-2.3-2.3h-0.8v-0.8c0.5-0.7,0.8-1.5,0.8-2.3c0-1.2-0.6-2.4-1.5-3.1v-0.9
	c1.8-0.4,3.1-2,3.1-3.8c0-0.4-0.4-0.8-0.8-0.8H63c-0.2,0-0.4,0-0.6,0.1c0-0.1,0-0.2,0-0.3c0-0.9-0.3-1.6-0.9-2.2l-1.7-1.7
	c-0.3-0.3-0.8-0.3-1.1,0c-1.1,1-1.4,2.7-0.9,4.1h-1.9c-0.4,0-0.8,0.4-0.8,0.8c0,1.8,1.3,3.4,3.1,3.8v0.9c-1,0.7-1.5,1.9-1.5,3.1
	c0,0.9,0.2,1.7,0.8,2.3v0.8h-3.9v-4.7c0-0.4-0.4-0.8-0.8-0.8h-5.5c-1.3,0-2.3,1-2.3,2.3s1,2.3,2.3,2.3H48v0.8h-0.8
	c-1.3,0-2.3,1-2.3,2.3s1,2.3,2.3,2.3h1.3l-2.1,6.8c-0.1,0.4,0.1,0.9,0.6,1c0.4,0.1,0.9-0.1,1-0.6l2.2-7.3h11.4l2.2,7.3
	c0.1,0.4,0.6,0.7,1,0.6s0.7-0.6,0.6-1L63.1,59h1.3C65.8,59,66.8,58,66.8,56.7z M64.3,44.1c-0.3,0.9-1.2,1.5-2.2,1.5h-0.8
	c0-0.9,0.7-1.5,1.5-1.5H64.3z M59.3,40.2l1,1c0.3,0.3,0.4,0.7,0.4,1.1c0,0.4-0.2,0.8-0.4,1.1l-0.2-0.2l-0.4-0.4
	c-0.4-0.4-0.7-1-0.7-1.7C59.1,40.9,59.1,40.5,59.3,40.2z M56.7,44.1h1.4c0.3,0,0.6,0.1,0.9,0.2l0.5,0.5c0.2,0.2,0.2,0.6,0.2,0.9H59
	C58,45.7,57.1,45.1,56.7,44.1z M58.8,52.7c-0.4-0.6-0.7-1.2-0.6-1.9c0.1-0.7,0.6-1.3,1.1-1.7c0.2-0.1,0.4-0.4,0.4-0.7v-1.2h1.5v1.2
	c0,0.3,0.1,0.6,0.4,0.7c0.6,0.4,1,1,1.2,1.7c0.1,0.7-0.1,1.4-0.6,1.9C62.1,52.8,62,53,62,53.2v1h-3.1v-1.1
	C59,53.1,58.9,52.9,58.8,52.7z M47.3,52c-0.4,0-0.8-0.4-0.8-0.8s0.4-0.8,0.8-0.8h0.8v1.5L47.3,52L47.3,52z M49.6,50.4h2.3v3.9h-2.3
	V50.4z M46.5,56.7c0-0.4,0.4-0.8,0.8-0.8h17.2c0.4,0,0.8,0.4,0.8,0.8s-0.4,0.8-0.8,0.8H47.3C46.8,57.5,46.5,57.1,46.5,56.7z"/>
<path class="st1" d="M40.2,55.8c-0.1-1.7-1.5-3-3.3-3h-1.4v-2.3c0-2.2-1.7-3.9-3.9-3.9h-4.7c-0.4,0-0.8-0.4-0.8-0.8v-2.2
	c0.1-1.7-1.3-3.1-3-3.3c-0.9-0.1-1.7,0.2-2.3,0.9c-0.6,0.6-1,1.4-0.9,2.3v7.1v3.1v1.5c0,1.8,1.2,3.4,3,3.8l-1.4,7
	c-0.1,0.2,0,0.5,0.2,0.7c0.1,0.2,0.4,0.3,0.6,0.3h1.5c0.3,0,0.6-0.2,0.7-0.5l3-7.3h5.2l3,7.3c0.1,0.3,0.4,0.5,0.7,0.5h1.5
	c0.2,0,0.4-0.1,0.6-0.3c0.2-0.2,0.2-0.4,0.2-0.7l-1.5-7C38.9,59,40.3,57.5,40.2,55.8z M23.2,65.3L23.2,65.3l1.2-6.3h1.4L23.2,65.3z
	 M36.8,65.3L34.3,59h1.4L36.8,65.3L36.8,65.3z M38.2,57c-0.3,0.3-0.7,0.5-1.2,0.5H23.7c-1.3,0-2.3-1-2.3-2.3v-1.5v-3.1v-7.1
	c0-0.4,0.2-0.9,0.5-1.2s0.7-0.4,1.2-0.4c0.9,0.1,1.5,0.9,1.5,1.7v2.2c0,1.3,1,2.3,2.3,2.3h4.7c1.3,0,2.3,1,2.3,2.3v5.5
	c0,0.4,0.4,0.8,0.8,0.8c0.4,0,0.8-0.4,0.8-0.8v-1.5h1.4c0.9,0,1.6,0.6,1.7,1.5C38.6,56.3,38.5,56.7,38.2,57z"/>
<path class="st0" d="M41,30c0,1.3,1,2.3,2.3,2.3s2.3-1,2.3-2.3s-1-2.3-2.3-2.3S41,28.7,41,30z M44.1,30c0,0.4-0.4,0.8-0.8,0.8
	c-0.4,0-0.8-0.4-0.8-0.8s0.4-0.8,0.8-0.8C43.7,29.3,44.1,29.6,44.1,30z"/>
<path class="st0" d="M50.4,24.5h-2.8l-3.7-4.4c-0.1-0.2-0.4-0.3-0.6-0.3s-0.4,0.1-0.6,0.3L39,24.5h-2.8c-0.4,0-0.8,0.4-0.8,0.8v10.2
	v3.9c0,0.4,0.4,0.8,0.8,0.8h14.1c0.4,0,0.8-0.4,0.8-0.8v-8.6v-3.1v-2.3C51.1,24.9,50.8,24.5,50.4,24.5z M43.3,21.9l2.3,2.7h-4.5
	L43.3,21.9z M49.6,38.6H37V36l1.8-0.7c0.7-0.3,1.5-0.1,2,0.4c1.4,1.4,3.5,1.4,4.9,0c0.6-0.6,1.4-0.7,2-0.4l1.8,0.7L49.6,38.6
	L49.6,38.6z M49.6,27.7v3.1v3.6l-1.2-0.5c-1.3-0.5-2.8-0.2-3.8,0.8c-0.4,0.4-0.9,0.6-1.4,0.6s-1-0.2-1.4-0.6c-1-1-2.5-1.3-3.8-0.8
	l-1.2,0.5v-8.3h12.6v1.5L49.6,27.7L49.6,27.7z"/>
</svg>
