<?xml version="1.0" encoding="utf-8"?>
<!-- Generator: Adobe Illustrator 24.0.1, SVG Export Plug-In . SVG Version: 6.00 Build 0)  -->
<svg version="1.1" id="Layer_1" xmlns="http://www.w3.org/2000/svg" xmlns:xlink="http://www.w3.org/1999/xlink" x="0px" y="0px"
	 viewBox="0 0 86.6 86.6" style="enable-background:new 0 0 86.6 86.6;" xml:space="preserve">
<style type="text/css">
	.st0{fill:#FFFFFF;}
</style>
<path class="st0" d="M81.5,65c0-2.1-1.7-3.8-3.8-3.8h-1.3v-1.3c0.8-1.1,1.3-2.4,1.3-3.8c0-2-0.9-3.9-2.5-5.1v-1.4
	c3-0.6,5.1-3.2,5.1-6.2c0-0.7-0.6-1.3-1.3-1.3h-3.8c-0.3,0-0.6,0-0.9,0.1c0-0.2,0-0.3,0-0.5c0-1.4-0.5-2.6-1.5-3.6L70,35.4
	c-0.5-0.5-1.3-0.5-1.8,0c-1.8,1.7-2.3,4.4-1.5,6.7h-3.1c-0.7,0-1.3,0.6-1.3,1.3c0,3,2.1,5.6,5.1,6.2V51c-1.6,1.2-2.5,3.1-2.5,5.1
	c0,1.4,0.4,2.7,1.3,3.8v1.3h-6.4v-7.6c0-0.7-0.6-1.3-1.3-1.3h-8.9c-2.1,0-3.8,1.7-3.8,3.8s1.7,3.8,3.8,3.8h1.3v1.3h-1.3
	c-2.1,0-3.8,1.7-3.8,3.8c0,2.1,1.7,3.8,3.8,3.8h2.1l-3.4,11.1c-0.2,0.7,0.2,1.4,0.9,1.6s1.4-0.2,1.6-0.9l3.6-11.8h18.5l3.5,11.8
	c0.2,0.7,0.9,1.1,1.6,0.9s1.1-0.9,0.9-1.6l-3.4-11.1h2.1C79.8,68.8,81.5,67.1,81.5,65z M77.4,44.6c-0.5,1.5-2,2.5-3.6,2.5h-1.3
	c0-1.4,1.1-2.5,2.5-2.5H77.4z M69.3,38.3l1.7,1.6c0.5,0.5,0.7,1.1,0.7,1.8S71.4,43,71,43.5l-0.4-0.3L70,42.6
	c-0.7-0.7-1.1-1.7-1.1-2.7C68.9,39.4,69,38.8,69.3,38.3z M65.1,44.6h2.3c0.5,0,1,0.1,1.4,0.4l0.8,0.8c0.3,0.4,0.4,0.9,0.4,1.4h-1.3
	C67.1,47.2,65.7,46.2,65.1,44.6z M68.4,58.6c-0.7-0.9-1.1-2-0.9-3.1s0.9-2.1,1.8-2.7c0.4-0.2,0.6-0.7,0.6-1.1v-2h2.5v2
	c0,0.5,0.2,0.9,0.6,1.1c1,0.6,1.7,1.6,1.9,2.7c0.2,1.1-0.1,2.3-0.9,3.1c-0.2,0.2-0.3,0.5-0.3,0.8v1.7h-5.1v-1.8
	C68.7,59.1,68.6,58.9,68.4,58.6z M49.7,57.4c-0.7,0-1.3-0.6-1.3-1.3s0.6-1.3,1.3-1.3H51v2.5L49.7,57.4L49.7,57.4z M53.5,54.8h3.8
	v6.4h-3.8V54.8z M48.4,65c0-0.7,0.6-1.3,1.3-1.3h28c0.7,0,1.3,0.6,1.3,1.3s-0.6,1.3-1.3,1.3h-28C49,66.3,48.4,65.7,48.4,65z"/>
<path class="st0" d="M38.2,63.5c-0.2-2.8-2.5-4.9-5.3-4.8h-2.3v-3.8c0-3.5-2.8-6.4-6.4-6.4h-7.6c-0.7,0-1.3-0.6-1.3-1.3v-3.6
	c0.1-2.8-2.1-5.1-4.8-5.3c-1.4-0.1-2.8,0.4-3.8,1.4S5.1,42,5.2,43.4v11.5V60v2.5c0,2.9,2,5.5,4.8,6.2L7.7,80c-0.1,0.4,0,0.8,0.3,1.1
	c0.2,0.3,0.6,0.5,1,0.5h2.5c0.5,0,1-0.3,1.2-0.8l4.8-11.9h8.4l4.8,11.9c0.2,0.5,0.7,0.8,1.2,0.8h2.5c0.4,0,0.7-0.2,1-0.5
	s0.4-0.7,0.3-1.1l-2.3-11.2C36.2,68.7,38.4,66.3,38.2,63.5z M10.6,79h-0.1l2-10.2h2.2L10.6,79z M32.7,79l-4.1-10.2h2.2l2,10.2H32.7z
	 M35,65.5c-0.5,0.5-1.2,0.8-1.9,0.8H11.5c-2.1,0-3.8-1.7-3.8-3.8V60v-5.1V43.4c0-0.7,0.3-1.4,0.8-1.9s1.2-0.7,1.9-0.7
	c1.4,0.2,2.4,1.4,2.4,2.8v3.6c0,2.1,1.7,3.8,3.8,3.8h7.6c2.1,0,3.8,1.7,3.8,3.8v8.9c0,0.7,0.6,1.3,1.3,1.3c0.7,0,1.3-0.6,1.3-1.3
	v-2.5h2.3c1.4,0,2.6,1,2.8,2.4C35.7,64.3,35.5,65,35,65.5z"/>
<path class="st0" d="M39.5,21.7c0,2.1,1.7,3.8,3.8,3.8s3.8-1.7,3.8-3.8s-1.7-3.8-3.8-3.8C41.2,17.9,39.5,19.6,39.5,21.7z M44.6,21.7
	c0,0.7-0.6,1.3-1.3,1.3S42,22.4,42,21.7s0.6-1.3,1.3-1.3C44,20.5,44.6,21,44.6,21.7z"/>
<path class="st0" d="M54.8,12.8h-4.5l-6-7.2c-0.2-0.3-0.6-0.5-1-0.5s-0.7,0.2-1,0.5l-6,7.2h-4.5c-0.7,0-1.3,0.6-1.3,1.3v16.5V37
	c0,0.7,0.6,1.3,1.3,1.3h22.9c0.7,0,1.3-0.6,1.3-1.3V23v-5.1v-3.8C56,13.4,55.5,12.8,54.8,12.8z M43.3,8.5l3.7,4.4h-7.3L43.3,8.5z
	 M53.5,35.7H33.1v-4.2l2.9-1.2c1.1-0.5,2.4-0.2,3.3,0.7c2.2,2.2,5.7,2.2,7.9,0c0.9-0.9,2.2-1.1,3.3-0.7l2.9,1.2L53.5,35.7L53.5,35.7
	z M53.5,17.9V23v5.8l-2-0.8c-2.1-0.8-4.5-0.3-6.1,1.3c-0.6,0.6-1.4,0.9-2.2,0.9s-1.6-0.3-2.2-0.9c-1.6-1.6-4-2.1-6.1-1.3l-2,0.8
	V15.4h20.4v2.5H53.5z"/>
</svg>
