<?xml version="1.0" encoding="utf-8"?>
<!-- Generator: Adobe Illustrator 23.0.2, SVG Export Plug-In . SVG Version: 6.00 Build 0)  -->
<svg version="1.1" id="Layer_1" xmlns="http://www.w3.org/2000/svg" xmlns:xlink="http://www.w3.org/1999/xlink" x="0px" y="0px"
	 viewBox="0 0 86.6 86.6" style="enable-background:new 0 0 86.6 86.6;" xml:space="preserve">
<style type="text/css">
	.st0{fill:#3B3B3B;}
	.st1{fill:#009A9B;}
</style>
<g>
	<g>
		<path class="st0" d="M79.9,42.7h-8.7v-4h2.7c1.6,0,2.9-1.3,2.9-2.9V8.9c0-1.6-1.3-2.9-2.9-2.9H32.7c-1.6,0-2.9,1.3-2.9,2.9v9.7
			v0.6v16.6c0,1.6,1.3,2.9,2.9,2.9h14.9v4H22.4c2.4-2.4,2.7-6.3,2.7-9.6c0-0.6-0.5-1.1-1.1-1.1h-6v-2.1c3.5,0.8,7.4-2.2,7.4-5.8
			c0-0.5-0.1-1-0.5-1.3c-2.1-1.4-5-0.8-6.8,0.7v-2c3.2-2.2,3.4-7.3,0.4-9.7c-0.3-0.2-0.6-0.5-1-0.6c-1.6-0.6-3.3,2.1-3.6,3.2
			c-0.9,2.5-0.1,5.4,2.1,7.1v2.1c-1.4-1.2-3.3-1.7-5.1-1.4c-0.7,0.1-2.1,0.5-2.2,1.4c-0.7,3.9,3.7,7.2,7.3,6.4V32H9.4
			c-0.6,0-1.1,0.5-1.1,1.1c0,3.3,0.2,7.1,2.6,9.6H6.7c-0.6,0-1.1,0.5-1.1,1.1v34.9v1.6v1.1h2.2v-1.1v-1.6v-3.6h20v3.6v1.6v1.1H30
			v-1.1v-1.6V52.2h39.1c0,0.4,0,2.5,0,3.1H50.4c-4.4,0-7.6,1.1-9.6,3.4c-2.4,2.7-2.1,6-2.1,6.1c0.1,0.6,0.5,1,1.1,1h14.3v2h-4.3
			c-1.4,0-1.4,2.2,0,2.2h4.3v9.3H39.9c0,0,0,0,0,0h-1.1v2.2h2.7v0h13.3c0.1,0,0.3,0.1,0.4,0.1s0.3,0,0.4-0.1h13.5h1.3h1.3v-2.2h-1.3
			h-1.3H56.3V65.7h7.4c2.5,0,4.4-0.6,5.6-1.9c2.2-2.2,2.1-5.9,2-10.6c0-0.4,0-0.7,0-1.1h7.6v26.7v1.6v1.1H81v-1.1v-1.6v-35
			C81,43.2,80.5,42.7,79.9,42.7z M19.9,24.9c1.4-0.9,2.7-0.7,3.3-0.5c-0.2,2.3-3,4-5.1,3.2C18.1,27,18.5,25.7,19.9,24.9z M12.5,27.2
			c-0.9-0.6-1.7-1.6-1.8-2.8c2.2-0.8,4.8,0.9,5.1,3.2C14.7,28,13.5,27.8,12.5,27.2z M67.7,62.3c-0.8,0.8-2.1,1.2-4,1.2H40.9
			c0.1-0.9,0.4-2.2,1.5-3.4c1.6-1.8,4.3-2.6,8-2.6h18.7C69,59.6,68.7,61.3,67.7,62.3z M74.6,35.8c0,0.4-0.3,0.7-0.7,0.7h-2.7v-4h3.4
			V35.8z M32.7,36.5c-0.4,0-0.7-0.3-0.7-0.7v-3.3h29.9c-0.1,1.3-0.1,2.7,0,4H32.7z M62.1,38.7c0.2,1.5,0.5,2.8,0.9,4h-4v-4H62.1z
			 M56.8,38.7v4h-7.1v-4H56.8z M15.6,16.5c0-1.7,0.8-2.6,1.4-3c1.9,1.4,1.8,4.6,0,6.1C16.4,19.1,15.6,18.1,15.6,16.5z M10.5,34.2
			h12.4c-0.2,6-2,8.3-6.2,8.3C12.4,42.6,10.7,40.3,10.5,34.2z M7.8,52.2h20v9.3h-20V52.2z M7.8,72.9v-9.3h20v9.3H7.8z M7.8,50v-5
			h56.1c1.2,2.5,2.6,4.1,3.7,5H7.8z M69,48.2c-0.5-0.4-1.1-1.1-1.7-1.9c-2.2-2.9-3.3-7.1-3.3-12.1c0-5,1.1-9.1,3.3-11.9
			c0.6-0.8,1.2-1.4,1.7-1.8V48.2z M70.8,17.6c-0.3-0.2-0.7-0.3-1-0.1c-0.3,0.1-6.4,2.6-7.7,12.8H31.9V19.2c0,0,0,0,0,0V8.9
			c0-0.4,0.3-0.7,0.7-0.7h41.3c0.4,0,0.7,0.3,0.7,0.7v21.4h-3.4V18.5C71.3,18.2,71.1,17.8,70.8,17.6z M71.3,50v-5h7.6v5H71.3z"/>
		<path class="st0" d="M22,55.7h-8.4c-1.4,0-1.4,2.2,0,2.2H22C23.4,57.9,23.4,55.7,22,55.7z"/>
		<path class="st0" d="M22,67.2h-8.4c-1.4,0-1.4,2.2,0,2.2H22C23.4,69.4,23.4,67.2,22,67.2z"/>
	</g>
	<path class="st1" d="M25.1,33.1c0-0.6-0.5-1.1-1.1-1.1h-6v-2.1c3.5,0.8,7.4-2.2,7.4-5.8c0-0.5-0.1-1-0.5-1.3
		c-2.1-1.4-5-0.8-6.8,0.7v-2c3.2-2.2,3.4-7.3,0.4-9.7c-0.3-0.2-0.6-0.5-1-0.6c-1.6-0.6-3.3,2.1-3.6,3.2c-0.9,2.5-0.1,5.4,2.1,7.1
		v2.1c-1.4-1.2-3.3-1.7-5.1-1.4c-0.7,0.1-2.1,0.5-2.2,1.4c-0.7,3.9,3.7,7.2,7.3,6.4V32H9.4c-0.6,0-1.1,0.5-1.1,1.1
		c0,3.3,0.2,7.1,2.6,9.6h11.5C24.8,40.3,25.1,36.4,25.1,33.1z M19.9,24.9c1.4-0.9,2.7-0.7,3.3-0.5c-0.2,2.3-3,4-5.1,3.2
		C18.1,27,18.5,25.7,19.9,24.9z M12.5,27.2c-0.9-0.6-1.7-1.6-1.8-2.8c2.2-0.8,4.8,0.9,5.1,3.2C14.7,28,13.5,27.8,12.5,27.2z
		 M15.6,16.5c0-1.7,0.8-2.6,1.4-3c1.9,1.4,1.8,4.6,0,6.1C16.4,19.1,15.6,18.1,15.6,16.5z M16.7,42.6c-4.3,0-6-2.3-6.2-8.3h12.4
		C22.7,40.2,20.9,42.6,16.7,42.6z"/>
</g>
</svg>
