<?xml version="1.0" encoding="utf-8"?>
<!-- Generator: Adobe Illustrator 24.0.1, SVG Export Plug-In . SVG Version: 6.00 Build 0)  -->
<svg version="1.1" id="Layer_1" xmlns="http://www.w3.org/2000/svg" xmlns:xlink="http://www.w3.org/1999/xlink" x="0px" y="0px"
	 viewBox="0 0 86.6 86.6" style="enable-background:new 0 0 86.6 86.6;" xml:space="preserve">
<style type="text/css">
	.st0{fill:#FFFFFF;}
	.st1{fill:#282828;}
</style>
<g>
	<path class="st0" d="M66.1,43.1h-5.4v-2.5h1.7c1,0,1.8-0.8,1.8-1.8V22c0-1-0.8-1.8-1.8-1.8H36.7c-1,0-1.8,0.8-1.8,1.8v6v0.4v10.3
		c0,1,0.8,1.8,1.8,1.8H46V43H30.3c1.5-1.5,1.7-3.9,1.7-6c0-0.4-0.3-0.7-0.7-0.7h-3.7V35c2.2,0.5,4.6-1.4,4.6-3.6
		c0-0.3-0.1-0.6-0.3-0.8c-1.3-0.9-3.1-0.5-4.2,0.4v-1.2c2-1.4,2.1-4.6,0.2-6c-0.2-0.1-0.4-0.3-0.6-0.4c-1-0.4-2.1,1.3-2.2,2
		c-0.6,1.6-0.1,3.4,1.3,4.4v1.3c-0.9-0.7-2.1-1.1-3.2-0.9c-0.4,0.1-1.3,0.3-1.4,0.9c-0.4,2.4,2.3,4.5,4.6,4v1.2h-4.1
		c-0.4,0-0.7,0.3-0.7,0.7c0,2.1,0.1,4.4,1.6,6h-2.6c-0.4,0-0.7,0.3-0.7,0.7v21.8v1v0.7h1.4v-0.7v-1v-2.2h12.5v2.2v1v0.7H35v-0.7v-1
		V49h24.4c0,0.2,0,1.6,0,1.9H47.7c-2.7,0-4.7,0.7-6,2.1c-1.5,1.7-1.3,3.7-1.3,3.8c0.1,0.4,0.3,0.6,0.7,0.6H50v1.2h-2.7
		c-0.9,0-0.9,1.4,0,1.4H50v5.8h-8.9l0,0h-0.7v1.4h1.7l0,0h8.3c0.1,0,0.2,0.1,0.2,0.1c0.1,0,0.2,0,0.2-0.1h8.4H60h1v-1.4h-0.8h-0.8
		h-8v-8.5H56c1.6,0,2.7-0.4,3.5-1.2c1.4-1.4,1.3-3.7,1.2-6.6c0-0.2,0-0.4,0-0.7h4.7v16.6v1v0.7h1.3v-0.7v-1V43.8
		C66.8,43.4,66.5,43.1,66.1,43.1z M28.7,32c0.9-0.6,1.7-0.4,2.1-0.3c-0.1,1.4-1.9,2.5-3.2,2C27.6,33.3,27.8,32.5,28.7,32z
		 M24.1,33.5c-0.6-0.4-1.1-1-1.1-1.7c1.4-0.5,3,0.6,3.2,2C25.5,34,24.7,33.8,24.1,33.5z M58.5,55.3C58,55.8,57.2,56,56,56H41.8
		c0.1-0.6,0.2-1.4,0.9-2.1c1-1.1,2.7-1.6,5-1.6h11.7C59.3,53.6,59.1,54.7,58.5,55.3z M62.8,38.8c0,0.2-0.2,0.4-0.4,0.4h-1.7v-2.5
		h2.1C62.8,36.8,62.8,38.8,62.8,38.8z M36.7,39.2c-0.2,0-0.4-0.2-0.4-0.4v-2.1h18.6c-0.1,0.8-0.1,1.7,0,2.5H36.7z M55,40.6
		c0.1,0.9,0.3,1.7,0.6,2.5h-2.5v-2.5H55z M51.7,40.6v2.5h-4.4v-2.5H51.7z M26,26.8c0-1.1,0.5-1.6,0.9-1.9c1.2,0.9,1.1,2.9,0,3.8
		C26.5,28.4,26,27.8,26,26.8z M22.9,37.8h7.7c-0.1,3.7-1.2,5.2-3.9,5.2C24,43.1,23,41.6,22.9,37.8z M21.2,49h12.5v5.8H21.2V49z
		 M21.2,61.9v-5.8h12.5v5.8H21.2z M21.2,47.7v-3.1h35c0.7,1.6,1.6,2.6,2.3,3.1H21.2z M59.3,46.5c-0.3-0.2-0.7-0.7-1.1-1.2
		c-1.4-1.8-2.1-4.4-2.1-7.5s0.7-5.7,2.1-7.4c0.4-0.5,0.7-0.9,1.1-1.1V46.5z M60.4,27.5c-0.2-0.1-0.4-0.2-0.6-0.1
		c-0.2,0.1-4,1.6-4.8,8H36.2v-6.9l0,0V22c0-0.2,0.2-0.4,0.4-0.4h25.7c0.2,0,0.4,0.2,0.4,0.4v13.3h-2.1V28
		C60.8,27.8,60.6,27.6,60.4,27.5z M60.8,47.7v-3.1h4.7v3.1H60.8z"/>
	<path class="st0" d="M30,51.2h-5.2c-0.9,0-0.9,1.4,0,1.4H30C30.9,52.6,30.9,51.2,30,51.2z"/>
	<path class="st0" d="M30,58.4h-5.2c-0.9,0-0.9,1.4,0,1.4H30C30.9,59.8,30.9,58.4,30,58.4z"/>
</g>
<path class="st1" d="M32,37.1c0-0.4-0.3-0.7-0.7-0.7h-3.7v-1.3c2.2,0.5,4.6-1.4,4.6-3.6c0-0.3-0.1-0.6-0.3-0.8
	c-1.3-0.9-3.1-0.5-4.2,0.4v-1.2c2-1.4,2.1-4.6,0.2-6c-0.2-0.1-0.4-0.3-0.6-0.4c-1-0.4-2.1,1.3-2.2,2c-0.6,1.6-0.1,3.4,1.3,4.4v1.3
	c-0.9-0.7-2.1-1.1-3.2-0.9c-0.4,0.1-1.3,0.3-1.4,0.9c-0.4,2.4,2.3,4.5,4.6,4v1.2h-4.1c-0.4,0-0.7,0.3-0.7,0.7c0,2.1,0.1,4.4,1.6,6
	h7.2C31.8,41.6,32,39.2,32,37.1z M28.7,32c0.9-0.6,1.7-0.4,2.1-0.3c-0.1,1.4-1.9,2.5-3.2,2C27.6,33.3,27.8,32.5,28.7,32z M24.1,33.5
	c-0.6-0.4-1.1-1-1.1-1.7c1.4-0.5,3,0.6,3.2,2C25.5,34,24.7,33.8,24.1,33.5z M26,26.8c0-1.1,0.5-1.6,0.9-1.9c1.2,0.9,1.1,2.9,0,3.8
	C26.5,28.4,26,27.8,26,26.8z M26.7,43.1c-2.7,0-3.7-1.4-3.9-5.2h7.7C30.5,41.6,29.3,43.1,26.7,43.1z"/>
</svg>
