<?xml version="1.0" encoding="utf-8"?>
<!-- Generator: Adobe Illustrator 23.0.2, SVG Export Plug-In . SVG Version: 6.00 Build 0)  -->
<svg version="1.1" id="Layer_1" xmlns="http://www.w3.org/2000/svg" xmlns:xlink="http://www.w3.org/1999/xlink" x="0px" y="0px"
	 viewBox="0 0 86.6 86.6" style="enable-background:new 0 0 86.6 86.6;" xml:space="preserve">
<style type="text/css">
	.st0{fill:none;}
	.st1{fill:#009A9B;}
	.st2{fill:#3B3B3B;}
</style>
<line class="st0" x1="54" y1="78.7" x2="54.1" y2="78.7"/>
<g id="Outline">
	<path class="st1" d="M33.2,35.7h2.5v2.5h-2.5V35.7z"/>
	<path class="st1" d="M23,35.7h2.5v2.5H23V35.7z"/>
	<path class="st1" d="M49.7,52.2h2.5v2.5h-2.5V52.2z"/>
	<path class="st1" d="M59.8,52.2h2.5v2.5h-2.5V52.2z"/>
	<path class="st1" d="M64.9,63.6v-2.5h2.5c0.7,0,1.3-0.6,1.3-1.3V42c0-0.7-0.6-1.3-1.3-1.3h-6.1l1-4.8c0.1-0.7-0.3-1.4-1-1.5
		c-0.1,0-0.2,0-0.2,0h-1l1-4.8l-2.5-0.5l-1.1,5.3h-3l-1.1-5.3L51,29.6l1,4.8h-1c-0.7,0-1.3,0.6-1.3,1.3c0,0.1,0,0.2,0,0.2l1,4.8
		h-4.8V14.1c0-0.7-0.6-1.3-1.3-1.3H14.1c-0.7,0-1.3,0.6-1.3,1.3v45.7c0,0.7,0.6,1.3,1.3,1.3h3.8v2.5h2.5v-2.5h17.8v2.5h2.5v-2.5h7.6
		v2.5h2.5v-2.5h11.4v2.5H64.9z M15.4,15.4h12.7v43.2H15.4V15.4z M43.3,58.5H30.6V15.4h12.7V58.5z M57.3,58.5V48.4h8.9v10.2H57.3z
		 M54.7,58.5h-8.9V48.4h8.9V58.5z M52.5,36.9h7.1l-0.8,3.8h-5.5L52.5,36.9z M66.2,43.3v2.5H45.9v-2.5H66.2z"/>
	<path class="st2" d="M68.7,14.1c0-0.7-0.6-1.3-1.3-1.3H50.9c-0.7,0-1.3,0.6-1.3,1.3v10.2c0,0.7,0.6,1.3,1.3,1.3h16.5
		c0.7,0,1.3-0.6,1.3-1.3V14.1z M66.2,23h-14v-7.6h14V23z"/>
	<path class="st2" d="M73.8,78.9H19.2V68.7c0-0.7-0.6-1.3-1.3-1.3H7.8V7.7h66v54.6h2.5V6.5c0-0.7-0.6-1.3-1.3-1.3H6.5
		c-0.7,0-1.3,0.6-1.3,1.3v62.2c0,0.3,0.1,0.7,0.4,0.9L17,81c0.2,0.2,0.6,0.4,0.9,0.4h57.2c0.7,0,1.3-0.6,1.3-1.3V75h-2.5V78.9z
		 M16.6,77.1L9.6,70h7.1V77.1z"/>
	<path class="st2" d="M81.4,68.5c-0.1-2.1-1.9-3.7-4-3.6c0,0,0,0,0,0l-50.7,2.6c-0.3,0-0.7,0.2-0.9,0.4l-2.4,2.7
		c-0.5,0.5-0.4,1.3,0.1,1.8c0,0,0,0,0,0l2.7,2.4c0.2,0.2,0.5,0.3,0.9,0.3c0,0,0,0,0.1,0l50.7-2.6C79.9,72.4,81.5,70.6,81.4,68.5z
		 M26.1,71.3l1.2-1.3l3.3-0.2l0.1,2.5l-3.3,0.2L26.1,71.3z M78.5,69.6C78.3,69.8,78,70,77.6,70l-44.4,2.2l-0.1-2.5l44.4-2.2
		c0.7,0,1.3,0.5,1.3,1.2C78.9,69,78.7,69.3,78.5,69.6L78.5,69.6z"/>
</g>
</svg>
