<?xml version="1.0" encoding="utf-8"?>
<!-- Generator: Adobe Illustrator 24.0.1, SVG Export Plug-In . SVG Version: 6.00 Build 0)  -->
<svg version="1.1" id="Layer_1" xmlns="http://www.w3.org/2000/svg" xmlns:xlink="http://www.w3.org/1999/xlink" x="0px" y="0px"
	 viewBox="0 0 86.6 86.6" style="enable-background:new 0 0 86.6 86.6;" xml:space="preserve">
<style type="text/css">
	.st0{fill:#FFFFFF;}
</style>
<line class="st0" x1="54" y1="78.7" x2="54.1" y2="78.7"/>
<g>
	<g>
		<g>
			<path class="st0" d="M75.1,10.4h-8.9V9.1c0-2.1-1.7-3.8-3.8-3.8c-2.1,0-3.8,1.7-3.8,3.8v1.3H28.1V9.1c0-2.1-1.7-3.8-3.8-3.8
				S20.4,7,20.4,9.1v1.3h-8.9c-3.5,0-6.4,2.8-6.4,6.4v58.4c0,3.5,2.8,6.4,6.4,6.4H75c3.5,0,6.4-2.8,6.4-6.4V16.7
				C81.4,13.2,78.6,10.4,75.1,10.4z M61.1,9.1c0-0.7,0.6-1.3,1.3-1.3s1.3,0.6,1.3,1.3v10.2c0,0.7-0.6,1.3-1.3,1.3s-1.3-0.6-1.3-1.3
				V9.1z M58.5,19.3c0,2.1,1.7,3.7,3.8,3.7c2.1,0,3.8-1.7,3.8-3.7c1.5,0.3,2.5,1.6,2.5,3.1c0,1.8-1.4,3.2-3.2,3.2H59
				c-1.8,0-3.2-1.4-3.2-3.2C56,20.9,57.1,19.6,58.5,19.3z M23,9.1c0-0.7,0.6-1.3,1.3-1.3c0.7,0,1.3,0.6,1.3,1.3v10.2
				c0,0.7-0.6,1.3-1.3,1.3c-0.7,0-1.3-0.6-1.3-1.3V9.1z M20.4,19.3c0,2.1,1.7,3.7,3.8,3.7s3.8-1.7,3.8-3.7c1.5,0.3,2.5,1.6,2.5,3.1
				c0,1.8-1.4,3.2-3.2,3.2h-6.4c-1.8,0-3.2-1.4-3.2-3.2C17.9,20.9,19,19.6,20.4,19.3z M78.9,75.1c0,2.1-1.7,3.8-3.8,3.8H11.5
				c-2.1,0-3.8-1.7-3.8-3.8V33.2h71.1v41.9H78.9z M78.9,30.7H7.7v-14c0-2.1,1.7-3.8,3.8-3.8h8.9v3.9c-2.9,0.3-5.1,2.7-5.1,5.7
				c0,3.2,2.6,5.7,5.7,5.7h6.4c3.2,0,5.7-2.6,5.7-5.7c0-2.9-2.2-5.3-5.1-5.7v-3.9h30.5v3.9c-2.9,0.3-5.1,2.7-5.1,5.7
				c0,3.2,2.6,5.7,5.7,5.7h6.4c3.2,0,5.7-2.6,5.7-5.7c0-2.9-2.2-5.3-5.1-5.7v-3.9H75c2.1,0,3.8,1.7,3.8,3.8L78.9,30.7L78.9,30.7z"/>
		</g>
	</g>
	<g>
		<g>
			<rect x="20.4" y="35.8" class="st0" width="2.5" height="2.5"/>
		</g>
	</g>
	<g>
		<g>
			<rect x="15.4" y="35.8" class="st0" width="2.5" height="2.5"/>
		</g>
	</g>
	<g>
		<g>
			<rect x="10.3" y="35.8" class="st0" width="2.5" height="2.5"/>
		</g>
	</g>
	<g>
		<g>
			<path class="st0" d="M74,65l-7.6-1.3c-0.4-0.1-0.8,0.1-1.1,0.4L64.4,65H47.1v-2.5c0-0.7-0.6-1.3-1.3-1.3h-5.2
				c-0.4,0-0.7,0.1-0.9,0.4l-1.5,1.6l-1.8-1.7c-0.2-0.2-0.5-0.3-0.9-0.3H12.8c-0.7,0-1.3,0.6-1.3,1.3v12.7c0,0.7,0.6,1.3,1.3,1.3
				h22.9c0.3,0,0.7-0.1,0.9-0.4l1.6-1.6l1.6,1.6c0.2,0.2,0.6,0.4,0.9,0.4h5.1c0.7,0,1.3-0.6,1.3-1.3v-2.5h17.3l0.9,0.9
				c0.2,0.2,0.6,0.4,0.9,0.4c0.1,0,0.1,0,0.2,0l7.6-1.3c0.6-0.1,1.1-0.6,1.1-1.3v-5.1C75.1,65.6,74.6,65.1,74,65z M44.6,66.3v5.1
				v2.5h-3.3l-2.2-2.2c-0.5-0.5-1.3-0.5-1.8,0l-2.2,2.2h-21V63.7H35l2.3,2.2c0.2,0.2,0.6,0.4,0.9,0.3c0.3,0,0.7-0.2,0.9-0.4l2-2.1
				h3.4L44.6,66.3L44.6,66.3z M72.5,70.3l-5.9,1l-0.8-0.8c-0.2-0.2-0.6-0.4-0.9-0.4H47.1v-2.5h17.8c0.3,0,0.7-0.1,0.9-0.4l0.8-0.8
				l5.9,1V70.3z"/>
		</g>
	</g>
	<g>
		<g>
			<path class="st0" d="M72.5,52.3h-8.3l-2.9-3.8l2.9-3.8h8.3c0.5,0,0.9-0.3,1.1-0.7s0.2-1-0.2-1.3l-5.1-6.4c-0.2-0.3-0.6-0.5-1-0.5
				h-7.6c-0.3,0-0.7,0.1-0.9,0.4l-7.2,7.2H15.4c-2.8,0-5.1,2.3-5.1,5.1s2.3,5.1,5.1,5.1h36.3l7.2,7.2c0.2,0.2,0.6,0.4,0.9,0.4h7.6
				c0.4,0,0.8-0.2,1-0.5l5.1-6.4c0.3-0.4,0.4-0.9,0.2-1.3C73.4,52.6,73,52.3,72.5,52.3z M66.8,58.6h-6.5l-7.2-7.2
				c-0.2-0.2-0.6-0.4-0.9-0.4H15.4c-1.4,0-2.5-1.1-2.5-2.5S14,46,15.4,46h36.8c0.3,0,0.7-0.1,0.9-0.4l7.2-7.2h6.5l3,3.8h-6.2
				c-0.4,0-0.8,0.2-1,0.5l-3.8,5.1c-0.3,0.5-0.3,1.1,0,1.5l3.8,5.1c0.2,0.3,0.6,0.5,1,0.5h6.2L66.8,58.6z"/>
		</g>
	</g>
</g>
</svg>
