<?xml version="1.0" encoding="utf-8"?>
<!-- Generator: Adobe Illustrator 24.0.1, SVG Export Plug-In . SVG Version: 6.00 Build 0)  -->
<svg version="1.1" id="Layer_1" xmlns="http://www.w3.org/2000/svg" xmlns:xlink="http://www.w3.org/1999/xlink" x="0px" y="0px"
	 viewBox="0 0 86.6 86.6" style="enable-background:new 0 0 86.6 86.6;" xml:space="preserve">
<style type="text/css">
	.st0{fill:#FFFFFF;}
</style>
<path class="st0" d="M81.4,8.9c0-2-1.7-3.7-3.7-3.7H26.1c-2,0-3.7,1.7-3.7,3.7c0,1.6,1,3,2.5,3.5v28.5c0,3.4,2.8,6.1,6.1,6.1h19.7
	v7.5C48.6,55.1,47,57,47,59.3c0,2.7,2.2,4.9,4.9,4.9s4.9-2.2,4.9-4.9c0-2.3-1.6-4.2-3.7-4.7V47h19.7c3.4,0,6.1-2.8,6.1-6.1V12.3
	C80.4,11.8,81.4,10.5,81.4,8.9z M54.4,59.3c0,1.4-1.1,2.5-2.5,2.5s-2.5-1.1-2.5-2.5s1.1-2.5,2.5-2.5C53.3,56.8,54.4,57.9,54.4,59.3z
	 M72.8,44.5H31c-2,0-3.7-1.7-3.7-3.7V12.6h49.2v28.3C76.5,42.9,74.8,44.5,72.8,44.5z M77.7,10.1H26.1c-0.7,0-1.2-0.6-1.2-1.2
	s0.6-1.2,1.2-1.2h51.6c0.7,0,1.2,0.6,1.2,1.2S78.4,10.1,77.7,10.1z"/>
<path class="st0" d="M60.7,22.4h-0.5c-1.8,0-3.5,1-4.3,2.7l-3.6,7.2l-4.6-11.7c-0.7-1.9-2.5-3.1-4.5-3.1s-3.8,1.2-4.5,3.1l-8.4,21.5
	h17h3.2h22.9l-8.5-17C64.2,23.4,62.6,22.4,60.7,22.4L60.7,22.4z M34,39.6l7.1-18.2c0.4-0.9,1.2-1.5,2.2-1.5s1.9,0.6,2.2,1.5
	l5.4,13.8l-2.2,4.4H34z M51.4,39.6l6.7-13.4c0.4-0.8,1.2-1.3,2.1-1.3h0.5c0.9,0,1.7,0.5,2.1,1.3l6.7,13.4H51.4z"/>
<path class="st0" d="M70.3,15c-2,0-3.7,1.7-3.7,3.7s1.7,3.7,3.7,3.7s3.7-1.7,3.7-3.7S72.4,15,70.3,15z M70.3,19.9
	c-0.7,0-1.2-0.6-1.2-1.2c0-0.7,0.6-1.2,1.2-1.2s1.2,0.6,1.2,1.2C71.6,19.4,71,19.9,70.3,19.9z"/>
<path class="st0" d="M38.4,49.4H8.9c-2,0-3.7,1.7-3.7,3.7V58c0,2,1.7,3.7,3.7,3.7h6.4L5.7,76.6c-0.3,0.5-0.5,1.1-0.5,1.7
	c0,1.7,1.4,3.1,3.1,3.1h2c1.1,0,2.1-0.5,2.7-1.5l7-11.2v9.5c0,1.7,1.4,3.1,3.1,3.1h1.1c1.7,0,3.1-1.4,3.1-3.1v-9.5l7,11.2
	c0.6,0.9,1.6,1.5,2.7,1.5h2c1.7,0,3.1-1.4,3.1-3.1c0-0.6-0.2-1.2-0.5-1.7L32,61.7h6.4c2,0,3.7-1.7,3.7-3.7v-4.9
	C42.1,51.1,40.4,49.4,38.4,49.4L38.4,49.4z M7.7,58v-4.9c0-0.7,0.6-1.2,1.2-1.2h16.2c-0.1,0.4-0.2,0.8-0.2,1.2V58
	c0,0.4,0.1,0.8,0.2,1.2H8.9C8.2,59.3,7.7,58.7,7.7,58z M10.9,78.6c-0.1,0.2-0.3,0.3-0.6,0.3h-2c-0.4,0-0.7-0.3-0.7-0.7
	c0-0.1,0-0.3,0.1-0.4l10.4-16.2h1.8V64L10.9,78.6z M24.2,78.9h-1.1c-0.4,0-0.7-0.3-0.7-0.7V61.7h2.5v16.5
	C24.9,78.6,24.6,78.9,24.2,78.9L24.2,78.9z M39.5,77.9c0.1,0.1,0.1,0.2,0.1,0.4c0,0.4-0.3,0.7-0.7,0.7h-2c-0.2,0-0.4-0.1-0.6-0.3
	l-9.1-14.5v-2.4H29L39.5,77.9z M39.6,58c0,0.7-0.6,1.2-1.2,1.2h-9.8c-0.7,0-1.2-0.6-1.2-1.2v-4.9c0-0.7,0.6-1.2,1.2-1.2h9.8
	c0.7,0,1.2,0.6,1.2,1.2V58z"/>
<path class="st0" d="M34.7,54.4h2.5v2.5h-2.5V54.4z"/>
<path class="st0" d="M29.8,54.4h2.5v2.5h-2.5V54.4z"/>
<path class="st0" d="M29.8,15h2.5v2.5h-2.5V15z"/>
<path class="st0" d="M34.7,15h2.5v2.5h-2.5V15z"/>
</svg>
