<?xml version="1.0" encoding="utf-8"?>
<!-- Generator: Adobe Illustrator 24.0.1, SVG Export Plug-In . SVG Version: 6.00 Build 0)  -->
<svg version="1.1" id="Layer_1" xmlns="http://www.w3.org/2000/svg" xmlns:xlink="http://www.w3.org/1999/xlink" x="0px" y="0px"
	 viewBox="0 0 86.6 86.6" style="enable-background:new 0 0 86.6 86.6;" xml:space="preserve">
<style type="text/css">
	.st0{fill:#009A9B;}
	.st1{fill:#FFFFFF;}
</style>
<path class="st0" d="M64.4,19.8H22.2c-1.3,0-2.3,1-2.4,2.3v42.3c0,1.3,1,2.3,2.3,2.3h42.3c1.3,0,2.3-1,2.3-2.3V22.2
	C66.8,20.9,65.7,19.8,64.4,19.8z M65.2,64.5c0,0.4-0.4,0.8-0.8,0.8H22.2c-0.4,0-0.8-0.4-0.8-0.8V22.2c0-0.4,0.4-0.8,0.8-0.8h42.3
	c0.4,0,0.8,0.4,0.8,0.8L65.2,64.5L65.2,64.5z"/>
<path class="st0" d="M62.9,23H23.7c-0.4,0-0.8,0.4-0.8,0.8V63c0,0.4,0.4,0.8,0.8,0.8h39.2c0.4,0,0.8-0.4,0.8-0.8V23.8
	C63.7,23.4,63.3,23,62.9,23z M47.2,24.5h8.6v1.5h-8.6V24.5z M51.1,49.6h-7.8v-3.1h7.8V49.6z M55.8,51.2v3.1h-7
	c-1.8-0.9-3.6-1.9-5.3-3.1H55.8z M37.3,44.9c-0.1,0-0.2,0-0.3,0.1c-0.8-1-1.5-2.1-2.2-3.2h10.8v3.1C45.6,44.9,37.3,44.9,37.3,44.9z
	 M41.7,46.5v3.3c-1.2-1-2.3-2.2-3.4-3.3H41.7z M35.5,32.4v3.1h-3.6c-0.4-1-0.7-2.1-0.9-3.1H35.5z M30.6,30.8c-0.2-1-0.4-2.1-0.4-3.1
	h2.2v3.1C32.3,30.8,30.6,30.8,30.6,30.8z M41.7,30.8h-7.9v-3.1h7.8L41.7,30.8L41.7,30.8z M45.6,32.4v3.1H37v-3.1H45.6z M41.7,37.1
	v3.1h-7.8c0,0,0,0-0.1,0c-0.6-1-1-2.1-1.5-3.1H41.7z M47.2,44.9v-3.1h8.6v3.1H47.2z M51.1,40.2h-7.8v-3.1h7.8V40.2z M47.2,35.5v-3.1
	h8.6v3.1H47.2z M51.1,30.8h-7.8v-3.1h7.8V30.8z M37,24.5h8.6v1.5H37V24.5z M35.5,24.5v1.5H30c0-0.5-0.1-1-0.1-1.5
	C30,24.5,35.5,24.5,35.5,24.5z M62.1,62.2H24.5V24.6h3.9c0,1,0.1,2.2,0.1,3.2c0.1,1.6,0.4,3.2,0.8,4.8c0,0.1,0,0.1,0.1,0.1
	c0.4,1.6,0.9,3.2,1.5,4.7c0.7,1.7,1.5,3.3,2.4,4.8c1,1.7,2.2,3.3,3.4,4.8c1.5,1.8,3.2,3.4,5.1,4.8c5.9,4.5,12.9,7,20.3,7.1
	L62.1,62.2L62.1,62.2z M62.1,57.4c-3.1-0.1-6.3-0.6-9.3-1.5h9.3V57.4z M62.1,54.3h-4.7v-3.1h4.7V54.3z M62.1,49.6h-9.4v-3.1h9.4
	L62.1,49.6L62.1,49.6z M62.1,44.9h-4.7v-3.1h4.7V44.9z M62.1,40.2h-9.4v-3.1h9.4L62.1,40.2L62.1,40.2z M62.1,35.5h-4.7v-3.1h4.7
	V35.5z M62.1,30.8h-9.4v-3.1h9.4L62.1,30.8L62.1,30.8z M62.1,26.1h-4.7v-1.5h4.7V26.1z"/>
<path class="st1" d="M62.9,23H28.8c-0.1,0.7-0.3,1.4-0.4,2c0,0.9,0.1,1.8,0.1,2.8c0.1,1.6,0.4,3.2,0.8,4.8c0,0.1,0,0.1,0.1,0.1
	c0.4,1.6,0.9,3.2,1.5,4.7c0.7,1.7,1.5,3.3,2.4,4.8c1,1.7,2.2,3.3,3.4,4.8c1.5,1.8,3.2,3.4,5.1,4.8c5.9,4.5,12.9,7,20.3,7.1v0.1
	c0.6-0.1,1-0.2,1.5-0.2V23.8C63.7,23.4,63.3,23,62.9,23z M47.2,24.5h8.6v1.5h-8.6V24.5z M51.1,40.2h-7.8v-3.1h7.8V40.2z M55.8,41.8
	v3.1h-8.6v-3.1H55.8z M37,32.4h8.6v3.1H37V32.4z M33.9,30.8v-3.1h7.8v3.1H33.9z M47.2,35.5v-3.1h8.6v3.1H47.2z M51.1,30.8h-7.8v-3.1
	h7.8V30.8z M37,24.5h8.6v1.5H37V24.5z M30,24.5h5.5v1.5H30C30,25.6,30,25.1,30,24.5z M30.6,30.8c-0.2-1-0.4-2.1-0.4-3.1h2.2v3.1
	H30.6z M30.9,32.4h4.6v3.1h-3.6C31.5,34.5,31.1,33.5,30.9,32.4z M33.9,40.2c-0.6-1-1-2.1-1.5-3.1h9.3v3.1H33.9L33.9,40.2z
	 M41.7,49.8c-1.2-1-2.3-2.2-3.4-3.3h3.4V49.8z M37.3,44.9c-0.1,0-0.2,0-0.3,0.1c-0.8-1-1.5-2.1-2.2-3.2h10.8v3.1
	C45.6,44.9,37.3,44.9,37.3,44.9z M43.3,46.5h7.8v3.1h-7.8V46.5z M43.5,51.2h12.3v3.1h-7.1C46.9,53.4,45.1,52.4,43.5,51.2z
	 M62.1,57.4c-3.1-0.1-6.3-0.6-9.3-1.5h9.3V57.4z M62.1,54.3h-4.7v-3.1h4.7V54.3z M62.1,49.6h-9.4v-3.1h9.4L62.1,49.6L62.1,49.6z
	 M62.1,44.9h-4.7v-3.1h4.7V44.9z M62.1,40.2h-9.4v-3.1h9.4L62.1,40.2L62.1,40.2z M62.1,35.5h-4.7v-3.1h4.7V35.5z M62.1,30.8h-9.4
	v-3.1h9.4L62.1,30.8L62.1,30.8z M62.1,26.1h-4.7v-1.5h4.7V26.1z"/>
</svg>
