<?xml version="1.0" encoding="utf-8"?>
<!-- Generator: Adobe Illustrator 24.0.1, SVG Export Plug-In . SVG Version: 6.00 Build 0)  -->
<svg version="1.1" id="Layer_1" xmlns="http://www.w3.org/2000/svg" xmlns:xlink="http://www.w3.org/1999/xlink" x="0px" y="0px"
	 viewBox="0 0 86.6 86.6" style="enable-background:new 0 0 86.6 86.6;" xml:space="preserve">
<style type="text/css">
	.st0{fill:#282828;}
	.st1{fill:#FFFFFF;}
</style>
<path class="st0" d="M55.9,37.5h-9.2c-0.5,0-0.9,0.3-0.9,0.9v3.4c0,0.5,0.3,0.9,0.9,0.9h0.9v4.9c0,3.1-2.9,5.9-6.2,5.9H35v-0.9
	c0-0.5-0.3-0.9-0.9-0.9h-3.4c-0.5,0-0.9,0.3-0.9,0.9v9.2c0,0.5,0.3,0.9,0.9,0.9h3.4c0.5,0,0.9-0.3,0.9-0.9V61h6.4
	C48.8,61,55,54.9,55,47.5v-4.9h0.9c0.5,0,0.9-0.3,0.9-0.9v-3.4C56.7,37.8,56.4,37.5,55.9,37.5z M33.2,61h-1.6v-7.6h1.6v0.9v5.9V61z
	 M53.4,47.5c0,6.5-5.5,11.8-12.1,11.8h-6.4V55h6.4c4.2,0,7.8-3.5,7.8-7.7v-4.9h4.2L53.4,47.5L53.4,47.5z M55,40.9h-0.9h-5.9h-0.9
	v-1.7H55V40.9L55,40.9z"/>
<path class="st1" d="M66.2,36.7L46.9,19.6c-2-1.9-5.2-1.9-7.2,0l-6.5,5.9v-2.2h1.6v-5.1H23.2v5h1.6v9.6l-4.4,3.8
	c-0.6,0.6-0.7,1.3-0.5,2.1c0.3,0.7,1,1.2,1.8,1.2h3.2v23.5h-1.6v5H62h0.7h0.9v-5.1h-0.9H62h-0.2V39.9H65c0.9,0,1.5-0.4,1.8-1.2
	C66.9,38.1,66.8,37.2,66.2,36.7z M65.1,38.2c-0.1,0.1-0.2,0.1-0.2,0.1h-4c-0.5,0-0.9,0.4-0.9,0.9v25.1c0,0.5,0.4,0.9,0.9,0.9h0.9
	v1.7h-37v-1.6h0.9c0.5,0,0.9-0.4,0.9-0.9V39.1c0-0.5-0.4-0.9-0.9-0.9h-4c-0.1,0-0.2,0-0.2-0.1s0-0.2,0.1-0.3l4.7-4
	c0.2-0.2,0.3-0.4,0.3-0.7V22.4c0-0.5-0.4-0.9-0.9-0.9h-0.9v-1.6h8.4v1.6h-0.9c-0.5,0-0.9,0.4-0.9,0.9v5c0,0.3,0.2,0.7,0.5,0.9
	c0.3,0.1,0.7,0.1,0.9-0.2l7.9-7.2c1.3-1.3,3.4-1.3,4.9,0L65,38C65.1,38.1,65.2,38.2,65.1,38.2z"/>
</svg>
