<?xml version="1.0" encoding="utf-8"?>
<!-- Generator: Adobe Illustrator 24.0.1, SVG Export Plug-In . SVG Version: 6.00 Build 0)  -->
<svg version="1.1" id="Layer_1" xmlns="http://www.w3.org/2000/svg" xmlns:xlink="http://www.w3.org/1999/xlink" x="0px" y="0px"
	 viewBox="0 0 86.6 86.6" style="enable-background:new 0 0 86.6 86.6;" xml:space="preserve">
<style type="text/css">
	.st0{fill:#FFFFFF;}
	.st1{fill:#009A9B;}
</style>
<g>
	<path class="st0" d="M70,46.9l-8.5-3.6c0.9-1.5,1.5-3.1,1.8-4.9l3.1-1.5c1.3-0.6,2.1-1.9,2.1-3.4v-2.3c0-2.1-1.6-3.8-3.8-3.8h-1.3
		v-1l2.6-7c0.8-2.1,0.8-4.5-0.1-6.5l-3.1-7.3l-4.1,2c-1.3,0.6-2.5,0.9-3.9,0.9H36.7c-0.9,0-1.6,0.3-2.4,0.9l-1.6,1.3
		c-2.8,2.3-3.6,6-2,9.3l2.6,5.4c0,0.3-0.1,0.6-0.1,0.9v1.3h-1.3c-2.1,0-3.8,1.6-3.8,3.8v2.3c0,1.4,0.8,2.8,2.1,3.4l3.1,1.5
		c0.3,1.8,0.9,3.4,1.8,4.9l-8.5,3.6c-5,2.1-8.4,7.1-8.4,12.6v21.8h10.6V79h-8.1V59.5c0-4.5,2.6-8.6,6.9-10.4l8.3-3.5
		c0.4,6.9,6.3,12.3,13.1,11.9c6.4-0.4,11.5-5.5,11.9-11.9l8.3,3.5c4.1,1.8,6.9,5.9,6.9,10.4v19.3h-0.3H67v-15c0-2.1-1.6-3.8-3.8-3.8
		h-30c-2.1,0-3.8,1.6-3.8,3.8v5H32v-5c0-0.8,0.5-1.3,1.3-1.3h30c0.8,0,1.3,0.5,1.3,1.3v15h-15v2.5h28.8V59.5
		C78.3,54,75.1,49,70,46.9z M33.3,35.5l-1.8-0.9c-0.4-0.3-0.8-0.6-0.8-1.1v-2.3c0-0.8,0.5-1.3,1.3-1.3h1.3V35.5z M64.6,30
		c0.8,0,1.3,0.5,1.3,1.3v2.3c0,0.5-0.3,0.9-0.8,1.1l-1.8,0.9V30H64.6z M46.2,54.9c-3.9-0.9-6.9-3.9-7.8-7.8c0.6,0.5,1.3,0.9,2,1.4
		l3,1.6c3,1.6,6.6,1.6,9.6,0l3-1.6c0.8-0.5,1.4-0.9,2-1.4C56.9,52.5,51.6,56,46.2,54.9z M60.8,30v2.5v3.9c0,4.1-2.3,7.9-5.9,9.9
		l-3,1.6c-2.3,1.3-5,1.3-7.1,0l-3.1-1.6c-3.6-2-5.9-5.8-5.9-9.9v-3.9V30v-3.6c0-1.9,1.1-3.6,2.8-4.5l3.4-1.6l1,0.8
		c2.4,1.8,5.3,2.8,8.3,2.8h9.6V30H60.8z M51.2,21.3c-2.4,0-4.8-0.8-6.8-2.3l-2.3-1.8l-4.8,2.4c-1.1,0.6-2.1,1.5-2.9,2.6L32.9,19
		c-1-2.1-0.5-4.6,1.4-6.1l1.6-1.3c0.3-0.3,0.5-0.4,0.8-0.4h18c1.8,0,3.5-0.4,5-1.3L61.5,9l2,4.8c0.6,1.5,0.6,3.1,0.1,4.6l-1,2.8
		H51.2V21.3z"/>
</g>
<path class="st1" d="M49.6,68.8H18.3c-0.2,0-0.5,0.1-0.7,0.2l-3.4,2.3H12c-2.1,0-3.8,1.7-3.8,3.8s1.7,3.8,3.8,3.8h2.1l3.4,2.3
	c0.2,0.1,0.4,0.2,0.7,0.2h31.3c3.5,0,6.3-2.8,6.3-6.3S53,68.8,49.6,68.8z M13.3,76.3H12c-0.7,0-1.3-0.6-1.3-1.3s0.6-1.3,1.3-1.3h1.3
	V76.3z M18.3,78.5l-2.5-1.7v-3.7l2.5-1.7V78.5z M42.1,78.8H20.8v-2.5h21.3V78.8z M42.1,73.8H20.8v-2.5h21.3V73.8z M45.8,78.8h-1.3
	v-7.5h1.3V78.8z M49.6,78.8h-1.3v-7.5h1.3c2.1,0,3.8,1.7,3.8,3.8S51.6,78.8,49.6,78.8z"/>
<g>
	<path class="st1" d="M67.1,78.8v-15c0-2.1-1.6-3.8-3.8-3.8h-30c-2.1,0-3.8,1.6-3.8,3.8v5H32v-5c0-0.8,0.5-1.3,1.3-1.3h30
		c0.8,0,1.3,0.5,1.3,1.3v15h-15v2.5h17.5V78.8L67.1,78.8z"/>
</g>
</svg>
