<?xml version="1.0" encoding="utf-8"?>
<!-- Generator: Adobe Illustrator 24.0.1, SVG Export Plug-In . SVG Version: 6.00 Build 0)  -->
<svg version="1.1" id="Layer_1" xmlns="http://www.w3.org/2000/svg" xmlns:xlink="http://www.w3.org/1999/xlink" x="0px" y="0px"
	 viewBox="0 0 86.6 86.6" style="enable-background:new 0 0 86.6 86.6;" xml:space="preserve">
<style type="text/css">
	.st0{fill:none;}
	.st1{fill:#009A9B;}
	.st2{fill:#FFFFFF;}
</style>
<path class="st0" d="M31.1,64.8l-12-8.7c-3,2.2-4.9,5.6-4.9,9.4v13.3h8.9V68.6h2.1l-0.9-3.5l2.5-0.5l1,4.1H37v10.1h3.8V66.1h-6
	C33.5,66.1,32.3,65.6,31.1,64.8z"/>
<path class="st1" d="M54.8,29.3h5.1v-3.8c0-7.9-5.2-14.8-12.7-17c-0.3-1.9-1.9-3.3-3.8-3.3h-2.5c-1.9,0-3.5,1.4-3.8,3.3
	c-7.5,2.2-12.7,9.1-12.7,17v3.8h5.1H54.8z M37,11.2v8h2.5V9.1c0-0.8,0.5-1.3,1.3-1.3h2.5c0.8,0,1.3,0.5,1.3,1.3v10.1h2.5v-8
	c5.2,1.8,9,6.2,9.9,11.7c-1-0.8-2.3-1.1-3.5-1.1H30.6c-1.3,0-2.5,0.4-3.5,1.1C28,17.4,31.8,13,37,11.2z M30.6,24.3h22.8
	c1.6,0,3,1,3.5,2.5H27.1C27.6,25.3,29,24.3,30.6,24.3z"/>
<g>
	<path class="st1" d="M69.9,76.2V59.4L58.7,76.2H69.9z M67.3,73.7h-3.9l3.9-6V73.7z"/>
	<path class="st1" d="M48.3,81.3h26.6V44.4L48.3,81.3z M72.4,78.7h-19l16.5-22.8v-0.1l2.5-3.5V78.7z"/>
</g>
<path class="st2" d="M64.8,43.3c-2.8,0-5.1,1.6-5.1,3.8v3.8l-6.2-2.7c1.5-1.4,2.5-3.2,3.2-5.1l3.4-1.8c1.3-0.6,2.2-1.9,2.2-3.4v-2.3
	c0-2.2-1.6-3.8-3.8-3.8H58l-0.8,0.8v-3.3h-2.5v10.5c0,3.3-1.8,6.2-4.6,7.7l-3.8,2c-2.7,1.4-5.8,1.4-8.5,0l-3.8-2
	c-2.9-1.5-4.7-4.6-4.7-7.7V29.3h-2.5v3.3l-0.8-0.8h-0.5c-2.2,0-3.8,1.6-3.8,3.8V38c0,1.4,0.8,2.8,2.2,3.4l3.4,1.8
	c0.6,1.9,1.6,3.7,3.2,5.1l-10.5,4.6c-5.1,2.3-8.4,7.2-8.4,12.8v15.7h36.7l1.8-2.5h-6.9V66.1h6c1.4,0,2.7-0.4,3.7-1.3l6.8-4.9v5.6
	l2.6-3.6l0,0v-8.7v-2.8c1.6,0.6,3.4,0.6,5.1,0v3.5v1l0,0l2.5-3.5V47C69.9,44.9,67.7,43.3,64.8,43.3z M57.3,39.9v-3.5l1.8-1.8
	c0.5,0.1,0.8,0.6,0.8,1.1V38c0,0.5-0.3,0.9-0.8,1.1L57.3,39.9L57.3,39.9z M26.8,39.9L26.8,39.9L25,39.1c-0.4-0.3-0.8-0.6-0.8-1.1
	v-2.3c0-0.5,0.4-1,0.8-1.1l1.8,1.8V39.9z M26.4,52.6l4.1,5.7c1.1,1.6,3.2,2.7,5.2,2.7h1.8c0.6,0,1.1,0.4,1.3,1l0.4,1.5H35
	c-0.8,0-1.6-0.3-2.3-0.8l-11-8L26.4,52.6z M34.5,78.7h-8.9v-2.5h8.9V78.7z M34.5,73.7h-8.9v-2.5h8.9V73.7z M40.8,78.7H37V68.6h-9.1
	l-1-4.1L24.4,65l0.9,3.5h-2.2v10.1h-8.9V65.4c0-3.8,1.9-7.2,4.9-9.4l12,8.7c1.1,0.8,2.4,1.3,3.7,1.3h6C40.9,66,40.9,78.7,40.8,78.7z
	 M43,61.4L42,64.7l-0.9-3.3c-0.4-1.8-1.9-2.9-3.7-2.9h-1.8c-1.3,0-2.4-0.6-3-1.6l-3.8-5.3l3.9-1.8l3.7,2c3.4,1.9,7.5,1.9,10.9,0
	l3.7-2l3.9,1.8l-3.8,5.3c-0.8,1-1.9,1.6-3,1.6h-1.8C44.8,58.5,43.3,59.6,43,61.4z M60,56.8L60,56.8l-8.3,6.1
	c-0.6,0.4-1.5,0.6-2.3,0.6h-4.3l0.4-1.5c0.1-0.5,0.6-1,1.3-1h1.8c2,0,3.9-1,5.2-2.7l4.1-5.7l2.3,1v3.2H60z M64.8,48.3
	c-1.5,0-2.5-0.8-2.5-1.3s1-1.3,2.5-1.3s2.5,0.8,2.5,1.3S66.3,48.3,64.8,48.3z"/>
</svg>
