<?xml version="1.0" encoding="utf-8"?>
<!-- Generator: Adobe Illustrator 24.0.1, SVG Export Plug-In . SVG Version: 6.00 Build 0)  -->
<svg version="1.1" id="Layer_1" xmlns="http://www.w3.org/2000/svg" xmlns:xlink="http://www.w3.org/1999/xlink" x="0px" y="0px"
	 viewBox="0 0 86.6 86.6" style="enable-background:new 0 0 86.6 86.6;" xml:space="preserve">
<style type="text/css">
	.st0{fill:none;}
	.st1{fill:#009A9B;}
	.st2{fill:#3B3B3B;}
</style>
<path class="st0" d="M52.2,61h-1.8c-0.6,0-1.1,0.5-1.3,1l-0.4,1.5H53c0.8,0,1.6-0.3,2.3-0.6l8.2-6.1h0.1v-3.2l-2.3-1l-4.1,5.7
	C56.1,60,54.2,61,52.2,61z"/>
<ellipse class="st0" cx="68.6" cy="47.1" rx="2.5" ry="1.3"/>
<path class="st0" d="M38.6,63.5h4.3L42.5,62c-0.1-0.6-0.6-1-1.3-1h-1.8c-2,0-4.1-1-5.2-2.7l-4.1-5.7l-4.9,2.2l11,8
	C37,63.3,37.8,63.5,38.6,63.5z"/>
<path class="st0" d="M28.1,35.7V38c0,0.5,0.4,0.9,0.8,1.1l1.8,0.9v-0.1v-3.5l-1.8-1.8C28.5,34.7,28.1,35.2,28.1,35.7z"/>
<path class="st0" d="M63.6,38v-2.3c0-0.5-0.3-1-0.8-1.1L61,36.3v3.5V40l1.8-0.9C63.3,38.8,63.6,38.5,63.6,38z"/>
<path class="st0" d="M63.6,65.4v-5.6l-6.8,4.9c-1,0.9-2.3,1.3-3.7,1.3h-6v12.7H54"/>
<path class="st0" d="M33.2,39.9c0,3.2,1.8,6.2,4.7,7.7l3.8,2c2.7,1.4,5.8,1.4,8.5,0l3.8-2c2.8-1.5,4.6-4.4,4.6-7.7V29.3H33.2V39.9z"
	/>
<path class="st0" d="M50.1,58.5h1.8c1.1,0,2.3-0.6,3-1.6l3.8-5.3l-3.9-1.8l-3.7,2c-3.4,1.9-7.5,1.9-10.9,0l-3.7-2l-3.9,1.8l3.8,5.3
	c0.6,1,1.8,1.6,3,1.6h1.8c1.8,0,3.3,1.1,3.7,2.9l0.9,3.3l0.9-3.3h0C47.1,59.6,48.6,58.5,50.1,58.5z"/>
<rect x="29.4" y="76.2" class="st0" width="8.9" height="2.5"/>
<rect x="29.4" y="71.1" class="st0" width="8.9" height="2.5"/>
<path class="st0" d="M34.9,64.8l-12-8.7c-3,2.2-4.9,5.6-4.9,9.4v13.3h8.9V68.6H29l-0.9-3.5l2.5-0.5l1,4.1h9.1v10.1h3.8V66.1h-6
	C37.3,66.1,36.1,65.6,34.9,64.8z"/>
<path class="st1" d="M58.5,29.3h5.1v-3.8c0-7.9-5.2-14.8-12.7-17c-0.3-1.9-1.9-3.3-3.8-3.3h-2.5c-1.9,0-3.5,1.4-3.8,3.3
	c-7.5,2.2-12.7,9.1-12.7,17v3.8h5.1H58.5z M40.8,11.2v8h2.5V9.1c0-0.8,0.5-1.3,1.3-1.3h2.5c0.8,0,1.3,0.5,1.3,1.3v10.1h2.5v-8
	c5.2,1.8,9,6.2,9.9,11.7c-1-0.8-2.3-1.1-3.5-1.1H34.4c-1.3,0-2.5,0.4-3.5,1.1C31.8,17.4,35.6,13,40.8,11.2z M34.4,24.3h22.8
	c1.6,0,3,1,3.5,2.5H30.9C31.4,25.3,32.8,24.3,34.4,24.3z"/>
<line x1="54" y1="78.7" x2="54.1" y2="78.7"/>
<line x1="73.7" y1="51.4" x2="73.7" y2="51.5"/>
<g>
	<path class="st1" d="M73.7,76.2V59.4L62.4,76.2H73.7z M71.1,73.7h-3.9l3.9-6V73.7z"/>
	<path class="st1" d="M52.1,81.3h26.6V44.4L52.1,81.3z M76.2,78.7h-19l16.5-22.8v-0.1l2.5-3.5V78.7z"/>
</g>
<path class="st2" d="M68.6,43.3c-2.8,0-5.1,1.6-5.1,3.8v3.8l-6.2-2.7c1.5-1.4,2.5-3.2,3.2-5.1l3.4-1.8c1.3-0.6,2.2-1.9,2.2-3.4v-2.3
	c0-2.2-1.6-3.8-3.8-3.8h-0.5L61,32.6v-3.3h-2.5v10.5c0,3.3-1.8,6.2-4.6,7.7l-3.8,2c-2.7,1.4-5.8,1.4-8.5,0l-3.8-2
	c-2.9-1.5-4.7-4.6-4.7-7.7V29.3h-2.5v3.3l-0.8-0.8h-0.5c-2.2,0-3.8,1.6-3.8,3.8V38c0,1.4,0.8,2.8,2.2,3.4l3.4,1.8
	c0.6,1.9,1.6,3.7,3.2,5.1l-10.5,4.6c-5.1,2.3-8.4,7.2-8.4,12.8v15.7h36.7l1.8-2.5h-6.9V66.1h6c1.4,0,2.7-0.4,3.7-1.3l6.8-4.9v5.6
	l2.6-3.6l0,0v-8.7v-2.8c1.6,0.6,3.4,0.6,5.1,0v3.5v1v0l2.5-3.5v-4.4C73.7,44.9,71.4,43.3,68.6,43.3z M61,39.9v-3.5l1.8-1.8
	c0.5,0.1,0.8,0.6,0.8,1.1V38c0,0.5-0.3,0.9-0.8,1.1L61,40V39.9z M30.6,39.9V40l-1.8-0.9c-0.4-0.3-0.8-0.6-0.8-1.1v-2.3
	c0-0.5,0.4-1,0.8-1.1l1.8,1.8V39.9z M30.2,52.6l4.1,5.7c1.1,1.6,3.2,2.7,5.2,2.7h1.8c0.6,0,1.1,0.4,1.3,1l0.4,1.5h-4.3
	c-0.8,0-1.6-0.3-2.3-0.8l-11-8L30.2,52.6z M38.2,78.7h-8.9v-2.5h8.9V78.7z M38.2,73.7h-8.9v-2.5h8.9V73.7z M44.6,78.7h-3.8V68.6
	h-9.1l-1-4.1l-2.5,0.5l0.9,3.5h-2.2v10.1H18V65.4c0-3.8,1.9-7.2,4.9-9.4l12,8.7c1.1,0.8,2.4,1.3,3.7,1.3h6V78.7z M46.7,61.4
	l-0.9,3.3l-0.9-3.3c-0.4-1.8-1.9-2.9-3.7-2.9h-1.8c-1.3,0-2.4-0.6-3-1.6l-3.8-5.3l3.9-1.8l3.7,2c3.4,1.9,7.5,1.9,10.9,0l3.7-2
	l3.9,1.8l-3.8,5.3c-0.8,1-1.9,1.6-3,1.6h-1.8C48.6,58.5,47.1,59.6,46.7,61.4z M63.7,56.8h-0.1l-8.2,6.1c-0.6,0.4-1.5,0.6-2.3,0.6
	h-4.3l0.4-1.5c0.1-0.5,0.6-1,1.3-1h1.8c2,0,3.9-1,5.2-2.7l4.1-5.7l2.3,1V56.8z M68.6,48.3c-1.5,0-2.5-0.8-2.5-1.3s1-1.3,2.5-1.3
	c1.5,0,2.5,0.8,2.5,1.3S70.1,48.3,68.6,48.3z"/>
</svg>
