<?xml version="1.0" encoding="utf-8"?>
<!-- Generator: Adobe Illustrator 24.0.1, SVG Export Plug-In . SVG Version: 6.00 Build 0)  -->
<svg version="1.1" id="Layer_1" xmlns="http://www.w3.org/2000/svg" xmlns:xlink="http://www.w3.org/1999/xlink" x="0px" y="0px"
	 viewBox="0 0 86.6 86.6" style="enable-background:new 0 0 86.6 86.6;" xml:space="preserve">
<style type="text/css">
	.st0{fill:#FFFFFF;}
	.st1{fill:#009A9B;}
</style>
<g>
	<g>
		<path class="st0" d="M59.4,54.3l-9.6-2.1v-3c3.7-2.7,6.1-7,6.1-12v-6.6c0.3-0.3,0.5-0.5,0.7-0.8h1.8h1.2h2.5v-2.5h-2.5v-2.5
			c0-8.8-6.4-16.4-14.9-18.1c-0.3-0.9-1.2-1.6-2.3-1.6h-2.5c-1.1,0-2,0.7-2.3,1.6C29,8.4,22.7,16,22.7,24.8v2.5h-2.4v2.5h2.5H24h1.8
			c0.2,0.3,0.4,0.6,0.7,0.8v6.6c0,4.9,2.4,9.3,6.1,12v3L23,54.3c-7.4,1.6-12.5,8.1-12.5,15.6v11.5H72V69.9
			C71.9,62.3,66.8,55.9,59.4,54.3z M22.8,78.9H13v-9.1c0-6.1,4-11.4,9.8-13V78.9z M50.4,54.8l-4.6,6.1l-3.4-3.4l6.3-3.1L50.4,54.8z
			 M41.2,55.4l-6.1-3.1v-1.8c1.9,0.9,4,1.4,6.1,1.4s4.3-0.5,6.1-1.4v1.8L41.2,55.4z M27.5,28l-0.3-0.7h-2v-2.5
			c0-7.4,5.2-13.8,12.3-15.5V15H40V7.7h2.5V15H45V9.3c7.1,1.7,12.3,8.1,12.3,15.5v2.5h-2L54.9,28c-0.5,1.1-1.7,1.8-2.9,1.8H30.4
			C29.2,29.8,28.1,29.1,27.5,28z M28.9,32c0.5,0.1,1,0.2,1.5,0.2h21.5c0.5,0,1-0.1,1.5-0.2v4.4l-1.6,0.8c-1.5,0.8-3.2,1.2-4.9,1.2
			h-2c-0.2,0-0.4-0.1-0.5-0.3l-0.5-1.4c-0.4-1.2-1.5-2-2.8-2s-2.4,0.8-2.8,2l-0.4,1.4c-0.1,0.2-0.2,0.3-0.5,0.3h-2
			c-1.7,0-3.4-0.4-4.9-1.2l-1.6-0.8C28.9,36.4,28.9,32,28.9,32z M29.1,39.2l0.4,0.2c1.9,0.9,4,1.4,6,1.4h2c1.3,0,2.4-0.8,2.8-2
			l0.4-1.4c0.1-0.4,0.8-0.4,0.9,0l0.5,1.4c0.4,1.2,1.5,2,2.8,2h2c2.1,0,4.2-0.5,6-1.4l0.4-0.2c-1,5.8-6,10.2-12.1,10.2
			S30.1,45,29.1,39.2z M33.7,54.4l6.3,3.1l-3.4,3.4L32,54.8L33.7,54.4z M40,78.9H25.2v-2.5h14.7v2.5H40z M40,74H25.2V56.3l4.1-0.9
			l10.6,14.1V74H40z M38.1,62.9l3.1-3.1l3.1,3.1l-3.1,4.2L38.1,62.9z M57.2,78.9H42.4v-2.5h14.7v2.5H57.2z M57.2,74H42.4v-4.5
			L53,55.4l4.1,0.9V74H57.2z M69.5,78.9h-9.8v-22c5.8,1.6,9.8,6.9,9.8,13V78.9z"/>
		<path class="st0" d="M54.6,24.6h-8.1c0.9-1.1,1.4-2.5,1.4-4c0-3.7-3-6.7-6.7-6.7s-6.7,3-6.7,6.7c0,1.5,0.5,2.9,1.4,4h-8.1v2.7
			h26.8C54.6,27.3,54.6,24.6,54.6,24.6z M41.2,24.6c-2.2,0-4-1.8-4-4s1.8-4,4-4s4,1.8,4,4S43.4,24.6,41.2,24.6z"/>
	</g>
</g>
<path class="st1" d="M54,61.3l-2-1.5l-5,6.6l5.1,1.3l-2.7,3.5l2,1.5l5-6.6l-5.1-1.3L54,61.3z"/>
</svg>
