<?xml version="1.0" encoding="utf-8"?>
<!-- Generator: Adobe Illustrator 24.0.1, SVG Export Plug-In . SVG Version: 6.00 Build 0)  -->
<svg version="1.1" id="Layer_1" xmlns="http://www.w3.org/2000/svg" xmlns:xlink="http://www.w3.org/1999/xlink" x="0px" y="0px"
	 viewBox="0 0 86.6 86.6" style="enable-background:new 0 0 86.6 86.6;" xml:space="preserve">
<style type="text/css">
	.st0{fill:#FFFFFF;}
	.st1{fill:#009A9B;}
</style>
<path class="st0" d="M37,46.2c4.5-2.5,7.5-7.3,7.5-12.8V31c2.7,0,4.9-2.2,4.9-4.9s-2.2-4.9-4.9-4.9V6.4c0-0.5-0.3-0.9-0.8-1.1
	s-1.1-0.1-1.4,0.4c-1.7,2.2-4.7,3.2-7.5,3.2H18.7c-2,0-3.7,1.6-3.7,3.7v8.6c-2.7,0-4.9,2.2-4.9,4.9S12.3,31,15,31v2.5
	c0,5.5,3,10.3,7.5,12.8c-9.9,2.2-17.3,11-17.3,21.6v13.5h49.1V67.8C54.4,57.3,46.9,48.4,37,46.2z M23.5,48.5l4.6,4.6L26,55.8l-5-6.7
	C21.9,48.9,22.7,48.7,23.5,48.5z M26.6,48.1H33l-3.2,3.2L26.6,48.1z M36.1,48.5c0.8,0.2,1.7,0.4,2.5,0.7l-5,6.7l-2.1-2.7L36.1,48.5z
	 M17.5,33.4v-9.8h9.3c3,0,5.9-1.6,7.4-4.2l0.5-0.8l0.1,0.2c1.6,2.6,4.3,4.4,7.3,4.7v9.9c0,1-0.1,2-0.4,2.9
	c-3.2-2.7-7.2-4.2-11.5-4.2h-0.8c-4.2,0-8.3,1.5-11.5,4.2C17.6,35.4,17.5,34.4,17.5,33.4L17.5,33.4z M47,26c0,1.4-1.1,2.5-2.5,2.5
	v-4.9C45.9,23.6,47,24.7,47,26z M18.7,11.3h15.7c2.8,0,5.4-0.8,7.7-2.3v12c-2.1-0.4-4-1.6-5.2-3.5l-2.2-3.7l-2.6,4.3
	c-1.1,1.9-3.1,3-5.3,3h-9.3v-8.6C17.5,11.9,18.1,11.3,18.7,11.3z M12.6,26c0-1.4,1.1-2.5,2.5-2.5v4.9C13.7,28.5,12.6,27.4,12.6,26z
	 M18.8,38.8c2.9-2.7,6.6-4.2,10.6-4.2h0.8c4,0,7.7,1.5,10.6,4.2c-1.1,2.2-2.8,4-4.9,5.2v-3.3h-2.5V45c-0.8,0.2-1.6,0.4-2.5,0.5v-4.9
	h-2.5v4.8c-0.8-0.1-1.7-0.3-2.5-0.5v-4.3h-2.5V44C21.6,42.8,19.9,41,18.8,38.8L18.8,38.8z M7.7,67.8c0-7.7,4.5-14.4,11-17.6l6.4,8.5
	c0.2,0.3,0.6,0.5,1,0.5s0.8-0.2,1-0.5l1.5-2v22.1H15.1V64.1h-2.5v14.7H7.7V67.8z M51.9,78.8H47V64.1h-2.5v14.7H31V56.7l1.5,2
	c0.2,0.3,0.6,0.5,1,0.5s0.8-0.2,1-0.5l6.4-8.5c6.5,3.2,11,9.9,11,17.6V78.8z"/>
<path class="st1" d="M34.7,61.7h7.4v2.5h-7.4V61.7z"/>
<path class="st1" d="M61.6,14.5l-3.7-8.6c-0.2-0.5-0.6-0.7-1.1-0.7s-0.9,0.3-1.1,0.7L52,14.5l0,0c-0.1,0.1-0.1,0.3-0.1,0.5v38.1
	c0,2.7,2.2,4.9,4.9,4.9s4.9-2.2,4.9-4.9V15C61.7,14.8,61.7,14.7,61.6,14.5z M56.8,9.5l1.8,4.2H55L56.8,9.5z M59.3,45.7h-4.9V16.2
	h4.9V45.7z M56.8,55.5c-1.4,0-2.5-1.1-2.5-2.5v-4.9h4.9V53C59.3,54.4,58.2,55.5,56.8,55.5z"/>
<path class="st1" d="M81.4,5.2H64.2v76.1h17.2C81.4,81.3,81.4,5.2,81.4,5.2z M78.9,78.8H66.6v-4.9H74v-2.5h-7.4V69h4.9v-2.5h-4.9V64
	h4.9v-2.5h-4.9V59h4.9v-2.5h-4.9V54H74v-2.5h-7.4V49h4.9v-2.5h-4.9V44h4.9v-2h-4.9v-2.5h4.9V37h-4.9v-2.5H74V32h-7.4v-2.5h4.9V27
	h-4.9v-2.5h4.9V22h-4.9v-2.5h4.9V17h-4.9v-2H74v-2.5h-7.4V7.6h12.3V78.8z"/>
</svg>
