<?xml version="1.0" encoding="utf-8"?>
<!-- Generator: Adobe Illustrator 24.0.1, SVG Export Plug-In . SVG Version: 6.00 Build 0)  -->
<svg version="1.1" id="Layer_1" xmlns="http://www.w3.org/2000/svg" xmlns:xlink="http://www.w3.org/1999/xlink" x="0px" y="0px"
	 viewBox="0 0 86.6 86.6" style="enable-background:new 0 0 86.6 86.6;" xml:space="preserve">
<style type="text/css">
	.st0{fill:#FFFFFF;}
	.st1{fill:#009A9B;}
</style>
<path class="st0" d="M73.4,59.3c-1.1-3.6-3.6-6.5-6.7-8.4l-10.8-6.5c1.1-1.5,2-3.2,2.5-5.1l2.7-0.6c1.7-0.4,2.9-1.9,2.9-3.7v-0.6
	c0-2.2-1.7-3.8-3.8-3.8h-1.3v-2.5h1c2.3,0,4.1-1.9,4.1-4.1c0-1.9-1.3-3.6-3.2-3.9l-1.9-0.6v-0.1c0-5.8-4.3-10.7-10.2-11.3L47.6,8
	c-0.5-1.5-2-2.7-3.7-2.7h-0.6c-1.7,0-3.2,1.1-3.7,2.7l-1,0.1c-5.8,0.6-10.2,5.6-10.2,11.3v0.1L26.5,20c-2.2,0.5-3.6,2.8-3,5
	c0.5,1.8,2.2,3.2,3.9,3.2h1v2.5h-1.3c-2.2,0-3.8,1.7-3.8,3.8V35c0,1.8,1.1,3.3,2.9,3.7l2.7,0.6c0.5,1.8,1.3,3.6,2.5,5.1l-10.8,6.5
	c-4.7,2.8-7.5,7.7-7.5,13.1v17.5H69c2.2,0,3.8-1.7,3.8-3.8v-3.2c2.4-1.7,3.8-4.4,3.8-7.2v-1C76.7,63.5,75.6,61,73.4,59.3L73.4,59.3z
	 M69.8,57.5c-3.3-0.8-6.7,0.4-8.9,2.9c-0.5-0.4-1.3-0.6-2-0.6v-9.3l1.3-0.6l5.3,3.2C67.3,54.1,68.8,55.6,69.8,57.5L69.8,57.5z
	 M63,78.9H27.2V63.6c0-0.8,0.5-1.3,1.3-1.3H59c0.3,0,0.5,0.1,0.8,0.3c-0.5,1.1-0.8,2.3-0.8,3.6v1c0,2.9,1.4,5.6,3.8,7.2v3.2
	C62.7,78,62.9,78.5,63,78.9z M35.7,48l2.5,1.4c3.4,1.9,7.5,1.9,10.9,0l2.5-1.4c0.9-0.5,1.8-1.1,2.5-1.8l3.4,2.2L52,51.3
	c-5.2,2.8-11.6,2.8-16.9,0l-5.6-2.9l3.4-2C34,47,34.8,47.5,35.7,48L35.7,48z M53.8,59.8v-6.6l2.5-1.4v8H53.8z M36.1,54.5
	c4.8,2,10.4,2,15.2,0v5.3H36.1V54.5z M33.5,53.2v6.6H31v-7.9L33.5,53.2z M60.2,33.1c0.8,0,1.3,0.5,1.3,1.3v0.5c0,0.6-0.4,1.1-1,1.3
	L59,36.6c0-0.3,0-0.5,0-0.9v-2.5L60.2,33.1z M38.9,10.5h0.5l-0.8,6l2.5,0.3l1-7.9c0.1-0.6,0.6-1.1,1.3-1.1H44c0.6,0,1.1,0.5,1.3,1.1
	l1,7.9l2.5-0.3l-0.8-6h0.5c4.4,0.5,7.7,4.2,7.9,8.6H31C31.1,14.7,34.4,11,38.9,10.5z M27.4,25.5c-0.9,0-1.5-0.8-1.5-1.5
	c0-0.8,0.5-1.4,1.1-1.5l2.8-0.6h27.7l2.8,0.6c0.9,0.3,1.4,1,1.1,1.9c-0.1,0.8-0.8,1.1-1.5,1.1H27.4z M26.9,36.2
	c-0.5-0.1-1-0.6-1-1.3v-0.5c0-0.8,0.5-1.3,1.3-1.3h1.3v2.7v0.9L26.9,36.2z M31,28.1h25.4v7.7c0,4.2-2.3,8-6,10l-2.5,1.4
	c-2.7,1.4-5.8,1.4-8.5,0l-2.5-1.4c-3.7-2-6-5.8-6-10L31,28.1C30.9,28.1,31,28.1,31,28.1z M15.7,63.9c0-4.4,2.4-8.6,6.2-10.9l5.3-3.2
	l1.3,0.6v9.4c-2.2,0-3.8,1.7-3.8,3.8v15.2h-8.9v-15L15.7,63.9z M69.1,78.9h-2.5c-0.8,0-1.3-0.5-1.3-1.3V75h5.1v2.5
	C70.4,78.4,69.8,78.9,69.1,78.9z M74.2,67.2c0,2.2-1,4.1-2.8,5.3h-0.1h-2.2v-4.6l2.2-2.2L69.5,64l-1.7,1.7L66.2,64l-1.8,1.8l2.2,2.2
	v4.6h-2.2l-0.1-0.1c-1.8-1.1-2.8-3-2.8-5.2v-1c0-3.6,2.8-6.3,6.3-6.3s6.3,2.8,6.3,6.3L74.2,67.2L74.2,67.2z"/>
<path class="st1" d="M53.6,65.7l-2-1.5l-5,6.6l5.1,1.3L49,75.6l2,1.5l5-6.6l-5.1-1.3L53.6,65.7z"/>
<path class="st1" d="M27.5,28.1h1h2.4H31h25.4H59h1c2.3,0,4.1-1.9,4.1-4.1c0-1.9-1.3-3.6-3.2-3.9L59,19.4v-0.1
	C59,13.5,54.7,8.6,48.8,8l-1.1-0.1c-0.5-1.5-2-2.7-3.7-2.7h-0.6c-1.7,0-3.2,1.1-3.7,2.7l-1,0.1c-5.8,0.6-10.2,5.6-10.2,11.3v0.1
	l-1.9,0.5c-2.2,0.5-3.6,2.8-3,5C24,26.7,25.7,28.1,27.5,28.1z M38.9,10.5h0.5l-0.8,6l2.5,0.3l1-7.9c0.1-0.6,0.6-1.1,1.3-1.1H44
	c0.6,0,1.1,0.5,1.3,1.1l1,7.9l2.5-0.3l-0.8-6h0.5c4.4,0.5,7.7,4.2,7.9,8.6H31C31.2,14.7,34.5,11,38.9,10.5z M27.1,22.5l2.8-0.6h27.7
	l2.8,0.6c0.9,0.3,1.4,1,1.1,1.9c-0.1,0.8-0.8,1.1-1.5,1.1H27.5c-0.9,0-1.5-0.8-1.5-1.5C26,23.2,26.5,22.6,27.1,22.5z"/>
<polygon class="st1" points="67.8,65.7 66.2,64 64.4,65.8 64.4,65.8 66.5,67.9 66.5,72.5 69.1,72.5 69.1,67.9 71.2,65.8 69.5,64 "/>
</svg>
