<?xml version="1.0" encoding="utf-8"?>
<!-- Generator: Adobe Illustrator 23.0.2, SVG Export Plug-In . SVG Version: 6.00 Build 0)  -->
<svg version="1.1" id="Layer_1" xmlns="http://www.w3.org/2000/svg" xmlns:xlink="http://www.w3.org/1999/xlink" x="0px" y="0px"
	 viewBox="0 0 86.6 86.6" style="enable-background:new 0 0 86.6 86.6;" xml:space="preserve">
<style type="text/css">
	.st0{fill:#3B3B3B;}
	.st1{fill:#009A9B;}
</style>
<g>
	<g>
		<path class="st0" d="M22.9,71.9h-7.6c-0.7,0-1.3,0.6-1.3,1.3s0.6,1.3,1.3,1.3h7.6c0.7,0,1.3-0.6,1.3-1.3S23.6,71.9,22.9,71.9z"/>
		<path class="st0" d="M52.2,78.3H33.1V65.5l1.5,2c0.2,0.3,0.6,0.5,1,0.5c0,0,0,0,0.1,0c0.4,0,0.8-0.3,1-0.6l7.2-12
			c0.6,0.1,1.3,0.2,1.9,0.4v13.5c0,2.1,1.7,3.8,3.8,3.8h10l-0.8,5.1h-1.5c-0.7,0-1.3,0.6-1.3,1.3c0,0.7,0.6,1.3,1.3,1.3h12.7
			c0.7,0,1.3-0.6,1.3-1.3c0-0.7-0.6-1.3-1.3-1.3h-1.5l-0.8-5.1h10c2.1,0,3.8-1.7,3.8-3.8V49c0-2.1-1.7-3.8-3.8-3.8H56.2
			c-0.1-0.2-0.2-0.4-0.3-0.6c-1.3-3.1-1.8-6.5-1.3-9.8c1.6-0.5,2.7-2,2.7-3.6c0-1.6-1-3.1-2.5-3.6c0-0.4,0-0.8,0-0.9
			C54.6,14.2,44.3,4.2,31.8,4.4C19.4,4.2,9.1,14.2,8.9,26.7c0,0.1,0,0.5,0,0.9c-0.5,0.2-1,0.5-1.4,0.9c-0.7,0.7-1.1,1.7-1.1,2.7
			c0,1.7,1.1,3.1,2.7,3.6c0.5,3.3,0,6.7-1.3,9.8C5.4,49,6,54.5,9.4,58.2c-2.4,2.7-3.9,6.1-4.2,9.7v0l0,0l0,0c0,0.5-0.1,0.9-0.1,1.4
			V77c0,2.1,1.7,3.8,3.8,3.8h43.3V78.3z M79,49v16.6H48.4V49c0-0.7,0.6-1.3,1.3-1.3h28C78.4,47.7,79,48.3,79,49z M53.5,32.4h-1.4
			c0-0.1,0-0.2,0-0.2c0.1-0.6,0.1-1.3,0.1-1.9c0-0.1,0-0.2,0-0.4h1.3c0.3,0,0.7,0.1,0.9,0.4c0.2,0.2,0.4,0.6,0.4,0.9
			C54.8,31.8,54.2,32.4,53.5,32.4z M31.8,59.5l-2.5-3.6v-7.1c0.8,0.1,1.7,0.2,2.5,0.2c0.9,0,1.7-0.1,2.5-0.2v7.1L31.8,59.5z
			 M30.3,61.7l-2.1,2.8l-5.8-9.6l2.6-0.6L30.3,61.7z M35.4,46.1c-2.4,0.4-4.8,0.4-7.2,0C21.5,45,16,40,14.3,33.3
			c-0.1-0.5-0.2-1-0.2-1.4C14,31.3,14,30.8,14,30.2c0-0.3,0-0.6,0-0.9l2.5-1v0.2c0,3.5,2.9,6.4,6.4,6.4h1.3c3.5,0,6.4-2.9,6.4-6.4
			v-1.3c0-0.1,0-0.2,0-0.3c0.8-0.5,1.8-0.5,2.6,0c0,0.1,0,0.2,0,0.3v1.3c0,3.5,2.9,6.4,6.4,6.4h1.3c3.5,0,6.4-2.9,6.4-6.4v-0.2
			l2.5,1c0,0.3,0,0.6,0,0.9c0,0.6,0,1.1-0.1,1.7c-0.1,0.5-0.1,1-0.2,1.5C47.7,40,42.2,45,35.4,46.1L35.4,46.1z M46.5,22.2
			c1.1,1.3,1.9,2.7,2.6,4.2L46,25.2c-0.4-0.3-0.9-0.5-1.5-0.5h-8.9c-0.3,0-0.7,0.1-1,0.2c-1.7-1.1-3.9-1.1-5.7,0
			c-0.3-0.1-0.7-0.2-1-0.2h-8.9c-0.5,0-1,0.2-1.5,0.5l-3.1,1.2c0-0.1,0-0.1,0-0.2c0,0,0,0,0-0.1c0,0,0,0,0,0l0.5-2.9
			c7.1-1.9,10.4-5.4,11.8-7.6C29.3,18.3,35.2,23,46.5,22.2L46.5,22.2z M35.7,27.3h8.9v1.3c0,2.1-1.7,3.8-3.8,3.8h-1.3
			c-2.1,0-3.8-1.7-3.8-3.8V27.3z M19.1,27.3H28v1.3c0,2.1-1.7,3.8-3.8,3.8h-1.3c-2.1,0-3.8-1.7-3.8-3.8V27.3z M31.8,6.9
			C42.9,6.8,52,15.6,52.2,26.7v0.6H52c0-0.1,0-0.2,0-0.4c-0.1-0.4-0.2-0.8-0.3-1.2c-0.9-2-2.1-3.9-3.5-5.6c0,0,0,0-0.1,0
			c-0.1-0.1-0.2-0.2-0.4-0.3c-0.1,0-0.2-0.1-0.3-0.1c-0.1,0-0.2,0-0.2,0c0,0-0.1,0-0.1,0c-14.2,1.2-19-6.7-19.2-7
			c-0.3-0.4-0.7-0.7-1.2-0.6c-0.5,0.1-0.9,0.4-1.1,0.9c-0.1,0.2-1.8,5.6-11.8,8l0,0l0,0l0,0c-0.2,0-0.3,0.1-0.4,0.2
			c0,0-0.1,0.1-0.1,0.1c-0.1,0.1-0.2,0.2-0.2,0.3c0,0.1-0.1,0.2-0.1,0.3c0,0.1-0.1,0.1-0.1,0.2l0,0v0l-0.7,3.6
			c-0.1,0.4-0.2,0.9-0.3,1.4c0,0.1,0,0.2,0,0.3h-0.3c0-0.3,0-0.6,0-0.6C11.6,15.6,20.8,6.8,31.8,6.9z M9.3,30.2
			c0.2-0.2,0.6-0.4,0.9-0.4h1.3c0,0.1,0,0.2,0,0.4c0,0.7,0,1.3,0.1,2c0,0.1,0,0.1,0,0.2h-1.4c-0.7,0-1.3-0.6-1.3-1.3
			C8.9,30.8,9,30.5,9.3,30.2z M10,45.7c1.5-3.4,2.1-7.1,1.6-10.8h0.5c2.1,6.8,7.7,11.9,14.6,13.4v4L26.5,52
			c-0.3-0.4-0.8-0.6-1.3-0.5l-5.1,1.3c0,0-0.1,0-0.1,0.1c-1.3,0.1-2.6,0.4-3.8,0.9c-1.8,0.6-3.4,1.5-4.9,2.7
			C8.6,53.5,8.1,49.2,10,45.7z M7.9,66.6c0.1-0.4,0.2-0.9,0.3-1.3c0,0,0-0.1,0-0.1c0.1-0.5,0.3-0.9,0.5-1.3c0-0.1,0.1-0.2,0.1-0.3
			c0.2-0.4,0.4-0.8,0.6-1.2c0-0.1,0.1-0.1,0.1-0.2c0.2-0.4,0.5-0.7,0.7-1.1c0.1-0.1,0.1-0.1,0.1-0.2c0.3-0.4,0.6-0.7,0.9-1.1
			c0.1-0.1,0.1-0.2,0.2-0.2c0.3-0.3,0.6-0.6,1-0.9c0,0,0,0,0.1,0c0.4-0.3,0.7-0.6,1.1-0.8c0.1-0.1,0.2-0.1,0.3-0.2
			c0.4-0.3,0.8-0.5,1.2-0.7c0,0,0,0,0.1,0v2.8c-2.6,1.5-4.4,4.1-5,7.1H7.9C7.9,66.7,7.9,66.7,7.9,66.6z M8.9,78.3
			c-0.7,0-1.3-0.6-1.3-1.3v-7.6h3.8c0.7,0,1.3-0.6,1.3-1.3c0-4.2,4.4-6.5,4.4-6.5c0.4-0.2,0.7-0.7,0.7-1.1v-4.5
			c0.6-0.2,1.3-0.3,1.9-0.4l7.2,12c0.2,0.4,0.6,0.6,1,0.6c0,0,0,0,0.1,0c0.4,0,0.8-0.2,1-0.5l1.5-2v12.7H8.9z M35.5,64.5l-2.1-2.8
			l5.3-7.5l2.6,0.6L35.5,64.5z M43.8,52.9c-0.1,0-0.1-0.1-0.2-0.1l-5.1-1.3c-0.5-0.1-1,0.1-1.3,0.5l-0.2,0.3v-4
			c6.9-1.5,12.5-6.6,14.6-13.4H52c-0.4,3.5,0,7,1.3,10.2h-3.7c-2.1,0-3.8,1.7-3.8,3.8v4.3C45.2,53.1,44.5,53,43.8,52.9z M66,78.3
			h-4.6l0.8-5.1h2.9L66,78.3z M77.7,70.6h-28c-0.7,0-1.3-0.6-1.3-1.3v-1.3H79v1.3C79,70,78.4,70.6,77.7,70.6z"/>
		<path class="st1" d="M53.9,50.6l-2.5,2.5c-0.3,0.3-0.5,0.8-0.3,1.2c0.1,0.4,0.5,0.8,0.9,0.9c0.4,0.1,0.9,0,1.2-0.3l2.5-2.5
			c0.5-0.5,0.5-1.3,0-1.8C55.2,50.1,54.4,50.1,53.9,50.6z"/>
		<path class="st1" d="M51.3,61.3c0.2,0.2,0.6,0.4,0.9,0.4c0.3,0,0.7-0.1,0.9-0.4l8.9-8.9c0.5-0.5,0.5-1.3,0-1.8
			c-0.5-0.5-1.3-0.5-1.8,0l-8.9,8.9c-0.2,0.2-0.4,0.6-0.4,0.9C50.9,60.8,51.1,61.1,51.3,61.3z"/>
	</g>
	<path class="st1" d="M71.4,78.3h-2.8l-0.8-5.1h10c2.1,0,3.8-1.7,3.8-3.8V49c0-2.1-1.7-3.8-3.8-3.8H56.2h-2.8h-3.7
		c-2.1,0-3.8,1.7-3.8,3.8v4.3v2.6v13.5c0,2.1,1.7,3.8,3.8,3.8h10l-0.8,5.1H56v2.5h15.3V78.3z M48.4,49c0-0.7,0.6-1.3,1.3-1.3h28
		c0.7,0,1.3,0.6,1.3,1.3v16.6H48.4V49z M49.7,70.6c-0.7,0-1.3-0.6-1.3-1.3v-1.3H79v1.3c0,0.7-0.6,1.3-1.3,1.3H49.7z M61.4,78.3
		l0.8-5.1h2.9l0.8,5.1H61.4z"/>
</g>
</svg>
