<?xml version="1.0" encoding="utf-8"?>
<!-- Generator: Adobe Illustrator 24.0.1, SVG Export Plug-In . SVG Version: 6.00 Build 0)  -->
<svg version="1.1" id="Layer_1" xmlns="http://www.w3.org/2000/svg" xmlns:xlink="http://www.w3.org/1999/xlink" x="0px" y="0px"
	 viewBox="0 0 86.6 86.6" style="enable-background:new 0 0 86.6 86.6;" xml:space="preserve">
<style type="text/css">
	.st0{fill:#FFFFFF;}
	.st1{fill:#009A9B;}
</style>
<path class="st0" d="M22.9,71.9h-7.6c-0.7,0-1.3,0.6-1.3,1.3s0.6,1.3,1.3,1.3h7.6c0.7,0,1.3-0.6,1.3-1.3S23.6,71.9,22.9,71.9z"/>
<g>
	<path class="st1" d="M53.5,50.6L51,53.1c-0.3,0.3-0.5,0.8-0.3,1.2c0.1,0.4,0.5,0.8,0.9,0.9c0.4,0.1,0.9,0,1.2-0.3l2.5-2.5
		c0.5-0.5,0.5-1.3,0-1.8C54.8,50.1,54,50.1,53.5,50.6z"/>
	<path class="st1" d="M52.3,61.3c0.2,0.2,0.6,0.4,0.9,0.4c0.3,0,0.7-0.1,0.9-0.4l8.9-8.9c0.5-0.5,0.5-1.3,0-1.8s-1.3-0.5-1.8,0
		l-8.9,8.9c-0.2,0.2-0.4,0.6-0.4,0.9C51.9,60.8,52.1,61.1,52.3,61.3z"/>
	<path class="st1" d="M71.2,78.3h-2.8l-0.8-5.1h10c2.1,0,3.8-1.7,3.8-3.8V49c0-2.1-1.7-3.8-3.8-3.8H56h-2.8h-3.7
		c-2.1,0-3.8,1.7-3.8,3.8v4.3v2.6v13.5c0,2.1,1.7,3.8,3.8,3.8h10l-0.8,5.1h-2.9v2.5h15.3L71.2,78.3L71.2,78.3z M48.2,49
		c0-0.7,0.6-1.3,1.3-1.3h28c0.7,0,1.3,0.6,1.3,1.3v16.6H48.2V49z M49.5,70.6c-0.7,0-1.3-0.6-1.3-1.3V68h30.6v1.3
		c0,0.7-0.6,1.3-1.3,1.3C77.5,70.6,49.5,70.6,49.5,70.6z M61.2,78.3l0.8-5.1h2.9l0.8,5.1H61.2z"/>
</g>
<g>
	<path class="st0" d="M33.1,65.5l1.5,2c0.2,0.3,0.6,0.5,1,0.5c0,0,0,0,0.1,0c0.4,0,0.8-0.3,1-0.6l7.2-12c0.6,0.1,1.3,0.2,1.9,0.4
		v-2.6c-0.6-0.1-1.3-0.2-2-0.3c-0.1,0-0.1-0.1-0.2-0.1l-5.1-1.3c-0.5-0.1-1,0.1-1.3,0.5L37,52.3v-4c6.9-1.5,12.5-6.6,14.6-13.4H52
		c-0.4,3.5,0.1,7.1,1.4,10.3h2.8c-0.1-0.2-0.2-0.4-0.3-0.6c-1.3-3.1-1.8-6.5-1.3-9.8c1.6-0.5,2.7-2,2.7-3.6c0-1.6-1-3.1-2.5-3.6
		c0-0.4,0-0.8,0-0.9c-0.2-12.5-10.5-22.5-23-22.3C19.4,4.2,9.1,14.2,8.9,26.7c0,0.1,0,0.5,0,0.9c-0.5,0.2-1,0.5-1.4,0.9
		c-0.7,0.7-1.1,1.7-1.1,2.7c0,1.7,1.1,3.1,2.7,3.6c0.5,3.3,0,6.7-1.3,9.8C5.4,49,6,54.5,9.4,58.2c-2.4,2.7-3.9,6.1-4.2,9.7
		c0,0.5-0.1,0.9-0.1,1.4V77c0,2.1,1.7,3.8,3.8,3.8h43.3v-2.5H33.1V65.5z M38.7,54.2l2.6,0.6l-5.8,9.7l-2.1-2.8L38.7,54.2z
		 M49.8,30.2c0,0.6,0,1.1-0.1,1.7c-0.1,0.5-0.1,1-0.2,1.5C47.7,40,42.2,45,35.4,46.1c-2.4,0.4-4.8,0.4-7.2,0
		C21.5,45,16,40,14.3,33.3c-0.1-0.5-0.2-1-0.2-1.4C14,31.3,14,30.8,14,30.2c0-0.3,0-0.6,0-0.9l2.5-1v0.2c0,3.5,2.9,6.4,6.4,6.4h1.3
		c3.5,0,6.4-2.9,6.4-6.4v-1.3c0-0.1,0-0.2,0-0.3c0.8-0.5,1.8-0.5,2.6,0c0,0.1,0,0.2,0,0.3v1.3c0,3.5,2.9,6.4,6.4,6.4h1.3
		c3.5,0,6.4-2.9,6.4-6.4v-0.2l2.5,1C49.8,29.6,49.8,29.9,49.8,30.2z M44.5,24.7h-8.9c-0.3,0-0.7,0.1-1,0.2c-1.7-1.1-3.9-1.1-5.7,0
		c-0.3-0.1-0.7-0.2-1-0.2H19c-0.5,0-1,0.2-1.5,0.5l-3.1,1.2c0-0.1,0-0.1,0-0.2c0,0,0,0,0-0.1l0.5-2.9c7.1-1.9,10.4-5.4,11.8-7.6
		c2.6,2.7,8.5,7.4,19.8,6.6c1.1,1.3,1.9,2.7,2.6,4.2L46,25.2C45.6,24.9,45.1,24.7,44.5,24.7z M44.6,27.3v1.3c0,2.1-1.7,3.8-3.8,3.8
		h-1.3c-2.1,0-3.8-1.7-3.8-3.8v-1.3H44.6z M28,27.3v1.3c0,2.1-1.7,3.8-3.8,3.8h-1.3c-2.1,0-3.8-1.7-3.8-3.8v-1.3H28z M54.4,30.3
		c0.2,0.2,0.4,0.6,0.4,0.9c0,0.6-0.6,1.2-1.3,1.2h-1.4c0-0.1,0-0.2,0-0.2c0.1-0.6,0.1-1.3,0.1-1.9c0-0.1,0-0.2,0-0.4h1.3
		C53.8,29.9,54.2,30,54.4,30.3z M11.6,26.8c0-11.2,9.2-20,20.2-19.9C42.9,6.8,52,15.6,52.2,26.7v0.6H52c0-0.1,0-0.2,0-0.4
		c-0.1-0.4-0.2-0.8-0.3-1.2c-0.9-2-2.1-3.9-3.5-5.6c0,0,0,0-0.1,0c-0.1-0.1-0.2-0.2-0.4-0.3c-0.1,0-0.2-0.1-0.3-0.1s-0.2,0-0.2,0
		h-0.1c-14.2,1.2-19-6.7-19.2-7c-0.3-0.4-0.7-0.7-1.2-0.6c-0.5,0.1-0.9,0.4-1.1,0.9c-0.1,0.2-1.8,5.6-11.8,8c-0.2,0-0.3,0.1-0.4,0.2
		l-0.1,0.1c-0.1,0.1-0.2,0.2-0.2,0.3c0,0.1-0.1,0.2-0.1,0.3c0,0.1-0.1,0.1-0.1,0.2l-0.7,3.6c-0.1,0.4-0.2,0.9-0.3,1.4
		c0,0.1,0,0.2,0,0.3h-0.3C11.6,27.1,11.6,26.8,11.6,26.8z M8.9,31.1c0-0.3,0.1-0.6,0.4-0.9c0.2-0.2,0.6-0.4,0.9-0.4h1.3
		c0,0.1,0,0.2,0,0.4c0,0.7,0,1.3,0.1,2c0,0.1,0,0.1,0,0.2h-1.4C9.5,32.4,8.9,31.8,8.9,31.1z M10,45.7c1.5-3.4,2.1-7.1,1.6-10.8h0.5
		c2.1,6.8,7.7,11.9,14.6,13.4v4L26.5,52c-0.3-0.4-0.8-0.6-1.3-0.5l-5.1,1.3c0,0-0.1,0-0.1,0.1c-1.3,0.1-2.6,0.4-3.8,0.9
		c-1.8,0.6-3.4,1.5-4.9,2.7C8.6,53.5,8.1,49.2,10,45.7z M30.3,61.7l-2.1,2.8l-5.8-9.6l2.6-0.6L30.3,61.7z M7.9,66.6
		c0.1-0.4,0.2-0.9,0.3-1.3v-0.1c0.1-0.5,0.3-0.9,0.5-1.3c0-0.1,0.1-0.2,0.1-0.3c0.2-0.4,0.4-0.8,0.6-1.2c0-0.1,0.1-0.1,0.1-0.2
		c0.2-0.4,0.5-0.7,0.7-1.1c0.1-0.1,0.1-0.1,0.1-0.2c0.3-0.4,0.6-0.7,0.9-1.1c0.1-0.1,0.1-0.2,0.2-0.2c0.3-0.3,0.6-0.6,1-0.9
		c0,0,0,0,0.1,0c0.4-0.3,0.7-0.6,1.1-0.8c0.1-0.1,0.2-0.1,0.3-0.2c0.4-0.3,0.8-0.5,1.2-0.7c0,0,0,0,0.1,0v2.8
		c-2.6,1.5-4.4,4.1-5,7.1H7.9C7.9,66.7,7.9,66.7,7.9,66.6z M30.5,78.4H8.9v-0.1c-0.7,0-1.3-0.6-1.3-1.3v-7.6h3.8
		c0.7,0,1.3-0.6,1.3-1.3c0-4.2,4.4-6.5,4.4-6.5c0.4-0.2,0.7-0.7,0.7-1.1V56c0.6-0.2,1.3-0.3,1.9-0.4l7.2,12c0.2,0.4,0.6,0.6,1,0.6
		c0,0,0,0,0.1,0c0.4,0,0.8-0.2,1-0.5l1.5-2C30.5,65.7,30.5,78.4,30.5,78.4z M29.3,55.9v-7.1c0.8,0.1,1.7,0.2,2.5,0.2
		c0.9,0,1.7-0.1,2.5-0.2v7.1l-2.5,3.6L29.3,55.9z"/>
</g>
</svg>
