<?xml version="1.0" encoding="utf-8"?>
<!-- Generator: Adobe Illustrator 24.0.1, SVG Export Plug-In . SVG Version: 6.00 Build 0)  -->
<svg version="1.1" id="Layer_1" xmlns="http://www.w3.org/2000/svg" xmlns:xlink="http://www.w3.org/1999/xlink" x="0px" y="0px"
	 viewBox="0 0 86.6 86.6" style="enable-background:new 0 0 86.6 86.6;" xml:space="preserve">
<style type="text/css">
	.st0{fill:none;}
	.st1{fill:#009A9B;}
	.st2{fill:#FFFFFF;}
</style>
<path class="st0" d="M28.1,35.7V38c0,0.5,0.4,0.9,0.8,1.1l1.8,0.9v-0.1v-3.5l-1.8-1.8C28.5,34.7,28.1,35.2,28.1,35.7z"/>
<rect x="29.4" y="76.2" class="st0" width="8.9" height="2.5"/>
<rect x="29.4" y="71.1" class="st0" width="8.9" height="2.5"/>
<line class="st0" x1="54" y1="78.7" x2="54.1" y2="78.7"/>
<path class="st1" d="M54.1,12.6l0.6,0.6l-0.5,0.4L52,15.5l-0.3-0.3L54.1,12.6z M45.9,7.4l-0.6,5.4h-4l-0.6-5.4H45.9z M32.5,12.6
	l2.4,2.7l-0.3,0.3l-2.2-1.9l-0.5-0.4L32.5,12.6z M31.9,16.1l2,1.8c0.1,0.1,0.2,0.2,0.3,0.2l0,0c0.1,0,0.2,0.1,0.4,0.1l0,0l0,0h0.1
	h0.1h0.1H35c0,0,0.1,0,0.1-0.1h0.1c0.1,0,0.1-0.1,0.2-0.1l1.8-1.8c0.4-0.4,0.4-1.1,0-1.5l-1.9-2.1c1.1-0.7,2.2-1.3,3.5-1.7l0.4,3.2
	c0.1,0.6,0.5,1,1.1,1h6c0.6,0,1-0.4,1.1-1l0.4-3.2c1.2,0.4,2.4,0.9,3.5,1.7l-1.9,2.1c-0.4,0.4-0.4,1.1,0,1.5l1.8,1.8
	c0.1,0.1,0.1,0.1,0.2,0.1c0,0,0,0,0.1,0c0,0,0.1,0,0.1,0.1c0,0,0,0,0.1,0h0.1c0,0,0,0,0.1,0H52l0,0l0,0c0.1,0,0.2,0,0.4-0.1l0,0
	c0.1,0,0.2-0.1,0.3-0.2l2-1.8c1,1.6,1.7,3.5,1.8,5.4H30.1C30.2,19.6,30.9,17.7,31.9,16.1z M28,24.2c0-0.3,0.2-0.5,0.5-0.5h29.6
	c0.3,0,0.5,0.2,0.5,0.5s-0.2,0.5-0.5,0.5H28.5C28.2,24.8,28,24.5,28,24.2z M57.7,27h0.4c1.4,0,2.6-1,2.7-2.4c0.2-1.4-0.7-2.7-2.1-3
	c-0.2-2.5-1-4.9-2.4-7L57,14c0.2-0.2,0.4-0.5,0.4-0.8s-0.1-0.6-0.3-0.8l-2.2-2.3c-0.2-0.2-0.5-0.3-0.8-0.3s-0.6,0.1-0.8,0.4
	l-0.5,0.5c-1.4-1-3-1.8-4.7-2.2l0.2-2.2c0-0.3-0.1-0.6-0.3-0.9C47.8,5.2,47.5,5,47.2,5h-7.7c-0.3,0-0.6,0.1-0.8,0.4
	c-0.2,0.2-0.3,0.5-0.3,0.9l0.2,2.2c-1.7,0.5-3.3,1.2-4.7,2.2l-0.5-0.5c-0.2-0.2-0.5-0.4-0.8-0.4s-0.6,0.1-0.8,0.3l-2.3,2.3
	c-0.2,0.2-0.3,0.5-0.3,0.8s0.1,0.6,0.4,0.8l0.6,0.6c-1.4,2.1-2.2,4.5-2.4,7c-1.3,0.3-2.2,1.6-2.1,3C25.9,26,27,27,28.4,27h0.4H31
	h6.7h2.5h15.2H57.7z"/>
<rect x="51.6" y="58.6" class="st1" width="2.2" height="22.8"/>
<rect x="68.8" y="58.6" class="st1" width="2.2" height="22.8"/>
<rect x="51.6" y="58.6" class="st1" width="19.5" height="2.2"/>
<path class="st1" d="M65.5,66.3h4.4c0.6,0,1.1-0.5,1.1-1.1l0,0c0-0.6-0.5-1.1-1.1-1.1h-3.3c-0.6,0-1.1-0.5-1.1-1.1v-3.3
	c0-0.6-0.5-1.1-1.1-1.1l0,0c-0.6,0-1.1,0.5-1.1,1.1v4.4v1.1c0,0.6,0.5,1.1,1.1,1.1H65.5z"/>
<rect x="51.5" y="79.1" class="st1" width="19.5" height="2.2"/>
<path class="st2" d="M51.6,79.1H35v-5.4h16.5v-2.2H30.1v2.2h2.7v5.4h-9.5V69c0-1,0.8-1.7,1.7-1.7h3h23.5v-8.7h2.2v-6.5H54
	c0.3,0,0.5,0,0.8,0c0.1,0,0.1,0,0.2,0c0.2,0,0.4,0,0.6,0.1c0.1,0,0.1,0,0.2,0c0.2,0,0.4,0.1,0.6,0.1c0.1,0,0.1,0,0.2,0
	c0.2,0,0.4,0.1,0.6,0.1h0.1v6.1h2.2v-5.4c2.8,1.1,5.1,3,6.7,5.4h2.6c-2.1-3.8-5.7-6.7-10-8l0,0h-0.1c-0.3-0.1-0.7-0.2-1-0.3h-0.1
	c-0.4-0.1-0.8-0.1-1.1-0.2h-0.1c-0.3,0-0.6-0.1-1-0.1c-0.1,0-0.2,0-0.3,0c-0.4,0-0.7,0-1.1,0h-2.7c0-0.1,0-0.2,0-0.2V48
	c3.2-1.8,5.5-5,6.1-8.7c2.3-0.4,4-2.4,4-4.7v-1.3c0-1.5-1.3-2.8-2.8-2.8h-1V27H58c1.4,0,2.6-1,2.7-2.4c0.2-1.4-0.7-2.7-2.1-3
	c-0.2-2.5-1-4.9-2.4-7L57,14c0.2-0.2,0.4-0.5,0.4-0.8s-0.1-0.6-0.3-0.8l-2.2-2.3c-0.2-0.2-0.5-0.3-0.8-0.3s-0.6,0.1-0.8,0.4
	l-0.5,0.5c-1.4-1-3-1.8-4.7-2.2l0.2-2.2c0-0.3-0.1-0.6-0.3-0.9C47.8,5.2,47.5,5,47.2,5h-7.7c-0.3,0-0.6,0.1-0.8,0.4
	c-0.2,0.2-0.3,0.5-0.3,0.9l0.2,2.2c-1.7,0.5-3.3,1.2-4.7,2.2l-0.5-0.5c-0.2-0.2-0.5-0.4-0.8-0.4s-0.6,0.1-0.8,0.3l-2.3,2.3
	c-0.2,0.2-0.3,0.5-0.3,0.8s0.1,0.6,0.4,0.8l0.6,0.6c-1.4,2.1-2.2,4.5-2.4,7c-1.3,0.3-2.2,1.6-2.1,3S27,27,28.4,27h0.4v3.4h-1
	c-1.5,0-2.8,1.3-2.8,2.8v1.3c0,2.4,1.7,4.4,4,4.7c0.6,3.7,2.9,6.9,6.1,8.7v1.7c0,0.1,0,0.2,0,0.2h-2.7c-0.4,0-0.7,0-1.1,0
	c-0.1,0-0.2,0-0.3,0c-0.3,0-0.6,0.1-1,0.1h-0.1c-0.4,0.1-0.8,0.1-1.1,0.2h-0.1c-0.3,0.1-0.7,0.2-1,0.3h-0.1l0,0
	c-7.2,2.1-12.2,8.8-12.2,16.3v11.6v1.8v1.1h1.1h1.8h33.1v-2.1H51.6z M55.5,30.3h-11c-2,0-3.8-1.4-4.3-3.3h15.2L55.5,30.3L55.5,30.3z
	 M58.7,32.6c0.3,0,0.6,0.3,0.6,0.6v1.3c0,1.1-0.6,2-1.6,2.4v-4.3H58.7z M54.1,12.6l0.6,0.6l-0.5,0.4L52,15.5l-0.3-0.3L54.1,12.6z
	 M45.9,7.4l-0.6,5.4h-4l-0.6-5.4H45.9z M32.5,12.6l2.4,2.7l-0.3,0.3l-2.2-1.9l-0.5-0.4L32.5,12.6z M31.9,16.1l2,1.8
	c0.1,0.1,0.2,0.2,0.3,0.2l0,0c0.1,0,0.2,0.1,0.4,0.1l0,0l0,0h0.1h0.1h0.1H35c0,0,0.1,0,0.1-0.1h0.1c0.1,0,0.1-0.1,0.2-0.1l1.8-1.8
	c0.4-0.4,0.4-1.1,0-1.5l-1.9-2.1c1.1-0.7,2.2-1.3,3.5-1.7l0.4,3.2c0.1,0.6,0.5,1,1.1,1h6c0.6,0,1-0.4,1.1-1l0.4-3.2
	c1.2,0.4,2.4,0.9,3.5,1.7l-1.9,2.1c-0.4,0.4-0.4,1.1,0,1.5l1.8,1.8c0.1,0.1,0.1,0.1,0.2,0.1c0,0,0,0,0.1,0c0,0,0.1,0,0.1,0.1
	c0,0,0,0,0.1,0h0.1c0,0,0,0,0.1,0H52l0,0l0,0c0.1,0,0.2,0,0.4-0.1l0,0c0.1,0,0.2-0.1,0.3-0.2l2-1.8c1,1.6,1.7,3.5,1.8,5.4H30.1
	C30.2,19.6,30.9,17.7,31.9,16.1z M28.9,36.9c-1-0.4-1.6-1.3-1.6-2.4v-1.3c0-0.3,0.3-0.6,0.6-0.6h1V36.9z M28.5,24.8
	c-0.3,0-0.5-0.2-0.5-0.5s0.2-0.5,0.5-0.5h29.6c0.3,0,0.5,0.2,0.5,0.5s-0.2,0.5-0.5,0.5H28.5z M37.8,27c-0.5,1.9-2.3,3.3-4.3,3.3
	h-2.4V27H37.8z M35.2,43.8v1.5c-2.6-1.9-4.1-4.9-4.1-8.2l0,0v-4.6h2.4c2.2,0,4.3-1.1,5.5-3c1.2,1.8,3.3,3,5.5,3h3H49h6.5v4.6
	c0,3.2-1.5,6.2-4.1,8.2v-1.5c0-2.7-2.2-4.9-4.9-4.9h-6.3C37.4,38.8,35.2,41,35.2,43.8z M37.4,49.6v-0.7l0,0c0.2,0.1,0.4,0.1,0.6,0.2
	c0.2,0,0.4,0.1,0.5,0.1c0.2,0,0.3,0.1,0.5,0.1s0.5,0.1,0.7,0.1c0.1,0,0.3,0,0.4,0c0.4,0,0.8,0.1,1.1,0.1h4c0.4,0,0.8,0,1.1-0.1
	c0.1,0,0.3,0,0.4,0c0.2,0,0.5-0.1,0.7-0.1s0.3-0.1,0.5-0.1s0.4-0.1,0.5-0.1c0.2-0.1,0.4-0.1,0.6-0.2l0,0v0.7c0,0.4,0,0.7-0.1,1.1
	l0,0c-0.1,0.5-0.3,0.9-0.6,1.3l0,0c-0.1,0.2-0.3,0.3-0.4,0.5l-0.1,0.1c-0.1,0.1-0.3,0.3-0.4,0.4l-0.1,0.1c-0.2,0.1-0.3,0.2-0.5,0.3
	c0,0,0,0-0.1,0c-0.2,0.1-0.4,0.2-0.6,0.3H46c-0.2,0.1-0.4,0.1-0.6,0.2h-0.1C45.2,54,45,54,44.7,54h-2.9c-0.2,0-0.4,0-0.7-0.1H41
	c-0.2,0-0.4-0.1-0.6-0.2h-0.1c-0.2-0.1-0.4-0.2-0.6-0.3c0,0,0,0-0.1,0c-0.2-0.1-0.3-0.2-0.5-0.3L39,53c-0.2-0.1-0.3-0.3-0.4-0.4
	l-0.1-0.1c-0.1-0.2-0.3-0.3-0.4-0.5l0,0c-0.3-0.4-0.5-0.9-0.6-1.3l0,0C37.5,50.3,37.4,50,37.4,49.6z M48.8,46.7
	C48.8,46.7,48.7,46.7,48.8,46.7L48.8,46.7c-0.4,0.2-0.7,0.3-1,0.4c-0.1,0-0.1,0-0.2,0.1c-0.3,0.1-0.6,0.1-0.9,0.1
	c-0.1,0-0.2,0-0.3,0c-0.4,0-0.7,0.1-1.1,0.1h-4c-0.4,0-0.7,0-1.1-0.1c-0.1,0-0.2,0-0.3,0c-0.3,0-0.6-0.1-0.9-0.1
	c-0.1,0-0.1,0-0.2-0.1c-0.3-0.1-0.6-0.2-0.9-0.3c0,0-0.1,0-0.1-0.1c-0.1,0-0.3-0.1-0.4-0.2v-2.8c0-1.5,1.2-2.7,2.7-2.7h6.3
	c1.5,0,2.7,1.2,2.7,2.7v2.8C49,46.6,48.9,46.6,48.8,46.7z M35,52.1h0.7l0,0c0,0.1,0.1,0.2,0.1,0.3s0.1,0.2,0.1,0.2
	c0,0.1,0.1,0.2,0.1,0.2c0.1,0.1,0.1,0.2,0.2,0.4c0,0,0,0.1,0.1,0.1c0.1,0.2,0.2,0.3,0.4,0.5l0,0c0.1,0.2,0.3,0.3,0.4,0.4l0,0
	c0.4,0.4,0.9,0.8,1.5,1.1h0.1c0.2,0.1,0.3,0.2,0.5,0.2h0.1c0.4,0.2,0.8,0.3,1.1,0.4c0.1,0,0.1,0,0.2,0c0.1,0,0.3,0,0.4,0.1
	c0.1,0,0.1,0,0.2,0c0.2,0,0.4,0,0.6,0h2.9c0.2,0,0.4,0,0.6,0c0.1,0,0.1,0,0.2,0c0.1,0,0.3,0,0.4-0.1c0.1,0,0.1,0,0.2,0
	c0.4-0.1,0.8-0.2,1.1-0.4h0.1c0.2-0.1,0.3-0.1,0.5-0.2h0.1c0.5-0.3,1-0.7,1.5-1.1l0,0c0.1-0.1,0.3-0.3,0.4-0.4l0,0
	c0.1-0.2,0.2-0.3,0.4-0.5c0,0,0-0.1,0.1-0.1c0.1-0.1,0.2-0.2,0.2-0.4c0-0.1,0.1-0.2,0.1-0.2c0-0.1,0.1-0.2,0.1-0.2
	c0-0.1,0.1-0.2,0.1-0.3l0,0h0.7v13H35V52.1z M29.2,52.5L29.2,52.5c0.3-0.1,0.5-0.1,0.7-0.2c0.1,0,0.1,0,0.2,0c0.2,0,0.4-0.1,0.6-0.1
	c0.1,0,0.1,0,0.2,0c0.2,0,0.4,0,0.6-0.1c0.1,0,0.1,0,0.2,0c0.3,0,0.5,0,0.8,0h0.3v13h-3.6C29.2,65.1,29.2,52.5,29.2,52.5z M21.1,69
	v10.1h-3.3V66.8c0-6,3.6-11.4,9.2-13.7V65h-1.9C22.9,65.1,21.1,66.8,21.1,69z"/>
<path class="st1" d="M58.8,21.6c-0.2-2.5-1-4.9-2.4-7L57,14c0.2-0.2,0.4-0.5,0.4-0.8s-0.1-0.6-0.3-0.8l-2.2-2.3
	c-0.2-0.2-0.5-0.3-0.8-0.3s-0.6,0.1-0.8,0.4l-0.5,0.5c-1.4-1-3-1.8-4.7-2.2l0.2-2.2c0-0.3-0.1-0.6-0.3-0.9C47.8,5.2,47.5,5,47.2,5
	h-7.7c-0.3,0-0.6,0.1-0.8,0.4c-0.2,0.2-0.3,0.5-0.3,0.9l0.2,2.2c-1.7,0.5-3.3,1.2-4.7,2.2l-0.5-0.5c-0.2-0.2-0.5-0.4-0.8-0.4
	s-0.6,0.1-0.8,0.3l-2.3,2.3c-0.2,0.2-0.3,0.5-0.3,0.8s0.1,0.6,0.4,0.8l0.6,0.6c-1.4,2.1-2.2,4.5-2.4,7c-1.3,0.3-2.2,1.6-2.1,3
	S27,27,28.4,27h0.4l0,0H31h6.7h2.5h15.2h2.2l0,0H58c1.4,0,2.6-1,2.7-2.4C61,23.2,60.1,21.9,58.8,21.6z M54.1,12.6l0.6,0.6l-0.5,0.4
	L52,15.5l-0.3-0.3L54.1,12.6z M45.9,7.4l-0.6,5.4h-4l-0.6-5.4H45.9z M32.5,12.6l2.4,2.7l-0.3,0.3l-2.2-1.9l-0.5-0.4L32.5,12.6z
	 M31.9,16.1l2,1.8c0.1,0.1,0.2,0.2,0.3,0.2l0,0c0.1,0,0.2,0.1,0.4,0.1l0,0l0,0h0.1h0.1h0.1H35c0,0,0.1,0,0.1-0.1h0.1
	c0.1,0,0.1-0.1,0.2-0.1l1.8-1.8c0.4-0.4,0.4-1.1,0-1.5l-1.9-2.1c1.1-0.7,2.2-1.3,3.5-1.7l0.4,3.2c0.1,0.6,0.5,1,1.1,1h6
	c0.6,0,1-0.4,1.1-1l0.4-3.2c1.2,0.4,2.4,0.9,3.5,1.7l-1.9,2.1c-0.4,0.4-0.4,1.1,0,1.5l1.8,1.8c0.1,0.1,0.1,0.1,0.2,0.1
	c0,0,0,0,0.1,0c0,0,0.1,0,0.1,0.1c0,0,0,0,0.1,0h0.1c0,0,0,0,0.1,0H52l0,0l0,0c0.1,0,0.2,0,0.4-0.1l0,0c0.1,0,0.2-0.1,0.3-0.2l2-1.8
	c1,1.6,1.7,3.5,1.8,5.4H30.1C30.2,19.6,30.9,17.7,31.9,16.1z M58.1,24.8H28.5c-0.3,0-0.5-0.2-0.5-0.5s0.2-0.5,0.5-0.5h29.6
	c0.3,0,0.5,0.2,0.5,0.5C58.6,24.5,58.4,24.8,58.1,24.8z"/>
<rect x="55.2" y="64.4" class="st1" width="6.8" height="2.2"/>
<rect x="55.2" y="68.8" class="st1" width="6.8" height="2.2"/>
<rect x="55.2" y="73.3" class="st1" width="6.8" height="2.2"/>
</svg>
