<?xml version="1.0" encoding="utf-8"?>
<!-- Generator: Adobe Illustrator 23.0.2, SVG Export Plug-In . SVG Version: 6.00 Build 0)  -->
<svg version="1.1" id="Layer_1" xmlns="http://www.w3.org/2000/svg" xmlns:xlink="http://www.w3.org/1999/xlink" x="0px" y="0px"
	 viewBox="0 0 86.6 86.6" style="enable-background:new 0 0 86.6 86.6;" xml:space="preserve">
<style type="text/css">
	.st0{fill:#3B3B3B;}
	.st1{fill:#009A9B;}
</style>
<path class="st0" d="M65.8,51.4L56,46.9c1.7-1.7,2.5-3.9,2.5-6.2v-0.4l2.9-1.5c1.3-0.6,2.2-1.9,2.2-3.4v-0.9c0-2-1.7-3.8-3.8-3.8
	h-1.3v-2.8c2-0.6,3-2.8,2.3-4.8c-0.4-1.1-1.3-2-2.4-2.4L58,16.9C57.5,12.4,53.7,9,49.1,9H49l-1.4-2.2c-0.6-1-1.9-1.7-3.2-1.7H42
	c-1.3,0-2.4,0.6-3.2,1.7L37.6,9h-0.1c-4.6,0-8.4,3.4-8.9,7.9l-0.4,3.7c-2,0.6-3,2.8-2.5,4.7c0.4,1.1,1.3,2,2.4,2.4v2.9h-1.3
	c-2,0-3.8,1.8-3.8,3.8v0.9c0,1.4,0.8,2.8,2.2,3.4l2.9,1.5v0.4c0,2.3,0.9,4.6,2.5,6.2l-9.8,4.6c-5,2.3-8,7.2-8,12.7v17.3h61V64.1
	C73.8,58.7,70.6,53.7,65.8,51.4z M28.1,37.5l-1.8-0.9c-0.4-0.3-0.8-0.6-0.8-1.1v-1c0-0.6,0.5-1.3,1.3-1.3h1.3V37.5z M56,33.1h-2.5
	c0-1.4-1.1-2.5-2.5-2.5h-4.4c-0.8,0-1.5,0.4-2,1L43.3,33l-1.1-1.4c-0.5-0.6-1.3-1-2-1h-4.4c-1.4,0-2.5,1.1-2.5,2.5h-2.5v-5.1H56
	V33.1z M50.9,33.1v3.8h-4.4L45,35l1.5-1.9H50.9z M41.6,35l-1.5,1.9h-4.4v-3.8h4.4L41.6,35z M59.8,33.1c0.6,0,1.3,0.6,1.3,1.3v0.9
	c0,0.5-0.3,0.9-0.8,1.1l-1.8,1v-4.3H59.8z M31.1,17.1c0.4-2.9,2.8-5.3,5.8-5.6v6.4h2.5v-7.2L41,8.2c0.3-0.3,0.6-0.5,1.1-0.5h2.4
	c0.4,0,0.8,0.3,1,0.5l1.5,2.4v7.2h2.5v-6.4c3,0.3,5.5,2.5,5.8,5.6l0.4,3.2H30.7L31.1,17.1z M28.1,24.2c0-0.8,0.5-1.3,1.3-1.3h27.9
	c0.8,0,1.3,0.5,1.3,1.3c0,0.8-0.5,1.3-1.3,1.3H29.3C28.6,25.5,28.1,24.9,28.1,24.2z M30.6,40.6v-5h2.5v1.3c0,1.4,1.1,2.5,2.5,2.5
	h4.4c0.8,0,1.5-0.4,2-1l1.1-1.4l1.1,1.4c0.5,0.6,1.3,1,2,1h4.4c1.4,0,2.5-1.1,2.5-2.5v-1.3H56v5c0,1-0.3,1.9-0.6,2.8l-0.3,0.1
	c-3.2,1.9-7.2,1.7-10.2-0.8c-0.9-0.8-2.3-0.8-3.2,0c-2.9,2.3-7,2.5-10.2,0.6l-0.3-0.1C30.9,42.7,30.6,41.6,30.6,40.6L30.6,40.6z
	 M38.1,49.4l-2.7-1.9c2.8,0.1,5.7-0.6,7.9-2.4c2,1.7,4.6,2.5,7.1,2.5h0.8l-2.7,1.9C45.5,51.7,41.1,51.7,38.1,49.4L38.1,49.4z
	 M44.4,56.9l-0.3,0.3c-0.5,0.5-1.3,0.5-1.8,0l-0.3-0.3c-0.5-0.5-0.5-1.3,0-1.8l0.3-0.3c0.5-0.5,1.3-0.5,1.8,0l0.3,0.3
	C45,55.6,45,56.4,44.4,56.9z M28.1,78.9V68.7h-2.5v10.2H15.4V64.1c0-4.4,2.5-8.5,6.6-10.4l1.9-0.9l3.6,6l3.2-1l1.1,21.1L28.1,78.9z
	 M38,78.9h-3.7L33,54.2l-4.4,1.5l-2.4-4.1l6.6-3l3.8,2.8c1.1,0.9,2.5,1.4,3.9,1.8l-0.1,0.1c-1,1-1.4,2.5-0.9,3.9L37,72.5L38,78.9z
	 M46.1,78.9h-5.5l-1.1-6.3l2.2-12.8c1,0.5,2.3,0.5,3.3,0l2.2,12.8L46.1,78.9z M52.3,78.9h-3.7l1-6.3l-2.5-15.4
	c0.5-1.4,0.1-2.9-0.9-3.9l-0.1-0.1c1.4-0.4,2.7-1,3.9-1.8l3.8-2.8l6.6,3L58,55.6l-4.4-1.5L52.3,78.9z M71.2,78.9H61.1V68.7h-2.5
	v10.2h-3.7L56,57.8l3.2,1l3.6-6l1.9,0.9c4.1,1.9,6.6,6,6.6,10.4V78.9z"/>
<path class="st1" d="M30.6,28.1H56h2.5v-0.3c2-0.6,3-2.8,2.3-4.8c-0.4-1.1-1.3-2-2.4-2.4L58,16.9C57.5,12.4,53.7,9,49.1,9H49
	l-1.4-2.2c-0.6-1-1.9-1.7-3.2-1.7H42c-1.3,0-2.4,0.6-3.2,1.7L37.6,9h-0.1c-4.6,0-8.4,3.4-8.9,7.9l-0.4,3.7c-2,0.6-3,2.8-2.5,4.7
	c0.4,1.1,1.3,2,2.4,2.4v0.4H30.6z M31.1,17.1c0.4-2.9,2.8-5.3,5.8-5.6v6.3h2.5v-7.2L41,8.2c0.3-0.3,0.6-0.5,1.1-0.5h2.4
	c0.4,0,0.8,0.3,1,0.5l1.5,2.4v7.2h2.5v-6.3c3,0.3,5.5,2.5,5.8,5.6l0.4,3.2H30.7L31.1,17.1z M29.3,23h27.9c0.8,0,1.3,0.5,1.3,1.3
	c0,0.8-0.5,1.3-1.3,1.3H29.3c-0.8,0-1.3-0.6-1.3-1.3C28.1,23.5,28.6,23,29.3,23z"/>
<g>
	<path class="st1" d="M30.6,35.7h2.5v1.3c0,1.4,1.1,2.5,2.5,2.5h4.4c0.8,0,1.5-0.4,2-1l1.1-1.4l1.1,1.4c0.5,0.6,1.3,1,2,1h4.4
		c1.4,0,2.5-1.1,2.5-2.5v-1.3H56v-2.5h-2.5c0-1.4-1.1-2.5-2.5-2.5h-4.4c-0.8,0-1.5,0.4-2,1L43.3,33l-1.1-1.4c-0.5-0.6-1.3-1-2-1
		h-4.4c-1.4,0-2.5,1.1-2.5,2.5h-2.5V35.7z M46.5,33.1h4.4v3.8h-4.4L45,35L46.5,33.1z M35.7,33.1h4.4l1.5,1.9l-1.5,1.9h-4.4V33.1z"/>
</g>
</svg>
