<?xml version="1.0" encoding="utf-8"?>
<!-- Generator: Adobe Illustrator 23.0.2, SVG Export Plug-In . SVG Version: 6.00 Build 0)  -->
<svg version="1.1" id="Layer_1" xmlns="http://www.w3.org/2000/svg" xmlns:xlink="http://www.w3.org/1999/xlink" x="0px" y="0px"
	 viewBox="0 0 86.6 86.6" style="enable-background:new 0 0 86.6 86.6;" xml:space="preserve">
<style type="text/css">
	.st0{fill:none;}
	.st1{fill:#3B3B3B;}
	.st2{fill:#009A9B;}
</style>
<line class="st0" x1="73.7" y1="51.4" x2="73.7" y2="51.5"/>
<g>
	<g>
		<path class="st1" d="M75.6,61H68v-8.9c0-6.3-5.1-11.4-11.4-11.4H46.5v-2c3.2-2.1,5.1-5.7,5.1-9.5v-3.8h1.3c2.1,0,3.8-1.7,3.8-3.8
			c0-1.6-1-3.1-2.6-3.6c-0.6-7.3-6.6-12.9-13.9-12.9h-2.5c-7.3,0-13.3,5.6-13.9,12.9c-2,0.7-3.1,2.8-2.4,4.8c0.5,1.6,2,2.6,3.6,2.6
			h1.3v3.8c0,3.8,1.9,7.3,5.1,9.5v2H21.1c-6.3,0-11.4,5.1-11.4,11.4v19c0,0.7,0.6,1.3,1.3,1.3h8.9V80c0,0.7,0.6,1.3,1.3,1.3h45.7
			c0.7,0,1.3-0.6,1.3-1.3v-7.4l0.9,0.8c0.5,0.4,1.2,0.4,1.7,0l2.1-1.8l2.1,1.8c0.1,0,0.1,0.1,0.2,0.1c0.1,0,0.1,0.1,0.2,0.1
			c0.1,0.1,0.3,0.1,0.5,0.1c0.2,0,0.3,0,0.5-0.1c0,0,0.1,0,0.1-0.1c0.1-0.1,0.2-0.1,0.3-0.2c0,0,0,0,0,0c0,0,0.1-0.1,0.1-0.2
			c0.1-0.1,0.1-0.2,0.1-0.2c0-0.1,0-0.2,0.1-0.3c0-0.1,0-0.1,0-0.2V62.3C76.9,61.6,76.3,61,75.6,61z M57.9,43.3
			c4.4,0.6,7.6,4.4,7.6,8.8v3.8h-7.6V43.3z M57.9,58.5h7.6V61h-7.6V58.5z M49,43.2h6.3V61H49V43.2z M33.8,8.4v4.4
			c0,0.7,0.6,1.3,1.3,1.3c0.7,0,1.3-0.6,1.3-1.3v-5c0.4,0,0.8-0.1,1.3-0.1v6.3c0,0.7,0.6,1.3,1.3,1.3c0.7,0,1.3-0.6,1.3-1.3V7.7
			c0.4,0,0.8,0,1.3,0.1v5c0,0.7,0.6,1.3,1.3,1.3c0.7,0,1.3-0.6,1.3-1.3V8.4c4.1,1.5,7,5.1,7.5,9.5H26.2C26.7,13.5,29.7,9.9,33.8,8.4
			z M24.9,23c-0.7,0-1.3-0.6-1.3-1.3c0-0.7,0.6-1.3,1.3-1.3h27.9c0.7,0,1.3,0.6,1.3,1.3c0,0.7-0.6,1.3-1.3,1.3H24.9z M28.7,29.3
			v-3.8H49v3.8c0,3.2-1.7,6.1-4.4,7.7c-1.3,0.8-2.9,1.2-4.4,1.2h-2.5c-1.6,0-3.1-0.4-4.4-1.2C30.4,35.4,28.7,32.5,28.7,29.3z
			 M43.9,40.1v3.2c0,2.8-2.3,5.1-5.1,5.1c-2.8,0-5.1-2.3-5.1-5.1v-3.2c0.2,0.1,0.5,0.2,0.7,0.2c0,0,0.1,0,0.1,0.1
			c0.4,0.1,0.9,0.2,1.3,0.3c0.1,0,0.2,0,0.3,0c0.4,0.1,0.9,0.1,1.3,0.1h2.5c0.4,0,0.9,0,1.3-0.1c0.1,0,0.2,0,0.3,0
			c0.4-0.1,0.9-0.1,1.3-0.3c0.1,0,0.1,0,0.2-0.1C43.5,40.2,43.7,40.1,43.9,40.1z M31.3,43.2c0,4.2,3.4,7.6,7.6,7.6s7.6-3.4,7.6-7.6
			V61h-7.6v-1.3c0-0.7-0.6-1.3-1.3-1.3h-6.3V43.2z M30,61h6.3v12.7H30c-0.7,0-1.3-0.6-1.3-1.3v-0.2c0.2-0.1,0.3-0.1,0.5-0.2
			c0.1,0,0.2,0,0.2-0.1c0.3-0.1,0.5-0.3,0.8-0.4c0.1,0,0.1-0.1,0.2-0.1c0.2-0.1,0.4-0.3,0.5-0.5c0.1-0.1,0.1-0.2,0.2-0.2
			c0.1-0.1,0.3-0.3,0.4-0.5c0.1-0.1,0.1-0.2,0.2-0.3c0.1-0.2,0.2-0.3,0.3-0.5c0-0.1,0.1-0.2,0.1-0.3c0.1-0.2,0.1-0.4,0.2-0.6
			c0-0.1,0.1-0.2,0.1-0.3c0.1-0.6,0.1-1.3,0-1.9c0-0.1-0.1-0.2-0.1-0.3c0-0.2-0.1-0.4-0.2-0.6c0-0.1-0.1-0.2-0.1-0.3
			c-0.1-0.2-0.2-0.3-0.3-0.5c-0.1-0.1-0.1-0.2-0.2-0.3c-0.1-0.2-0.2-0.3-0.4-0.5c-0.1-0.1-0.1-0.2-0.2-0.2c-0.2-0.2-0.4-0.3-0.5-0.5
			c-0.1,0-0.1-0.1-0.2-0.1c-0.3-0.2-0.5-0.3-0.8-0.4c-0.1,0-0.2-0.1-0.2-0.1c-0.2-0.1-0.3-0.1-0.5-0.2v-0.2C28.7,61.6,29.3,61,30,61
			z M22.4,43.2h6.3v15.5c-1.5,0.5-2.5,2-2.5,3.6h-3.8V43.2z M12.2,52.1c0-4.4,3.2-8.2,7.6-8.8v12.6h-7.6V52.1z M12.2,69.9V58.5h7.6
			v5.1c0,0.7,0.6,1.3,1.3,1.3h6.3c1.4,0,2.5,1.1,2.5,2.5s-1.1,2.5-2.5,2.5H12.2z M55.3,72.4v6.3h-33v-6.3h3.8c0,2.1,1.7,3.8,3.8,3.8
			h7.6c0.7,0,1.3-0.6,1.3-1.3v-2.3l0.8,0.7c0.5,0.4,1.2,0.4,1.7,0l2.1-1.8l2.1,1.8c0.5,0.4,1.2,0.4,1.7,0l2.1-1.8l2.1,1.8
			c0.5,0.4,1.2,0.4,1.7,0l2.1-1.8l0.3,0.3C55.4,72,55.4,72.2,55.3,72.4z M65.5,78.8h-7.6v-5.1c0.4,0.1,0.7,0,1-0.3l2.1-1.8l2.1,1.8
			c0.5,0.4,1.2,0.4,1.7,0l0.7-0.6V78.8z M74.4,69.6l-0.8-0.7c-0.5-0.4-1.2-0.4-1.7,0l0,0l-2.1,1.8l-2.1-1.8c-0.5-0.4-1.2-0.4-1.7,0
			l-2.1,1.8l-2.1-1.8c-0.5-0.4-1.2-0.4-1.7,0l-2.1,1.8L56,68.9c-0.5-0.4-1.2-0.4-1.7,0l-2.1,1.8l-2.1-1.8c-0.5-0.4-1.2-0.4-1.7,0
			l-2.1,1.8l-2.1-1.8c-0.5-0.4-1.2-0.4-1.7,0l-2.1,1.8l-1.7-1.4v-5.8h35.5V69.6z"/>
	</g>
</g>
<g>
	<g>
		<path class="st2" d="M33.9,8.4v4.4c0,0.7,0.6,1.3,1.3,1.3s1.3-0.6,1.3-1.3v-5c0.4,0,0.8-0.1,1.3-0.1v6.3c0,0.7,0.6,1.3,1.3,1.3
			s1.3-0.6,1.3-1.3V7.7c0.4,0,0.8,0,1.3,0.1v5c0,0.7,0.6,1.3,1.3,1.3s1.3-0.6,1.3-1.3V8.4c4.1,1.5,7,5.1,7.5,9.5H26.3
			C26.8,13.5,29.7,9.9,33.9,8.4z M25,23c-0.7,0-1.3-0.6-1.3-1.3c0-0.7,0.6-1.3,1.3-1.3h27.9c0.7,0,1.3,0.6,1.3,1.3
			c0,0.7-0.6,1.3-1.3,1.3H25z M51.6,25.5h1.3c2.1,0,3.8-1.7,3.8-3.8c0-1.6-1-3.1-2.6-3.6c-0.6-7.3-6.6-12.9-13.9-12.9h-2.5
			c-7.3,0-13.3,5.6-13.9,12.9c-2,0.7-3.1,2.8-2.4,4.8c0.5,1.6,2,2.6,3.6,2.6h1.3h2.5h20.3H51.6z"/>
	</g>
</g>
</svg>
