<?xml version="1.0" encoding="utf-8"?>
<!-- Generator: Adobe Illustrator 24.0.1, SVG Export Plug-In . SVG Version: 6.00 Build 0)  -->
<svg version="1.1" id="Layer_1" xmlns="http://www.w3.org/2000/svg" xmlns:xlink="http://www.w3.org/1999/xlink" x="0px" y="0px"
	 viewBox="0 0 86.6 86.6" style="enable-background:new 0 0 86.6 86.6;" xml:space="preserve">
<style type="text/css">
	.st0{fill:#009A9B;}
	.st1{fill:#FFFFFF;}
</style>
<path class="st0" d="M63.1,18.7h-15c-2,0-3.7,1.6-3.7,3.7v14c0,2,1.6,3.7,3.7,3.7h15c2,0,3.7-1.6,3.7-3.7v-14
	C66.8,20.4,65.2,18.7,63.1,18.7z M65.3,36.4c0,1.2-1,2.2-2.2,2.2h-15c-1.2,0-2.2-1-2.2-2.2V22.4c0-1.2,1-2.2,2.2-2.2h15
	c1.2,0,2.2,1,2.2,2.2V36.4z"/>
<path class="st0" d="M55.6,22.7c-3.7,0-6.6,3-6.6,6.6s3,6.6,6.6,6.6c3.7,0,6.6-3,6.6-6.6C62.2,25.7,59.2,22.7,55.6,22.7z M55.6,34.6
	c-2.8,0-5.2-2.3-5.2-5.2s2.3-5.2,5.2-5.2s5.2,2.3,5.2,5.2S58.5,34.6,55.6,34.6z"/>
<path class="st0" d="M53.4,27.6c-0.4,0-0.7,0.3-0.7,0.7v2c0,0.4,0.3,0.7,0.7,0.7c0.4,0,0.7-0.3,0.7-0.7v-2
	C54.1,28,53.8,27.6,53.4,27.6z"/>
<path class="st0" d="M57.9,27.6c-0.4,0-0.7,0.3-0.7,0.7v2c0,0.4,0.3,0.7,0.7,0.7s0.7-0.3,0.7-0.7v-2C58.6,28,58.3,27.6,57.9,27.6z"
	/>
<path class="st1" d="M59.9,66.5H48.1c-1.7,0-3-1.4-3-3v-7.9c0-2.1-1.7-3.9-3.9-3.9c-2.1,0-3.9,1.7-3.9,3.9v7.9
	c0,1.7-1.4,3.1-3.1,3.1c-1.7,0-3.1-1.4-3.1-3.1v-8.3h0.3c1.1-0.1,1.9-1,1.9-2.1v-1.3h0.3c2.8,0,5.2-2.3,5.2-5.1v-6.3H40
	c0.5,0,0.8-0.4,0.8-0.8v-1.9c0-1.4-1.1-2.5-2.5-2.5h-2.1v-7.4c0-1.2-1-2.3-2.3-2.3s-2.3,1-2.3,2.3v7.4h-2.8v-7.4
	c0-1.2-1-2.3-2.3-2.3c-1.2,0-2.3,1-2.3,2.3v7.4h-2.1c-1.4,0-2.5,1.1-2.5,2.5v1.9c0,0.5,0.4,0.8,0.8,0.8h1.4v6.3
	c0,2.8,2.3,5.1,5.1,5.1h0.3l0.1,0.3v1c0,1.1,0.8,2,1.9,2.1h0.3v8.3c0,2.5,2,4.5,4.5,4.5s4.5-2,4.5-4.5v-7.9c0-1.4,1.1-2.5,2.5-2.5
	s2.5,1.1,2.5,2.5v7.9c0,2.5,2,4.5,4.5,4.5h11.8V66.5z M33.3,27.9c0-0.5,0.4-0.8,0.8-0.8s0.8,0.4,0.8,0.8v7.4h-1.7
	C33.3,35.3,33.3,27.9,33.3,27.9z M25.8,27.9c0-0.5,0.4-0.8,0.8-0.8s0.8,0.4,0.8,0.8v7.4h-1.7C25.8,35.3,25.8,27.9,25.8,27.9z
	 M27.2,50.4c-2,0-3.7-1.6-3.7-3.7v-6.3h5.4c0.4,0,0.7-0.3,0.7-0.7S29.3,39,28.9,39h-7.6v-1.2c0-0.6,0.5-1,1-1h16.2c0.6,0,1,0.5,1,1
	V39h-2.8c-0.4,0-0.7,0.3-0.7,0.7s0.3,0.7,0.7,0.7h0.5v6.3c0,2-1.6,3.7-3.7,3.7H27.2z M29.5,53.7c-0.3,0-0.6-0.3-0.6-0.6v-1.3h2.9
	v1.3c0,0.3-0.3,0.6-0.6,0.6H29.5z"/>
<path class="st1" d="M32.8,39c-0.4,0-0.7,0.3-0.7,0.7c0,0.4,0.3,0.7,0.7,0.7l0,0c0.4,0,0.7-0.3,0.7-0.7C33.6,39.3,33.2,39,32.8,39z"
	/>
</svg>
