<?xml version="1.0" encoding="utf-8"?>
<!-- Generator: Adobe Illustrator 24.0.1, SVG Export Plug-In . SVG Version: 6.00 Build 0)  -->
<svg version="1.1" id="Layer_1" xmlns="http://www.w3.org/2000/svg" xmlns:xlink="http://www.w3.org/1999/xlink" x="0px" y="0px"
	 viewBox="0 0 86.6 86.6" style="enable-background:new 0 0 86.6 86.6;" xml:space="preserve">
<style type="text/css">
	.st0{fill:#FFFFFF;}
	.st1{fill:#282828;}
</style>
<path class="st0" d="M23.8,47c0.4,0,0.8-0.4,0.8-0.8V29c0-0.4-0.4-0.8-0.8-0.8S23,28.6,23,29v17.2C23,46.7,23.4,47,23.8,47z"/>
<path class="st0" d="M23.8,26.7c0.4,0,0.8-0.4,0.8-0.8v-1.6c0-0.4-0.4-0.8-0.8-0.8S23,23.9,23,24.3v1.6C23,26.3,23.4,26.7,23.8,26.7
	z"/>
<path class="st1" d="M43.3,35.3c-1.7,0-3.1,1.4-3.1,3.1s1.4,3.1,3.1,3.1s3.1-1.4,3.1-3.1S45,35.3,43.3,35.3z M43.3,40
	c-0.9,0-1.6-0.7-1.6-1.6s0.7-1.6,1.6-1.6s1.6,0.7,1.6,1.6S44.2,40,43.3,40z"/>
<path class="st1" d="M51.9,35.3L51.9,35.3h-1.4c-0.2-0.5-0.5-1.1-0.9-1.5l0.7-1.3c0.4-0.7,0.1-1.7-0.6-2.1L47,28.8
	c-0.4-0.2-0.8-0.3-1.2-0.1c-0.4,0.1-0.7,0.4-0.9,0.7l-0.7,1.2c-0.6-0.1-1.1-0.1-1.7,0l-0.7-1.2c-0.4-0.7-1.4-1-2.1-0.6L37,30.4
	c-0.7,0.4-1,1.4-0.6,2.1l0.7,1.2c-0.4,0.5-0.6,1-0.9,1.5h-1.4c-0.4,0-0.8,0.1-1.1,0.5c-0.3,0.3-0.4,0.7-0.4,1.1v3.1
	c0,0.9,0.7,1.6,1.6,1.6h1.4c0.1,0.3,0.2,0.5,0.4,0.8c0.1,0.3,0.3,0.5,0.5,0.7l-0.7,1.3C36,45,36.3,46,37,46.4l2.7,1.6
	c0.4,0.2,0.8,0.3,1.2,0.1c0.4-0.1,0.7-0.4,0.9-0.7l0.7-1.2c0.6,0.1,1.1,0.1,1.7,0l0.7,1.2c0.2,0.4,0.6,0.6,0.9,0.7
	c0.1,0.1,0.3,0.1,0.4,0.1c0.3,0,0.6-0.1,0.8-0.2l2.7-1.6c0.7-0.4,1-1.4,0.6-2.1l-0.7-1.2c0.4-0.5,0.6-1,0.9-1.5H52
	c0.4,0,0.8-0.1,1.1-0.5c0.3-0.3,0.4-0.7,0.4-1.1v-3.1C53.5,36,52.8,35.3,51.9,35.3z M50,40c-0.4,0-0.6,0.2-0.7,0.5
	c-0.3,0.7-0.6,1.4-1.1,2c-0.2,0.3-0.2,0.6-0.1,0.9l1,1.7l-2.7,1.6l-1.1-1.8c-0.1-0.2-0.4-0.4-0.6-0.4c-0.1,0-0.1,0-0.1,0
	c-0.8,0.1-1.5,0.1-2.3,0c-0.4-0.1-0.6,0.1-0.9,0.4l-1,1.7L37.7,45l1-1.7c0.1-0.3,0.1-0.6-0.1-0.9c-0.5-0.6-0.9-1.2-1.1-2
	c-0.1-0.3-0.4-0.5-0.7-0.5h-2v-3.1h2c0.4,0,0.6-0.2,0.7-0.5c0.3-0.7,0.6-1.4,1.1-2c0.2-0.3,0.2-0.6,0.1-0.9l-1-1.7l2.7-1.6l1,1.7
	c0.1,0.3,0.5,0.4,0.8,0.4c0.8-0.1,1.5-0.1,2.3,0c0.4,0.1,0.6-0.1,0.9-0.4l1-1.7l2.7,1.6l-1,1.7C48,33.7,48,34,48.2,34.3
	c0.5,0.6,0.9,1.2,1.1,2c0.1,0.3,0.4,0.5,0.7,0.5h2v3.1L50,40z"/>
<path class="st0" d="M66.8,28.1c-0.1-2.5-2.1-4.5-4.7-4.5H30.8v-2.4c0-0.9-0.7-1.6-1.6-1.6h-4.7c-1.2,0-2.4,0.5-3.3,1.4
	s-1.4,2.1-1.4,3.3V58c0.1,2.5,2.1,4.6,4.7,4.7h0.1h0.6l1.1,2.5c0.1,0.1,0.1,0.2,0.2,0.4c0,0.1,0.1,0.1,0.1,0.1
	c0.1,0.1,0.1,0.1,0.2,0.2l0.1,0.1c0.1,0.1,0.2,0.1,0.3,0.2c0,0,0.1,0,0.1,0.1c0.1,0.1,0.2,0.1,0.3,0.1h0.1h0.1
	c0.1,0,0.1,0.1,0.2,0.1s0.1,0,0.1,0c0.1,0,0.2,0,0.3,0h0.1c0.4,0,0.6-0.1,1-0.2l8.1-3.7H56V65c0,0.9,0.7,1.6,1.6,1.6h4.7
	c2.6,0,4.7-2.1,4.7-4.7V28l0,0C66.8,28.2,66.8,28.1,66.8,28.1z M22.4,22.1c0.6-0.6,1.4-0.9,2.2-0.9h4.7v32h-4.7
	c-1.1,0-2.3,0.4-3.1,1.2V24.3C21.4,23.5,21.7,22.8,22.4,22.1z M48.5,55.5l-1.6-3.6l5-0.4l0.1,0.4L48.5,55.5z M45.2,52.2l0.6,1.4
	l-5,2.3c-0.3,0.1-0.4,0.4-0.4,0.6c0,0.3,0.1,0.6,0.4,0.7c0.2,0.1,0.5,0.2,0.8,0.1l5-2.3l0.6,1.4L37,61.2l0,0L32.9,63l-0.6-1.4L38,59
	c0.4-0.2,0.6-0.6,0.4-1c-0.1-0.4-0.6-0.6-1-0.4l-5.7,2.5L31,58.7L45.2,52.2z M28.7,65c-0.4,0.2-0.9,0-1-0.4l-1.3-2.9
	c-0.1-0.4,0-0.9,0.4-1l2.9-1.3l1,2.1l0,0l0,0l1,2.1L28.7,65z M40.9,61.1l7.7-3.5c0.1,0,0.1-0.1,0.1-0.1c0.1,0,0.1-0.1,0.1-0.1
	l4.3-4.3c0.5-0.4,0.6-1.2,0.4-1.8l-0.2-0.4c-0.3-0.6-0.9-1-1.6-0.9l-6.1,0.4c-0.1,0-0.1,0-0.2,0.1l0,0l-19.3,8.7
	c-0.7,0.4-1.3,1.1-1.4,1.9l0,0c-1.8,0-3.2-1.4-3.3-3.1v-0.1c0.1-1.7,1.4-3,3.1-3h4.7c0.9,0,1.6-0.7,1.6-1.6V25.1h31.3
	c1.7,0,3.1,1.4,3.1,3c0,0.8-0.3,1.6-0.9,2.2s-1.5,1.1-2.4,1.1h-4.6c-0.9,0-1.6,0.7-1.6,1.6v28.2L40.9,61.1L40.9,61.1z M62.1,65h-4.7
	V33h4.5c1.2,0,2.4-0.4,3.3-1.3V62C65.2,63.6,63.8,65,62.1,65z"/>
</svg>
