<?xml version="1.0" encoding="utf-8"?>
<!-- Generator: Adobe Illustrator 24.0.1, SVG Export Plug-In . SVG Version: 6.00 Build 0)  -->
<svg version="1.1" id="Layer_1" xmlns="http://www.w3.org/2000/svg" xmlns:xlink="http://www.w3.org/1999/xlink" x="0px" y="0px"
	 viewBox="0 0 86.6 86.6" style="enable-background:new 0 0 86.6 86.6;" xml:space="preserve">
<style type="text/css">
	.st0{fill:none;}
	.st1{fill:#282828;}
	.st2{fill:#FFFFFF;}
</style>
<line class="st0" x1="49.9" y1="65.1" x2="50" y2="65.1"/>
<path class="st1" d="M37.1,38.6h1.5v1.5h-1.5V38.6z"/>
<path class="st1" d="M30.8,38.6h1.5v1.5h-1.5V38.6z"/>
<path class="st1" d="M47.2,48.8h1.5v1.5h-1.5V48.8z"/>
<path class="st1" d="M53.5,48.8H55v1.5h-1.5V48.8z"/>
<path class="st1" d="M56.6,55.8v-1.5h1.5c0.4,0,0.8-0.4,0.8-0.8v-11c0-0.4-0.4-0.8-0.8-0.8h-3.8l0.6-3c0.1-0.4-0.2-0.9-0.6-0.9
	c-0.1,0-0.1,0-0.1,0h-0.6l0.6-3l-1.5-0.3L52,37.8h-1.9l-0.7-3.3l-1.5,0.3l0.6,3h-0.6c-0.4,0-0.8,0.4-0.8,0.8c0,0.1,0,0.1,0,0.1
	l0.6,3h-3V25.3c0-0.4-0.4-0.8-0.8-0.8H25.3c-0.4,0-0.8,0.4-0.8,0.8v28.2c0,0.4,0.4,0.8,0.8,0.8h2.3v1.5h1.5v-1.5h11v1.5h1.5v-1.5
	h4.7v1.5h1.5v-1.5h7v1.5C55,55.8,56.6,55.8,56.6,55.8z M26.1,26.1h7.8v26.6h-7.8C26.1,52.7,26.1,26.1,26.1,26.1z M43.3,52.7h-7.8
	V26.1h7.8V52.7z M51.9,52.7v-6.2h5.5v6.3L51.9,52.7L51.9,52.7z M50.3,52.7h-5.5v-6.2h5.5C50.3,46.4,50.3,52.7,50.3,52.7z M49,39.4
	h4.4l-0.5,2.3h-3.4L49,39.4z M57.4,43.3v1.5H44.9v-1.5H57.4z"/>
<path class="st2" d="M59,25.3c0-0.4-0.4-0.8-0.8-0.8H48c-0.4,0-0.8,0.4-0.8,0.8v6.3c0,0.4,0.4,0.8,0.8,0.8h10.2
	c0.4,0,0.8-0.4,0.8-0.8C59,31.6,59,25.3,59,25.3z M57.4,30.8h-8.6v-4.7h8.6V30.8z"/>
<path class="st2" d="M62.1,65.3H28.4V59c0-0.4-0.4-0.8-0.8-0.8h-6.2V21.3h40.7V55h1.5V20.6c0-0.4-0.4-0.8-0.8-0.8H20.6
	c-0.4,0-0.8,0.4-0.8,0.8V59c0,0.2,0.1,0.4,0.2,0.6l7,7c0.1,0.1,0.4,0.2,0.6,0.2h35.3c0.4,0,0.8-0.4,0.8-0.8v-3.1h-1.5L62.1,65.3
	L62.1,65.3z M26.8,64.1l-4.3-4.4h4.4L26.8,64.1L26.8,64.1z"/>
<path class="st2" d="M66.8,58.8c-0.1-1.3-1.2-2.3-2.5-2.2l0,0L33,58.2c-0.2,0-0.4,0.1-0.6,0.2L31,60.1c-0.3,0.3-0.2,0.8,0.1,1.1l0,0
	l1.7,1.5c0.1,0.1,0.3,0.2,0.6,0.2c0,0,0,0,0.1,0l31.3-1.6C65.9,61.2,66.9,60.1,66.8,58.8z M32.7,60.6l0.7-0.8l2-0.1l0.1,1.5l-2,0.1
	L32.7,60.6z M65,59.5c-0.1,0.1-0.3,0.2-0.6,0.2L37,61.1v-1.5l27.4-1.4c0.4,0,0.8,0.3,0.8,0.7C65.3,59.2,65.1,59.3,65,59.5L65,59.5z"
	/>
</svg>
