<?xml version="1.0" encoding="utf-8"?>
<!-- Generator: Adobe Illustrator 24.0.1, SVG Export Plug-In . SVG Version: 6.00 Build 0)  -->
<svg version="1.1" id="Layer_1" xmlns="http://www.w3.org/2000/svg" xmlns:xlink="http://www.w3.org/1999/xlink" x="0px" y="0px"
	 viewBox="0 0 86.6 86.6" style="enable-background:new 0 0 86.6 86.6;" xml:space="preserve">
<style type="text/css">
	.st0{fill:#FFFFFF;}
</style>
<path class="st0" d="M69,39.5h5.1c0.5,1.4,1.9,2.5,3.5,2.5c2,0,3.7-1.7,3.7-3.7s-1.7-3.7-3.7-3.7c-1.6,0-2.9,1-3.5,2.5H69v-3.2
	l4.2-4.2h0.9c0.5,1.4,1.9,2.5,3.5,2.5c2,0,3.7-1.7,3.7-3.7s-1.7-3.7-3.7-3.7c-1.6,0-2.9,1-3.5,2.5h-1.5c-0.3,0-0.6,0.1-0.9,0.4
	L69,30.4v-6.8c0-3.4-2.7-6.1-6.1-6.1h-6.8l2.8-2.8c0.2-0.2,0.4-0.5,0.4-0.9v-1.5c1.4-0.5,2.5-1.9,2.5-3.5c0-2-1.7-3.7-3.7-3.7
	s-3.7,1.7-3.7,3.7c0,1.6,1,2.9,2.5,3.5v0.9l-3.3,3.3c-0.2,0.2-0.4,0.5-0.4,0.9h-3.7v-2.7c1.4-0.5,2.5-1.9,2.5-3.5
	c0-2-1.7-3.7-3.7-3.7s-3.7,1.7-3.7,3.7c0,1.6,1,2.9,2.5,3.5v2.7h-7.4v-5.1c1.4-0.5,2.5-1.9,2.5-3.5c0-2-1.7-3.7-3.7-3.7
	s-3.7,1.7-3.7,3.7c0,1.6,1,2.9,2.5,3.5v5.1H34l-4.2-4.2v-0.9c1.4-0.5,2.5-1.9,2.5-3.5c0-2-1.7-3.7-3.7-3.7s-3.7,1.7-3.7,3.7
	c0,1.6,1,2.9,2.5,3.5v1.5c0,0.3,0.1,0.6,0.4,0.9l2.8,2.8h-6.8c-3.4,0-6.1,2.7-6.1,6.1v6.8l-2.8-2.8c-0.2-0.2-0.5-0.4-0.9-0.4h-1.5
	c-0.5-1.4-1.9-2.5-3.5-2.5c-2,0-3.7,1.7-3.7,3.7S7,32.1,9,32.1c1.6,0,2.9-1,3.5-2.5h0.9l4.2,4.2V37h-5.1c-0.5-1.4-1.9-2.5-3.5-2.5
	c-2,0-3.7,1.7-3.7,3.7S7,41.9,9,41.9c1.6,0,2.9-1,3.5-2.5h5.1v7.4h-2.7c-0.5-1.4-1.9-2.5-3.5-2.5c-2,0-3.7,1.7-3.7,3.7
	s1.7,3.7,3.7,3.7c1.6,0,2.9-1,3.5-2.5h2.7V53c-0.3,0-0.6,0.1-0.9,0.4l-3.3,3.3h-0.9c-0.5-1.4-1.9-2.5-3.5-2.5c-2,0-3.7,1.7-3.7,3.7
	S7,61.6,9,61.6c1.6,0,2.9-1,3.5-2.5H14c0.3,0,0.6-0.1,0.9-0.4l2.8-2.8v6.8c0,3.4,2.7,6.1,6.1,6.1h6.1v-2.5h-6.1
	c-2,0-3.7-1.7-3.7-3.7v-39c0-2,1.7-3.7,3.7-3.7H63c2,0,3.7,1.7,3.7,3.7v39.2c0,2-1.7,3.7-3.7,3.7h-6.1V69H63c3.4,0,6.1-2.7,6.1-6.1
	V56l2.8,2.8c0.2,0.2,0.5,0.4,0.9,0.4h1.5c0.5,1.4,1.9,2.5,3.5,2.5c2,0,3.7-1.7,3.7-3.7s-1.7-3.7-3.7-3.7c-1.6,0-2.9,1-3.5,2.5h-0.9
	l-3.3-3.3C69.7,53.1,69.4,53,69,53v-3.7h2.7c0.5,1.4,1.9,2.5,3.5,2.5c2,0,3.7-1.7,3.7-3.7s-1.7-3.7-3.7-3.7c-1.6,0-2.9,1-3.5,2.5H69
	V39.5z M77.6,37.1c0.7,0,1.2,0.5,1.2,1.2s-0.6,1.2-1.2,1.2s-1.2-0.5-1.2-1.2S77,37.1,77.6,37.1z M77.6,27.3c0.7,0,1.2,0.5,1.2,1.2
	s-0.6,1.2-1.2,1.2s-1.2-0.5-1.2-1.2S77,27.3,77.6,27.3z M58,7.7c0.7,0,1.2,0.5,1.2,1.2s-0.6,1.2-1.2,1.2s-1.2-0.5-1.2-1.2
	S57.3,7.7,58,7.7z M48.2,10.1c0.7,0,1.2,0.5,1.2,1.2s-0.6,1.2-1.2,1.2S47,12,47,11.3S47.5,10.1,48.2,10.1z M38.4,7.7
	c0.7,0,1.2,0.5,1.2,1.2s-0.6,1.2-1.2,1.2s-1.2-0.5-1.2-1.2S37.7,7.7,38.4,7.7z M28.6,7.7c0.7,0,1.2,0.5,1.2,1.2s-0.6,1.2-1.2,1.2
	s-1.2-0.5-1.2-1.2S27.9,7.7,28.6,7.7z M9,29.7c-0.7,0-1.2-0.5-1.2-1.2s0.6-1.2,1.2-1.2c0.7,0,1.2,0.5,1.2,1.2S9.6,29.7,9,29.7z
	 M9,39.5c-0.7,0-1.2-0.5-1.2-1.2s0.6-1.2,1.2-1.2c0.7,0,1.2,0.5,1.2,1.2S9.6,39.5,9,39.5z M11.4,49.3c-0.7,0-1.2-0.5-1.2-1.2
	s0.6-1.2,1.2-1.2c0.7,0,1.2,0.5,1.2,1.2S12.1,49.3,11.4,49.3z M9,59.1c-0.7,0-1.2-0.5-1.2-1.2s0.6-1.2,1.2-1.2
	c0.7,0,1.2,0.5,1.2,1.2S9.6,59.1,9,59.1z M77.6,56.7c0.7,0,1.2,0.5,1.2,1.2s-0.6,1.2-1.2,1.2s-1.2-0.5-1.2-1.2S77,56.7,77.6,56.7z
	 M75.2,46.9c0.7,0,1.2,0.5,1.2,1.2s-0.6,1.2-1.2,1.2S74,48.8,74,48.1S74.5,46.9,75.2,46.9z"/>
<path class="st0" d="M51.9,62.1c6.7-3.3,11-10.1,11-17.6c0-10.8-8.8-19.6-19.6-19.6s-19.6,8.8-19.6,19.6c0,7.5,4.3,14.4,11,17.6v2
	h-2.5v2.5h2.5v2.5h-2.5v2.5h2.5v3.7c0,0.7,0.5,1.2,1.2,1.2h1.3c0.6,2.8,3,4.9,6,4.9s5.4-2.1,6-4.9h1.3c0.7,0,1.2-0.5,1.2-1.2v-3.7
	h2.5v-2.5h-2.5v-2.5h2.5V64h-2.5v-1.9H51.9z M36.4,60.2c-5.1-2.2-8.7-6.8-9.9-12h4.7c0.5,1.4,1.9,2.5,3.5,2.5c2,0,3.7-1.7,3.7-3.7
	s-1.7-3.7-3.7-3.7c-1.6,0-2.9,1-3.5,2.5h-5.1c0-0.4,0-0.8,0-1.2c0-0.7,0.1-1.4,0.1-2.1l4-4h3.4c0.5,1.4,1.9,2.5,3.5,2.5
	c2,0,3.7-1.7,3.7-3.7s-1.7-3.7-3.7-3.7c-1.6,0-2.9,1-3.5,2.5h-3.9c-0.3,0-0.6,0.1-0.9,0.4l-1.4,1.4c2.6-6.1,8.7-10.3,15.7-10.3
	s13.3,3.9,15.9,10l-1.4-1.4c-0.2-0.2-0.5-0.4-0.9-0.4h-3.9c-0.5-1.4-1.9-2.5-3.5-2.5c-2,0-3.7,1.7-3.7,3.7s1.7,3.7,3.7,3.7
	c1.6,0,2.9-1,3.5-2.5h3.4l4,4c0.1,0.7,0.1,1.4,0.1,2.1c0,0.4,0,0.8,0,1.2h-5.1c-0.5-1.4-1.9-2.5-3.5-2.5c-2,0-3.7,1.7-3.7,3.7
	s1.7,3.7,3.7,3.7c1.6,0,2.9-1,3.5-2.5h4.7c-1.2,5.3-4.8,9.8-9.9,12c-0.4,0.2-0.7,0.6-0.7,1.1v3h-4.9v-7.6C45.9,56,47,54.6,47,53
	c0-2-1.7-3.7-3.7-3.7S39.6,51,39.6,53c0,1.6,1,2.9,2.5,3.5V64h-4.9v-2.8C37.2,60.8,36.9,60.3,36.4,60.2z M33.5,46.9
	c0-0.7,0.6-1.2,1.2-1.2c0.7,0,1.2,0.5,1.2,1.2s-0.6,1.2-1.2,1.2C34,48.1,33.5,47.6,33.5,46.9z M35.9,37.1c0-0.7,0.6-1.2,1.2-1.2
	c0.7,0,1.2,0.5,1.2,1.2s-0.6,1.2-1.2,1.2S35.9,37.8,35.9,37.1z M50.7,37.1c0,0.7-0.6,1.2-1.2,1.2c-0.7,0-1.2-0.5-1.2-1.2
	s0.6-1.2,1.2-1.2C50.1,35.8,50.7,36.4,50.7,37.1z M53.1,46.9c0,0.7-0.6,1.2-1.2,1.2c-0.7,0-1.2-0.5-1.2-1.2s0.6-1.2,1.2-1.2
	C52.6,45.7,53.1,46.2,53.1,46.9z M42.1,53c0-0.7,0.6-1.2,1.2-1.2s1.2,0.5,1.2,1.2s-0.6,1.2-1.2,1.2S42.1,53.7,42.1,53z M43.3,78.8
	c-1.6,0-2.9-1-3.5-2.5h6.9C46.2,77.7,44.9,78.8,43.3,78.8z M49.4,73.9H37.2v-2.5h12.3L49.4,73.9L49.4,73.9z M49.4,68.9H37.2v-2.5
	h12.3L49.4,68.9L49.4,68.9z"/>
</svg>
