<?xml version="1.0" encoding="utf-8"?>
<!-- Generator: Adobe Illustrator 24.0.1, SVG Export Plug-In . SVG Version: 6.00 Build 0)  -->
<svg version="1.1" id="Layer_1" xmlns="http://www.w3.org/2000/svg" xmlns:xlink="http://www.w3.org/1999/xlink" x="0px" y="0px"
	 viewBox="0 0 86.6 86.6" style="enable-background:new 0 0 86.6 86.6;" xml:space="preserve">
<style type="text/css">
	.st0{fill:#FFFFFF;}
	.st1{fill:#282828;}
</style>
<path class="st0" d="M59.2,40.9h3.1c0.3,0.9,1.2,1.5,2.2,1.5c1.2,0,2.3-1,2.3-2.3c0-1.2-1-2.3-2.3-2.3c-1,0-1.8,0.6-2.2,1.5h-3.1v-2
	l2.6-2.6h0.6c0.3,0.9,1.2,1.5,2.2,1.5c1.2,0,2.3-1,2.3-2.3s-1-2.3-2.3-2.3c-1,0-1.8,0.6-2.2,1.5h-0.9c-0.2,0-0.4,0.1-0.6,0.2
	L59.2,35v-4.2c0-2.1-1.7-3.8-3.8-3.8h-4.2l1.7-1.7c0.1-0.1,0.2-0.3,0.2-0.6v-0.9c0.9-0.3,1.5-1.2,1.5-2.2c0-1.2-1-2.3-2.3-2.3
	c-1.2,0-2.3,1-2.3,2.3c0,1,0.6,1.8,1.5,2.2v0.6l-2,2c-0.1,0.1-0.2,0.3-0.2,0.6H47v-1.7c0.9-0.3,1.5-1.2,1.5-2.2c0-1.2-1-2.3-2.3-2.3
	c-1.2,0-2.3,1-2.3,2.3c0,1,0.6,1.8,1.5,2.2V27h-4.6v-3.1c0.9-0.3,1.5-1.2,1.5-2.2c0-1.2-1-2.3-2.3-2.3c-1.2,0-2.3,1-2.3,2.3
	c0,1,0.6,1.8,1.5,2.2V27h-2L35,24.7v-0.6c0.9-0.3,1.5-1.2,1.5-2.2c0-1.2-1-2.3-2.3-2.3S32,20.8,32,22c0,1,0.6,1.8,1.5,2.2v0.9
	c0,0.2,0.1,0.4,0.2,0.6l1.7,1.7h-4.2c-2.1,0-3.8,1.7-3.8,3.8v4.2l-1.7-1.7c-0.1-0.1-0.3-0.2-0.6-0.2h-0.9C23.9,32.6,23,32,22,32
	c-1.2,0-2.3,1-2.3,2.3c0,1.2,1,2.3,2.3,2.3c1,0,1.8-0.6,2.2-1.5h0.6l2.6,2.6v2h-3.1c-0.3-0.9-1.2-1.5-2.2-1.5c-1.2,0-2.3,1-2.3,2.3
	c0,1.2,1,2.3,2.3,2.3c1,0,1.8-0.6,2.2-1.5h3.1v4.6h-1.7c-0.3-0.9-1.2-1.5-2.2-1.5c-1.2,0-2.3,1-2.3,2.3s1,2.3,2.3,2.3
	c1,0,1.8-0.6,2.2-1.5h1.7v2.3c-0.2,0-0.4,0.1-0.6,0.2l-2,2h-0.6c-0.2-1.3-1-2-2-2c-1.2,0-2.3,1-2.3,2.3c0,1.2,1,2.3,2.3,2.3
	c1,0,1.8-0.6,2.2-1.5h0.9c0.2,0,0.4-0.1,0.6-0.2l1.7-1.7v4.2c0,2.1,1.7,3.8,3.8,3.8h3.8v-1.5h-3.8c-1.2,0-2.3-1-2.3-2.3V31.1
	c0-1.2,1-2.3,2.3-2.3h24.2c1.2,0,2.3,1,2.3,2.3v24.2c0,1.2-1,2.3-2.3,2.3h-3.8v1.5h3.8c2.1,0,3.8-1.7,3.8-3.8V51l1.7,1.7
	c0.1,0.1,0.3,0.2,0.6,0.2h0.9c0.3,0.9,1.2,1.5,2.2,1.5c1.2,0,2.3-1,2.3-2.3c0-1.2-1-2.3-2.3-2.3c-1,0-1.8,0.6-2.2,1.5H62l-2-2
	c-0.2-0.2-0.4-0.3-0.7-0.3v-2H61c0.3,0.9,1.2,1.5,2.2,1.5c1.2,0,2.3-1,2.3-2.3c0-1.2-1-2.3-2.3-2.3c-1,0-1.8,0.6-2.2,1.5h-1.7v-4.5
	H59.2z M64.5,39.5c0.4,0,0.7,0.3,0.7,0.7s-0.4,0.7-0.7,0.7s-0.7-0.3-0.7-0.7S64.1,39.5,64.5,39.5z M64.5,33.4c0.4,0,0.7,0.3,0.7,0.7
	s-0.4,0.7-0.7,0.7s-0.7-0.3-0.7-0.7S64.1,33.4,64.5,33.4z M52.4,21.3c0.4,0,0.7,0.3,0.7,0.7s-0.4,0.7-0.7,0.7
	c-0.4,0-0.7-0.3-0.7-0.7S52,21.3,52.4,21.3z M46.4,22.8c0.4,0,0.7,0.3,0.7,0.7s-0.4,0.7-0.7,0.7s-0.7-0.3-0.7-0.7
	S45.9,22.8,46.4,22.8z M40.3,21.3c0.4,0,0.7,0.3,0.7,0.7s-0.4,0.7-0.7,0.7s-0.7-0.3-0.7-0.7S39.9,21.3,40.3,21.3z M34.3,21.3
	c0.4,0,0.7,0.3,0.7,0.7s-0.4,0.7-0.7,0.7c-0.4,0-0.7-0.3-0.7-0.7S33.8,21.3,34.3,21.3z M22.2,34.9c-0.4,0-0.7-0.3-0.7-0.7
	s0.4-0.7,0.7-0.7c0.4,0,0.7,0.3,0.7,0.7S22.6,34.9,22.2,34.9z M22.2,40.9c-0.4,0-0.7-0.3-0.7-0.7s0.4-0.7,0.7-0.7
	c0.4,0,0.7,0.3,0.7,0.7S22.6,40.9,22.2,40.9z M23.7,47c-0.4,0-0.7-0.3-0.7-0.7s0.4-0.7,0.7-0.7c0.4,0,0.7,0.3,0.7,0.7
	S24.1,47,23.7,47z M22.2,53c-0.4,0-0.7-0.3-0.7-0.7s0.4-0.7,0.7-0.7c0.4,0,0.7,0.3,0.7,0.7C22.9,52.7,22.6,53,22.2,53z M64.5,51.5
	c0.4,0,0.7,0.3,0.7,0.7S64.9,53,64.5,53s-0.7-0.3-0.7-0.7S64.1,51.5,64.5,51.5z M63,45.5c0.4,0,0.7,0.3,0.7,0.7S63.4,47,63,47
	s-0.7-0.3-0.7-0.7S62.6,45.5,63,45.5z"/>
<path class="st1" d="M48.6,54.9c4.1-2,6.8-6.2,6.8-10.9c0-6.7-5.4-12.1-12.1-12.1S31.2,37.4,31.2,44c0,4.6,2.7,8.9,6.8,10.9v1.2
	h-1.5v1.5H38v1.5h-1.5v1.5H38V63c0,0.4,0.3,0.7,0.7,0.7h0.8c0.4,1.7,1.9,3,3.7,3c1.9,0,3.3-1.3,3.7-3h0.8c0.4,0,0.7-0.3,0.7-0.7
	v-2.3h1.5v-1.5h-1.5v-1.5h1.5V56h-1.5v-1.2h0.2V54.9z M39.1,53.7c-3.1-1.4-5.4-4.2-6.1-7.4h2.9c0.3,0.9,1.2,1.5,2.2,1.5
	c1.2,0,2.3-1,2.3-2.3c0-1.2-1-2.3-2.3-2.3c-1,0-1.8,0.6-2.2,1.5h-3.1c0-0.2,0-0.5,0-0.7c0-0.4,0.1-0.9,0.1-1.3l2.5-2.5h2.1
	c0.3,0.9,1.2,1.5,2.2,1.5c1.2,0,2.3-1,2.3-2.3c0-1.2-1-2.3-2.3-2.3c-1,0-1.8,0.6-2.2,1.5h-2.4c-0.2,0-0.4,0.1-0.6,0.2l-1,1.2
	c1.6-3.8,5.4-6.4,9.7-6.4s8.2,2.4,9.8,6.2l-0.9-0.9c-0.1-0.1-0.3-0.2-0.6-0.2h-2.4c-0.3-0.9-1.2-1.5-2.2-1.5c-1.2,0-2.3,1-2.3,2.3
	c0,1.2,1,2.3,2.3,2.3c1,0,1.8-0.6,2.2-1.5h2.1l2.5,2.5c0.1,0.4,0.1,0.9,0.1,1.3c0,0.2,0,0.5,0,0.7h-3.1c-0.3-0.9-1.2-1.5-2.2-1.5
	c-1.2,0-2.3,1-2.3,2.3s1,2.3,2.3,2.3c1,0,1.8-0.6,2.2-1.5h2.9c-0.7,3.3-3,6-6.1,7.4c-0.2,0.1-0.4,0.4-0.4,0.7V56h-3v-4.7
	c0.9-0.2,1.6-1.1,1.6-2.1c0-1.2-1-2.3-2.3-2.3c-1.2,0-2.3,1-2.3,2.3c0,1,0.6,1.8,1.5,2.2V56h-3v-1.7C39.6,54.1,39.4,53.8,39.1,53.7z
	 M37.3,45.5c0-0.4,0.4-0.7,0.7-0.7c0.4,0,0.7,0.3,0.7,0.7s-0.4,0.7-0.7,0.7C37.6,46.2,37.3,45.9,37.3,45.5z M38.8,39.5
	c0-0.4,0.4-0.7,0.7-0.7c0.4,0,0.7,0.3,0.7,0.7s-0.4,0.7-0.7,0.7S38.8,39.9,38.8,39.5z M47.9,39.5c0,0.4-0.4,0.7-0.7,0.7
	c-0.4,0-0.7-0.3-0.7-0.7s0.4-0.7,0.7-0.7C47.5,38.7,47.9,39,47.9,39.5z M49.4,45.5c0,0.4-0.4,0.7-0.7,0.7c-0.4,0-0.7-0.3-0.7-0.7
	s0.4-0.7,0.7-0.7C49.1,44.8,49.4,45.1,49.4,45.5z M42.6,49.3c0-0.4,0.4-0.7,0.7-0.7s0.7,0.3,0.7,0.7S43.7,50,43.3,50
	S42.6,49.7,42.6,49.3z M43.3,65.2c-1,0-1.8-0.6-2.2-1.5h4.3C45.1,64.5,44.3,65.2,43.3,65.2z M47.1,62.2h-7.5v-1.5h7.6L47.1,62.2
	L47.1,62.2z M47.1,59.1h-7.5v-1.5h7.6L47.1,59.1L47.1,59.1z"/>
</svg>
